<svg width="1186" height="278" viewBox="0 0 1186 278" fill="none" xmlns="http://www.w3.org/2000/svg">
<path d="M0 302.067V254.427C63.964 269.672 109.568 294.127 124.374 304.449L75.5131 333.034C64.8524 327.317 20.7291 310.008 0 302.067Z" fill="#F5F4EF"/>
<path d="M0 240.135V199.641C110.16 214.886 191.004 248.869 217.655 263.955L137.7 294.922C102.165 272.054 31.0936 248.869 0 240.135Z" fill="#F5F4EF"/>
<path d="M404.217 213.933C329.592 225.366 263.555 247.281 239.865 256.809C161.687 222.508 47.3807 194.876 0 185.348V152C191.892 155.811 349.433 194.876 404.217 213.933Z" fill="#F5F4EF"/>
<path d="M1186 275.865V259.191C635.197 245.851 390.89 366.382 337.587 428.314H666.291C726.701 338.75 1037.93 289.363 1186 275.865Z" fill="#F5F4EF"/>
<path d="M1186 249.664V221.079C368.683 120.082 57.7467 317.154 4.44336 428.315H315.38C411.326 270.149 935.771 243.312 1186 249.664Z" fill="#F5F4EF"/>
<path d="M936.6 147.4L936.6 199" stroke="#F5F4EF"/>
<path d="M947.208 156.619C941.388 157.025 936.792 161.876 936.792 167.8L936.792 172.981C942.612 172.575 947.208 167.724 947.208 161.8L947.208 156.619Z" fill="#F5F4EF" stroke="#F5F4EF" stroke-width="1.58333"/>
<path d="M947.208 131.419C941.388 131.825 936.792 136.676 936.792 142.6L936.792 147.781C942.612 147.375 947.208 142.524 947.208 136.6L947.208 131.419Z" fill="#F5F4EF" stroke="#F5F4EF" stroke-width="1.58333"/>
<path d="M947.208 181.819C941.388 182.225 936.792 187.076 936.792 193L936.792 198.181C942.612 197.775 947.208 192.924 947.208 187L947.208 181.819Z" fill="#F5F4EF" stroke="#F5F4EF" stroke-width="1.58333"/>
<path d="M924.792 156.617C931.276 157.025 936.408 162.413 936.408 169L936.408 172.984C929.924 172.575 924.792 167.187 924.792 160.6L924.792 156.617Z" fill="#F5F4EF" stroke="#F5F4EF" stroke-width="1.58333"/>
<path d="M924.792 131.417C931.276 131.825 936.408 137.213 936.408 143.8L936.408 147.784C929.924 147.375 924.792 141.987 924.792 135.4L924.792 131.417Z" fill="#F5F4EF" stroke="#F5F4EF" stroke-width="1.58333"/>
<path d="M924.792 181.817C931.276 182.225 936.408 187.613 936.408 194.2L936.408 198.184C929.924 197.775 924.792 192.387 924.792 185.8L924.792 181.817Z" fill="#F5F4EF" stroke="#F5F4EF" stroke-width="1.58333"/>
<path d="M964.5 157L964.5 200" stroke="#F5F4EF"/>
<path d="M973.208 164.825C968.493 165.227 964.792 169.181 964.792 174L964.792 178.175C969.507 177.773 973.208 173.819 973.208 169L973.208 164.825Z" fill="#F5F4EF" stroke="#F5F4EF" stroke-width="1.58333"/>
<path d="M973.208 143.825C968.493 144.227 964.792 148.181 964.792 153L964.792 157.175C969.507 156.773 973.208 152.819 973.208 148L973.208 143.825Z" fill="#F5F4EF" stroke="#F5F4EF" stroke-width="1.58333"/>
<path d="M973.208 185.825C968.493 186.227 964.792 190.181 964.792 195L964.792 199.175C969.507 198.773 973.208 194.819 973.208 190L973.208 185.825Z" fill="#F5F4EF" stroke="#F5F4EF" stroke-width="1.58333"/>
<path d="M954.792 164.822C960.06 165.226 964.208 169.628 964.208 175L964.208 178.178C958.94 177.774 954.792 173.372 954.792 168L954.792 164.822Z" fill="#F5F4EF" stroke="#F5F4EF" stroke-width="1.58333"/>
<path d="M954.792 143.822C960.06 144.226 964.208 148.628 964.208 154L964.208 157.178C958.94 156.774 954.792 152.372 954.792 147L954.792 143.822Z" fill="#F5F4EF" stroke="#F5F4EF" stroke-width="1.58333"/>
<path d="M954.792 185.822C960.06 186.226 964.208 190.628 964.208 196L964.208 199.178C958.94 198.774 954.792 194.372 954.792 189L954.792 185.822Z" fill="#F5F4EF" stroke="#F5F4EF" stroke-width="1.58333"/>
<path d="M990.474 167.298L990.474 202" stroke="#F5F4EF"/>
<path d="M997.349 173.781C993.702 174.176 990.862 177.265 990.862 181.017L990.862 184.218C994.51 183.824 997.349 180.735 997.349 176.982L997.349 173.781Z" fill="#F5F4EF" stroke="#F5F4EF" stroke-width="1.58333"/>
<path d="M997.349 156.834C993.702 157.229 990.862 160.318 990.862 164.07L990.862 167.271C994.51 166.876 997.349 163.787 997.349 160.035L997.349 156.834Z" fill="#F5F4EF" stroke="#F5F4EF" stroke-width="1.58333"/>
<path d="M997.349 190.729C993.702 191.123 990.862 194.213 990.862 197.965L990.862 201.166C994.51 200.771 997.349 197.682 997.349 193.93L997.349 190.729Z" fill="#F5F4EF" stroke="#F5F4EF" stroke-width="1.58333"/>
<path d="M982.792 173.777C986.886 174.175 990.086 177.626 990.086 181.824L990.086 184.222C985.992 183.825 982.792 180.374 982.792 176.175L982.792 173.777Z" fill="#F5F4EF" stroke="#F5F4EF" stroke-width="1.58333"/>
<path d="M982.792 156.83C986.886 157.228 990.086 160.679 990.086 164.877L990.086 167.275C985.992 166.877 982.792 163.426 982.792 159.228L982.792 156.83Z" fill="#F5F4EF" stroke="#F5F4EF" stroke-width="1.58333"/>
<path d="M982.792 190.725C986.886 191.122 990.086 194.573 990.086 198.772L990.086 201.17C985.992 200.772 982.792 197.321 982.792 193.123L982.792 190.725Z" fill="#F5F4EF" stroke="#F5F4EF" stroke-width="1.58333"/>
<path d="M1074.93 64.1633C1074.93 82.3511 1060.19 97.0946 1042 97.0946C1023.81 97.0946 1009.07 82.3514 1009.07 64.1633C1009.07 45.9753 1023.81 31.2321 1042 31.2321C1060.19 31.2321 1074.93 45.9753 1074.93 64.1633Z" fill="#F5F4EF"/>
<path d="M1042 27.4993C1043.78 27.4993 1045.22 26.0548 1045.22 24.2741L1045.22 3.22521C1045.22 1.44454 1043.78 0 1042 0C1040.22 0 1038.77 1.44454 1038.77 3.22521V24.2741C1038.77 26.0548 1040.22 27.4993 1042 27.4993H1042Z" fill="#F5F4EF"/>
<path d="M987.615 36.487L1005.84 47.0102C1007.39 47.9016 1009.36 47.3733 1010.25 45.8309C1011.14 44.2885 1010.61 42.3144 1009.07 41.4252L990.842 30.902C989.298 30.0106 987.325 30.5389 986.436 32.0813C985.545 33.6248 986.073 35.5954 987.615 36.487Z" fill="#F5F4EF"/>
<path d="M1042 100.827C1040.22 100.828 1038.78 102.272 1038.78 104.052V125.101C1038.78 126.882 1040.22 128.328 1042 128.328C1043.78 128.328 1045.23 126.883 1045.23 125.101V104.052C1045.23 102.272 1043.78 100.827 1042 100.827Z" fill="#F5F4EF"/>
<path d="M1096.39 91.8393L1078.16 81.3162C1076.65 80.4438 1074.72 80.9339 1073.81 82.4043C1073.79 82.4347 1073.77 82.465 1073.75 82.4976C1073.73 82.5314 1073.72 82.5617 1073.7 82.5954C1072.89 84.122 1073.42 86.031 1074.93 86.9033L1093.16 97.4287C1094.71 98.3179 1096.68 97.7918 1097.57 96.2472C1098.46 94.7015 1097.93 92.7308 1096.39 91.8395L1096.39 91.8393Z" fill="#F5F4EF"/>
<path d="M1020.78 31.6378C1021.37 32.6485 1022.66 32.9947 1023.67 32.4113C1024.68 31.8278 1025.02 30.5351 1024.44 29.5245L1017.55 17.5837C1016.96 16.5731 1015.67 16.228 1014.66 16.8114C1013.65 17.3948 1013.3 18.6876 1013.89 19.6982L1020.78 31.6378Z" fill="#F5F4EF"/>
<path d="M989.437 62.0508C988.269 62.0508 987.325 62.9973 987.325 64.1631C987.325 65.3299 988.269 66.2754 989.437 66.2754H1003.22C1004.39 66.2754 1005.34 65.3299 1005.34 64.1631C1005.34 62.9962 1004.39 62.0508 1003.23 62.0508H989.437Z" fill="#F5F4EF"/>
<path d="M1010.25 82.4951C1010.23 82.4625 1010.21 82.4321 1010.19 82.4018C1009.27 80.9325 1007.35 80.4423 1005.84 81.3136L987.614 91.8367C986.071 92.7282 985.541 94.6989 986.434 96.2413C987.323 97.7848 989.296 98.312 990.84 97.4228L1009.07 86.8973C1010.58 86.025 1011.12 84.1162 1010.3 82.5883C1010.28 82.558 1010.27 82.5276 1010.25 82.495L1010.25 82.4951Z" fill="#F5F4EF"/>
<path d="M1023.67 95.9174C1022.66 95.3339 1021.37 95.6802 1020.78 96.6897L1013.89 108.628C1013.31 109.639 1013.65 110.932 1014.66 111.515C1015.67 112.098 1016.96 111.752 1017.55 110.743L1024.44 98.8018C1025.03 97.7912 1024.68 96.4995 1023.67 95.9174H1023.67Z" fill="#F5F4EF"/>
<path d="M1063.22 96.6888C1062.64 95.6782 1061.34 95.332 1060.33 95.9165C1059.32 96.4988 1058.98 97.7905 1059.56 98.801L1066.45 110.742C1067.04 111.752 1068.33 112.099 1069.34 111.514C1070.35 110.931 1070.7 109.638 1070.11 108.627L1063.22 96.6888Z" fill="#F5F4EF"/>
<path d="M1094.56 62.0508H1080.78C1079.61 62.0508 1078.66 62.9973 1078.66 64.1631C1078.66 65.3299 1079.61 66.2754 1080.78 66.2754H1094.56C1095.73 66.2754 1096.68 65.3288 1096.68 64.1631C1096.68 62.9962 1095.73 62.0508 1094.56 62.0508Z" fill="#F5F4EF"/>
<path d="M1073.81 45.9231C1074.72 47.3947 1076.65 47.8848 1078.16 47.0113L1096.39 36.4882C1097.93 35.5967 1098.46 33.626 1097.57 32.0836C1096.67 30.5412 1094.7 30.0129 1093.16 30.9043L1074.93 41.4275C1073.39 42.3167 1072.86 44.2919 1073.75 45.8332C1073.77 45.8613 1073.79 45.8939 1073.81 45.9231H1073.81Z" fill="#F5F4EF"/>
<path d="M1060.33 32.4091C1061.34 32.9925 1062.64 32.6463 1063.22 31.6356L1070.11 19.6948C1070.7 18.6842 1070.35 17.3914 1069.34 16.8081C1068.33 16.2246 1067.04 16.5709 1066.45 17.5815L1059.56 29.5223C1058.98 30.5351 1059.32 31.8257 1060.33 32.4091Z" fill="#F5F4EF"/>
</svg>
