<svg width="335" height="173" viewBox="0 0 335 173" fill="none" xmlns="http://www.w3.org/2000/svg">
<path d="M225.003 245.288C231.142 213.463 300.891 185.388 334.999 175.328V167.097C187.655 167.097 86.0152 219.225 53.6133 245.288H225.003Z" fill="#F5F4EF"/>
<path d="M334.999 158.867V149.264C17.8004 141.582 -122.892 210.994 -153.589 246.66H35.7068C70.4962 195.081 249.73 166.64 334.999 158.867Z" fill="#F5F4EF"/>
<path d="M335 143.778V127.316C-135.681 69.1533 -314.745 182.644 -345.441 246.66H-166.378C-111.124 155.575 190.896 140.12 335 143.778Z" fill="#F5F4EF"/>
<path d="M191.375 84.8854L191.375 114.601" stroke="#F5F4EF"/>
<path d="M197.148 90.5652C194.142 90.9535 191.821 93.5223 191.821 96.6335L191.821 99.2464C194.826 98.8581 197.148 96.2893 197.148 93.1782L197.148 90.5652Z" fill="#F5F4EF" stroke="#F5F4EF" stroke-width="1.58333"/>
<path d="M197.148 76.0529C194.142 76.4412 191.821 79.01 191.821 82.1211L191.821 84.734C194.826 84.3458 197.148 81.777 197.148 78.6658L197.148 76.0529Z" fill="#F5F4EF" stroke="#F5F4EF" stroke-width="1.58333"/>
<path d="M197.148 105.078C194.142 105.466 191.821 108.035 191.821 111.146L191.821 113.759C194.826 113.37 197.148 110.802 197.148 107.69L197.148 105.078Z" fill="#F5F4EF" stroke="#F5F4EF" stroke-width="1.58333"/>
<path d="M184.91 90.56C188.298 90.9522 190.928 93.8312 190.928 97.3245L190.928 99.2515C187.54 98.8593 184.91 95.9803 184.91 92.487L184.91 90.56Z" fill="#F5F4EF" stroke="#F5F4EF" stroke-width="1.58333"/>
<path d="M184.91 76.0477C188.298 76.4399 190.928 79.3189 190.928 82.8122L190.928 84.7392C187.54 84.347 184.91 81.468 184.91 77.9748L184.91 76.0477Z" fill="#F5F4EF" stroke="#F5F4EF" stroke-width="1.58333"/>
<path d="M184.91 105.072C188.298 105.465 190.928 108.344 190.928 111.837L190.928 113.764C187.54 113.372 184.91 110.493 184.91 106.999L184.91 105.072Z" fill="#F5F4EF" stroke="#F5F4EF" stroke-width="1.58333"/>
<path d="M207.439 90.414L207.439 115.177" stroke="#F5F4EF"/>
<path d="M212.119 95.2996C209.752 95.6787 207.944 97.7302 207.944 100.204L207.944 102.229C210.311 101.85 212.119 99.7985 212.119 97.3246L212.119 95.2996Z" fill="#F5F4EF" stroke="#F5F4EF" stroke-width="1.58333"/>
<path d="M212.119 83.206C209.752 83.5851 207.944 85.6366 207.944 88.1105L207.944 90.1355C210.311 89.7564 212.119 87.7049 212.119 85.231L212.119 83.206Z" fill="#F5F4EF" stroke="#F5F4EF" stroke-width="1.58333"/>
<path d="M212.119 107.393C209.752 107.772 207.944 109.824 207.944 112.298L207.944 114.323C210.311 113.944 212.119 111.892 212.119 109.418L212.119 107.393Z" fill="#F5F4EF" stroke="#F5F4EF" stroke-width="1.58333"/>
<path d="M202.185 95.293C204.872 95.6771 206.937 97.9874 206.937 100.78L206.937 102.236C204.25 101.852 202.185 99.5413 202.185 96.7487L202.185 95.293Z" fill="#F5F4EF" stroke="#F5F4EF" stroke-width="1.58333"/>
<path d="M202.185 83.1994C204.872 83.5835 206.937 85.8938 206.937 88.6864L206.937 90.1421C204.25 89.758 202.185 87.4477 202.185 84.6552L202.185 83.1994Z" fill="#F5F4EF" stroke="#F5F4EF" stroke-width="1.58333"/>
<path d="M202.185 107.387C204.872 107.771 206.937 110.081 206.937 112.874L206.937 114.329C204.25 113.945 202.185 111.635 202.185 108.842L202.185 107.387Z" fill="#F5F4EF" stroke="#F5F4EF" stroke-width="1.58333"/>
<path d="M222.4 96.3445L222.4 116.329" stroke="#F5F4EF"/>
<path d="M226.023 100.471C224.273 100.836 222.959 102.387 222.959 104.245L222.959 105.696C224.708 105.331 226.023 103.78 226.023 101.921L226.023 100.471Z" fill="#F5F4EF" stroke="#F5F4EF" stroke-width="1.58333"/>
<path d="M226.023 90.711C224.273 91.0761 222.959 92.6273 222.959 94.4854L222.959 95.9362C224.708 95.571 226.023 94.0199 226.023 92.1617L226.023 90.711Z" fill="#F5F4EF" stroke="#F5F4EF" stroke-width="1.58333"/>
<path d="M226.023 110.23C224.273 110.596 222.959 112.147 222.959 114.005L222.959 115.456C224.708 115.091 226.023 113.539 226.023 111.681L226.023 110.23Z" fill="#F5F4EF" stroke="#F5F4EF" stroke-width="1.58333"/>
<path d="M218.312 100.462C220.32 100.834 221.841 102.594 221.841 104.71L221.841 105.705C219.833 105.333 218.312 103.572 218.312 101.457L218.312 100.462Z" fill="#F5F4EF" stroke="#F5F4EF" stroke-width="1.58333"/>
<path d="M218.312 90.702C220.32 91.0738 221.841 92.8344 221.841 94.9502L221.841 95.9452C219.833 95.5733 218.312 93.8127 218.312 91.6969L218.312 90.702Z" fill="#F5F4EF" stroke="#F5F4EF" stroke-width="1.58333"/>
<path d="M218.312 110.221C220.32 110.593 221.841 112.354 221.841 114.47L221.841 115.465C219.833 115.093 218.312 113.332 218.312 111.216L218.312 110.221Z" fill="#F5F4EF" stroke="#F5F4EF" stroke-width="1.58333"/>
<path d="M271.035 36.9506C271.035 47.4247 262.544 55.9153 252.07 55.9153C241.596 55.9153 233.105 47.4249 233.105 36.9506C233.105 26.4764 241.597 17.986 252.07 17.986C262.543 17.986 271.035 26.4764 271.035 36.9506Z" fill="#F5F4EF"/>
<path d="M252.07 15.8365C253.095 15.8365 253.927 15.0046 253.927 13.9791L253.927 1.85735C253.927 0.831888 253.095 0 252.069 0C251.044 0 250.212 0.831888 250.212 1.85735V13.9791C250.213 15.0046 251.044 15.8365 252.07 15.8365H252.07Z" fill="#F5F4EF"/>
<path d="M220.752 21.0123L231.249 27.0725C232.137 27.5858 233.274 27.2816 233.786 26.3933C234.299 25.5051 233.995 24.3683 233.107 23.8562L222.61 17.796C221.721 17.2826 220.585 17.5869 220.073 18.4751C219.559 19.364 219.864 20.4989 220.752 21.0123Z" fill="#F5F4EF"/>
<path d="M252.071 58.0648C251.046 58.0655 250.214 58.8967 250.214 59.9222V72.0439C250.214 73.0694 251.046 73.9019 252.071 73.9019C253.097 73.9019 253.929 73.07 253.929 72.0439V59.9222C253.929 58.8967 253.097 58.0648 252.071 58.0648Z" fill="#F5F4EF"/>
<path d="M283.392 52.8888L272.894 46.8287C272.024 46.3263 270.917 46.6086 270.39 47.4554C270.379 47.4728 270.368 47.4903 270.357 47.5091C270.346 47.5285 270.337 47.546 270.327 47.5654C269.858 48.4446 270.167 49.5439 271.037 50.0463L281.536 56.1077C282.424 56.6198 283.56 56.3168 284.072 55.4273C284.584 54.5371 284.28 53.4022 283.392 52.889L283.392 52.8888Z" fill="#F5F4EF"/>
<path d="M239.851 18.2198C240.187 18.8018 240.931 19.0012 241.513 18.6652C242.095 18.3292 242.294 17.5847 241.958 17.0027L237.988 10.1262C237.652 9.5442 236.908 9.34545 236.326 9.68144C235.744 10.0174 235.545 10.7619 235.881 11.3439L239.851 18.2198Z" fill="#F5F4EF"/>
<path d="M221.8 35.7341C221.128 35.7341 220.584 36.2792 220.584 36.9506C220.584 37.6226 221.128 38.167 221.8 38.167H229.739C230.413 38.167 230.957 37.6225 230.957 36.9506C230.957 36.2786 230.412 35.7341 229.741 35.7341H221.8Z" fill="#F5F4EF"/>
<path d="M233.784 47.5077C233.774 47.4889 233.763 47.4714 233.752 47.454C233.225 46.6078 232.117 46.3256 231.247 46.8273L220.75 52.8874C219.862 53.4008 219.557 54.5357 220.071 55.424C220.583 56.3128 221.72 56.6164 222.609 56.1044L233.105 50.0429C233.976 49.5405 234.285 48.4413 233.816 47.5614C233.805 47.5439 233.796 47.5265 233.784 47.5077L233.784 47.5077Z" fill="#F5F4EF"/>
<path d="M241.514 55.2374C240.932 54.9014 240.188 55.1008 239.851 55.6821L235.881 62.5573C235.545 63.1393 235.744 63.8838 236.326 64.2198C236.908 64.5558 237.653 64.3564 237.987 63.775L241.958 56.8985C242.295 56.3165 242.095 55.5727 241.514 55.2374H241.514Z" fill="#F5F4EF"/>
<path d="M264.292 55.6817C263.956 55.0997 263.212 54.9003 262.63 55.237C262.048 55.5723 261.849 56.3162 262.185 56.8981L266.155 63.7746C266.491 64.3566 267.234 64.556 267.817 64.2194C268.398 63.8834 268.599 63.1389 268.262 62.5569L264.292 55.6817Z" fill="#F5F4EF"/>
<path d="M282.342 35.7341H274.402C273.73 35.7341 273.185 36.2792 273.185 36.9506C273.185 37.6226 273.73 38.167 274.402 38.167H282.342C283.014 38.167 283.56 37.6219 283.56 36.9506C283.56 36.2786 283.014 35.7341 282.342 35.7341Z" fill="#F5F4EF"/>
<path d="M270.389 26.4465C270.916 27.294 272.024 27.5762 272.894 27.0732L283.391 21.0131C284.279 20.4997 284.583 19.3648 284.07 18.4765C283.557 17.5883 282.422 17.2841 281.534 17.7974L271.035 23.8576C270.147 24.3696 269.843 25.5071 270.356 26.3947C270.367 26.4109 270.378 26.4297 270.389 26.4465H270.389Z" fill="#F5F4EF"/>
<path d="M262.63 18.6639C263.212 18.9999 263.956 18.8005 264.292 18.2185L268.262 11.342C268.598 10.76 268.398 10.0155 267.817 9.67957C267.234 9.34358 266.491 9.54297 266.155 10.125L262.185 17.0015C261.849 17.5848 262.048 18.328 262.63 18.6639Z" fill="#F5F4EF"/>
</svg>
