<?xml version="1.0" standalone="no"?>
<!DOCTYPE svg PUBLIC "-//W3C//DTD SVG 20010904//EN"
 "http://www.w3.org/TR/2001/REC-SVG-20010904/DTD/svg10.dtd">
<svg version="1.0" xmlns="http://www.w3.org/2000/svg"
 width="501.000000pt" height="501.000000pt" viewBox="0 0 501.000000 501.000000"
 preserveAspectRatio="xMidYMid meet">
<metadata>
Created by potrace 1.14, written by Peter Selinger 2001-2017
</metadata>
<g transform="translate(0.000000,501.000000) scale(0.100000,-0.100000)"
fill="#000000" stroke="none">
<path d="M2308 4075 c-2 -2 -46 -6 -98 -9 -89 -6 -134 -10 -205 -20 -108 -15
-132 -19 -150 -22 -11 -2 -45 -8 -75 -14 -30 -6 -66 -12 -80 -15 -35 -6 -97
-22 -235 -62 -710 -202 -1236 -622 -1373 -1098 -29 -100 -33 -127 -37 -250 -3
-97 4 -163 29 -278 11 -47 66 -178 103 -246 166 -296 516 -578 928 -750 44
-18 89 -37 100 -42 139 -57 488 -150 657 -174 23 -3 50 -8 58 -10 8 -2 44 -7
80 -10 36 -4 73 -9 83 -11 47 -9 251 -18 412 -18 258 0 381 10 638 49 15 2 47
7 70 10 23 4 44 8 48 10 3 2 21 7 40 10 69 12 238 58 359 97 598 194 1049 544
1220 948 79 184 103 406 64 582 -2 10 -6 28 -9 40 -2 12 -12 44 -21 72 -160
485 -696 892 -1434 1090 -102 27 -313 71 -395 82 -27 3 -59 8 -70 10 -11 2
-49 7 -85 10 -36 3 -81 8 -100 10 -42 5 -518 13 -522 9z"/>
</g>
</svg>
