<svg width="646" height="320" viewBox="0 0 646 320" fill="none" xmlns="http://www.w3.org/2000/svg">
<mask id="mask0_1268_24513" style="mask-type:alpha" maskUnits="userSpaceOnUse" x="5" y="25" width="204" height="224">
<path d="M170.045 249V206.44H208.125V172.2H170.045V25H138.045L5.885 181.48V206.44H132.605V249H170.045ZM132.605 86.12V172.2H57.085L132.605 86.12Z" fill="white"/>
</mask>
<g mask="url(#mask0_1268_24513)">
<line x1="37.2272" y1="-46.1919" x2="-74.2714" y2="260.148" stroke="#D7D4C8"/>
<line x1="42.8654" y1="-44.1397" x2="-68.6332" y2="262.2" stroke="#D7D4C8"/>
<line x1="48.5035" y1="-42.0876" x2="-62.995" y2="264.252" stroke="#D7D4C8"/>
<line x1="54.1417" y1="-40.0355" x2="-57.3569" y2="266.304" stroke="#D7D4C8"/>
<line x1="59.7799" y1="-37.9833" x2="-51.7187" y2="268.356" stroke="#D7D4C8"/>
<line x1="65.4181" y1="-35.9312" x2="-46.0805" y2="270.409" stroke="#D7D4C8"/>
<line x1="71.0562" y1="-33.8791" x2="-40.4424" y2="272.461" stroke="#D7D4C8"/>
<line x1="76.6943" y1="-31.827" x2="-34.8042" y2="274.513" stroke="#D7D4C8"/>
<line x1="82.3325" y1="-29.7749" x2="-29.1661" y2="276.565" stroke="#D7D4C8"/>
<line x1="87.9707" y1="-27.7227" x2="-23.5279" y2="278.617" stroke="#D7D4C8"/>
<line x1="93.6089" y1="-25.6706" x2="-17.8897" y2="280.669" stroke="#D7D4C8"/>
<line x1="99.2471" y1="-23.6185" x2="-12.2515" y2="282.721" stroke="#D7D4C8"/>
<line x1="104.885" y1="-21.5663" x2="-6.61333" y2="284.773" stroke="#D7D4C8"/>
<line x1="110.523" y1="-19.5142" x2="-0.975145" y2="286.826" stroke="#D7D4C8"/>
<line x1="116.162" y1="-17.4621" x2="4.66304" y2="288.878" stroke="#D7D4C8"/>
<line x1="121.8" y1="-15.41" x2="10.3011" y2="290.93" stroke="#D7D4C8"/>
<line x1="127.438" y1="-13.3578" x2="15.9393" y2="292.982" stroke="#D7D4C8"/>
<line x1="133.076" y1="-11.3057" x2="21.5775" y2="295.034" stroke="#D7D4C8"/>
<line x1="138.714" y1="-9.25358" x2="27.2157" y2="297.086" stroke="#D7D4C8"/>
<line x1="144.352" y1="-7.20146" x2="32.8538" y2="299.138" stroke="#D7D4C8"/>
<line x1="149.991" y1="-5.14933" x2="38.492" y2="301.19" stroke="#D7D4C8"/>
<line x1="155.629" y1="-3.09721" x2="44.1302" y2="303.243" stroke="#D7D4C8"/>
<line x1="161.267" y1="-1.04508" x2="49.7684" y2="305.295" stroke="#D7D4C8"/>
<line x1="166.905" y1="1.00704" x2="55.4064" y2="307.347" stroke="#D7D4C8"/>
<line x1="172.543" y1="3.05916" x2="61.0446" y2="309.399" stroke="#D7D4C8"/>
<line x1="178.181" y1="5.11129" x2="66.6828" y2="311.451" stroke="#D7D4C8"/>
<line x1="183.82" y1="7.16343" x2="72.321" y2="313.503" stroke="#D7D4C8"/>
<line x1="189.458" y1="9.21555" x2="77.9592" y2="315.555" stroke="#D7D4C8"/>
<line x1="195.096" y1="11.2677" x2="83.5974" y2="317.607" stroke="#D7D4C8"/>
<line x1="200.734" y1="13.3198" x2="89.2355" y2="319.66" stroke="#D7D4C8"/>
<line x1="206.372" y1="15.3719" x2="94.8737" y2="321.712" stroke="#D7D4C8"/>
<line x1="212.01" y1="17.424" x2="100.512" y2="323.764" stroke="#D7D4C8"/>
<line x1="217.649" y1="19.4762" x2="106.15" y2="325.816" stroke="#D7D4C8"/>
<line x1="223.287" y1="21.5283" x2="111.788" y2="327.868" stroke="#D7D4C8"/>
<line x1="228.925" y1="23.5804" x2="117.426" y2="329.92" stroke="#D7D4C8"/>
<line x1="234.563" y1="25.6326" x2="123.065" y2="331.972" stroke="#D7D4C8"/>
<line x1="240.201" y1="27.6847" x2="128.703" y2="334.024" stroke="#D7D4C8"/>
<line x1="245.839" y1="29.7368" x2="134.341" y2="336.077" stroke="#D7D4C8"/>
<line x1="251.478" y1="31.7889" x2="139.979" y2="338.129" stroke="#D7D4C8"/>
<line x1="257.116" y1="33.8411" x2="145.617" y2="340.181" stroke="#D7D4C8"/>
<line x1="262.754" y1="35.8932" x2="151.255" y2="342.233" stroke="#D7D4C8"/>
<line x1="268.392" y1="37.9453" x2="156.894" y2="344.285" stroke="#D7D4C8"/>
<line x1="274.03" y1="39.9974" x2="162.532" y2="346.337" stroke="#D7D4C8"/>
<line x1="279.668" y1="42.0496" x2="168.17" y2="348.389" stroke="#D7D4C8"/>
<line x1="285.307" y1="44.1017" x2="173.808" y2="350.441" stroke="#D7D4C8"/>
<line x1="290.945" y1="46.1538" x2="179.446" y2="352.494" stroke="#D7D4C8"/>
<line x1="296.583" y1="48.2059" x2="185.084" y2="354.546" stroke="#D7D4C8"/>
<line x1="302.221" y1="50.258" x2="190.722" y2="356.598" stroke="#D7D4C8"/>
<line x1="307.859" y1="52.3102" x2="196.361" y2="358.65" stroke="#D7D4C8"/>
<line x1="313.497" y1="54.3623" x2="201.999" y2="360.702" stroke="#D7D4C8"/>
<line x1="319.136" y1="56.4144" x2="207.637" y2="362.754" stroke="#D7D4C8"/>
</g>
<mask id="mask1_1268_24513" style="mask-type:alpha" maskUnits="userSpaceOnUse" x="437" y="25" width="204" height="224">
<path d="M602.045 249V206.44H640.125V172.2H602.045V25H570.045L437.885 181.48V206.44H564.605V249H602.045ZM564.605 86.12V172.2H489.085L564.605 86.12Z" fill="white"/>
</mask>
<g mask="url(#mask1_1268_24513)">
<line x1="469.227" y1="-46.1919" x2="357.729" y2="260.148" stroke="#D7D4C8"/>
<line x1="474.865" y1="-44.1397" x2="363.367" y2="262.2" stroke="#D7D4C8"/>
<line x1="480.504" y1="-42.0876" x2="369.005" y2="264.252" stroke="#D7D4C8"/>
<line x1="486.142" y1="-40.0355" x2="374.643" y2="266.304" stroke="#D7D4C8"/>
<line x1="491.78" y1="-37.9833" x2="380.281" y2="268.356" stroke="#D7D4C8"/>
<line x1="497.418" y1="-35.9312" x2="385.919" y2="270.409" stroke="#D7D4C8"/>
<line x1="503.056" y1="-33.8791" x2="391.558" y2="272.461" stroke="#D7D4C8"/>
<line x1="508.694" y1="-31.827" x2="397.196" y2="274.513" stroke="#D7D4C8"/>
<line x1="514.333" y1="-29.7749" x2="402.834" y2="276.565" stroke="#D7D4C8"/>
<line x1="519.971" y1="-27.7227" x2="408.472" y2="278.617" stroke="#D7D4C8"/>
<line x1="525.609" y1="-25.6706" x2="414.11" y2="280.669" stroke="#D7D4C8"/>
<line x1="531.247" y1="-23.6185" x2="419.748" y2="282.721" stroke="#D7D4C8"/>
<line x1="536.885" y1="-21.5663" x2="425.387" y2="284.773" stroke="#D7D4C8"/>
<line x1="542.523" y1="-19.5142" x2="431.025" y2="286.826" stroke="#D7D4C8"/>
<line x1="548.161" y1="-17.4621" x2="436.663" y2="288.878" stroke="#D7D4C8"/>
<line x1="553.8" y1="-15.41" x2="442.301" y2="290.93" stroke="#D7D4C8"/>
<line x1="559.438" y1="-13.3578" x2="447.939" y2="292.982" stroke="#D7D4C8"/>
<line x1="565.076" y1="-11.3057" x2="453.577" y2="295.034" stroke="#D7D4C8"/>
<line x1="570.714" y1="-9.25358" x2="459.216" y2="297.086" stroke="#D7D4C8"/>
<line x1="576.352" y1="-7.20146" x2="464.854" y2="299.138" stroke="#D7D4C8"/>
<line x1="581.991" y1="-5.14933" x2="470.492" y2="301.19" stroke="#D7D4C8"/>
<line x1="587.629" y1="-3.09721" x2="476.13" y2="303.243" stroke="#D7D4C8"/>
<line x1="593.267" y1="-1.04508" x2="481.768" y2="305.295" stroke="#D7D4C8"/>
<line x1="598.905" y1="1.00704" x2="487.407" y2="307.347" stroke="#D7D4C8"/>
<line x1="604.543" y1="3.05916" x2="493.045" y2="309.399" stroke="#D7D4C8"/>
<line x1="610.182" y1="5.11129" x2="498.683" y2="311.451" stroke="#D7D4C8"/>
<line x1="615.82" y1="7.16343" x2="504.321" y2="313.503" stroke="#D7D4C8"/>
<line x1="621.458" y1="9.21555" x2="509.959" y2="315.555" stroke="#D7D4C8"/>
<line x1="627.096" y1="11.2677" x2="515.597" y2="317.607" stroke="#D7D4C8"/>
<line x1="632.734" y1="13.3198" x2="521.235" y2="319.66" stroke="#D7D4C8"/>
<line x1="638.372" y1="15.3719" x2="526.874" y2="321.712" stroke="#D7D4C8"/>
<line x1="644.01" y1="17.424" x2="532.512" y2="323.764" stroke="#D7D4C8"/>
<line x1="649.649" y1="19.4762" x2="538.15" y2="325.816" stroke="#D7D4C8"/>
<line x1="655.287" y1="21.5283" x2="543.788" y2="327.868" stroke="#D7D4C8"/>
<line x1="660.925" y1="23.5804" x2="549.426" y2="329.92" stroke="#D7D4C8"/>
<line x1="666.563" y1="25.6326" x2="555.065" y2="331.972" stroke="#D7D4C8"/>
<line x1="672.201" y1="27.6847" x2="560.703" y2="334.024" stroke="#D7D4C8"/>
<line x1="677.839" y1="29.7368" x2="566.341" y2="336.077" stroke="#D7D4C8"/>
<line x1="683.478" y1="31.7889" x2="571.979" y2="338.129" stroke="#D7D4C8"/>
<line x1="689.116" y1="33.8411" x2="577.617" y2="340.181" stroke="#D7D4C8"/>
<line x1="694.754" y1="35.8932" x2="583.255" y2="342.233" stroke="#D7D4C8"/>
<line x1="700.392" y1="37.9453" x2="588.894" y2="344.285" stroke="#D7D4C8"/>
<line x1="706.03" y1="39.9974" x2="594.532" y2="346.337" stroke="#D7D4C8"/>
<line x1="711.669" y1="42.0496" x2="600.17" y2="348.389" stroke="#D7D4C8"/>
<line x1="717.307" y1="44.1017" x2="605.808" y2="350.441" stroke="#D7D4C8"/>
<line x1="722.945" y1="46.1538" x2="611.446" y2="352.494" stroke="#D7D4C8"/>
<line x1="728.583" y1="48.2059" x2="617.084" y2="354.546" stroke="#D7D4C8"/>
<line x1="734.221" y1="50.258" x2="622.722" y2="356.598" stroke="#D7D4C8"/>
<line x1="739.859" y1="52.3102" x2="628.361" y2="358.65" stroke="#D7D4C8"/>
<line x1="745.497" y1="54.3623" x2="633.999" y2="360.702" stroke="#D7D4C8"/>
<line x1="751.136" y1="56.4144" x2="639.637" y2="362.754" stroke="#D7D4C8"/>
</g>
<mask id="mask2_1268_24513" style="mask-type:alpha" maskUnits="userSpaceOnUse" x="226" y="22" width="195" height="230">
<path d="M226.09 137C226.09 171.24 234.73 198.76 251.69 219.56C268.65 240.68 292.65 251.24 323.37 251.24C354.09 251.24 377.77 240.68 394.73 219.56C411.69 198.76 420.01 171.24 420.01 137C420.01 103.08 411.37 75.56 394.41 54.44C377.45 33.32 353.45 22.76 322.73 22.76C292.33 22.76 268.65 33.32 251.69 54.44C234.73 75.56 226.09 103.08 226.09 137ZM280.49 79.72C290.41 66.28 304.49 59.56 322.73 59.56C361.13 59.56 380.33 86.76 380.33 137C380.33 188.52 361.45 214.44 323.37 214.44C305.13 214.44 291.05 207.72 281.13 194.28C270.89 180.84 265.77 161.64 265.77 137C265.77 112.36 270.57 93.16 280.49 79.72Z" fill="white"/>
</mask>
<g mask="url(#mask2_1268_24513)">
<line x1="245.968" y1="-56.829" x2="134.47" y2="249.511" stroke="#D7D4C8"/>
<line x1="251.607" y1="-54.7769" x2="140.108" y2="251.563" stroke="#D7D4C8"/>
<line x1="257.245" y1="-52.7247" x2="145.746" y2="253.615" stroke="#D7D4C8"/>
<line x1="262.883" y1="-50.6726" x2="151.384" y2="255.667" stroke="#D7D4C8"/>
<line x1="268.521" y1="-48.6205" x2="157.023" y2="257.719" stroke="#D7D4C8"/>
<line x1="274.159" y1="-46.5684" x2="162.661" y2="259.771" stroke="#D7D4C8"/>
<line x1="279.797" y1="-44.5162" x2="168.299" y2="261.824" stroke="#D7D4C8"/>
<line x1="285.436" y1="-42.4641" x2="173.937" y2="263.876" stroke="#D7D4C8"/>
<line x1="291.074" y1="-40.412" x2="179.575" y2="265.928" stroke="#D7D4C8"/>
<line x1="296.712" y1="-38.3599" x2="185.213" y2="267.98" stroke="#D7D4C8"/>
<line x1="302.35" y1="-36.3077" x2="190.852" y2="270.032" stroke="#D7D4C8"/>
<line x1="307.988" y1="-34.2556" x2="196.49" y2="272.084" stroke="#D7D4C8"/>
<line x1="313.626" y1="-32.2035" x2="202.128" y2="274.136" stroke="#D7D4C8"/>
<line x1="319.265" y1="-30.1513" x2="207.766" y2="276.188" stroke="#D7D4C8"/>
<line x1="324.903" y1="-28.0992" x2="213.404" y2="278.241" stroke="#D7D4C8"/>
<line x1="330.541" y1="-26.0471" x2="219.042" y2="280.293" stroke="#D7D4C8"/>
<line x1="336.179" y1="-23.995" x2="224.681" y2="282.345" stroke="#D7D4C8"/>
<line x1="341.817" y1="-21.9429" x2="230.319" y2="284.397" stroke="#D7D4C8"/>
<line x1="347.455" y1="-19.8907" x2="235.957" y2="286.449" stroke="#D7D4C8"/>
<line x1="353.094" y1="-17.8386" x2="241.595" y2="288.501" stroke="#D7D4C8"/>
<line x1="358.732" y1="-15.7865" x2="247.233" y2="290.553" stroke="#D7D4C8"/>
<line x1="364.37" y1="-13.7343" x2="252.871" y2="292.605" stroke="#D7D4C8"/>
<line x1="370.008" y1="-11.6822" x2="258.51" y2="294.658" stroke="#D7D4C8"/>
<line x1="375.646" y1="-9.63009" x2="264.148" y2="296.71" stroke="#D7D4C8"/>
<line x1="381.284" y1="-7.57797" x2="269.786" y2="298.762" stroke="#D7D4C8"/>
<line x1="386.923" y1="-5.52584" x2="275.424" y2="300.814" stroke="#D7D4C8"/>
<line x1="392.561" y1="-3.47372" x2="281.062" y2="302.866" stroke="#D7D4C8"/>
<line x1="398.199" y1="-1.4216" x2="286.7" y2="304.918" stroke="#D7D4C8"/>
<line x1="403.837" y1="0.630544" x2="292.339" y2="306.97" stroke="#D7D4C8"/>
<line x1="409.475" y1="2.68267" x2="297.977" y2="309.022" stroke="#D7D4C8"/>
<line x1="415.114" y1="4.73479" x2="303.615" y2="311.075" stroke="#D7D4C8"/>
<line x1="420.752" y1="6.78692" x2="309.253" y2="313.127" stroke="#D7D4C8"/>
<line x1="426.39" y1="8.83904" x2="314.891" y2="315.179" stroke="#D7D4C8"/>
<line x1="432.028" y1="10.8912" x2="320.529" y2="317.231" stroke="#D7D4C8"/>
<line x1="437.666" y1="12.9433" x2="326.168" y2="319.283" stroke="#D7D4C8"/>
<line x1="443.304" y1="14.9954" x2="331.806" y2="321.335" stroke="#D7D4C8"/>
<line x1="448.943" y1="17.0476" x2="337.444" y2="323.387" stroke="#D7D4C8"/>
<line x1="454.581" y1="19.0997" x2="343.082" y2="325.439" stroke="#D7D4C8"/>
<line x1="460.219" y1="21.1518" x2="348.72" y2="327.492" stroke="#D7D4C8"/>
<line x1="465.857" y1="23.2039" x2="354.358" y2="329.544" stroke="#D7D4C8"/>
<line x1="471.495" y1="25.256" x2="359.997" y2="331.596" stroke="#D7D4C8"/>
<line x1="477.133" y1="27.3082" x2="365.635" y2="333.648" stroke="#D7D4C8"/>
<line x1="482.771" y1="29.3603" x2="371.273" y2="335.7" stroke="#D7D4C8"/>
<line x1="488.41" y1="31.4124" x2="376.911" y2="337.752" stroke="#D7D4C8"/>
<line x1="494.048" y1="33.4645" x2="382.549" y2="339.804" stroke="#D7D4C8"/>
<line x1="499.686" y1="35.5167" x2="388.187" y2="341.856" stroke="#D7D4C8"/>
<line x1="505.324" y1="37.5688" x2="393.826" y2="343.909" stroke="#D7D4C8"/>
<line x1="510.962" y1="39.6209" x2="399.464" y2="345.961" stroke="#D7D4C8"/>
<line x1="516.6" y1="41.673" x2="405.102" y2="348.013" stroke="#D7D4C8"/>
<line x1="522.239" y1="43.7251" x2="410.74" y2="350.065" stroke="#D7D4C8"/>
<line x1="527.877" y1="45.7773" x2="416.378" y2="352.117" stroke="#D7D4C8"/>
</g>
<path d="M251.69 219.56L252.47 218.934L252.465 218.928L251.69 219.56ZM394.73 219.56L393.955 218.928L393.95 218.934L394.73 219.56ZM394.41 54.44L393.63 55.0661V55.0661L394.41 54.44ZM251.69 54.44L252.47 55.0661L251.69 54.44ZM280.49 79.72L279.685 79.1261L280.49 79.72ZM281.13 194.28L281.935 193.686L281.93 193.68L281.925 193.674L281.13 194.28ZM225.09 137C225.09 171.41 233.775 199.172 250.915 220.192L252.465 218.928C235.685 198.348 227.09 171.07 227.09 137H225.09ZM250.91 220.186C268.088 241.577 292.395 252.24 323.37 252.24V250.24C292.905 250.24 269.212 239.783 252.47 218.934L250.91 220.186ZM323.37 252.24C354.349 252.24 378.334 241.575 395.51 220.186L393.95 218.934C377.206 239.785 353.831 250.24 323.37 250.24V252.24ZM395.505 220.192C412.649 199.167 421.01 171.401 421.01 137H419.01C419.01 171.079 410.731 198.353 393.955 218.928L395.505 220.192ZM421.01 137C421.01 102.907 412.323 75.1497 395.19 53.8139L393.63 55.0661C410.417 75.9702 419.01 103.253 419.01 137H421.01ZM395.19 53.8139C378.012 32.4225 353.705 21.76 322.73 21.76V23.76C353.195 23.76 376.888 34.2175 393.63 55.0661L395.19 53.8139ZM322.73 21.76C292.069 21.76 268.085 32.4266 250.91 53.8139L252.47 55.0661C269.215 34.2134 292.591 23.76 322.73 23.76V21.76ZM250.91 53.8139C233.777 75.1497 225.09 102.907 225.09 137H227.09C227.09 103.253 235.683 75.9702 252.47 55.0661L250.91 53.8139ZM281.295 80.3138C291.007 67.1553 304.774 60.56 322.73 60.56V58.56C304.206 58.56 289.813 65.4047 279.685 79.1261L281.295 80.3138ZM322.73 60.56C341.666 60.56 355.742 67.2491 365.124 80.0317C374.545 92.8677 379.33 111.981 379.33 137H381.33C381.33 111.779 376.515 92.1723 366.736 78.8483C356.918 65.4709 342.194 58.56 322.73 58.56V60.56ZM379.33 137C379.33 162.667 374.622 181.777 365.324 194.448C356.068 207.062 342.158 213.44 323.37 213.44V215.44C342.662 215.44 357.232 208.858 366.936 195.632C376.598 182.463 381.33 162.853 381.33 137H379.33ZM323.37 213.44C305.414 213.44 291.647 206.845 281.935 193.686L280.325 194.874C290.453 208.595 304.846 215.44 323.37 215.44V213.44ZM281.925 193.674C271.867 180.473 266.77 161.519 266.77 137H264.77C264.77 161.761 269.913 181.207 280.335 194.886L281.925 193.674ZM266.77 137C266.77 112.468 271.552 93.513 281.295 80.3138L279.685 79.1261C269.588 92.8069 264.77 112.252 264.77 137H266.77Z" fill="#D7D4C8"/>
<path d="M602.045 249V250H603.045V249H602.045ZM602.045 206.44V205.44H601.045V206.44H602.045ZM640.125 206.44V207.44H641.125V206.44H640.125ZM640.125 172.2H641.125V171.2H640.125V172.2ZM602.045 172.2H601.045V173.2H602.045V172.2ZM602.045 25H603.045V24H602.045V25ZM570.045 25V24H569.581L569.281 24.3547L570.045 25ZM437.885 181.48L437.121 180.835L436.885 181.114V181.48H437.885ZM437.885 206.44H436.885V207.44H437.885V206.44ZM564.605 206.44H565.605V205.44H564.605V206.44ZM564.605 249H563.605V250H564.605V249ZM564.605 86.12H565.605V83.4639L563.853 85.4605L564.605 86.12ZM564.605 172.2V173.2H565.605V172.2H564.605ZM489.085 172.2L488.333 171.54L486.877 173.2H489.085V172.2ZM603.045 249V206.44H601.045V249H603.045ZM602.045 207.44H640.125V205.44H602.045V207.44ZM641.125 206.44V172.2H639.125V206.44H641.125ZM640.125 171.2H602.045V173.2H640.125V171.2ZM603.045 172.2V25H601.045V172.2H603.045ZM602.045 24H570.045V26H602.045V24ZM569.281 24.3547L437.121 180.835L438.649 182.125L570.809 25.6452L569.281 24.3547ZM436.885 181.48V206.44H438.885V181.48H436.885ZM437.885 207.44H564.605V205.44H437.885V207.44ZM563.605 206.44V249H565.605V206.44H563.605ZM564.605 250H602.045V248H564.605V250ZM563.605 86.12V172.2H565.605V86.12H563.605ZM564.605 171.2H489.085V173.2H564.605V171.2ZM489.837 172.859L565.357 86.7795L563.853 85.4605L488.333 171.54L489.837 172.859Z" fill="#D7D4C8"/>
<path d="M170.045 249V250H171.045V249H170.045ZM170.045 206.44V205.44H169.045V206.44H170.045ZM208.125 206.44V207.44H209.125V206.44H208.125ZM208.125 172.2H209.125V171.2H208.125V172.2ZM170.045 172.2H169.045V173.2H170.045V172.2ZM170.045 25H171.045V24H170.045V25ZM138.045 25V24H137.581L137.281 24.3547L138.045 25ZM5.885 181.48L5.12102 180.835L4.885 181.114V181.48H5.885ZM5.885 206.44H4.885V207.44H5.885V206.44ZM132.605 206.44H133.605V205.44H132.605V206.44ZM132.605 249H131.605V250H132.605V249ZM132.605 86.12H133.605V83.4639L131.853 85.4605L132.605 86.12ZM132.605 172.2V173.2H133.605V172.2H132.605ZM57.085 172.2L56.3333 171.54L54.8774 173.2H57.085V172.2ZM171.045 249V206.44H169.045V249H171.045ZM170.045 207.44H208.125V205.44H170.045V207.44ZM209.125 206.44V172.2H207.125V206.44H209.125ZM208.125 171.2H170.045V173.2H208.125V171.2ZM171.045 172.2V25H169.045V172.2H171.045ZM170.045 24H138.045V26H170.045V24ZM137.281 24.3547L5.12102 180.835L6.64898 182.125L138.809 25.6452L137.281 24.3547ZM4.885 181.48V206.44H6.885V181.48H4.885ZM5.885 207.44H132.605V205.44H5.885V207.44ZM131.605 206.44V249H133.605V206.44H131.605ZM132.605 250H170.045V248H132.605V250ZM131.605 86.12V172.2H133.605V86.12H131.605ZM132.605 171.2H57.085V173.2H132.605V171.2ZM57.8367 172.859L133.357 86.7795L131.853 85.4605L56.3333 171.54L57.8367 172.859Z" fill="#D7D4C8"/>
</svg>
