<svg width="84" height="85" viewBox="0 0 84 85" fill="none" xmlns="http://www.w3.org/2000/svg">
<path d="M42 0.996948C18.804 0.996948 0 19.7968 0 42.9878C0 66.1788 18.804 84.9787 42 84.9787C65.196 84.9787 84 66.1788 84 42.9878C84 19.7968 65.196 0.996948 42 0.996948ZM65.6813 55.2654C65.0799 56.5135 63.2716 60.0006 59.6096 63.3385C48.8929 73.1157 32.7058 72.5518 22.6652 62.505C12.554 52.3878 12.2761 36.6023 21.2924 26.1948C23.9218 23.1637 26.941 20.9371 30.1386 19.4237C37.8485 15.7707 47.3335 16.0609 54.4047 20.1825C55.624 20.8915 57.1543 22.0732 57.1543 22.0732L54.5996 24.0718L52.6047 22.8528C52.6047 22.8528 49.5689 21.2522 46.3713 20.6178C44.2686 20.199 42.1535 20.029 40.0051 20.1742C36.343 20.4271 32.9256 21.4513 29.7695 23.3006C25.5227 25.7884 22.35 29.2673 20.2514 33.7288C19.1067 36.1628 18.41 38.7211 18.1612 41.3873C17.7837 45.4798 18.4183 49.4231 20.1104 53.1797C21.4251 56.0988 23.2458 58.6696 25.6098 60.834C28.9774 63.9107 32.8925 65.93 37.4131 66.7054C44.5382 67.9244 50.9375 66.241 56.5281 61.7048C60.6132 58.3876 63.2675 54.0961 64.4619 48.9587C65.0757 46.3174 65.2458 43.73 64.9845 41.1924C64.6071 37.5394 62.9523 33.9237 62.3841 32.6922C61.8201 31.4607 61.0984 30.4034 61.0984 30.4034L63.2675 28.069C63.2675 28.069 64.5076 29.798 65.225 31.1456C68.9576 38.1406 69.4429 47.4535 65.6813 55.2654ZM36.0735 44.0742C36.2767 46.6574 38.4665 49.0789 41.4608 49.1328C44.2147 49.1826 46.5247 47.3084 47.0183 44.522C47.0805 44.1737 47.1717 43.871 47.3501 43.5973C47.3501 43.5973 47.4745 43.4107 47.657 43.2407C48.051 42.8717 49.0048 42.5193 50.2698 42.3534C50.6638 45.6913 49.2495 48.9504 46.5911 50.808C43.4059 53.0305 38.8771 52.9641 35.8661 50.2772C32.5773 47.3374 31.922 42.8012 33.9459 39.3016C36.1315 35.5201 40.5236 34.9064 40.8844 34.865C41.8424 34.753 42.6553 34.8235 43.2152 34.9106C43.1778 35.0598 42.7507 36.7184 42.0415 37.4482C41.8009 37.697 41.5438 37.8545 41.5438 37.8545C41.2659 38.0245 40.9549 38.1282 40.5858 38.1945C37.7656 38.6963 35.8537 41.2712 36.0735 44.0742ZM35.3643 30.7434C31.0303 32.883 28.3719 36.3826 27.4968 41.1095C26.7586 45.0983 27.6502 48.8011 30.0764 52.0892C32.3284 55.1451 35.3518 57.0359 39.0761 57.6869C43.182 58.4042 46.9519 57.4879 50.2781 54.9503C53.1978 52.7236 54.9977 49.7631 55.6696 46.1723C56.2378 43.1412 55.8645 40.1931 54.4586 37.4233C54.1973 36.905 54.2512 36.5982 54.6867 36.2208C55.3171 35.6694 55.8728 35.0391 56.4659 34.442C60.128 39.7287 60.4432 48.7928 54.7779 55.1825C48.1546 62.6543 37.1518 63.0233 30.0681 56.8618C23.0218 50.7292 21.7859 40.0314 28.0608 32.431C33.9127 25.3406 43.8331 24.2916 50.8006 28.7158C50.0831 29.4207 49.3864 30.0883 48.7228 30.7807C48.5113 31.0005 48.3454 31.0254 48.08 30.8885C46.7362 30.1919 45.3179 29.7317 43.8124 29.4953C40.8553 29.0185 38.0269 29.4249 35.3643 30.7434ZM65.8679 25.3448C65.7144 25.4982 65.4117 25.5853 65.1877 25.5728C64.4246 25.5231 63.6698 25.3779 62.9067 25.3406C62.6703 25.3282 62.3592 25.4692 62.1851 25.6433C57.5608 30.2417 52.9489 34.8525 48.333 39.4592L50.0956 41.3914L40.8761 44.0534L44.364 35.1137L46.1349 37.0543C50.6928 32.4974 55.2507 27.9404 59.8211 23.3959C60.1197 23.0974 60.2234 22.8113 60.1653 22.4091C60.0575 21.6876 59.9662 20.9661 59.8999 20.2405C59.8833 20.0747 59.9455 19.8425 60.0575 19.7305C62.7823 16.9897 65.5195 14.2614 68.2567 11.5289C68.3024 11.4833 68.3646 11.4459 68.4765 11.3589C68.8249 12.7438 69.1733 14.054 69.4761 15.3768C69.5631 15.7541 69.7166 15.9324 70.0982 16.0236C71.4336 16.3346 72.7607 16.6829 74.2787 17.0602C73.9095 17.3878 73.6192 17.62 73.3621 17.8771C70.8696 20.3691 68.377 22.8652 65.8679 25.3448Z" fill="#F5D76B"/>
</svg>
