<svg width="80" height="80" viewBox="0 0 80 80" fill="none" xmlns="http://www.w3.org/2000/svg">
<g clip-path="url(#clip0_1609_15562)">
<path d="M64.9205 15.0269C64.6053 19.2115 63.4298 23.1423 61.3598 26.7992C60.6528 28.0514 59.9656 29.3151 59.2927 30.5902C59.1763 30.8127 59.1109 31.1122 59.1422 31.3632C59.7101 35.8987 60.3064 40.4313 60.8629 44.9668C60.914 45.3889 60.8288 45.8967 60.6301 46.2675C58.6793 49.893 56.6917 53.4957 54.7183 57.107C54.4202 57.6547 54.0283 58.0597 53.3497 57.9913C52.6739 57.9257 52.3758 57.4636 52.177 56.8645C51.328 54.2859 50.4591 51.7129 49.5988 49.14C49.5533 49.0088 49.4965 48.8804 49.3886 48.6151C48.9258 49.4766 48.5311 50.2239 48.1251 50.9684C47.4805 52.1551 46.9155 52.3262 45.7513 51.6701C45.3595 51.4476 44.9875 51.1852 44.6042 50.9399C44.3912 51.1909 44.1811 51.4334 43.971 51.6787C43.9937 51.6901 44.0164 51.7044 44.0391 51.7158C42.4888 53.5157 40.8788 55.3841 39.2461 57.281C38.9991 57.1555 38.7833 57.0528 38.5732 56.9387C34.2061 54.5483 29.8475 52.1437 25.4691 49.7732C24.9608 49.4994 24.8557 49.2541 25.0346 48.7007C25.7303 46.567 26.3663 44.4134 27.0052 42.3368C27.0194 42.3453 27.0336 42.351 27.0478 42.3596C27.0762 42.2654 27.1046 42.1685 27.133 42.0743C27.1898 41.8861 27.238 41.6921 27.3147 41.4125C26.8206 41.1644 26.3266 40.939 25.8524 40.6709C25.0261 40.2031 24.8359 39.5413 25.2817 38.6941C25.7218 37.8583 26.1874 37.0368 26.69 36.124C26.4685 36.1525 26.3379 36.1554 26.2102 36.1868C23.5666 36.8371 20.9202 37.4818 18.2796 38.1464C17.6662 38.3005 17.1211 38.2748 16.7093 37.7385C16.309 37.2165 16.4197 36.6888 16.7122 36.1554C18.7026 32.5299 20.6761 28.8986 22.6864 25.2874C22.8766 24.9451 23.2117 24.6085 23.5609 24.4402C27.6725 22.4834 31.8039 20.5665 35.9183 18.6154C36.2022 18.4813 36.4748 18.2075 36.6338 17.9308C37.8519 15.8399 38.9167 13.6463 40.2655 11.6439C43.4144 6.97146 47.5941 3.52279 52.8783 1.48896C53.0118 1.43761 53.1311 1.35204 53.256 1.28073C54.1277 1.02685 54.9994 0.772982 55.8711 0.519109C56.6207 0.407862 57.3675 0.276647 58.12 0.191072C58.8753 0.105497 59.6362 0.0570044 60.3944 0.00565936C60.9992 -0.0342756 61.4194 0.239564 61.7289 0.764424C64.3355 5.16868 65.301 9.95233 64.9205 15.0269Z" fill="#ECBB7C"/>
<path d="M37.392 60.3332C37.1422 63.8075 35.6032 66.6629 33.1584 69.0162C31.7728 70.3483 30.2167 71.4978 28.7516 72.7472C27.8458 73.5203 26.9656 74.3218 26.0087 75.1662C25.5515 72.3222 26.0995 69.7949 28.3143 67.7354C28.1922 67.6527 28.0673 67.5671 27.9452 67.4844C27.2609 68.303 26.4772 69.059 25.915 69.9546C24.8218 71.6947 23.9387 73.5688 22.8114 75.286C21.2952 77.5993 19.1173 78.8801 16.4993 78.9999C16.7719 76.8349 17.124 74.7497 17.2773 72.6474C17.5528 68.9135 18.3421 65.422 21.1873 62.6836C19.847 63.0544 19.0463 64.0614 18.2456 65.074C17.4335 66.0981 16.6782 67.2162 15.0029 67.2362C16.346 63.7847 17.5357 60.3874 18.9895 57.1098C20.1651 54.457 21.9624 52.7769 24.1233 51.7899C23.4162 52.6457 22.7688 53.2761 22.3117 54.0234C21.8034 54.8564 21.4116 55.7749 21.0765 56.6934C20.7585 57.5662 20.5825 58.4933 20.3667 59.3091C22.3827 58.673 24.3703 58.0483 26.3579 57.4236C26.48 57.5605 26.5993 57.6946 26.7214 57.8315C22.7007 60.7439 22.9676 64.8915 23.2771 69.2358C25.7418 65.6245 29.0639 63.5251 33.5559 62.5581C32.6956 64.3894 31.963 65.9497 31.097 67.7924C34.5867 66.2407 35.924 63.2399 37.392 60.3332Z" fill="#ECBB7C"/>
</g>
<defs>
<clipPath id="clip0_1609_15562">
<rect width="50" height="79" fill="white" transform="translate(15)"/>
</clipPath>
</defs>
</svg>
