<svg width="80" height="81" viewBox="0 0 80 81" fill="none" xmlns="http://www.w3.org/2000/svg">
<g clip-path="url(#clip0_1609_15554)">
<path d="M79.9407 23.7554C79.9407 23.7254 79.9736 23.6985 79.9915 23.6686C79.9915 23.3365 79.9915 23.0014 79.9915 22.6693C79.9436 22.3432 79.9018 22.0201 79.8509 21.6939C79.6534 20.4374 79.3064 19.2316 78.6272 18.1486C78.1545 17.3916 77.4364 17.0864 76.5718 17.2959C75.9166 17.4544 75.2853 17.7088 74.645 17.9242C74.4625 17.984 74.28 18.0528 74.0885 18.1216C73.9329 16.0034 73.7325 15.1088 73.0862 13.58C72.1588 11.3959 70.7466 9.53194 69.2058 7.75775C68.3232 6.74051 66.9798 6.7435 66.1181 7.79066C65.4599 8.5895 64.8137 9.39731 64.2063 10.235C62.7134 12.2934 61.6064 14.5194 61.3192 17.0894C61.2833 17.4215 61.2593 17.7566 61.2324 18.0887C60.4755 17.8314 59.7724 17.5681 59.0573 17.3587C58.2136 17.1134 57.4267 17.248 56.8792 17.987C56.5561 18.4208 56.2689 18.9055 56.0834 19.4111C55.1798 21.8884 55.123 24.3926 56.0415 26.8789C56.4214 27.9141 56.4484 28.9014 56.0235 29.9276C55.5478 31.0825 55.3504 32.3002 55.3683 33.5538C55.3922 35.2472 55.835 36.8389 56.5232 38.3737C56.589 38.5203 56.6069 38.7597 56.5321 38.8853C55.7722 40.1868 55.5179 41.6199 55.4371 43.0919C55.3324 45.0037 55.7273 46.8258 56.5022 48.57C56.5621 48.7017 56.592 48.9141 56.5262 49.0248C55.8111 50.2754 55.5239 51.6337 55.4551 53.0519C55.3474 55.2808 55.6705 57.426 56.8283 59.3708C58.5158 62.2041 61.1097 63.8197 64.2003 64.7322C64.6611 64.8698 65.1428 64.9416 65.6305 65.0493C65.6305 65.1989 65.6305 65.3276 65.6305 65.4592C65.6305 67.018 65.6245 68.5768 65.6335 70.1355C65.6394 71.2366 66.1929 72.0174 67.1294 72.2688C67.276 72.3077 67.4256 72.3406 67.5722 72.3765C67.644 72.3765 67.7158 72.3765 67.7876 72.3765C67.9342 72.3406 68.0838 72.3077 68.2304 72.2688C69.1489 72.0234 69.7204 71.2366 69.7264 70.1744C69.7353 68.5917 69.7294 67.009 69.7294 65.4293C69.7294 65.3007 69.7294 65.172 69.7294 65.0763C70.5701 64.8579 71.3958 64.7143 72.1737 64.433C76.6675 62.8054 79.2824 59.64 79.8689 54.868C80.0873 53.0938 79.9945 51.3286 79.1418 49.7219C78.7888 49.0577 78.8037 48.5401 79.085 47.8819C79.5846 46.7211 79.8659 45.4914 79.9436 44.2198C79.9466 44.154 79.9825 44.0882 80.0005 44.0224C80.0005 43.6664 80.0005 43.3073 80.0005 42.9513C79.9167 42.4397 79.8898 41.9101 79.7402 41.4165C79.4829 40.5668 79.1628 39.738 78.8366 38.9093C78.7589 38.7148 78.7529 38.5801 78.8366 38.3887C80.0543 35.6601 80.3146 32.8597 79.426 29.9845C79.2944 29.5566 79.0401 29.1707 78.8755 28.7518C78.8097 28.5813 78.7678 28.3449 78.8337 28.1863C79.426 26.7682 79.8629 25.3081 79.9407 23.7554ZM64.8885 60.5077C61.4747 60.1217 58.5577 55.6548 59.7753 52.6749C62.6476 52.9023 65.8489 57.806 64.8885 60.5077ZM64.9004 50.3173C61.4598 49.9194 58.441 45.2461 59.8023 42.4546C62.8331 43.0051 65.8399 47.6186 64.9004 50.3173ZM59.7454 32.2762C62.8211 32.7789 65.7202 37.1799 64.9154 40.1629C61.2863 39.4568 58.6893 35.4806 59.7454 32.2762ZM64.9782 29.9336C61.5226 29.6165 58.426 24.8713 59.8232 21.9961C60.0596 22.0859 60.3109 22.1547 60.5353 22.2774C63.0215 23.6117 64.5534 25.6612 65.0979 28.4347C65.1966 28.9373 65.1607 29.4459 64.9782 29.9336ZM67.8445 22.768C67.7906 22.8129 67.7278 22.8458 67.653 22.8967C66.3934 21.9273 65.6185 20.6887 65.421 19.103C65.1817 17.1822 65.7651 15.4678 66.7435 13.8552C67.0247 13.3915 67.3388 12.9487 67.6679 12.452C68.8019 14.1544 69.8879 15.8179 69.9627 17.8793C70.0315 19.821 69.3673 21.4905 67.8445 22.768ZM75.6353 55.592C74.8724 58.0424 73.2807 59.6909 70.8184 60.4718C70.7496 60.4927 70.6808 60.5107 70.612 60.5256C70.5671 60.5346 70.5192 60.5406 70.4743 60.5466C69.2895 58.1261 72.5537 53.0938 75.6054 52.6629C75.9495 53.6323 75.9375 54.6196 75.6353 55.592ZM70.4295 40.1509C69.5289 37.3295 72.3772 32.9644 75.5755 32.2583C76.5568 35.1724 74.5373 39.3251 70.4295 40.1509ZM75.6623 45.2281C75.013 47.8819 73.3196 49.5245 70.7227 50.2814C70.4384 50.3652 70.3786 50.2515 70.3427 50.0061C70.1392 48.6837 70.4324 47.4511 71.0338 46.2872C72.0062 44.4024 73.556 43.1757 75.5665 42.4098C75.8687 43.3761 75.8896 44.3036 75.6623 45.2281ZM75.8268 24.2011C75.4618 26.8639 73.2328 29.2963 70.603 29.9366C70.5581 29.9486 70.5102 29.9486 70.4654 29.9545C69.3524 27.3875 72.1737 23.0223 75.5905 22.044C75.8896 22.7381 75.9255 23.4711 75.8268 24.2011Z" fill="#ECBB7C"/>
<path d="M63.0001 69.0734C62.9044 70.1116 62.1504 70.9374 61.0464 71.0869C59.0658 71.3532 57.0852 71.6135 55.0955 71.793C51.4095 72.1281 47.7146 72.2957 44.0136 72.3166C43.9358 72.3166 43.858 72.3525 43.7802 72.3735C42.3771 72.3735 40.9709 72.3735 39.5677 72.3735C39.454 72.3525 39.3403 72.3196 39.2266 72.3166C37.5631 72.2747 35.8996 72.2508 34.2361 72.1939C30.1821 72.0533 26.1401 71.7841 22.128 71.1647C18.7412 70.6412 15.4052 69.8932 12.177 68.7264C9.01156 67.5835 6.10943 66.0007 3.75182 63.5414C1.96567 61.6775 0.77789 59.4904 0.281237 56.9473C0.170537 56.3788 0.0927484 55.8074 0 55.2359C0 54.473 0 53.7131 0 52.9501C0.0867646 52.3428 0.167546 51.7354 0.266278 51.1281C0.855679 47.5139 2.46232 44.3934 4.87976 41.6767C7.75197 38.4485 11.2345 36.034 15.109 34.1671C16.0933 33.6914 17.1166 33.3054 18.1069 32.8447C18.5437 32.6412 18.9656 32.3839 19.3545 32.0967C21.2543 30.6786 23.3128 29.5865 25.6494 29.1078C28.2524 28.5723 30.8104 28.671 33.2398 29.8767C33.6856 30.0981 33.9788 30.0473 34.3618 29.7152C35.8308 28.4466 37.4883 27.5042 39.43 27.1691C41.9253 26.7382 44.25 27.2708 46.4311 28.5035C47.8223 29.2873 49.025 30.3106 50.1081 31.4744C50.7842 32.1984 50.8441 33.3413 50.2786 34.2239C49.7102 35.1125 48.645 35.5224 47.6368 35.1903C47.2718 35.0706 46.9277 34.8582 46.6136 34.6338C45.716 33.9876 44.8783 33.2546 43.9448 32.6652C42.6463 31.8424 41.2222 31.4894 39.6873 31.9561C39.0471 32.1506 38.2812 32.5694 37.8443 32.9883C38.4756 33.7542 39.089 34.5411 39.7442 35.289C42.1467 38.0386 43.8431 41.198 45.1565 44.5788C45.5664 45.638 45.1745 46.748 44.1931 47.3164C43.2028 47.8939 41.8684 47.7143 41.2042 46.8706C40.9679 46.5685 40.7704 46.2064 40.6537 45.8414C39.2386 41.4314 36.6326 37.871 32.9766 35.0587C30.6459 33.2635 28.1506 33.0511 25.4998 34.2598C25.1229 34.4334 24.7369 34.5889 24.3539 34.7565C24.336 34.7655 24.324 34.7894 24.2971 34.8223C24.324 34.8552 24.345 34.8941 24.3779 34.921C27.1125 37.1201 29.0093 39.9354 30.4424 43.0979C30.7027 43.6693 30.984 44.2438 31.1335 44.8481C31.4148 45.988 30.8014 47.0801 29.7333 47.5049C28.6353 47.9417 27.4625 47.5618 26.8552 46.5355C26.5799 46.0658 26.3765 45.5542 26.1431 45.0605C24.9523 42.5174 23.4265 40.2077 21.392 38.254C21.2125 38.0805 21.021 37.9189 20.8235 37.7663C20.3897 37.4253 19.89 37.2966 19.3814 37.515C18.2475 37.9997 17.1076 38.4814 16.0126 39.0469C13.257 40.474 10.7439 42.2332 8.65552 44.5549C6.92621 46.4757 5.58884 48.6149 5.04133 51.176C4.5716 53.378 4.52971 55.568 5.40933 57.6953C6.16029 59.5084 7.48869 60.8308 9.08635 61.9078C11.5008 63.5354 14.1755 64.5646 16.973 65.3036C19.9678 66.0935 23.0285 66.5333 26.1012 66.8863C30.3347 67.374 34.5862 67.5894 38.8466 67.6134C43.2387 67.6373 47.6218 67.5535 51.999 67.1795C54.7006 66.9492 57.3993 66.6919 60.104 66.4824C60.5886 66.4435 61.1122 66.4974 61.573 66.647C62.6082 66.9821 63.1078 67.9036 63.0001 69.0734Z" fill="#ECBB7C"/>
</g>
<defs>
<clipPath id="clip0_1609_15554">
<rect width="80" height="80" fill="white" transform="translate(0 0.019043)"/>
</clipPath>
</defs>
</svg>
