<svg width="84" height="86" viewBox="0 0 84 86" fill="none" xmlns="http://www.w3.org/2000/svg">
<path d="M42 0.784668C18.8039 0.784668 0 19.671 0 42.9688C0 66.2667 18.8039 85.153 42 85.153C65.1961 85.153 84 66.2667 84 42.9688C84 19.671 65.1919 0.784668 42 0.784668ZM18.1758 50.8392C17.2148 49.7088 17.3244 48.0958 18.4414 47.1094C19.4362 46.2288 20.4394 45.3566 21.4468 44.4887C21.7461 44.2305 22.0791 44.0103 22.3994 43.7775C22.7746 43.5065 23.2003 43.4049 23.6556 43.4176C24.7599 43.4176 25.7168 44.0696 26.1172 45.0941C26.5177 46.1229 26.2521 47.2787 25.3964 48.0365C24.212 49.0907 23.0233 50.1322 21.8135 51.1567C20.7429 52.0755 19.0905 51.9146 18.1758 50.8392ZM23.5923 56.7748C22.6102 56.2964 22.1212 55.4624 22.1255 54.3659C22.1297 53.5953 22.4458 52.9433 23.0275 52.4311C24.6124 51.0424 26.2015 49.6538 27.7906 48.2694C28.2543 47.863 28.7981 47.6428 29.3123 47.6216C30.4799 47.5497 31.5169 48.2144 31.9426 49.2347C32.3599 50.2423 32.1112 51.4573 31.3019 52.1686C29.6917 53.5869 28.0773 55.0051 26.4418 56.4023C25.5861 57.1347 24.604 57.2659 23.5923 56.7748ZM26.7832 60.3692C26.5177 59.3573 26.7706 58.4556 27.542 57.757C28.7264 56.6817 29.932 55.6317 31.1586 54.6029C31.9932 53.9044 32.9585 53.7901 33.9448 54.2558C34.9312 54.7215 35.4159 55.5471 35.4538 56.47C35.4454 57.4437 35.1419 58.1126 34.5434 58.6419C33.3715 59.6706 32.2081 60.7079 31.0195 61.7155C29.5315 62.9771 27.2806 62.2616 26.7832 60.3692ZM37.8228 64.4335C37.2579 64.9331 36.6889 65.4326 36.1156 65.9238C35.1082 66.7916 33.6034 66.6816 32.7393 65.6782C31.8751 64.6748 31.989 63.1761 32.9922 62.2913C33.5401 61.8086 34.0923 61.326 34.6445 60.8476C35.0998 60.4539 35.6309 60.2549 36.1409 60.2379C37.2158 60.2379 38.1052 60.8603 38.4593 61.7917C38.8133 62.7189 38.5562 63.7858 37.8228 64.4335ZM60.7069 54.5564C59.8133 54.7088 59.0293 54.4463 58.3211 53.9086C56.4918 52.5158 54.6582 51.1229 52.8288 49.73C51.8551 48.9891 50.8772 48.244 49.9035 47.5031C49.4524 47.1644 48.9382 47.2067 48.6347 47.6089C48.3228 48.0196 48.4197 48.5403 48.8707 48.8833C51.6696 51.0128 54.4727 53.1423 57.2674 55.2761C58.1652 55.962 58.6247 56.8553 58.5277 58.011C58.4392 59.0822 57.5161 60.0136 56.4496 60.1194C55.5602 60.2083 54.7593 59.967 54.0596 59.4378C51.0584 57.1643 48.0699 54.8781 45.0729 52.5962C44.487 52.1474 43.783 52.3506 43.6228 53.0196C43.5301 53.4048 43.6776 53.7054 43.9853 53.9383C45.1782 54.8443 46.3669 55.7503 47.5598 56.6563C48.7485 57.5623 49.9414 58.4683 51.1343 59.3743C51.8003 59.8781 52.2387 60.5301 52.3988 61.3599C52.677 62.7697 51.6401 64.1541 50.2112 64.2896C49.3681 64.37 48.6305 64.1371 47.9645 63.6291C45.3468 61.6393 42.7292 59.6537 40.1158 57.6639C39.8587 57.4691 39.5847 57.3718 39.2728 57.4649C38.9482 57.558 38.7375 57.774 38.6784 58.1126C38.6152 58.4725 38.7206 58.7731 39.0157 58.9975C40.2718 59.9501 41.5237 60.9069 42.7798 61.8594C43.6271 62.503 44.4785 63.1507 45.3258 63.7942C46.4259 64.6283 46.5187 65.9534 45.5913 66.9822C44.7567 67.9051 43.7662 68.0109 42.6576 67.6596C41.6754 67.3463 40.8155 66.8128 40.0104 66.1778C39.7407 65.9661 39.4709 65.7586 39.1843 65.5385C40.2718 64.2684 40.6343 62.8586 40.0947 61.2879C39.551 59.713 38.3918 58.8408 36.7605 58.5318C37.3212 57.1812 37.338 55.8392 36.6383 54.5479C35.9386 53.2566 34.8258 52.5327 33.3715 52.2956C34.1471 50.5302 34.0502 48.8621 32.7772 47.393C31.5084 45.9282 29.8814 45.6106 28.0309 46.1272C28.0014 45.8604 27.9888 45.5895 27.9382 45.327C27.5799 43.3329 26.0877 41.9231 24.0982 41.7115C23.1708 41.6098 22.3109 41.8004 21.5016 42.2957C20.5321 42.8842 19.7565 43.7013 18.8966 44.421C18.1885 45.0137 17.5056 45.6361 16.7933 46.2626C16.7258 46.2118 16.6373 46.1441 16.553 46.0806C15.0861 44.9587 13.6277 43.8283 12.1481 42.7233C11.6381 42.3423 11.0901 42.0205 10.5422 41.6903C9.38298 40.9917 8.97411 40.0646 9.19751 38.7267C9.59795 36.3135 10.6096 34.1544 11.9289 32.1307C13.4675 29.7725 15.2589 27.6388 17.4888 25.8987C18.8756 24.8192 20.3846 23.9724 22.0959 23.5237C23.0106 23.2823 23.8326 23.4347 24.6377 23.947C25.7168 24.6329 26.5935 25.5473 27.542 26.3856C28.933 27.6176 30.4968 28.5109 32.3009 28.9978C33.5865 29.3449 34.7625 29.9715 35.9301 30.6108C36.4149 30.8775 36.8912 31.1654 37.4097 31.466C37.3085 31.5464 37.2453 31.6015 37.1778 31.6523C36.5456 32.1349 35.9133 32.6175 35.2726 33.0917C35.0365 33.2653 34.889 33.4855 34.8173 33.7649C34.5181 34.891 34.6403 35.996 35.0871 37.0417C35.4665 37.9308 35.9301 38.7902 36.4022 39.6412C37.6752 41.9401 38.9651 44.2305 40.2633 46.5167C40.9041 47.647 41.8103 48.4726 43.0917 48.8198C45.2035 49.3871 48.2933 48.1678 48.7106 45.0814C48.8665 43.9384 48.5883 42.863 48.0277 41.8639C47.3491 40.653 46.6704 39.4464 45.9918 38.2399C45.9496 38.1636 45.9117 38.0874 45.9033 37.9731C45.9707 38.0155 46.0381 38.062 46.1014 38.1044C50.7507 41.2415 55.0628 44.8232 59.5478 48.1805C60.2053 48.6716 60.846 49.1796 61.4994 49.675C62.2792 50.2634 62.7513 51.034 62.7892 52.0204C62.8483 53.2863 61.9884 54.3405 60.7069 54.5564ZM73.6054 41.9528C70.9287 43.1128 68.5261 44.7174 66.2878 46.5717C65.3689 47.3338 64.5006 48.1551 63.6112 48.951C63.5564 48.9976 63.5058 49.0441 63.4594 49.0822C61.8956 47.7021 60.2138 46.5251 58.5909 45.2677C56.1798 43.4007 53.7519 41.559 51.3366 39.7047C51.2945 39.6708 51.2523 39.6327 51.168 39.5608C51.5052 39.5057 51.8045 39.4591 52.0996 39.4126C54.1692 39.0739 56.1293 38.3965 57.9966 37.4609C58.8776 37.0206 59.7248 36.5125 60.5636 36.0002C61.1074 35.6658 61.1032 34.891 60.5805 34.5566C60.2559 34.3491 59.9229 34.3703 59.5941 34.582C58.1525 35.5134 56.6224 36.267 55.0122 36.8512C53.284 37.4778 51.5136 37.8758 49.6674 37.9096C49.4314 37.9139 49.1911 37.9054 48.955 37.8885C48.8792 37.8842 48.7991 37.8546 48.7359 37.808C47.8338 37.1687 46.936 36.5252 46.0339 35.8859C45.9159 35.8013 45.878 35.7166 45.899 35.5642C46.0128 34.8572 46.1224 34.1501 46.2152 33.4389C46.2447 33.223 46.2531 32.9859 46.1983 32.7784C46.0887 32.3932 45.7304 32.1984 45.3005 32.2323C44.9422 32.2619 44.6218 32.5456 44.5628 32.9351C44.331 34.455 44.1076 35.9748 43.88 37.4947C43.8378 37.7868 43.9053 38.0366 44.0486 38.2907C44.8705 39.7386 45.6841 41.1907 46.5018 42.6429C46.7969 43.1678 47.0203 43.7224 47.0329 44.3363C47.0624 45.6361 46.388 46.6056 45.1656 47.0374C43.9053 47.4819 42.7545 47.1348 41.9958 46.0001C41.5153 45.2804 41.1148 44.5057 40.6891 43.7478C39.4878 41.6183 38.2906 39.4845 37.102 37.3465C36.7437 36.703 36.4866 36.0172 36.4022 35.2763C36.3938 35.1874 36.3812 35.1027 36.377 35.0138C36.3559 34.6201 36.4613 34.3322 36.8153 34.0655C39.0747 32.3847 41.2961 30.6489 43.5638 28.9766C44.2846 28.4474 45.1024 28.0537 45.878 27.6049C46.9866 26.9698 48.112 26.3602 49.2164 25.7082C50.5399 24.925 51.9605 24.5228 53.4863 24.599C56.0323 24.7218 58.4307 24.1375 60.7617 23.1807C61.4741 22.8886 62.1738 22.5668 62.8778 22.2578C63.4552 22.0038 64.0369 22.0207 64.6102 22.2663C65.5923 22.6854 66.4522 23.2993 67.2573 23.9936C68.8169 25.3484 70.0646 26.9656 71.1521 28.7141C72.5179 30.9156 73.656 33.223 74.381 35.7208C74.7603 37.0248 75.0132 38.3542 75.0301 39.7174C75.047 40.8308 74.6044 41.5209 73.6054 41.9528Z" fill="#F5D76B"/>
</svg>
