<svg width="80" height="81" viewBox="0 0 80 81" fill="none" xmlns="http://www.w3.org/2000/svg">
<g clip-path="url(#clip0_1609_15558)">
<g clip-path="url(#clip1_1609_15558)">
<path d="M68.4284 59.054C67.6188 60.7358 65.1898 65.4205 60.2665 69.912C45.8545 83.0625 24.0875 82.304 10.5875 68.7927C-3.01193 55.1819 -3.38409 33.9517 8.74375 19.9546C12.2778 15.8779 16.3403 12.8836 20.6386 10.8466C31.008 5.93186 43.7636 6.32391 53.2665 11.8694C54.9057 12.8239 56.9653 14.4148 56.9653 14.4148L53.5278 17.1052L50.8432 15.466C50.8432 15.466 46.758 13.3154 42.4597 12.4603C39.633 11.8978 36.7892 11.6677 33.8972 11.8637C28.9767 12.2017 24.383 13.5796 20.1386 16.0682C14.4284 19.4177 10.1585 24.0938 7.34034 30.0966C5.80057 33.3722 4.86023 36.8097 4.53068 40.3978C4.02216 45.9006 4.87727 51.2046 7.15284 56.2586C8.92273 60.1875 11.3688 63.6421 14.5506 66.5512C19.0818 70.6932 24.346 73.4063 30.4227 74.4461C40.0023 76.0853 48.6102 73.8211 56.1273 67.7188C61.6244 63.2586 65.1898 57.4858 66.7949 50.5767C67.6188 47.0256 67.8489 43.5427 67.4966 40.1336C66.9881 35.2216 64.7608 30.3552 64.0023 28.6989C63.2437 27.0427 62.2722 25.6222 62.2722 25.6222L65.1869 22.483C65.1869 22.483 66.8517 24.8097 67.8204 26.6222C72.8347 36.0199 73.4881 48.5455 68.4284 59.054Z" fill="#ECBB7C"/>
<path d="M28.6141 44.0029C28.8868 47.4745 31.83 50.7358 35.8584 50.8097C39.5601 50.8779 42.6681 48.3551 43.3329 44.6051C43.4152 44.1335 43.5402 43.7273 43.7789 43.3637C43.7789 43.3637 43.9465 43.1108 44.1908 42.8807C44.7192 42.3864 46.0033 41.912 47.7022 41.6847C48.2334 46.1762 46.33 50.5597 42.7533 53.0568C38.4721 56.0455 32.3783 55.9574 28.3329 52.3438C23.9096 48.3921 23.0289 42.287 25.7505 37.5796C28.6908 32.4943 34.5971 31.6676 35.0772 31.6137C36.367 31.4631 37.4579 31.5597 38.2135 31.6733C38.1624 31.8722 37.5885 34.1051 36.634 35.0881C36.3101 35.4233 35.9635 35.6335 35.9635 35.6335C35.5885 35.8608 35.1709 36 34.6795 36.0881C30.8897 36.7699 28.3187 40.2301 28.6141 44.0029Z" fill="#ECBB7C"/>
<path d="M27.6593 26.0682C21.8326 28.946 18.2559 33.6505 17.0769 40.0085C16.0826 45.375 17.2843 50.3522 20.5457 54.7755C23.5769 58.8863 27.6394 61.429 32.648 62.3068C38.1678 63.2727 43.2389 62.0369 47.7133 58.6278C51.6423 55.6335 54.0599 51.6534 54.9633 46.8182C55.7247 42.7415 55.2275 38.7784 53.3355 35.0483C52.9803 34.3494 53.057 33.9375 53.6394 33.429C54.486 32.6903 55.236 31.8409 56.0315 31.0341C60.9576 38.1449 61.3809 50.3352 53.7616 58.9318C44.8582 68.9801 30.0599 69.4801 20.5343 61.1875C11.057 52.9403 9.40079 38.5483 17.8355 28.3267C25.7048 18.7897 39.0485 17.3778 48.415 23.3295C47.4519 24.2784 46.5173 25.1733 45.6195 26.1051C45.3326 26.4005 45.111 26.4346 44.7587 26.2528C42.9491 25.3153 41.0428 24.696 39.0201 24.3778C35.0457 23.75 31.2445 24.2983 27.6593 26.0682Z" fill="#ECBB7C"/>
<path d="M68.6783 18.8068C68.4709 19.0114 68.0646 19.1307 67.7635 19.1108C66.7379 19.0426 65.7209 18.8523 64.6953 18.7983C64.3743 18.7812 63.9567 18.9716 63.7237 19.2045C57.505 25.3892 51.3033 31.5909 45.0987 37.7898L47.4709 40.3892L35.0703 43.9688L39.7635 31.946L42.147 34.5568C48.2777 28.429 54.4084 22.3011 60.5533 16.1875C60.9538 15.7869 61.0959 15.4006 61.0135 14.8608C60.8686 13.892 60.7465 12.9205 60.6584 11.946C60.6385 11.7216 60.718 11.4119 60.8715 11.2614C64.5362 7.57386 68.218 3.90341 71.8999 0.230114C71.9624 0.167614 72.0419 0.119318 72.1982 0C72.6669 1.8608 73.1385 3.625 73.5447 5.40057C73.6612 5.91193 73.8715 6.15057 74.38 6.26989C76.1754 6.6875 77.9595 7.15341 79.9993 7.66477C79.5021 8.10795 79.1158 8.41761 78.7663 8.7642C75.4027 12.1165 72.0533 15.4744 68.6783 18.8068Z" fill="#ECBB7C"/>
</g>
</g>
<defs>
<clipPath id="clip0_1609_15558">
<rect width="80" height="80" fill="white" transform="translate(0 0.019043)"/>
</clipPath>
<clipPath id="clip1_1609_15558">
<rect width="80" height="79.3636" fill="white"/>
</clipPath>
</defs>
</svg>
