<svg width="84" height="84" viewBox="0 0 84 84" fill="none" xmlns="http://www.w3.org/2000/svg">
<path d="M54.2298 26.7959C54.0722 26.7089 53.8939 26.6633 53.728 26.5969C52.741 28.6284 54.9265 31.9783 57.369 32.2022C57.4975 31.8581 57.5224 31.4974 57.4519 31.1409C57.0663 29.1881 55.9839 27.7412 54.2298 26.7959Z" fill="#F5D76B"/>
<path d="M57.3135 39.4244C57.8816 37.3183 55.8372 34.213 53.6642 33.8564C52.9177 36.116 54.7507 38.9269 57.3135 39.4244Z" fill="#F5D76B"/>
<path d="M53.6879 48.2545C52.8295 50.3606 54.8864 53.5115 57.2999 53.7852C57.9758 51.8781 55.7157 48.4162 53.6879 48.2545Z" fill="#F5D76B"/>
<path d="M53.7137 41.0393C52.7517 43.0086 54.8832 46.3088 57.3133 46.5907C57.9768 44.6877 55.8536 41.429 53.7137 41.0393Z" fill="#F5D76B"/>
<path d="M61.2328 53.8107C61.266 53.8065 61.2992 53.8024 61.3323 53.7941C61.3821 53.7816 61.4319 53.7733 61.4775 53.7568C63.215 53.2054 64.3389 52.0403 64.878 50.3115C65.0936 49.6233 65.1019 48.9309 64.8531 48.2427C62.7008 48.5536 60.3951 52.1025 61.2328 53.8107Z" fill="#F5D76B"/>
<path d="M59.2716 19.8628C59.0394 20.2111 58.8155 20.5261 58.6206 20.8537C57.9322 21.9938 57.5175 23.2044 57.6875 24.5601C57.8285 25.6795 58.3759 26.5543 59.2633 27.2384C59.3173 27.2011 59.3629 27.1804 59.4002 27.1472C60.4742 26.2475 60.9428 25.0701 60.8931 23.6978C60.8392 22.2384 60.072 21.061 59.2716 19.8628Z" fill="#F5D76B"/>
<path d="M64.8501 33.8446C62.5901 34.3421 60.583 37.4267 61.2174 39.4167C64.1203 38.8321 65.5427 35.901 64.8501 33.8446Z" fill="#F5D76B"/>
<path d="M61.2281 32.2187C61.2612 32.2146 61.2944 32.2146 61.3276 32.2063C63.1813 31.7544 64.7571 30.038 65.0142 28.1599C65.0847 27.6458 65.0598 27.1275 64.8483 26.6383C62.4348 27.3224 60.4443 30.407 61.2281 32.2187Z" fill="#F5D76B"/>
<path d="M61.6417 43.7473C61.2187 44.5682 61.0114 45.4388 61.1524 46.3717C61.1773 46.5458 61.2187 46.6246 61.4219 46.5665C63.2549 46.0317 64.4533 44.8708 64.9095 42.9969C65.0671 42.346 65.0546 41.6868 64.839 41.0068C63.4249 41.55 62.3301 42.4165 61.6417 43.7473Z" fill="#F5D76B"/>
<path d="M42 0C18.8021 0 0 18.7976 0 41.9858C0 65.1739 18.8021 83.9757 42 83.9757C65.1979 83.9757 84 65.1781 84 41.9858C84 18.7935 65.1937 0 42 0ZM55.9668 59.834C55.9005 60.5678 55.3655 61.1524 54.5859 61.256C53.1884 61.4468 51.7867 61.6292 50.3851 61.7535C47.785 61.9899 45.1724 62.1101 42.5598 62.1225C42.5059 62.1225 42.4479 62.1474 42.394 62.164C41.4028 62.164 40.4117 62.164 39.4206 62.164C39.3418 62.1516 39.2589 62.1267 39.1801 62.1225C38.0065 62.0935 36.8288 62.0769 35.6552 62.0355C32.7938 61.936 29.9366 61.7453 27.1043 61.3099C24.7115 60.9409 22.356 60.4103 20.0794 59.5894C17.8442 58.7809 15.7956 57.6657 14.1327 55.9285C12.872 54.6101 12.0344 53.0678 11.6819 51.2727C11.6031 50.8705 11.5492 50.4683 11.4828 50.062C11.4828 49.5231 11.4828 48.9882 11.4828 48.4493C11.545 48.0222 11.5989 47.5911 11.6694 47.164C12.0841 44.6143 13.2204 42.4087 14.9289 40.4932C16.9568 38.213 19.4159 36.509 22.1528 35.1906C22.8454 34.8548 23.5711 34.5812 24.2719 34.2578C24.5788 34.1127 24.8774 33.9344 25.1511 33.7312C26.4947 32.7321 27.9461 31.9609 29.5966 31.621C31.4337 31.2437 33.2417 31.3142 34.9544 32.1641C35.2696 32.3216 35.4769 32.2843 35.7464 32.0521C36.7832 31.1566 37.9526 30.4933 39.3252 30.2528C41.0877 29.946 42.7299 30.3233 44.2684 31.1939C45.2512 31.7495 46.1013 32.4709 46.8643 33.2918C47.3412 33.8017 47.3827 34.6102 46.9846 35.2321C46.5823 35.8581 45.8318 36.1483 45.1185 35.912C44.8614 35.8291 44.6167 35.6798 44.3969 35.5181C43.7624 35.0621 43.1694 34.5438 42.5142 34.1292C41.5978 33.5488 40.5942 33.3001 39.5077 33.6276C39.0557 33.7644 38.5124 34.0629 38.2056 34.3573C38.6493 34.9004 39.0847 35.4518 39.5492 35.9825C41.2453 37.9228 42.4437 40.1533 43.3685 42.5413C43.6588 43.2876 43.3809 44.0712 42.6884 44.4733C41.9876 44.8796 41.0462 44.7553 40.5776 44.1582C40.4117 43.9468 40.2707 43.6898 40.1878 43.4327C39.1884 40.3191 37.3472 37.8067 34.7678 35.8208C33.1214 34.5521 31.359 34.4029 29.4887 35.2569C29.2233 35.3772 28.9496 35.4891 28.6801 35.6052C28.6677 35.6093 28.6594 35.6301 28.6386 35.6508C28.6552 35.6715 28.6718 35.7006 28.6967 35.7213C30.625 37.2719 31.9686 39.2619 32.9763 41.4924C33.1588 41.8946 33.3578 42.3009 33.4656 42.7279C33.6647 43.5322 33.2334 44.3034 32.4787 44.6019C31.7032 44.9087 30.8738 44.6433 30.4467 43.9178C30.2518 43.5861 30.1066 43.2254 29.9449 42.8772C29.1031 41.082 28.0249 39.4526 26.59 38.072C26.4615 37.9518 26.3288 37.8357 26.1878 37.7279C25.8809 37.4875 25.5284 37.3962 25.1718 37.5496C24.3714 37.8896 23.5669 38.2296 22.7915 38.6317C20.8466 39.6392 19.0717 40.883 17.5954 42.5206C16.3762 43.8763 15.4307 45.3854 15.045 47.1931C14.7133 48.7478 14.6842 50.2942 15.3063 51.795C15.8371 53.0761 16.7743 54.009 17.9023 54.7677C19.6066 55.9161 21.4976 56.6458 23.4716 57.164C25.5865 57.7196 27.747 58.0305 29.9159 58.2793C32.9058 58.6234 35.9082 58.7768 38.9147 58.7934C42.0166 58.8099 45.1102 58.7519 48.2038 58.4866C50.1114 58.3249 52.019 58.1425 53.9265 57.9932C54.2707 57.9683 54.6398 58.0056 54.9633 58.1093C55.6931 58.358 56.0456 59.0048 55.9668 59.834ZM67.9639 27.7777C67.9514 27.7984 67.9307 27.8192 67.9265 27.8399C67.8726 28.9344 67.5658 29.9667 67.1386 30.9701C67.093 31.082 67.122 31.2478 67.1677 31.3681C67.2838 31.6624 67.4621 31.9361 67.5575 32.2387C68.1837 34.2661 68.0012 36.2437 67.1428 38.1715C67.0806 38.3083 67.0889 38.3996 67.1428 38.5405C67.3709 39.1251 67.5989 39.7097 67.7814 40.3108C67.8851 40.6591 67.9058 41.0322 67.968 41.3929C67.968 41.6458 67.968 41.8987 67.968 42.1475C67.9556 42.1931 67.9307 42.2387 67.9265 42.2884C67.8685 43.184 67.6736 44.0546 67.3211 44.8713C67.122 45.3357 67.1137 45.7005 67.3626 46.169C67.9639 47.305 68.0302 48.5488 67.8768 49.8009C67.4621 53.1715 65.6167 55.4061 62.4443 56.5546C61.8969 56.7536 61.3122 56.8531 60.7192 57.0065C60.7192 57.0728 60.7192 57.164 60.7192 57.2552C60.7192 58.3705 60.7233 59.4899 60.7192 60.6051C60.715 61.3555 60.3128 61.9111 59.6617 62.0852C59.5581 62.1142 59.4544 62.135 59.3507 62.1599C59.3009 62.1599 59.2512 62.1599 59.2014 62.1599C59.0977 62.135 58.9941 62.1142 58.8904 62.0852C58.231 61.9069 57.8371 61.3555 57.8329 60.5803C57.8288 59.4816 57.8329 58.3788 57.8329 57.2801C57.8329 57.1889 57.8329 57.0977 57.8329 56.9899C57.4887 56.9153 57.1487 56.8614 56.8211 56.766C54.6398 56.1234 52.8069 54.9833 51.6167 52.9808C50.7998 51.6085 50.5717 50.0952 50.6463 48.5198C50.6961 47.5164 50.8951 46.5587 51.4011 45.6757C51.4467 45.5969 51.4259 45.4476 51.3845 45.3523C50.8371 44.1209 50.5592 42.8357 50.6339 41.4841C50.6919 40.4435 50.8703 39.436 51.4052 38.5156C51.4591 38.4244 51.4467 38.2586 51.4011 38.1549C50.9159 37.0729 50.6007 35.9493 50.5841 34.7511C50.5717 33.8681 50.7127 33.0057 51.0486 32.1931C51.3472 31.4676 51.3306 30.7711 51.061 30.0414C50.4141 28.2835 50.4514 26.5173 51.09 24.7678C51.2186 24.4112 51.4218 24.0671 51.6499 23.7644C52.0397 23.2421 52.5912 23.1467 53.1884 23.3208C53.6943 23.4659 54.1878 23.6525 54.7269 23.8349C54.7476 23.6028 54.7642 23.3664 54.7891 23.1301C54.9882 21.3142 55.7719 19.7429 56.8252 18.2918C57.2524 17.699 57.7085 17.131 58.1771 16.5671C58.7867 15.8291 59.7364 15.8291 60.3584 16.5464C61.4491 17.7985 62.4443 19.1127 63.0995 20.655C63.5557 21.7329 63.6967 22.3673 63.8087 23.8598C63.9455 23.81 64.0741 23.7644 64.2026 23.7188C64.6546 23.5696 65.1025 23.3872 65.5628 23.2752C66.1765 23.126 66.6783 23.3416 67.0142 23.8764C67.4953 24.6434 67.7399 25.4933 67.8809 26.3805C67.9183 26.6085 67.9473 26.8407 67.9805 27.0687C67.9639 27.3092 67.9639 27.5455 67.9639 27.7777Z" fill="#F5D76B"/>
</svg>
