<svg width="84" height="84" viewBox="0 0 84 84" fill="none" xmlns="http://www.w3.org/2000/svg">
<path d="M42.0021 0C18.8066 0 0 18.7884 0 41.9709C0 52.8593 4.14882 62.7754 10.9512 70.2335C11.7515 68.6888 17.2566 69.5517 21.5528 68.6215C25.8575 67.6913 31.3457 64.4505 36.6655 54.4081C37.0488 59.3325 37.0951 65.3722 36.219 72.1738C35.6967 76.2396 34.9259 79.9265 34.0667 83.1884C36.636 83.6808 39.2854 83.9376 41.9979 83.9376C65.1934 83.9376 84 65.145 84 41.9667C84 18.7884 65.1976 0 42.0021 0ZM62.1018 23.5529C61.8659 26.6506 60.994 29.5589 59.4524 32.2652C58.9259 33.1912 58.4163 34.1298 57.9151 35.0683C57.8266 35.2325 57.7803 35.4556 57.8055 35.6407C58.2267 38.9952 58.6732 42.3497 59.086 45.7084C59.1239 46.0198 59.0607 46.3944 58.9133 46.6722C57.4644 49.3533 55.9817 52.0217 54.516 54.6943C54.2927 55.0984 54.0021 55.3972 53.4967 55.3509C52.9954 55.3004 52.7722 54.9595 52.6248 54.5176C51.993 52.6109 51.3485 50.7043 50.7041 48.8019C50.6704 48.7051 50.6283 48.6083 50.5483 48.4105C50.2029 49.046 49.908 49.6016 49.609 50.153C49.1288 51.0326 48.7076 51.1589 47.8442 50.6749C47.5535 50.5107 47.2755 50.3171 46.9891 50.1361C46.8291 50.3213 46.6732 50.5023 46.5174 50.6833C46.5342 50.6917 46.5511 50.7001 46.5679 50.7127C45.4138 52.0427 44.2176 53.4275 43.0004 54.8332C42.815 54.7406 42.655 54.6649 42.4991 54.5807C39.2517 52.8088 36.0042 51.0326 32.7483 49.2775C32.3693 49.0755 32.2892 48.8945 32.424 48.4862C32.9421 46.9079 33.4138 45.3127 33.8898 43.7765C33.8982 43.7807 33.9108 43.7891 33.9193 43.7933C33.9403 43.7218 33.9614 43.6544 33.9824 43.5829C34.0246 43.444 34.0583 43.3009 34.1172 43.0905C33.7508 42.9053 33.3801 42.7411 33.0305 42.5433C32.4156 42.1982 32.2724 41.7099 32.6051 41.0828C32.9337 40.4641 33.279 39.858 33.6539 39.1804C33.4896 39.2015 33.3928 39.2015 33.2959 39.2267C31.3289 39.7065 29.3619 40.1863 27.3949 40.6788C26.9358 40.7924 26.5314 40.7714 26.2282 40.3757C25.9291 39.9885 26.0133 39.5971 26.2324 39.2057C27.7108 36.5246 29.1808 33.8351 30.676 31.1625C30.8192 30.91 31.0677 30.6574 31.3289 30.5354C34.3868 29.0875 37.4616 27.6691 40.5237 26.2255C40.7343 26.1245 40.9365 25.9225 41.0586 25.7204C41.9642 24.1716 42.7561 22.5469 43.7585 21.0654C46.1004 17.6057 49.2131 15.0551 53.1429 13.5484C53.2397 13.5105 53.3282 13.4474 53.4251 13.3926C54.0737 13.2032 54.7224 13.018 55.371 12.8286C55.927 12.7445 56.483 12.6477 57.0432 12.5845C57.6034 12.5214 58.172 12.4835 58.7364 12.4456C59.1871 12.4162 59.4988 12.6182 59.7304 13.0054C61.668 16.2589 62.384 19.7985 62.1018 23.5529Z" fill="#F5D76B"/>
</svg>
