<svg width="80" height="80" viewBox="0 0 80 80" fill="none" xmlns="http://www.w3.org/2000/svg">
<g clip-path="url(#clip0_1609_15566)">
<path d="M10.9629 46.7646C9.79831 45.3974 9.9317 43.4454 11.2835 42.2552C12.4917 41.1907 13.7075 40.1339 14.9336 39.0899C15.2979 38.7795 15.7031 38.5127 16.093 38.2306C16.5496 37.9022 17.0652 37.7817 17.6193 37.7945C18.9608 37.7945 20.1228 38.5845 20.6076 39.8235C21.0924 41.0701 20.7692 42.463 19.7329 43.3813C18.2965 44.6535 16.8497 45.913 15.3851 47.1545C14.0769 48.2549 12.071 48.0625 10.9629 46.7646Z" fill="#ECBB7C"/>
<path d="M17.5367 53.9366C16.3439 53.3569 15.7488 52.3488 15.7539 51.0278C15.7591 50.0967 16.1413 49.3066 16.8492 48.691C18.7756 47.0109 20.7046 45.3359 22.6309 43.6583C23.1953 43.1684 23.8519 42.8991 24.4778 42.876C25.8963 42.7888 27.1558 43.5916 27.6713 44.8254C28.1818 46.0413 27.8766 47.5111 26.8941 48.3755C24.937 50.0916 22.9772 51.8076 20.9919 53.4929C19.9581 54.3701 18.7654 54.5343 17.5367 53.9366Z" fill="#ECBB7C"/>
<path d="M21.4129 58.2819C21.0897 57.0609 21.4001 55.9656 22.3338 55.1217C23.7702 53.8212 25.2349 52.5515 26.7226 51.31C27.7384 50.4635 28.9106 50.3275 30.106 50.8893C31.3064 51.4536 31.8913 52.4489 31.94 53.5672C31.9323 54.7421 31.5629 55.5526 30.837 56.1913C29.416 57.438 28 58.6897 26.5559 59.9081C24.7475 61.4369 22.0157 60.5699 21.4129 58.2819Z" fill="#ECBB7C"/>
<path d="M34.8196 63.1965C34.1322 63.8019 33.4422 64.4021 32.747 64.9998C31.5235 66.0489 29.6997 65.9155 28.6506 64.7023C27.6015 63.489 27.7374 61.678 28.961 60.6084C29.6279 60.0235 30.2974 59.4438 30.9694 58.8641C31.5235 58.387 32.1699 58.1485 32.7855 58.1279C34.0911 58.1279 35.171 58.8821 35.5994 60.0081C36.0201 61.124 35.7097 62.4142 34.8196 63.1965Z" fill="#ECBB7C"/>
<path d="M62.6056 51.2586C61.5206 51.4407 60.5664 51.1227 59.7071 50.4737C57.4831 48.791 55.2618 47.1057 53.0378 45.423C51.8527 44.5252 50.6702 43.6275 49.4852 42.7322C48.9388 42.3193 48.3129 42.3757 47.9461 42.8605C47.569 43.3581 47.687 43.9866 48.2334 44.4021C51.6321 46.9775 55.0335 49.5503 58.4296 52.1282C59.5198 52.9567 60.0764 54.0392 59.961 55.432C59.8533 56.7274 58.7349 57.8534 57.4395 57.9817C56.3596 58.0894 55.39 57.797 54.5384 57.1557C50.896 54.406 47.2638 51.6434 43.6291 48.8833C42.916 48.3421 42.0644 48.5832 41.8694 49.3963C41.7566 49.8606 41.9361 50.2223 42.3106 50.5045C43.7573 51.5998 45.204 52.695 46.6482 53.7903C48.0949 54.8856 49.539 55.9835 50.9857 57.0762C51.7963 57.6867 52.3247 58.4716 52.5222 59.4771C52.8583 61.1804 51.5988 62.8554 49.8674 63.0195C48.8439 63.117 47.9487 62.8323 47.1381 62.2192C43.96 59.8157 40.7818 57.4123 37.6062 55.0062C37.2933 54.7676 36.9624 54.6548 36.5828 54.7651C36.1903 54.8779 35.9338 55.1421 35.862 55.55C35.7825 55.9861 35.9107 56.3477 36.2724 56.6196C37.7961 57.7714 39.3197 58.9256 40.8408 60.0774C41.872 60.8572 42.9032 61.637 43.9343 62.4167C45.2682 63.4248 45.3862 65.0254 44.2575 66.2695C43.2469 67.3853 42.0438 67.5161 40.6946 67.0903C39.4993 66.7133 38.4553 66.0669 37.478 65.2999C37.1522 65.0434 36.8213 64.7946 36.4776 64.5278C37.7961 62.9939 38.2398 61.2881 37.5832 59.3899C36.9239 57.4866 35.5157 56.4324 33.5329 56.0579C34.2152 54.4239 34.2357 52.8028 33.3841 51.2406C32.5351 49.6811 31.1807 48.8064 29.4159 48.5165C30.3573 46.3849 30.2367 44.3636 28.6951 42.5912C27.1561 40.8238 25.1758 40.4365 22.9339 41.0598C22.898 40.734 22.8801 40.4108 22.8236 40.0953C22.3901 37.6867 20.5741 35.9835 18.1629 35.7244C17.0368 35.6039 15.9928 35.8347 15.0104 36.4273C13.833 37.1404 12.889 38.1253 11.8476 38.9949C10.9909 39.7106 10.1598 40.4621 9.29279 41.2214C9.21071 41.1598 9.10554 41.0803 9.00037 40.9982C7.2202 39.6439 5.45029 38.2741 3.65472 36.9377C3.03654 36.4786 2.36705 36.0861 1.70526 35.6911C0.297022 34.8497 -0.200606 33.7262 0.0712937 32.1076C0.558661 29.1886 1.78477 26.5799 3.38795 24.1353C5.25534 21.2855 7.4331 18.7051 10.1367 16.6042C11.8194 15.296 13.6509 14.2751 15.7312 13.7313C16.8418 13.4415 17.8397 13.6262 18.817 14.2418C20.1277 15.0703 21.1948 16.1759 22.3414 17.1891C24.0318 18.6794 25.93 19.7567 28.1205 20.3467C29.6801 20.7674 31.1114 21.5241 32.5248 22.2962C33.1148 22.6194 33.6919 22.9657 34.3204 23.3273C34.1972 23.4248 34.1203 23.4889 34.0408 23.5505C33.2712 24.1328 32.5043 24.7202 31.7271 25.2896C31.4398 25.5 31.2628 25.7642 31.173 26.1053C30.8113 27.4648 30.9601 28.8012 31.5013 30.0658C31.963 31.1432 32.5248 32.1795 33.0968 33.2055C34.6436 35.9861 36.2108 38.7538 37.7858 41.519C38.5656 42.8861 39.6634 43.8865 41.2205 44.3021C43.783 44.9895 47.5331 43.5146 48.0436 39.785C48.2334 38.3998 47.8974 37.1044 47.2151 35.8937C46.3917 34.4316 45.5657 32.9721 44.7423 31.51C44.691 31.4202 44.6448 31.3279 44.6346 31.1893C44.7167 31.2432 44.7962 31.2971 44.8783 31.3509C50.5215 35.1421 55.7619 39.4746 61.2051 43.5351C62.0028 44.1302 62.7826 44.7433 63.5778 45.3409C64.5243 46.054 65.0989 46.9852 65.145 48.1779C65.204 49.7195 64.1575 50.997 62.6056 51.2586Z" fill="#ECBB7C"/>
<path d="M78.2652 36.022C75.0152 37.4251 72.0987 39.3618 69.3771 41.6037C68.2613 42.522 67.2096 43.5198 66.1272 44.4791C66.063 44.5356 65.9963 44.592 65.945 44.6382C64.0469 42.9683 62.0051 41.5447 60.0351 40.0261C57.1083 37.7714 54.161 35.5398 51.224 33.2979C51.1701 33.2569 51.1214 33.2132 51.0188 33.1235C51.4292 33.0568 51.7909 33.0003 52.1526 32.9439C54.6638 32.5361 57.0442 31.7152 59.3117 30.584C60.3788 30.0505 61.41 29.44 62.4283 28.8193C63.0901 28.4165 63.085 27.4803 62.4514 27.075C62.0589 26.8236 61.6537 26.8493 61.2561 27.1032C59.5067 28.2293 57.6495 29.1399 55.695 29.8479C53.5967 30.6071 51.4472 31.0894 49.2078 31.1278C48.918 31.133 48.6281 31.1201 48.3408 31.1022C48.2511 31.097 48.151 31.0586 48.0766 31.0073C46.9813 30.2352 45.8912 29.4554 44.7959 28.6807C44.6522 28.5807 44.6035 28.4755 44.6343 28.2934C44.7754 27.4392 44.9062 26.5825 45.019 25.7232C45.0524 25.4615 45.0678 25.1743 44.996 24.928C44.8626 24.4612 44.4265 24.2252 43.9032 24.2662C43.4672 24.2996 43.0798 24.6459 43.0055 25.1178C42.7207 26.9544 42.454 28.791 42.1744 30.6302C42.1205 30.9816 42.2051 31.2869 42.3796 31.5947C43.3774 33.3441 44.365 35.1012 45.3551 36.8557C45.7142 37.4918 45.9835 38.1613 45.9989 38.9026C46.0348 40.4725 45.2166 41.6447 43.7314 42.1654C42.1975 42.7041 40.8046 42.2834 39.8837 40.9136C39.2989 40.0441 38.8115 39.1078 38.2959 38.1921C36.839 35.6167 35.3846 33.0388 33.943 30.4558C33.5095 29.6786 33.194 28.85 33.0914 27.9548C33.0786 27.8496 33.0683 27.7445 33.0632 27.6393C33.0401 27.1648 33.1658 26.8134 33.5941 26.4953C36.3388 24.4612 39.0347 22.3655 41.7896 20.3468C42.6617 19.7055 43.657 19.2284 44.6009 18.6897C45.9502 17.9202 47.3148 17.184 48.6538 16.3965C50.2595 15.4526 51.9858 14.9626 53.8404 15.0524C56.9313 15.2012 59.8427 14.4932 62.672 13.3415C63.5364 12.9875 64.388 12.6002 65.2422 12.2257C65.945 11.9179 66.6504 11.9384 67.3456 12.2359C68.5383 12.7438 69.5823 13.4826 70.5571 14.3265C72.4501 15.9656 73.9661 17.9176 75.2845 20.0313C76.9441 22.6913 78.3242 25.4821 79.204 28.5012C79.6657 30.0787 79.971 31.6845 79.9915 33.3338C80.0146 34.6625 79.4785 35.4987 78.2652 36.022Z" fill="#ECBB7C"/>
</g>
<defs>
<clipPath id="clip0_1609_15566">
<rect width="80" height="55.3213" fill="white" transform="translate(0 12)"/>
</clipPath>
</defs>
</svg>
