<svg width="68" height="68" viewBox="0 0 68 68" fill="none" xmlns="http://www.w3.org/2000/svg">
<rect x="1" y="1" width="66" height="66" rx="33" fill="white" stroke="#F5EDE0" stroke-width="2"/>
<path d="M25.2751 42.7249C26.8128 44.3872 29.3708 44.5861 31.1469 43.1814L33.2518 41.5169C33.715 41.1505 33.7681 40.4672 33.3671 40.0337L25.6951 31.7402C25.2941 31.3067 24.6087 31.3065 24.2075 31.7399L22.3843 33.709C20.8459 35.3705 20.8453 37.9362 22.383 39.5985L25.2751 42.7249Z" fill="#ECBB7C"/>
<path d="M32.7686 41.8818C32.3408 42.2259 31.7168 42.1668 31.3612 41.7484L24.0833 33.1859C23.7506 32.7946 23.7633 32.2162 24.1128 31.8399L38.654 16.1813C40.3705 14.3275 43.3021 14.3281 45.0178 16.1827L50.2682 21.8585C51.9838 23.7131 51.7566 26.6359 49.7749 28.2031L32.7686 41.8818Z" fill="#ECBB7C"/>
<circle cx="16.4054" cy="48.5177" r="1.90148" transform="rotate(108.442 16.4054 48.5177)" fill="#FCECC8"/>
<circle cx="24.686" cy="52.4342" r="1.90148" transform="rotate(108.442 24.686 52.4342)" fill="#FCECC8"/>
<circle cx="22.683" cy="46.4054" r="1.90148" transform="rotate(108.442 22.683 46.4054)" fill="#FCECC8"/>
<circle cx="23.0478" cy="38.0475" r="1" transform="rotate(2.79074 23.0478 38.0475)" fill="white"/>
<circle cx="24.9477" cy="40.1427" r="1" transform="rotate(2.79074 24.9477 40.1427)" fill="white"/>
<circle cx="26.8481" cy="42.2374" r="1" transform="rotate(2.79074 26.8481 42.2374)" fill="white"/>
<line x1="10.9071" y1="9.49309" x2="58.3893" y2="56.9753" stroke="#F5EDE0" stroke-width="2"/>
</svg>
