<svg width="68" height="68" viewBox="0 0 68 68" fill="none" xmlns="http://www.w3.org/2000/svg">
<rect x="1" y="1" width="66" height="66" rx="33" fill="white" stroke="#F5EDE0" stroke-width="2"/>
<rect x="33.0845" y="19.5181" width="1.84368" height="25.7713" fill="#FCECC8"/>
<path d="M34.9048 27.3938C34.9048 24.6261 37.1485 22.3823 39.9163 22.3823H41.4729V24.0141C41.4729 26.7819 39.2292 29.0256 36.4614 29.0256H34.9048V27.3938Z" fill="#FCECC8"/>
<path d="M33.0615 29.7986C33.0615 27.0308 30.8178 24.7871 28.05 24.7871H26.4934V26.4189C26.4934 29.1866 28.7371 31.4304 31.5049 31.4304H33.0615V29.7986Z" fill="#FCECC8"/>
<path d="M34.9048 20.1775C34.9048 17.4097 32.6611 15.166 29.8933 15.166H28.3367V16.7978C28.3367 19.5656 30.5804 21.8093 33.3482 21.8093H34.9048V20.1775Z" fill="#FCECC8"/>
<path d="M33.9971 53.1108L25.808 44.9709L35.2986 35.5372C37.5599 33.2894 41.2263 33.2894 43.4877 35.5372C45.749 37.7849 45.749 41.4293 43.4877 43.6771L33.9971 53.1108Z" fill="#ECBB7C"/>
<path d="M42.1919 44.9712L34.0028 53.1112L24.5122 43.6775C22.2508 41.4297 22.2508 37.7853 24.5122 35.5375C26.7735 33.2897 30.4399 33.2897 32.7013 35.5375L42.1919 44.9712Z" fill="#ECBB7C"/>
</svg>
