<svg width="68" height="68" viewBox="0 0 68 68" fill="none" xmlns="http://www.w3.org/2000/svg">
<rect x="1" y="1" width="66" height="66" rx="33" fill="white" stroke="#F5EDE0" stroke-width="2"/>
<path d="M41.504 47.22C41.808 47.22 42.036 47.144 42.226 46.954C42.416 46.764 42.53 46.498 42.53 46.194C42.53 45.928 42.416 45.7 42.226 45.472C42.036 45.282 41.808 45.168 41.504 45.168H28.28V34.566H38.806C39.11 34.566 39.338 34.49 39.528 34.3C39.718 34.11 39.832 33.844 39.832 33.54C39.832 33.274 39.718 33.046 39.528 32.818C39.338 32.628 39.11 32.514 38.806 32.514H28.28V23.052H41.086C41.39 23.052 41.618 22.976 41.808 22.786C41.998 22.596 42.112 22.33 42.112 22.026C42.112 21.76 41.998 21.532 41.808 21.304C41.618 21.114 41.39 21 41.086 21H27.216C26.836 21 26.532 21.152 26.304 21.38C26.076 21.608 26 21.912 26 22.254V45.928C26 46.308 26.114 46.612 26.342 46.84C26.57 47.106 26.912 47.22 27.33 47.22H41.504Z" fill="#ECBB7C" stroke="#ECBB7C"/>
<line x1="10.9071" y1="9.49309" x2="58.3893" y2="56.9753" stroke="#F5EDE0" stroke-width="2"/>
</svg>
