<svg width="68" height="68" viewBox="0 0 68 68" fill="none" xmlns="http://www.w3.org/2000/svg">
<rect x="1" y="1" width="66" height="66" rx="33" fill="white" stroke="#F5EDE0" stroke-width="2"/>
<path d="M45.5744 35.9161C45.5744 42.3552 40.3547 47.575 33.9155 47.575V20.0718C33.9155 20.0718 40.7786 25.9118 42.9183 28.5113C44.5762 30.5222 45.5745 33.1035 45.5745 35.9168L45.5744 35.9161Z" fill="#ECBB7C"/>
<path d="M44.1478 35.9163C44.1478 36.444 44.1121 36.9752 44.0408 37.4993C44.0587 37.3745 44.0765 37.2462 44.0907 37.1214C43.9517 38.1375 43.6772 39.1323 43.2814 40.0771C43.3278 39.963 43.3777 39.8489 43.424 39.7348C43.0318 40.6582 42.522 41.5246 41.9123 42.3197C41.9872 42.2234 42.062 42.1271 42.1369 42.0309C41.5272 42.8188 40.8177 43.5247 40.0333 44.1344C40.1296 44.0596 40.2258 43.9847 40.3221 43.9098C39.5271 44.5231 38.6607 45.0294 37.7373 45.4216C37.8514 45.3752 37.9654 45.3253 38.0795 45.279C37.1347 45.6783 36.14 45.9492 35.1239 46.0883C35.2486 46.0705 35.377 46.0526 35.5018 46.0384C34.4536 46.1774 33.3875 46.1774 32.3393 46.0384C32.4641 46.0562 32.5924 46.074 32.7172 46.0883C31.7011 45.9492 30.7063 45.6747 29.7615 45.279C29.8756 45.3253 29.9897 45.3752 30.1038 45.4216C29.1804 45.0294 28.314 44.5195 27.519 43.9098C27.6152 43.9847 27.7115 44.0596 27.8078 44.1344C27.0198 43.5248 26.3139 42.8153 25.7042 42.0309C25.779 42.1271 25.8539 42.2234 25.9288 42.3197C25.3156 41.5246 24.8093 40.6582 24.417 39.7348C24.4634 39.8489 24.5133 39.963 24.5597 40.0771C24.1603 39.1323 23.8894 38.1375 23.7503 37.1214C23.7682 37.2462 23.786 37.3745 23.8002 37.4993C23.6612 36.4547 23.6612 35.3993 23.7967 34.3547C23.7789 34.4795 23.761 34.6078 23.7468 34.7326C23.8858 33.7094 24.1603 32.7075 24.5597 31.7556C24.5133 31.8697 24.4634 31.9837 24.4171 32.0978C24.8128 31.1673 25.3262 30.2938 25.943 29.4951C25.8682 29.5914 25.7933 29.6876 25.7184 29.7839C26.2639 29.0851 26.8807 28.4469 27.5082 27.823C28.2569 27.0743 29.0235 26.3505 29.8007 25.6339C31.1912 24.3503 32.6067 23.0953 34.0364 21.8546C34.3359 21.5943 34.6354 21.3376 34.9384 21.0809H32.9204C33.769 21.8047 34.6104 22.5391 35.4447 23.2772C37.0206 24.6712 38.5822 26.0831 40.0797 27.5592C40.7963 28.2687 41.513 28.9889 42.1334 29.784C42.0585 29.6877 41.9836 29.5915 41.9087 29.4952C42.5255 30.2938 43.039 31.1673 43.4347 32.0979C43.3883 31.9838 43.3384 31.8697 43.2921 31.7556C43.6914 32.7076 43.9659 33.7095 44.105 34.7327C44.0872 34.6079 44.0693 34.4796 44.0551 34.3548C44.1121 34.8717 44.1478 35.3923 44.1478 35.9164C44.1513 36.6616 44.8038 37.3782 45.5739 37.3425C46.3441 37.3069 47.0037 36.715 47.0001 35.9164C46.9929 33.713 46.4367 31.531 45.3778 29.5986C44.6362 28.2473 43.6201 27.085 42.5398 25.994C41.5415 24.9815 40.5004 24.0117 39.4487 23.0526C38.4682 22.1577 37.477 21.2735 36.4752 20.4C35.9689 19.9579 35.459 19.5122 34.9456 19.0772C34.9385 19.0701 34.9314 19.0665 34.9242 19.0594C34.6426 18.8205 34.3003 18.6244 33.9152 18.6422C33.5195 18.6601 33.2093 18.8027 32.9062 19.0594C32.2787 19.5942 31.6583 20.1361 31.038 20.678C29.7295 21.8261 28.4352 22.9848 27.166 24.1756C26.025 25.2452 24.8556 26.3256 23.868 27.5413C23.4188 28.0904 22.998 28.6644 22.638 29.2741C22.2779 29.8838 21.9855 30.5255 21.7216 31.1816C21.2154 32.4366 20.948 33.7771 20.8553 35.1248C20.702 37.4459 21.2154 39.7848 22.2564 41.8562C23.244 43.8207 24.7593 45.4858 26.5598 46.7336C28.4103 48.0171 30.5887 48.7409 32.8206 48.9477C35.106 49.1616 37.3985 48.7052 39.477 47.7533C41.4843 46.837 43.1743 45.3645 44.4899 43.6068C45.1567 42.7154 45.6594 41.7456 46.0801 40.7188C46.5115 39.6634 46.7575 38.5725 46.9001 37.4458C46.9643 36.936 46.9999 36.4261 46.9999 35.9127C46.9999 35.1675 46.3439 34.4509 45.5738 34.4866C44.8001 34.5258 44.1477 35.1176 44.1477 35.9163L44.1478 35.9163Z" fill="#ECBB7C"/>
<line x1="10.9073" y1="9.49309" x2="58.3895" y2="56.9753" stroke="#F5EDE0" stroke-width="2"/>
</svg>
