<svg width="68" height="68" viewBox="0 0 68 68" fill="none" xmlns="http://www.w3.org/2000/svg">
<rect x="1" y="1" width="66" height="66" rx="33" fill="white" stroke="#F5EDE0" stroke-width="2"/>
<path d="M26.2903 34.5628C23.6469 39.5105 22.2566 42.808 26.0232 46.3759C26.5813 46.9248 26.5819 47.7491 26.1646 48.2988C25.7469 48.8486 24.9107 48.8496 24.3529 48.4381C18.9121 43.2237 21.8335 37.7264 24.0591 33.3285C26.7021 28.3805 28.0928 25.0825 24.3259 21.5146C23.7678 20.9657 23.7672 20.1415 24.1848 19.5917C24.7417 19.0419 25.4387 19.041 25.9965 19.4525C31.4373 24.6668 28.6555 30.1641 26.2903 34.5621L26.2903 34.5628Z" fill="#FCECC8" stroke="#FCECC8" stroke-width="0.5"/>
<path d="M35.2414 34.5526C32.5983 39.5002 31.2077 42.7985 34.9746 46.3657C35.5327 46.9146 35.5333 47.7388 35.1157 48.2886C34.698 48.8384 33.8617 48.8393 33.304 48.4278C27.8631 43.2134 30.7846 37.7162 33.0102 33.3182C35.6535 28.3706 37.0439 25.0723 33.2773 21.5043C32.7192 20.9555 32.7182 20.1312 33.1359 19.5814C33.6928 19.0316 34.3898 19.0307 34.9476 19.4422C40.3887 24.6569 37.4673 30.1546 35.2414 34.5518L35.2414 34.5526Z" fill="#ECBB7C" stroke="#ECBB7C" stroke-width="0.5"/>
<path d="M44.1492 34.5434C41.5061 39.4911 40.1155 42.7894 43.8821 46.3565C44.4402 46.9054 44.4411 47.7296 44.0235 48.2794C43.6061 48.8289 42.7695 48.8301 42.2118 48.4186C36.771 43.2043 39.6924 37.707 41.918 33.309C44.5613 28.3614 45.9517 25.0631 42.1851 21.4952C41.627 20.9463 41.626 20.122 42.0437 19.5723C42.7401 19.0222 43.2976 19.0215 43.8554 19.4331C49.2962 24.6474 46.5143 30.1447 44.1492 34.5426L44.1492 34.5434Z" fill="#FCECC8" stroke="#FCECC8" stroke-width="0.5"/>
<line x1="10.9071" y1="9.49309" x2="58.3893" y2="56.9753" stroke="#F5EDE0" stroke-width="2"/>
</svg>
