<svg width="301" height="240" viewBox="0 0 301 240" fill="none" xmlns="http://www.w3.org/2000/svg">
<rect width="301" height="240" fill="white"/>
<g clip-path="url(#clip0_542_10613)">
<path d="M122.105 83.9357C132.551 79.1021 150.024 72.4401 170.514 75.0826C170.514 75.0826 208.356 76.8204 209.985 111.358C209.985 111.358 212.244 148.708 161.197 148.943C161.197 148.943 132.538 149.411 126.58 166.998C126.58 166.998 125.051 157.854 110.385 154.101C96.2542 150.486 83.413 128.643 96.9629 106.372C97.3978 105.658 106.255 91.2701 122.105 83.9357Z" fill="white"/>
<path d="M121.89 81.4519C132.333 76.6183 149.807 69.9563 170.296 72.6007C170.296 72.6007 208.138 74.3384 209.767 108.876C209.767 108.876 212.026 146.226 160.979 146.461C160.979 146.461 132.32 146.929 126.362 164.516C126.362 164.516 124.833 155.372 110.167 151.619C96.0365 148.004 83.1952 126.161 96.7451 103.89C97.18 103.174 106.038 88.7863 121.89 81.4519Z" fill="#002169"/>
<path d="M113.023 98.3571C117.254 97.7055 119.721 98.9861 119.721 102.652C119.721 104.719 118.917 106.035 117.67 107.159C119.305 107.809 120.293 109.084 120.293 111.558C120.293 114.76 118.372 117.616 113.595 118.351L107.789 119.244C107.249 119.327 106.768 118.861 106.768 118.256V100.378C106.768 99.7719 107.171 99.2581 107.712 99.175L113.023 98.3571ZM111.075 106.311L112.894 106.032C114.634 105.763 115.412 105.032 115.412 103.869C115.412 102.675 114.866 102.061 112.504 102.424L111.075 102.643V106.311ZM111.075 114.722L113.126 114.407C115.048 114.11 115.981 113.239 115.981 111.755C115.981 110.125 114.995 109.724 112.813 110.059L111.074 110.327V114.722H111.075Z" fill="white"/>
<path d="M130.736 115.334L127.017 108.57C126.901 108.359 126.684 108.243 126.462 108.277L126.297 108.302C126.02 108.345 125.814 108.608 125.814 108.918V115.923C125.814 116.235 125.607 116.498 125.33 116.539L122.141 117.03C121.804 117.081 121.504 116.792 121.504 116.415V97.594C121.504 97.2842 121.71 97.0198 121.988 96.9782L125.176 96.4871C125.514 96.4361 125.814 96.7251 125.814 97.1029V103.648C125.814 104.026 126.114 104.316 126.451 104.264C126.637 104.235 126.798 104.105 126.878 103.918L130.33 95.9734C130.41 95.7864 130.572 95.656 130.757 95.6277L134.143 95.1064C134.587 95.0384 134.921 95.5484 134.724 95.996L130.778 104.97C130.693 105.163 130.703 105.387 130.804 105.571L135.539 114.091C135.751 114.475 135.539 114.973 135.14 115.034L131.293 115.625C131.072 115.661 130.855 115.546 130.736 115.334Z" fill="white"/>
<path d="M150.552 92.5829C150.777 92.5489 150.957 92.7906 150.882 93.0305L145.828 108.997C144.686 112.639 142.913 113.959 139.67 114.609C139.186 114.705 138.74 114.29 138.74 113.744V111.549C138.74 111.022 139.073 110.567 139.538 110.463C140.785 110.185 141.48 109.76 141.958 108.98L136.323 95.8657C136.106 95.3576 136.395 94.7607 136.897 94.6852L139.729 94.2488C140.281 94.1638 140.817 94.4925 141.045 95.0573L144.009 102.378L146.519 93.5764C146.587 93.3384 146.772 93.1646 146.996 93.1287L150.552 92.5829Z" fill="white"/>
<path d="M160.635 97.2295C160.388 97.2672 160.154 97.101 160.079 96.8347C159.786 95.7958 159.021 95.0025 157.685 95.2084C155.893 95.4842 154.933 97.0859 154.933 100.376V103.519C154.933 106.662 155.868 108.119 157.685 107.839C159.095 107.622 159.801 106.774 160.107 105.359C160.156 105.131 160.324 104.959 160.532 104.927L163.582 104.458C163.935 104.403 164.224 104.755 164.152 105.142C163.393 109.226 161.25 111.307 157.685 111.857C153.609 112.484 150.623 110.178 150.623 104.182V101.039C150.623 94.9855 153.609 91.8198 157.685 91.1927C161.072 90.6714 163.446 92.2315 164.18 96.0716C164.242 96.3927 164.042 96.7044 163.749 96.7478L160.635 97.2295Z" fill="white"/>
<path d="M170.308 97.2257L174.927 96.5155C175.147 96.4815 175.31 96.2737 175.31 96.0281V89.2018C175.31 88.9563 175.473 88.7485 175.692 88.7145L179.117 88.1875C179.383 88.1459 179.621 88.3764 179.621 88.6748V107.764C179.621 108.009 179.458 108.217 179.239 108.251L175.814 108.778C175.548 108.819 175.31 108.589 175.31 108.291V101.037C175.31 100.739 175.072 100.509 174.805 100.55L170.186 101.26C169.967 101.294 169.804 101.502 169.804 101.748V109.273C169.804 109.518 169.641 109.726 169.421 109.76L165.996 110.287C165.73 110.329 165.492 110.098 165.492 109.8V90.711C165.492 90.4655 165.655 90.2577 165.875 90.2237L169.3 89.6967C169.566 89.6551 169.804 89.8856 169.804 90.184V96.7384C169.804 97.0368 170.042 97.2653 170.308 97.2257Z" fill="white"/>
<path d="M188.236 107.155C184.16 107.782 181.174 105.476 181.174 99.481V96.3379C181.174 90.2841 184.16 87.1184 188.236 86.4913C192.311 85.8642 195.297 88.1119 195.297 94.1638V97.3069C195.297 103.304 192.311 106.528 188.236 107.155ZM185.484 98.8199C185.484 102.108 186.443 103.415 188.236 103.14C190.028 102.864 190.988 101.262 190.988 97.9718V94.8287C190.988 91.5402 190.028 90.2331 188.236 90.5089C186.443 90.7847 185.484 92.3864 185.484 95.6768V98.8199Z" fill="white"/>
<path d="M110.081 127.444V135.333C110.081 135.486 110.261 135.543 110.335 135.413L115.304 126.52C115.325 126.482 115.36 126.456 115.402 126.45L117.771 126.085C117.854 126.072 117.927 126.144 117.927 126.237V141.1C117.927 141.176 117.876 141.24 117.809 141.251L114.826 141.71C114.744 141.723 114.671 141.652 114.671 141.559V133.777C114.671 133.624 114.491 133.567 114.417 133.696L109.487 142.475C109.467 142.513 109.431 142.539 109.39 142.545L106.981 142.915C106.898 142.928 106.825 142.857 106.825 142.764V127.901C106.825 127.825 106.876 127.761 106.943 127.75L109.926 127.291C110.008 127.281 110.081 127.351 110.081 127.444Z" fill="white"/>
<path d="M135.34 123.985V138.095C135.34 138.357 135.166 138.578 134.931 138.614L132.622 138.969C132.337 139.013 132.084 138.767 132.084 138.45V127.519C132.084 127.2 131.831 126.956 131.546 127L128.019 127.542C127.785 127.578 127.611 127.801 127.611 128.061V139.283C127.611 139.545 127.436 139.766 127.202 139.802L124.893 140.157C124.608 140.201 124.354 139.955 124.354 139.638V125.528C124.354 125.266 124.529 125.045 124.763 125.009L134.8 123.464C135.087 123.42 135.34 123.666 135.34 123.985Z" fill="white"/>
<path d="M139.974 133.191V137.366C139.974 137.638 139.794 137.868 139.55 137.906L137.276 138.255C136.982 138.301 136.718 138.046 136.718 137.715V123.645C136.718 123.373 136.898 123.143 137.141 123.105L141.817 122.385C144.936 121.905 146.936 123.137 146.936 126.522C146.936 129.886 144.955 131.949 141.817 132.432L140.396 132.651C140.154 132.689 139.974 132.919 139.974 133.191ZM141.228 129.489C142.934 129.227 143.68 128.539 143.68 127.022C143.68 125.791 142.934 125.247 141.228 125.509L140.396 125.638C140.154 125.676 139.972 125.906 139.972 126.178V129.057C139.972 129.387 140.235 129.642 140.531 129.597L141.228 129.489Z" fill="white"/>
<path d="M152.737 136.095C149.657 136.569 147.401 134.827 147.401 130.298V127.923C147.401 123.35 149.657 120.959 152.737 120.485C155.817 120.011 158.072 121.709 158.072 126.282V128.656C158.072 133.186 155.815 135.622 152.737 136.095ZM150.658 129.797C150.658 132.281 151.383 133.269 152.737 133.061C154.09 132.853 154.816 131.643 154.816 129.157V126.782C154.816 124.299 154.09 123.311 152.737 123.519C151.383 123.726 150.658 124.937 150.658 127.423V129.797Z" fill="white"/>
<path d="M166.512 123.269C166.283 123.305 166.07 123.15 165.993 122.908C165.757 122.16 165.185 121.603 164.206 121.754C162.853 121.962 162.127 123.173 162.127 125.659V128.033C162.127 130.407 162.834 131.508 164.206 131.297C165.25 131.136 165.783 130.517 166.021 129.489C166.07 129.278 166.225 129.117 166.42 129.089L168.531 128.764C168.863 128.713 169.137 129.045 169.063 129.408C168.465 132.394 166.857 133.924 164.206 134.332C161.126 134.806 158.871 133.065 158.871 128.535V126.161C158.871 121.588 161.126 119.197 164.206 118.723C166.731 118.334 168.512 119.478 169.092 122.298C169.153 122.599 168.964 122.891 168.689 122.935L166.512 123.269Z" fill="white"/>
<path d="M179.696 116.93V119.308C179.696 119.471 179.587 119.609 179.443 119.631L176.417 120.098C176.273 120.12 176.164 120.258 176.164 120.421V131.99C176.164 132.153 176.055 132.29 175.911 132.313L173.241 132.725C173.065 132.751 172.908 132.6 172.908 132.402V121.012C172.908 120.816 172.75 120.663 172.574 120.689L169.71 121.129C169.533 121.156 169.376 121.004 169.376 120.806V118.428C169.376 118.266 169.485 118.128 169.629 118.105L179.36 116.607C179.54 116.581 179.696 116.732 179.696 116.93Z" fill="white"/>
<path d="M185.286 131.087C182.208 131.561 179.951 129.82 179.951 125.29V122.916C179.951 118.343 182.206 115.952 185.286 115.478C188.366 115.004 190.622 116.702 190.622 121.275V123.649C190.62 128.176 188.365 130.613 185.286 131.087ZM183.207 124.79C183.207 127.274 183.933 128.261 185.286 128.054C186.64 127.846 187.365 126.635 187.365 124.149V121.775C187.365 119.291 186.64 118.303 185.286 118.511C183.933 118.719 183.207 119.93 183.207 122.415V124.79Z" fill="white"/>
<path d="M194.408 129.463L191.98 129.837C191.791 129.865 191.62 129.703 191.62 129.489V126.767C191.62 126.592 191.736 126.444 191.892 126.42L194.32 126.046C194.509 126.018 194.68 126.18 194.68 126.393V129.115C194.681 129.291 194.565 129.44 194.408 129.463ZM194.224 114.322L191.993 114.665C191.838 114.69 191.721 114.837 191.721 115.013V125.321C191.721 125.534 191.89 125.696 192.081 125.668L194.312 125.324C194.468 125.3 194.584 125.152 194.584 124.977V114.669C194.582 114.456 194.413 114.291 194.224 114.322Z" fill="white"/>
</g>
<defs>
<clipPath id="clip0_542_10613">
<rect width="119" height="95" fill="white" transform="translate(91 72)"/>
</clipPath>
</defs>
</svg>
