<svg width="330" height="240" viewBox="0 0 330 240" fill="none" xmlns="http://www.w3.org/2000/svg">
<rect width="330" height="240" fill="white"/>
<g clip-path="url(#clip0_3039_798)">
<path d="M273.418 101.248C264.237 86.5979 224.422 71 165 71C105.76 71 66.0907 86.8962 56.6701 101.248C52.1135 108.189 51.4827 129.612 56.5814 137.746C65.7623 152.397 105.577 168 165 167.995C224.24 167.995 263.909 152.099 273.33 137.746C277.886 130.806 278.517 109.388 273.418 101.248Z" fill="url(#paint0_linear_3039_798)"/>
<path d="M268.147 102.122C259.414 88.1734 221.81 73.3187 164.999 73.324C108.355 73.324 70.8967 88.4613 61.9348 102.128C57.6025 108.739 57.0029 129.131 61.8514 136.878C70.5891 150.827 108.188 165.681 164.999 165.681C221.643 165.681 259.101 150.544 268.063 136.878C272.401 130.267 273 109.869 268.147 102.122Z" fill="white"/>
<path d="M268.147 102.122C259.414 88.1734 221.81 73.3187 164.999 73.324C108.355 73.324 70.8967 88.4613 61.9348 102.128C57.6025 108.739 57.0029 129.131 61.8514 136.878C70.5891 150.827 108.188 165.681 164.999 165.681C221.643 165.681 259.101 150.544 268.063 136.878C272.401 130.267 273 109.869 268.147 102.122Z" fill="url(#paint1_radial_3039_798)"/>
<path d="M268.147 102.122C259.414 88.1734 221.81 73.3187 164.999 73.324C108.355 73.324 70.8967 88.4613 61.9348 102.128C57.6025 108.739 57.0029 129.131 61.8514 136.878C70.5891 150.827 108.188 165.681 164.999 165.681C221.643 165.681 259.101 150.544 268.063 136.878C272.401 130.267 273 109.869 268.147 102.122Z" fill="url(#paint2_radial_3039_798)"/>
<path d="M248.29 109.147C248.29 109.147 247.894 106.545 249.208 104.504C250.521 102.463 253.05 101.761 253.05 101.761C253.05 101.761 253.446 104.363 252.132 106.404C250.819 108.445 248.29 109.147 248.29 109.147ZM252.179 109.189L252.19 109.257L246.288 127.398L246.611 109.189H242.78V135.255H246.809L252.695 117.155L252.377 135.255H256.204V109.189H252.179ZM166.116 123.918H171.851V120.275H166.116V112.842H173.394V109.199H162.284V135.234H173.597V131.591H166.116V123.918ZM189.842 135.25V109.183H186.011V120.28H180.646V109.183H176.814V135.25H180.646V123.918H186.011V135.25H189.842ZM234.871 109.251L228.969 127.393L229.292 109.183H225.466V135.25H229.496L235.382 117.15L235.064 135.25H238.896V109.183H234.866L234.871 109.251ZM73.7864 135.26H78.2282V105.116H73.7864V135.26ZM108.523 121.327C108.31 125.519 108.07 127.854 107.564 130.188C107.121 132.245 106.521 133.648 105.312 135.051C105.312 135.051 106.052 135.773 107.449 135.773C109.18 135.773 110.442 134.559 111.13 131.476C111.667 129.079 111.933 125.671 112.1 123.017C112.752 112.837 112.752 112.837 112.752 112.837H116.177V135.255H120.003V109.199L109.144 109.183C109.149 109.183 109.149 109.183 108.523 121.327ZM86.5749 112.596C89.5622 108.126 89.9897 103.274 89.9897 103.274C89.9897 103.274 85.6313 105.713 82.6701 110.194C80.1468 114.015 79.4482 118.076 79.297 119.202C79.2918 119.202 83.5668 117.103 86.5749 112.596ZM220.93 131.219L216.16 121.677L222.046 109.178H217.953L212.218 121.515V109.183H208.387V135.25H212.218V122.269C212.573 123.002 213.636 125.2 216.864 131.868C218.318 134.873 219.882 135.773 221.483 135.773C223.01 135.773 223.777 135.061 223.777 135.061C222.817 134.266 221.879 133.077 220.93 131.219ZM152.738 109.199L149.157 127.712L145.44 109.199H140.252L139.773 135.234H143.605L143.427 115.663L147.65 135.234H147.697H150.664H150.71L154.647 115.632L154.673 135.234H158.505L158.025 109.199H152.738ZM103.826 114.852V129.393C103.826 132.753 101.089 135.485 97.7786 135.485C94.4628 135.485 91.731 132.753 91.731 129.393V114.852C91.731 111.492 94.468 108.759 97.7786 108.759C101.089 108.759 103.826 111.492 103.826 114.852ZM99.9943 114.517C99.9943 113.24 98.9776 112.203 97.7733 112.203C96.569 112.203 95.5524 113.24 95.5524 114.517V129.722C95.5524 130.999 96.569 132.036 97.7733 132.036C98.9776 132.036 99.9943 130.999 99.9943 129.722V114.517ZM136.097 129.393C136.097 132.753 133.365 135.485 130.05 135.485C126.734 135.485 124.002 132.753 124.002 129.393V114.852C124.002 111.492 126.734 108.759 130.05 108.759C133.365 108.759 136.097 111.492 136.097 114.852V129.393ZM132.271 114.517C132.271 113.24 131.254 112.203 130.05 112.203C128.845 112.203 127.829 113.24 127.829 114.517V129.722C127.829 130.999 128.845 132.036 130.05 132.036C131.254 132.036 132.271 130.999 132.271 129.722V114.517ZM205.05 129.393V126.844H201.338V129.722C201.338 130.999 200.321 132.036 199.117 132.036C197.913 132.036 196.896 130.999 196.896 129.722V114.517C196.896 113.24 197.913 112.203 199.117 112.203C200.321 112.203 201.338 113.24 201.338 114.517V117.244H205.05V114.852C205.05 111.492 202.433 108.759 199.117 108.759C195.801 108.759 193.07 111.492 193.07 114.852V129.393C193.07 132.753 195.801 135.485 199.117 135.485C202.433 135.485 205.05 132.753 205.05 129.393ZM87.6176 130.837L83.8587 120.076H79.2918C79.4794 120.657 80.1989 122.902 82.9933 131.601C84.1924 135.339 85.8711 136.192 87.6749 136.192C89.4684 136.192 90.3442 135.354 90.3442 135.354C89.0878 134.417 88.4778 133.219 87.6176 130.837Z" fill="white"/>
</g>
<defs>
<linearGradient id="paint0_linear_3039_798" x1="52.9998" y1="119.499" x2="277" y2="119.499" gradientUnits="userSpaceOnUse">
<stop stop-color="#A57D6D"/>
<stop offset="0.0636" stop-color="#B38970"/>
<stop offset="0.2546" stop-color="#DBA979"/>
<stop offset="0.4067" stop-color="#F3BD7E"/>
<stop offset="0.5" stop-color="#FCC480"/>
<stop offset="0.5933" stop-color="#F3BD7E"/>
<stop offset="0.7454" stop-color="#DBA979"/>
<stop offset="0.9364" stop-color="#B38970"/>
<stop offset="1" stop-color="#A57D6D"/>
</linearGradient>
<radialGradient id="paint1_radial_3039_798" cx="0" cy="0" r="1" gradientUnits="userSpaceOnUse" gradientTransform="translate(164.999 119.497) scale(104.555 41.5371)">
<stop offset="0.1462" stop-color="#00BDF2"/>
<stop offset="0.255" stop-color="#2AC8F4"/>
<stop offset="0.4624" stop-color="#75DBF8"/>
<stop offset="0.6481" stop-color="#B0EBFB"/>
<stop offset="0.8051" stop-color="#DBF6FD"/>
<stop offset="0.9274" stop-color="#F5FCFF"/>
<stop offset="1" stop-color="white"/>
</radialGradient>
<radialGradient id="paint2_radial_3039_798" cx="0" cy="0" r="1" gradientUnits="userSpaceOnUse" gradientTransform="translate(164.999 119.497) scale(104.555 41.5371)">
<stop offset="0.1462" stop-color="#CCDCF0"/>
<stop offset="0.3651" stop-color="#8AAFDD"/>
<stop offset="0.5838" stop-color="#4F86CB"/>
<stop offset="0.7695" stop-color="#2469BF"/>
<stop offset="0.9141" stop-color="#0A57B7"/>
<stop offset="1" stop-color="#0050B4"/>
</radialGradient>
<clipPath id="clip0_3039_798">
<rect width="224" height="97" fill="white" transform="translate(53 71)"/>
</clipPath>
</defs>
</svg>
