<svg width="330" height="240" viewBox="0 0 330 240" fill="none" xmlns="http://www.w3.org/2000/svg">
<rect width="330" height="240" fill="white"/>
<g clip-path="url(#clip0_3039_808)">
<path d="M253.754 99.0429C253.113 75.8357 242.333 67.9929 222.506 68.1857C216.602 68.25 208.004 69.6643 198.893 71.9786C188.37 74.7429 173.227 79.7571 163.602 83.2929C153.977 86.8286 138.77 91.9071 128.118 94.6714C120.162 96.7286 111.628 98.1429 104.056 98.5286C102.452 98.5929 100.848 98.6571 99.3079 98.7214C91.1588 98.7857 85.1273 97.7571 81.0849 95.5071C81.534 95.6357 92.5063 98.9143 111.563 94.4143C112.269 89.0786 113.039 81.4286 113.039 81.4286C79.2882 82.2643 76.5933 91.5214 76.5933 91.5214C76.5933 91.5214 74.7966 126.686 75.2458 141.793C76.0799 169.757 96.5487 177.986 129.722 167.379C140.117 164.036 155.388 159.6 165.013 156.064C174.702 152.529 189.91 147.45 200.497 144.686C208.453 142.629 216.987 141.214 224.559 140.829C226.163 140.764 227.767 140.7 229.307 140.636C237.713 140.571 243.873 141.664 247.915 144.043L247.466 144.3C247.466 144.3 236.43 140.829 216.987 145.393C216.282 150.729 215.512 158.379 215.512 158.379C249.263 157.607 251.958 148.479 251.958 148.479C251.958 148.479 254.203 114.15 253.754 99.0429Z" fill="white"/>
<path d="M105.019 174C96.8695 174 90.1322 172.136 84.9348 168.536C77.3632 163.2 73.385 154.2 73 141.921C72.7433 134.014 73.1283 120.707 73.5133 110.936C73.77 105.6 73.9625 100.714 74.155 97.1786C74.2833 93.7714 74.4116 91.9714 74.6041 90.9429H74.5399C75.0533 89.1429 79.4165 80.0786 113.039 79.3071L115.478 79.2429L115.221 81.6857C115.221 81.75 114.451 89.4643 113.681 94.7357L113.617 95.3786C118.237 94.6714 122.985 93.7714 127.541 92.55C138.128 89.7857 153.271 84.7714 162.832 81.2357C172.521 77.7 187.728 72.6214 198.315 69.8572C207.619 67.4143 216.41 66 222.441 66C244.899 65.8072 255.23 75.9643 255.872 98.9786C256.321 114.021 254.075 147.257 254.011 148.671L253.947 149.121C253.433 150.921 249.07 159.857 215.447 160.564L213.009 160.629L213.266 158.186C213.266 158.121 214.036 150.407 214.806 145.136L214.934 144.043C210.314 144.686 205.63 145.65 201.074 146.871C190.551 149.636 175.408 154.65 165.783 158.186C159.11 160.629 149.614 163.586 141.272 166.157C137.358 167.379 133.636 168.536 130.428 169.564C120.932 172.521 112.398 174 105.019 174ZM78.7749 92.1C78.5824 95.9571 77.0424 127.521 77.4274 141.793C77.7482 152.657 81.149 160.436 87.5014 165C96.1637 171.171 110.537 171.3 129.081 165.386C132.353 164.357 136.075 163.2 139.989 161.979C148.33 159.407 157.763 156.514 164.307 154.071C173.996 150.536 189.332 145.393 199.983 142.629C208.068 140.507 216.795 139.093 224.431 138.707C226.035 138.643 227.703 138.579 229.307 138.514C238.162 138.45 244.578 139.607 249.006 142.179L250.097 142.821C250.738 132.471 251.958 110.293 251.637 99.1072C251.059 78.5357 242.654 70.1786 222.634 70.3714C216.923 70.4357 208.517 71.7857 199.534 74.1C189.075 76.8 173.996 81.8143 164.436 85.35C154.747 88.8857 139.475 94.0286 128.76 96.7929C120.675 98.9143 111.948 100.329 104.313 100.714C102.644 100.779 100.976 100.843 99.5003 100.907C90.9021 100.971 84.6139 99.8786 80.1865 97.4357L81.8548 93.45C82.304 93.5786 92.1855 96.4714 109.767 92.6786C110.152 89.5929 110.537 86.0571 110.793 83.7429C84.6139 84.7071 79.4807 90.9429 78.7749 92.1ZM218.848 147.193C218.463 150.279 218.078 153.814 217.821 156.129C243.873 155.164 249.006 149.057 249.712 147.9C249.712 147.45 249.776 146.55 249.84 145.393L247.594 146.679L246.696 146.421C246.696 146.357 236.494 143.336 218.848 147.193Z" fill="white"/>
<path d="M253.754 99.0429C253.113 75.8357 242.333 67.9929 222.506 68.1857C216.602 68.25 208.004 69.6643 198.893 71.9786C188.37 74.7429 173.226 79.7571 163.602 83.2929C153.977 86.8286 138.77 91.9071 128.118 94.6714C120.162 96.7286 111.628 98.1429 104.056 98.5286C102.452 98.5929 100.848 98.6571 99.3078 98.7214C91.1588 98.7857 85.1273 97.7571 81.0848 95.5071C81.534 95.6357 92.5063 98.9143 111.563 94.4143C112.269 89.0786 113.039 81.4286 113.039 81.4286C79.2882 82.2643 76.5933 91.3929 76.5933 91.3929V91.5857C76.5933 91.5857 76.5933 91.5214 76.5291 91.5214C75.6949 99.4929 74.7966 126.75 75.2458 141.857C76.0799 169.821 96.5487 178.05 129.722 167.443C140.117 164.1 155.388 159.664 165.013 156.129C174.702 152.593 189.91 147.514 200.497 144.75C208.453 142.693 216.987 141.279 224.559 140.893C226.163 140.829 227.767 140.764 229.307 140.7C237.713 140.636 243.873 141.729 247.915 144.107V144.171C247.915 144.171 236.365 140.893 216.923 145.457C216.217 150.793 215.447 158.443 215.447 158.443C249.198 157.671 251.893 148.543 251.893 148.543C251.893 148.543 254.203 114.15 253.754 99.0429Z" fill="#00369C"/>
<path d="M180.926 112.8C180.156 112.029 179.13 111.579 177.911 111.386C176.691 111.257 175.216 111.45 173.547 111.964C171.109 112.736 169.12 113.829 167.516 115.243C165.912 116.657 164.628 118.264 163.666 120.064C162.703 121.864 162.062 123.793 161.677 125.85C161.292 127.907 161.163 129.964 161.227 131.957C161.292 133.629 161.484 135.236 161.805 136.586C162.19 138 162.703 139.093 163.537 139.993C164.307 140.829 165.334 141.407 166.682 141.664C167.965 141.921 169.569 141.729 171.494 141.15C173.226 140.636 174.766 139.864 175.986 138.964C177.269 138.064 178.36 136.971 179.258 135.814C180.156 134.657 180.862 133.436 181.44 132.086C182.017 130.8 182.402 129.45 182.723 128.1C183.044 126.75 183.236 125.464 183.3 124.243C183.365 123.021 183.429 121.864 183.429 120.836C183.365 118.971 183.172 117.364 182.787 116.014C182.338 114.664 181.76 113.571 180.926 112.8ZM176.756 126.171C176.627 127.393 176.435 128.55 176.05 129.771C175.665 130.993 175.216 132.021 174.51 132.986C173.868 133.95 172.97 134.593 171.943 134.914C170.66 135.3 169.633 135.107 168.863 134.207C168.093 133.371 167.708 131.764 167.644 129.386C167.644 128.871 167.644 128.293 167.644 127.586C167.644 126.943 167.772 126.171 167.837 125.464C167.965 124.693 168.157 123.986 168.35 123.214C168.607 122.443 168.863 121.736 169.248 121.093C169.633 120.45 170.146 119.807 170.724 119.357C171.301 118.843 172.007 118.457 172.841 118.2C174.189 117.75 175.151 118.007 175.793 118.971C176.435 119.871 176.756 121.286 176.82 123.15C176.948 123.986 176.884 124.95 176.756 126.171Z" fill="white"/>
<path d="M199.919 107.143L199.983 104.829C199.983 104.636 199.919 104.507 199.791 104.443C199.663 104.379 199.534 104.379 199.406 104.443L188.947 107.657V107.721C188.883 107.721 188.69 107.786 188.498 107.786L186.573 108.364C186.188 108.493 185.995 108.75 186.06 109.136C186.06 109.586 186.06 110.421 185.995 111.579C185.995 112.157 185.931 112.864 185.931 113.571C185.931 114.279 185.867 115.05 185.867 115.821C185.867 116.014 185.867 116.143 185.867 116.271C185.867 116.4 185.867 116.593 185.867 116.721H185.931C185.931 116.85 185.931 116.979 185.931 117.107C185.931 117.236 185.931 117.364 185.931 117.493C185.931 118.136 185.867 118.779 185.867 119.421C185.867 120.064 185.803 120.707 185.803 121.35C185.803 121.993 185.739 122.636 185.739 123.279C185.739 123.921 185.675 124.564 185.675 125.207C185.675 125.85 185.61 126.429 185.61 127.007C185.61 127.586 185.61 128.164 185.546 128.679C185.482 129.193 185.482 129.707 185.482 130.157C185.482 130.607 185.482 131.057 185.418 131.443C185.418 131.829 185.418 132.15 185.418 132.471C185.418 132.729 185.418 132.986 185.418 133.179C185.418 134.271 185.739 134.979 186.316 135.364C186.894 135.75 187.792 135.75 189.14 135.364L191.193 134.721C191.385 134.657 191.514 134.4 191.578 134.014L192.284 112.093L197.417 110.486C198.444 110.164 199.149 109.714 199.47 109.136C199.663 108.814 199.791 108.557 199.855 108.171C199.855 107.914 199.919 107.529 199.919 107.143Z" fill="white"/>
<path d="M219.297 100.329C218.527 99.5572 217.501 99.1072 216.281 98.9143C215.062 98.7857 213.587 98.9786 211.918 99.4929C209.48 100.264 207.491 101.357 205.887 102.771C204.283 104.186 202.999 105.793 202.037 107.593C201.074 109.393 200.433 111.321 200.048 113.379C199.663 115.436 199.534 117.493 199.598 119.486C199.663 121.157 199.855 122.764 200.176 124.114C200.561 125.529 201.074 126.621 201.908 127.521C202.678 128.357 203.705 128.936 205.053 129.193C206.336 129.45 207.94 129.257 209.865 128.679C211.597 128.164 213.137 127.393 214.357 126.493C215.64 125.593 216.731 124.5 217.629 123.343C218.527 122.186 219.233 120.964 219.811 119.614C220.388 118.329 220.773 116.979 221.094 115.629C221.415 114.279 221.607 112.993 221.671 111.771C221.736 110.55 221.8 109.393 221.8 108.364C221.736 106.5 221.543 104.893 221.158 103.543C220.645 102.193 220.067 101.1 219.297 100.329ZM215.127 113.636C214.998 114.857 214.806 116.014 214.421 117.236C214.036 118.457 213.587 119.486 212.881 120.45C212.239 121.414 211.341 122.057 210.314 122.379C209.031 122.764 208.004 122.571 207.234 121.671C206.464 120.836 206.079 119.229 206.015 116.85C206.015 116.336 206.015 115.757 206.015 115.05C206.015 114.407 206.143 113.636 206.208 112.929C206.336 112.157 206.528 111.45 206.721 110.679C206.913 109.907 207.234 109.2 207.619 108.557C208.004 107.914 208.517 107.271 209.095 106.821C209.672 106.307 210.378 105.921 211.212 105.664C212.56 105.214 213.522 105.471 214.164 106.436C214.806 107.336 215.127 108.75 215.191 110.614C215.255 111.45 215.191 112.479 215.127 113.636Z" fill="white"/>
<path d="M240.215 106.693C239.638 105.793 238.675 105.343 237.264 105.279C237.969 104.829 238.547 104.314 239.06 103.736C239.509 103.157 239.894 102.514 240.151 101.807C240.408 101.1 240.6 100.457 240.664 99.75C240.793 99.0429 240.793 98.4 240.793 97.7572C240.793 96.6643 240.536 95.7 240.151 94.9286C239.766 94.1572 239.124 93.6429 238.354 93.2572C237.52 92.9357 236.494 92.7429 235.21 92.8714C233.927 92.9357 232.387 93.2572 230.655 93.7715C229.949 93.9643 229.115 94.2857 228.152 94.6072C227.19 94.9286 226.035 95.3786 224.623 95.9572C224.431 96.0214 224.366 96.0857 224.238 96.15C224.174 96.2143 224.11 96.3429 224.046 96.5357C224.046 96.6643 223.981 96.9214 223.981 97.1786C223.981 97.4357 223.981 97.7572 223.981 98.2072C223.981 98.4 223.981 98.6572 223.981 98.9786C223.981 99.3 223.981 99.8143 223.917 100.586C223.917 101.357 223.853 102.386 223.789 103.736C223.725 105.086 223.661 106.95 223.532 109.329C223.468 111.257 223.404 112.8 223.34 114.086C223.276 115.307 223.276 116.336 223.211 117.171C223.211 117.943 223.147 118.586 223.147 118.971C223.147 119.421 223.147 119.743 223.147 120C223.147 120.771 223.276 121.414 223.468 121.929C223.661 122.443 224.046 122.764 224.623 123.021C225.136 123.214 225.842 123.279 226.74 123.214C227.639 123.15 228.794 122.893 230.141 122.443C232.259 121.8 234.055 120.964 235.467 120.064C236.879 119.164 237.969 118.2 238.868 117.107C239.702 116.079 240.279 114.921 240.6 113.764C240.921 112.607 241.049 111.45 241.049 110.229C241.114 108.75 240.857 107.593 240.215 106.693ZM235.146 113.379C235.082 113.829 234.954 114.279 234.697 114.664C234.44 115.114 234.12 115.5 233.67 115.886C233.221 116.271 232.644 116.529 231.938 116.786C231.232 116.979 230.526 117.107 229.628 117.043L229.82 110.614C230.205 110.421 230.59 110.229 230.975 110.1C231.36 109.971 231.681 109.843 231.938 109.779C233.093 109.393 233.927 109.521 234.44 109.971C234.954 110.486 235.21 111.193 235.21 112.157C235.274 112.479 235.21 112.929 235.146 113.379ZM235.21 101.743C235.146 102.129 234.954 102.45 234.761 102.836C234.505 103.221 234.184 103.543 233.799 103.864C233.414 104.186 232.836 104.443 232.13 104.636C231.553 104.829 230.911 104.893 230.141 104.957C230.205 103.864 230.205 102.9 230.205 101.936C230.205 101.036 230.205 100.2 230.27 99.5572C230.59 99.4286 230.911 99.2357 231.232 99.1072C231.553 98.9786 231.81 98.85 232.066 98.7857C233.221 98.4 234.055 98.4643 234.569 98.9143C235.082 99.3643 235.339 99.9429 235.339 100.779C235.274 101.036 235.274 101.357 235.21 101.743Z" fill="white"/>
<path d="M139.155 126.943C139.09 125.657 138.834 124.757 138.32 124.179C137.807 123.664 136.845 123.6 135.433 124.05L133.508 124.629C133.444 124.629 133.444 124.629 133.38 124.693C133.38 124.693 133.316 124.757 133.251 124.757H133.187C133.123 124.757 133.059 124.886 132.995 125.014C132.931 125.143 132.866 125.271 132.802 125.4C132.802 125.464 132.738 125.657 132.61 125.914C132.481 126.171 132.353 126.493 132.225 126.879C132.096 127.264 131.904 127.65 131.711 128.036C131.519 128.486 131.391 128.871 131.198 129.193C131.07 129.45 130.941 129.836 130.685 130.35C130.492 130.864 130.236 131.443 129.915 132.15C129.658 132.793 129.337 133.564 129.016 134.336C128.696 135.107 128.375 135.879 128.054 136.586C127.733 137.293 127.476 138 127.22 138.643C126.963 139.286 126.707 139.8 126.578 140.25C126.386 140.764 126.129 141.343 125.937 141.857C125.872 142.05 125.808 142.243 125.744 142.371C125.872 138.45 126.065 133.95 126.129 131.829C126.193 131.314 126.193 130.929 126.193 130.607C126.129 129.514 125.872 128.743 125.359 128.229C124.846 127.714 123.883 127.65 122.472 128.1L120.547 128.679C120.162 128.807 119.969 129.064 120.033 129.45C120.033 129.9 120.033 130.736 119.969 131.893C119.969 132.471 119.905 133.179 119.905 133.886C119.905 134.593 119.841 135.364 119.841 136.136C119.841 136.971 119.777 137.807 119.777 138.643C119.712 139.479 119.712 140.379 119.648 141.279C119.648 142.179 119.584 143.079 119.584 143.914C119.52 144.75 119.52 145.586 119.456 146.421C119.456 147.257 119.392 148.029 119.392 148.8C119.392 149.507 119.327 150.214 119.327 150.857C119.327 151.436 119.263 151.886 119.327 152.271C119.327 152.657 119.327 152.979 119.327 153.3H119.263C119.263 153.686 119.327 154.136 119.392 154.65C119.456 155.164 119.648 155.614 119.905 155.871C120.033 156 120.097 156.064 120.226 156.129C120.354 156.193 120.547 156.193 120.739 156.193C120.932 156.193 121.252 156.129 121.573 156.064C121.894 156 122.343 155.871 122.857 155.743H122.792L122.985 155.679L124.332 155.229C124.397 155.229 124.461 155.229 124.461 155.229C124.525 155.229 124.589 155.229 124.589 155.229C125.102 155.1 125.487 154.843 125.68 154.457C125.872 154.136 126.065 153.75 126.193 153.364C126.257 153.171 126.45 152.786 126.707 152.079C126.963 151.436 127.284 150.664 127.605 149.764C127.926 148.864 128.246 147.964 128.631 147.064C129.016 146.164 129.337 145.329 129.594 144.621C129.786 144.043 130.107 143.271 130.492 142.307C130.877 141.343 131.262 140.379 131.647 139.35C131.904 138.771 132.096 138.193 132.353 137.679C132.289 142.243 132.096 148.8 132.096 148.8C132.096 149.057 132.096 149.314 132.096 149.507C132.096 150.6 132.417 151.307 132.995 151.693C133.572 152.079 134.471 152.079 135.818 151.693L137.743 151.114C137.935 151.05 138.064 150.986 138.128 150.857C138.192 150.729 138.256 150.536 138.256 150.343C138.256 150.15 138.32 149.764 138.32 149.057C138.385 148.671 138.385 148.286 138.385 147.836C138.385 147.386 138.385 146.871 138.449 146.357C138.513 145.843 138.513 145.264 138.513 144.686C138.513 144.107 138.577 143.464 138.577 142.757C138.577 142.05 138.641 141.407 138.641 140.7C138.641 140.057 138.705 139.35 138.705 138.643C138.705 137.936 138.77 137.293 138.77 136.586C138.77 135.943 138.834 135.236 138.834 134.529C138.834 133.821 138.898 133.179 138.898 132.6C138.898 132.021 138.898 131.443 138.962 130.864C138.962 130.35 139.026 129.836 139.026 129.386C139.026 128.936 139.026 128.55 139.09 128.164C139.09 127.779 139.09 127.521 139.09 127.329C139.155 127.2 139.155 127.071 139.155 126.943Z" fill="white"/>
<path d="M115.991 116.593C115.991 116.593 115.157 116.979 113.745 117.493C113.168 117.686 112.398 117.943 111.628 118.2C107.008 119.679 99.372 120.514 98.4737 120.579C97.5753 120.707 96.7412 120.771 95.9712 120.9C95.2012 120.964 94.4312 121.029 93.7896 121.157C92.4421 121.286 91.5438 121.414 91.0305 121.414C90.5813 121.414 90.3246 121.671 90.3246 122.121L90.068 124.307C89.8755 125.914 90.1321 127.007 90.838 127.521C91.4796 128.036 92.4421 128.229 93.6612 128.229C94.0462 128.229 94.4954 128.164 95.0729 128.1C95.3937 128.036 95.907 128.036 96.4204 127.971C96.4204 128.743 96.3562 129.771 96.3562 129.964C96.3562 130.414 96.3562 130.864 96.292 131.314C96.292 132.214 95.7145 145.264 95.7145 146.164C95.6504 147.064 95.6504 148.029 95.5862 149.057C95.5862 150.086 95.522 151.05 95.4579 151.95C95.3937 152.721 95.3937 153.493 95.3295 154.264C95.2012 157.414 95.0087 160.95 94.8162 164.871C94.8162 165.129 94.8804 165.321 94.8804 165.386C94.9446 165.45 95.0729 165.514 95.3295 165.45L97.3828 165.257C98.7945 165.129 99.8853 164.743 100.527 164.036C101.169 163.393 101.618 162.493 101.746 161.336C101.81 161.014 101.81 160.564 101.874 160.05V159.986C101.874 159.536 101.939 159.086 101.939 158.507C101.939 157.864 102.003 157.157 102.003 156.386C102.067 155.614 102.067 154.779 102.131 153.879C102.131 153.429 102.195 152.914 102.195 152.271C102.259 150.857 102.259 149.507 102.324 148.157C102.388 146.807 102.452 145.521 102.452 144.429C102.516 143.336 103.029 130.221 103.029 129.514C103.029 128.743 103.094 128.293 103.094 128.164C103.094 128.036 103.094 127.907 103.094 127.714C103.094 127.65 103.094 127.457 103.094 127.2C105.404 126.814 107.778 126.3 109.895 125.464C109.895 126.043 109.831 126.814 109.831 127.714C109.767 128.807 109.767 129.9 109.703 131.121C109.638 132.343 109.125 145.714 109.061 147C108.997 148.286 108.933 149.443 108.933 150.536C108.868 151.629 108.868 152.529 108.804 153.3C108.74 154.071 108.74 154.586 108.74 154.779C108.74 155.614 108.676 156.321 108.676 156.836C108.676 157.35 108.676 157.8 108.676 158.121C108.74 159.279 109.061 160.114 109.638 160.5C110.216 160.95 111.243 160.95 112.718 160.5L114.836 159.857C115.093 159.793 115.221 159.729 115.285 159.6C115.349 159.536 115.349 159.343 115.413 159.021C115.413 158.829 115.478 158.379 115.478 157.607C115.478 157.221 115.478 156.771 115.542 156.257C115.542 155.743 115.606 155.229 115.606 154.65C115.67 153.429 115.67 152.143 115.734 150.729C115.734 149.957 115.798 149.25 115.798 148.543C115.798 147.836 115.863 147.064 115.863 146.293C115.863 145.521 115.927 144.814 115.927 144.107C115.927 143.4 116.44 130.479 116.504 129.771C116.504 129.064 116.568 128.357 116.568 127.779C116.568 127.136 116.632 126.557 116.632 125.979V125.914L116.761 122.507L116.825 120L116.889 117.686C117.146 116.529 116.697 116.336 115.991 116.593Z" fill="white"/>
<path d="M157.442 119.357C156.736 118.779 155.902 118.521 154.811 118.393C153.72 118.329 152.437 118.521 150.961 118.971C150.448 119.1 149.87 119.357 149.164 119.614C148.459 119.871 147.817 120.129 147.047 120.386C146.341 120.643 145.635 120.9 144.865 121.221C144.159 121.479 143.454 121.736 142.876 121.929C142.748 121.993 142.62 122.057 142.555 122.186C142.427 122.314 142.363 122.507 142.363 122.7C142.363 123.086 142.363 123.471 142.363 123.793C142.363 124.114 142.363 124.5 142.363 124.886C142.363 125.271 142.363 125.786 142.363 126.3C142.363 126.814 142.299 127.521 142.299 128.293C142.299 129.064 142.235 130.029 142.17 131.186C142.106 132.279 142.042 133.629 141.978 135.236C141.914 136.521 141.85 137.743 141.85 138.964C141.785 140.186 141.785 141.279 141.721 142.307C141.657 143.336 141.657 144.236 141.657 144.943C141.657 145.714 141.657 146.229 141.657 146.55C141.657 147.707 141.978 148.479 142.555 148.864C143.133 149.25 144.095 149.25 145.379 148.864L146.983 148.35C147.175 148.286 147.304 148.221 147.368 148.093C147.432 147.964 147.496 147.836 147.496 147.579L147.56 145.779L147.817 138.321C147.817 138.321 148.587 140.057 151.089 139.543C154.811 138.579 156.736 135.3 157.506 134.014C158.276 132.664 158.789 131.25 159.11 129.771C159.431 128.229 159.559 126.75 159.559 125.207C159.495 123.793 159.303 122.636 158.982 121.607C158.661 120.707 158.083 119.936 157.442 119.357ZM153.528 129.257C153.463 129.964 153.271 130.671 153.014 131.379C152.758 132.086 152.373 132.729 151.859 133.307C151.346 133.886 150.704 134.336 149.934 134.529C149.678 134.593 149.357 134.721 149.036 134.786C148.715 134.85 148.33 134.914 148.009 134.914C148.074 133.179 148.138 131.507 148.138 129.964C148.138 128.421 148.202 127.071 148.202 125.979C148.651 125.786 149.036 125.657 149.357 125.464C149.742 125.336 150.063 125.207 150.384 125.079C151.603 124.693 152.373 124.757 152.886 125.207C153.335 125.657 153.592 126.429 153.656 127.521C153.656 127.971 153.592 128.55 153.528 129.257Z" fill="white"/>
<path d="M140.502 101.357C140.374 101.229 140.181 101.164 139.925 101.164C139.668 101.164 139.347 101.229 138.962 101.293L136.01 102.129C135.818 102.193 135.754 102.257 135.69 102.321C135.625 102.386 135.561 102.514 135.561 102.579C135.369 103.414 135.24 104.186 135.112 104.7C134.984 105.279 134.92 105.729 134.791 106.114C134.727 106.5 134.663 106.821 134.599 107.079C134.535 107.336 134.471 107.593 134.471 107.786C134.406 107.979 134.406 108.236 134.342 108.493C134.278 108.75 134.214 109.071 134.15 109.457C134.086 109.843 133.957 110.293 133.829 110.871C133.701 111.45 133.636 111.643 133.444 112.479C133.187 111.321 132.032 106.114 131.904 105.6C131.776 105.086 131.583 104.7 131.391 104.443C131.198 104.186 130.941 103.993 130.621 103.929C130.3 103.864 129.915 103.864 129.401 104.057L126.771 104.829C126.706 104.829 126.642 104.893 126.578 104.957C126.514 105.021 126.45 105.086 126.45 105.214C126.45 105.471 126.45 105.664 126.45 105.857C126.45 106.05 126.45 106.179 126.45 106.371C126.45 106.564 126.45 106.757 126.45 107.014C126.45 107.271 126.45 107.593 126.386 107.979C126.386 108.364 126.321 108.814 126.321 109.393C126.321 109.971 126.257 110.679 126.193 111.579C126.129 112.221 126.129 112.864 126.129 113.443C126.129 113.893 126.065 114.279 126.065 114.6C125.936 117.429 125.616 118.714 124.717 119.614C124.717 119.614 124.461 119.936 124.846 120.193C125.231 120.45 128.952 120.836 129.273 116.014C129.337 115.371 129.337 114.729 129.337 114.15V114.086C129.337 114.021 129.337 113.957 129.337 113.893C129.466 111.257 129.401 109.136 129.401 108.043C129.53 108.557 129.722 109.136 129.851 109.779C130.043 110.55 130.236 111.321 130.428 112.093C130.621 112.864 130.813 113.7 131.006 114.407C131.198 115.179 131.391 115.886 131.583 116.464C131.647 116.657 131.776 116.786 131.904 116.85C132.032 116.914 132.225 116.979 132.417 117.043C132.61 117.043 132.802 117.043 133.059 117.043C133.316 116.979 133.508 116.979 133.701 116.914C134.021 116.786 134.278 116.721 134.471 116.593C134.599 116.464 134.727 116.4 134.791 116.271C134.92 115.821 135.112 115.243 135.305 114.6C135.497 113.957 135.69 113.314 135.882 112.607C136.075 111.9 136.267 111.193 136.46 110.486C136.652 109.779 136.845 109.071 136.973 108.429C137.165 107.786 137.294 107.207 137.422 106.629C137.55 106.114 137.679 105.664 137.743 105.279C137.743 105.729 137.679 106.243 137.679 106.821C137.679 107.4 137.615 107.979 137.615 108.621C137.55 109.264 137.55 109.843 137.486 110.486C137.422 111.129 137.422 111.707 137.358 112.221C137.294 112.736 137.294 113.186 137.294 113.571C137.294 113.957 137.294 114.214 137.294 114.343C137.294 114.793 137.486 115.179 137.743 115.371C138.064 115.564 138.577 115.564 139.283 115.371L140.31 115.05C140.438 114.986 140.502 114.986 140.502 114.921C140.566 114.857 140.566 114.793 140.566 114.664C140.566 114.6 140.566 114.279 140.63 113.7C140.63 113.186 140.695 112.479 140.695 111.707C140.759 110.936 140.759 110.1 140.823 109.136C140.823 108.236 140.887 107.336 140.887 106.5C140.951 105.664 140.951 104.893 140.951 104.186C140.951 103.479 140.951 103.029 140.951 102.707C140.951 102.386 140.887 102.129 140.823 101.936C140.759 101.614 140.695 101.486 140.502 101.357Z" fill="white"/>
<path d="M153.271 107.914C153.078 107.143 152.758 106.114 152.437 104.829C152.052 103.543 151.603 101.936 151.025 100.007C150.961 99.75 150.897 99.4929 150.769 99.3C150.704 99.0429 150.576 98.85 150.384 98.7214C150.255 98.5929 150.063 98.4643 149.87 98.4C149.678 98.3357 149.421 98.3357 149.1 98.4643L147.304 98.9786C147.047 99.0429 146.919 99.1072 146.854 99.1714C146.79 99.2357 146.662 99.3643 146.598 99.5572C146.469 99.8143 146.277 100.329 146.02 101.036C145.764 101.743 145.507 102.514 145.25 103.414C144.929 104.314 144.673 105.279 144.352 106.243C144.031 107.271 143.774 108.171 143.518 109.071C143.261 109.971 143.069 110.807 142.94 111.45C142.812 112.157 142.684 112.671 142.748 112.929C142.748 113.186 142.812 113.314 142.94 113.443C143.069 113.571 143.197 113.636 143.389 113.7C143.582 113.764 143.774 113.764 143.967 113.764C144.159 113.764 144.416 113.7 144.609 113.636L145.571 113.314C145.828 113.25 145.956 113.121 146.02 112.864L146.534 109.971L149.806 109.007C149.87 109.457 149.934 109.843 149.999 110.229C150.063 110.55 150.191 110.871 150.384 111.064C150.576 111.257 150.833 111.386 151.154 111.45C151.474 111.514 151.924 111.45 152.437 111.257L153.399 111C153.592 110.936 153.72 110.871 153.784 110.807C153.848 110.743 153.913 110.614 153.913 110.421C153.913 110.293 153.848 109.971 153.784 109.586C153.656 109.264 153.528 108.686 153.271 107.914ZM147.111 107.014L148.33 101.486L149.293 106.371L147.111 107.014Z" fill="white"/>
<path d="M164.692 94.6714C164.307 94.4786 163.858 94.35 163.345 94.2857C162.767 94.2857 162.126 94.35 161.42 94.5428C160.522 94.8 159.688 95.1857 159.046 95.6357C158.404 96.0857 157.827 96.6643 157.378 97.2428C156.928 97.8214 156.543 98.4643 156.287 99.1071C156.03 99.75 155.773 100.457 155.645 101.1C155.517 101.743 155.388 102.386 155.388 102.964C155.324 103.543 155.324 104.057 155.324 104.507C155.388 105.729 155.517 106.629 155.902 107.336C156.223 108.043 156.672 108.557 157.185 108.879C157.698 109.2 158.276 109.393 158.918 109.393C159.559 109.393 160.201 109.329 160.843 109.136C161.484 108.943 162.062 108.686 162.511 108.429C163.024 108.107 163.409 107.85 163.73 107.529C164.051 107.207 164.372 106.886 164.5 106.564C165.206 105.15 165.142 104.121 165.142 103.929C165.142 103.543 164.949 103.35 164.692 103.479C164.5 103.543 164.307 103.671 164.115 103.864C163.922 104.057 163.73 104.314 163.473 104.571C163.217 104.829 162.96 105.086 162.575 105.343C162.254 105.6 161.805 105.793 161.292 105.986C160.522 106.243 159.88 106.114 159.495 105.729C159.11 105.343 158.853 104.507 158.853 103.35C158.853 103.093 158.853 102.836 158.853 102.45C158.853 102.129 158.918 101.743 158.982 101.357C159.046 100.971 159.11 100.586 159.238 100.2C159.367 99.8143 159.495 99.4286 159.688 99.1071C159.88 98.7857 160.073 98.4643 160.393 98.2071C160.65 97.95 161.035 97.7571 161.42 97.6286C161.677 97.5643 161.933 97.5643 162.062 97.5643C162.19 97.6286 162.318 97.7571 162.447 97.95C162.511 98.1428 162.575 98.4 162.575 98.7214C162.575 99.0428 162.639 99.4286 162.639 99.8786C162.639 100.007 162.703 100.136 162.767 100.136C162.832 100.136 163.024 100.136 163.281 100.071C164.115 99.8143 164.821 99.4286 165.27 98.9143C165.719 98.4 165.976 97.6928 165.912 96.8571C165.912 96.4071 165.783 95.9571 165.591 95.5714C165.334 95.1857 165.077 94.8643 164.692 94.6714Z" fill="white"/>
<path d="M176.627 90.3L168.222 92.7428C168.029 92.8071 167.837 92.9357 167.644 93C167.516 93.1286 167.387 93.2571 167.259 93.45C167.195 93.5786 167.067 93.7714 167.067 93.9643C167.002 94.1571 167.002 94.2857 167.002 94.4786V95.5714C167.002 95.7643 167.067 95.8286 167.195 95.7643L170.211 94.8643C170.211 95.3786 170.147 96.0214 170.147 96.6643C170.147 97.3071 170.082 97.95 170.082 98.5928C170.082 99.2357 170.018 99.8786 170.018 100.521C170.018 101.164 169.954 101.743 169.954 102.257C169.954 102.771 169.89 103.286 169.89 103.671C169.89 104.057 169.89 104.379 169.89 104.571C169.89 105.086 170.082 105.471 170.403 105.664C170.724 105.857 171.237 105.857 171.943 105.664L172.97 105.343C173.098 105.279 173.162 105.214 173.162 105.021L173.547 94.0286L175.601 93.45C176.178 93.2571 176.563 93.0643 176.691 92.7428C176.884 92.4214 176.948 92.1 176.948 91.7143L177.012 90.5571C177.012 90.4286 176.948 90.3643 176.884 90.3643C176.82 90.3 176.756 90.3 176.627 90.3Z" fill="white"/>
<path d="M185.739 87.6643L179.13 89.5929C178.937 89.6572 178.809 89.7858 178.809 89.9786C178.809 90.1715 178.809 90.6215 178.809 91.2C178.809 91.7786 178.745 92.4858 178.745 93.3215C178.681 94.1572 178.681 94.9929 178.616 95.8929C178.552 96.7929 178.552 97.6929 178.488 98.5286C178.424 99.3643 178.424 100.071 178.424 100.714C178.424 101.357 178.424 101.807 178.424 102.064C178.424 102.579 178.616 102.964 178.937 103.157C179.258 103.35 179.771 103.35 180.477 103.157L184.776 101.871C185.354 101.679 185.739 101.486 185.867 101.164C186.06 100.843 186.124 100.521 186.124 100.136L186.188 98.9786C186.188 98.9143 186.124 98.85 186.06 98.7858C185.995 98.7858 185.931 98.7858 185.867 98.7858L181.76 100.007L181.889 97.05L183.493 96.6C184.07 96.4072 184.455 96.2143 184.584 95.8929C184.776 95.5715 184.84 95.25 184.84 94.8643L184.905 93.7072C184.905 93.5786 184.84 93.5143 184.776 93.5143C184.712 93.5143 184.648 93.5143 184.584 93.5143L181.889 94.2858L182.017 91.4572L184.584 90.6858C185.161 90.4929 185.546 90.3 185.675 89.9786C185.867 89.6572 185.931 89.3358 185.931 88.95L185.995 87.7929C185.995 87.6643 185.931 87.6 185.867 87.6C185.867 87.6643 185.803 87.6643 185.739 87.6643Z" fill="white"/>
<path d="M197.545 86.6357C197.353 86.1214 197.096 85.7357 196.711 85.4786C196.326 85.2214 195.877 85.0286 195.299 85.0286C194.722 84.9643 194.016 85.0929 193.246 85.35C192.989 85.4143 192.669 85.5429 192.284 85.6714C191.899 85.8 191.578 85.9286 191.129 86.0572C190.744 86.1857 190.359 86.3143 189.974 86.4429C189.589 86.5714 189.204 86.7 188.883 86.7643C188.819 86.7643 188.754 86.8286 188.69 86.8929C188.626 86.9572 188.626 87.0214 188.626 87.15C188.626 87.3429 188.626 87.5357 188.626 87.7286C188.626 87.9214 188.626 88.1143 188.626 88.3072C188.626 88.5 188.626 88.7572 188.626 89.0143C188.626 89.2714 188.626 89.5929 188.562 90.0429C188.562 90.4286 188.498 90.9429 188.498 91.5214C188.498 92.1 188.434 92.7429 188.37 93.5143C188.305 94.1572 188.305 94.8 188.305 95.3786C188.305 96.0214 188.241 96.5357 188.241 97.05C188.241 97.5643 188.177 98.0143 188.177 98.4C188.177 98.7857 188.177 99.0429 188.177 99.2357C188.177 99.8143 188.369 100.2 188.626 100.393C188.947 100.586 189.46 100.586 190.166 100.393L191 100.136C191.129 100.071 191.193 100.071 191.193 100.007C191.257 99.9429 191.257 99.8786 191.257 99.75L191.385 96.0857C191.77 96.0857 192.219 96.0214 192.733 95.8286C193.631 95.5714 194.401 95.1857 195.043 94.6714C195.684 94.1572 196.198 93.5786 196.583 92.8714C196.968 92.2286 197.288 91.5214 197.417 90.75C197.609 89.9786 197.673 89.2072 197.673 88.4357C197.866 87.7286 197.738 87.0857 197.545 86.6357ZM194.658 90.4286C194.594 90.75 194.529 91.1357 194.401 91.5214C194.273 91.9072 194.08 92.2286 193.824 92.4857C193.567 92.8072 193.182 93 192.797 93.1286C192.669 93.1929 192.476 93.1929 192.284 93.2572C192.091 93.3214 191.899 93.3214 191.706 93.3214C191.77 92.4214 191.77 91.5857 191.77 90.8143C191.77 90.0429 191.77 89.3357 191.834 88.8214C192.027 88.7572 192.284 88.6286 192.476 88.5643C192.669 88.5 192.861 88.4357 192.989 88.3714C193.631 88.1786 194.08 88.1786 194.337 88.4357C194.594 88.6286 194.722 89.0786 194.722 89.5929C194.722 89.7857 194.658 90.1072 194.658 90.4286Z" fill="white"/>
</g>
<defs>
<clipPath id="clip0_3039_808">
<rect width="183" height="108" fill="white" transform="translate(73 66)"/>
</clipPath>
</defs>
</svg>
