<svg width="302" height="240" viewBox="0 0 302 240" fill="none" xmlns="http://www.w3.org/2000/svg">
<rect width="301" height="240" transform="translate(0.498047)" fill="white"/>
<g clip-path="url(#clip0_542_10611)">
<path d="M150.992 161C115.706 161 87 142.832 87 120.508C87 98.1676 115.706 80 150.992 80C186.279 80 215 98.1676 215 120.508C215 142.832 186.294 161 150.992 161ZM150.992 83.2794C117.492 83.2794 90.237 99.9844 90.237 120.508C90.237 141.031 117.492 157.736 150.992 157.736C184.493 157.736 211.748 141.031 211.748 120.508C211.748 99.969 184.493 83.2794 150.992 83.2794Z" fill="#F39200"/>
<path d="M213.381 120.508C213.381 141.97 185.454 159.368 151.008 159.368C116.561 159.368 88.6338 141.97 88.6338 120.508C88.6338 99.0452 116.561 81.632 151.008 81.632C185.454 81.632 213.381 99.0298 213.381 120.508Z" fill="url(#paint0_radial_542_10611)"/>
<path fill-rule="evenodd" clip-rule="evenodd" d="M151.374 83.8183C159.574 83.8183 167.391 84.819 174.507 86.6358C181.622 88.4526 188.02 91.0699 193.395 94.3032C194.601 95.0268 195.807 95.8274 196.967 96.6588C198.128 97.4902 199.258 98.3832 200.342 99.3378C201.426 100.292 202.449 101.293 203.426 102.34C204.388 103.402 205.304 104.511 206.114 105.681C207.656 108.422 207.488 111.024 205.762 113.395C204.037 115.766 200.769 117.906 196.097 119.676C191.425 121.447 185.348 122.863 178.034 123.803C170.72 124.742 162.169 125.204 152.519 125.065C142.869 124.926 133.983 124.28 126.226 123.233C118.47 122.186 111.828 120.723 106.682 118.968C101.536 117.213 97.8869 115.15 96.0852 112.902C94.2835 110.654 94.3445 108.206 96.6196 105.666C99.6276 101.385 103.979 97.521 109.354 94.2878C114.729 91.0545 121.126 88.4218 128.242 86.6204C135.357 84.819 143.175 83.8183 151.374 83.8183Z" fill="url(#paint1_linear_542_10611)"/>
<path fill-rule="evenodd" clip-rule="evenodd" d="M142.838 151.162C137.708 150.731 132.868 149.868 128.516 148.637C128.379 148.591 128.272 148.467 128.272 148.329V148.175H128.287C128.287 148.159 128.272 148.144 128.272 148.129V148.067C128.272 148.006 128.302 147.975 128.333 147.929C128.379 147.898 128.425 147.882 128.47 147.898C132.837 149.052 137.678 149.838 142.823 150.161V150.484V150.823V151.162H142.838ZM175.01 148.175C175.01 148.159 175.026 148.144 175.026 148.129V148.067C175.026 148.006 175.01 147.975 174.964 147.929C174.919 147.898 174.873 147.882 174.827 147.898C170.46 149.052 165.62 149.838 160.474 150.161V150.484V150.823V151.146C165.62 150.715 170.445 149.853 174.797 148.621C174.934 148.575 175.041 148.452 175.041 148.313L175.01 148.175ZM127.951 121.739C127.905 121.801 127.86 121.863 127.814 121.924C127.417 122.401 126.959 122.833 126.424 123.156C125.905 123.479 125.355 123.71 124.775 123.864C124.195 124.018 123.615 124.095 123.019 124.095C122.21 124.095 121.401 123.972 120.637 123.679C119.92 123.402 119.278 122.987 118.729 122.463C118.607 122.355 118.5 122.232 118.408 122.109C118.897 122.54 119.462 122.863 120.088 123.11C120.851 123.402 121.66 123.525 122.47 123.525C123.065 123.525 123.661 123.448 124.226 123.31C124.806 123.156 125.371 122.91 125.875 122.602C126.409 122.278 126.867 121.863 127.264 121.37C127.463 121.124 127.646 120.846 127.799 120.569L127.951 121.739ZM127.127 113.333C127.249 113.441 127.356 113.533 127.463 113.641C127.997 114.195 128.394 114.842 128.669 115.55C128.959 116.305 129.096 117.105 129.096 117.921C129.096 118.537 129.035 119.168 128.867 119.769C128.715 119.876 128.547 119.938 128.363 119.969L128.012 120.046C128.073 119.907 128.134 119.753 128.18 119.599C128.425 118.876 128.531 118.106 128.531 117.351C128.531 116.535 128.394 115.735 128.104 114.98C127.86 114.38 127.539 113.81 127.127 113.333ZM144.442 112.101H144.671L145.846 114.134V114.549L144.442 112.101ZM149.877 112.101H150.458V113.518L149.877 114.503V112.101ZM155.909 112.101H156.917L153.221 117.028C153.145 116.951 153.053 116.874 152.962 116.797C152.84 116.705 152.718 116.612 152.58 116.535L155.909 112.101ZM153.542 117.367C153.924 117.675 154.244 118.06 154.489 118.491C154.748 118.937 154.947 119.415 155.099 119.907C155.206 120.246 155.329 120.6 155.435 120.939C155.542 121.293 155.664 121.647 155.787 121.986C155.909 122.294 156.016 122.602 156.168 122.894L156.626 123.91H152.458L152.259 123.525C152.229 123.464 152.198 123.402 152.168 123.325H156.061L155.603 122.309C155.466 122.017 155.344 121.709 155.237 121.401C155.115 121.047 154.993 120.708 154.87 120.354C154.764 120.015 154.657 119.661 154.535 119.322C154.382 118.829 154.183 118.352 153.924 117.906C153.802 117.736 153.679 117.552 153.542 117.367ZM150.458 119.646L150.442 119.63V123.926H146.427V123.356H149.877V119.06C149.939 119.076 149.984 119.107 150.03 119.137C150.168 119.214 150.29 119.368 150.381 119.492C150.397 119.538 150.442 119.599 150.458 119.646ZM145.862 120.154C145.709 120.415 145.587 120.723 145.511 120.985C145.358 121.431 145.22 121.893 145.068 122.355C144.93 122.756 144.778 123.156 144.579 123.541L144.381 123.926H136.349V123.356C138.991 123.356 141.205 123.356 143.816 123.356L144.014 122.971C144.213 122.602 144.365 122.201 144.503 121.786C144.655 121.339 144.793 120.877 144.946 120.415C145.037 120.107 145.175 119.753 145.358 119.492C145.434 119.368 145.556 119.214 145.694 119.137C145.755 119.107 145.816 119.076 145.877 119.06V120.154H145.862ZM135.769 115.689V115.119H133.448V116.628C133.448 117.459 133.418 118.321 133.295 119.153C133.204 119.861 133.021 120.585 132.7 121.231C132.394 121.847 131.936 122.309 131.371 122.709C131.02 122.971 130.654 123.171 130.242 123.31C129.783 123.464 129.295 123.525 128.822 123.525H128.699L128.791 124.095H129.402C129.875 124.095 130.364 124.033 130.822 123.879C131.234 123.741 131.601 123.525 131.952 123.279C132.501 122.879 132.959 122.417 133.28 121.801C133.601 121.154 133.784 120.431 133.876 119.722C133.982 118.891 134.013 118.029 134.013 117.197V115.689H135.769ZM140.426 112.948L139.846 112.194V122.879L140.105 122.324C140.212 122.094 140.319 121.847 140.426 121.601V112.948ZM178.431 123.926H173.972L173.758 123.664C173.682 123.572 173.606 123.464 173.529 123.356H177.866H181.087L181.301 123.033C181.5 122.725 181.683 122.401 181.866 122.078C182.08 121.678 182.309 121.278 182.523 120.862C182.752 120.415 182.981 119.969 183.225 119.522C183.454 119.076 183.683 118.629 183.912 118.183C183.927 118.167 183.927 118.137 183.943 118.121C183.943 118.152 183.943 118.167 183.943 118.198C183.927 118.599 183.927 118.999 183.927 119.399V119.83L183.79 120.092C183.561 120.538 183.332 120.985 183.103 121.431C182.889 121.832 182.66 122.232 182.446 122.632C182.263 122.956 182.08 123.279 181.881 123.587L181.668 123.91H178.431V123.926ZM171.529 120.015C171.422 119.938 171.315 119.876 171.208 119.83C171.04 119.769 170.872 119.707 170.704 119.676V123.926H166.643V123.356H170.124V119.107C170.307 119.137 170.475 119.199 170.628 119.261C170.857 119.353 171.071 119.522 171.239 119.692C171.33 119.784 171.437 119.892 171.529 120.015ZM170.124 112.101H170.704V114.288L170.124 115.011V112.101ZM180.858 112.101H181.439V115.458L180.904 116.443C180.889 116.474 180.874 116.489 180.858 116.52C180.858 116.166 180.858 115.827 180.858 115.488V112.101ZM187.836 112.101H188.401V123.926H184.477V123.356H187.836V112.101ZM176.949 113.949L174.079 116.92C174.003 116.859 173.911 116.797 173.835 116.736C173.697 116.643 173.544 116.551 173.392 116.474L176.949 112.794V113.949ZM174.72 117.567C174.827 117.69 174.919 117.813 175.01 117.952C175.331 118.429 175.606 118.937 175.835 119.461C175.926 119.676 176.018 119.907 176.11 120.123C176.217 120.369 176.323 120.615 176.43 120.862C176.537 121.108 176.659 121.354 176.781 121.601C176.843 121.693 176.888 121.801 176.934 121.893V121.293C176.843 121.093 176.751 120.893 176.675 120.677C176.583 120.462 176.491 120.231 176.4 120.015C176.171 119.476 175.896 118.968 175.575 118.491C175.331 118.152 175.041 117.829 174.72 117.567ZM185.729 132.794L185.805 132.856C186.202 133.194 186.523 133.625 186.752 134.103C186.996 134.626 187.103 135.211 187.103 135.781C187.103 136.52 186.935 137.228 186.523 137.859C186.141 138.46 185.607 138.922 184.981 139.26C184.309 139.63 183.561 139.861 182.813 139.999C181.942 140.169 181.057 140.23 180.171 140.23C179.621 140.23 179.057 140.215 178.507 140.169C178.018 140.138 177.53 140.092 177.026 140.03L176.4 139.953V139.445L176.461 139.461C176.949 139.522 177.438 139.568 177.942 139.599C178.492 139.63 179.041 139.661 179.606 139.661C180.492 139.661 181.377 139.599 182.248 139.43C182.996 139.291 183.744 139.06 184.416 138.691C185.042 138.352 185.576 137.89 185.958 137.29C186.355 136.674 186.538 135.95 186.538 135.211C186.538 134.626 186.431 134.056 186.187 133.533C186.05 133.271 185.912 133.025 185.729 132.794ZM179.927 128.344H180.492V130.962C180.309 130.962 180.141 130.977 179.957 130.993C179.942 130.993 179.942 130.993 179.927 130.993V128.344ZM168.277 139.83V144.326H164.108V143.741H167.712V139.245C167.956 139.368 168.216 139.476 168.475 139.553C168.918 139.676 169.391 139.738 169.849 139.738C170.399 139.738 170.933 139.661 171.453 139.491C171.987 139.322 172.476 139.076 172.934 138.737C173.407 138.398 173.819 137.967 174.155 137.474C174.522 136.936 174.781 136.35 174.964 135.719C175.163 135.011 175.255 134.257 175.255 133.518C175.255 132.717 175.132 131.916 174.873 131.147C174.644 130.469 174.308 129.853 173.85 129.299C174.048 129.468 174.232 129.638 174.4 129.838C174.873 130.392 175.224 131.023 175.453 131.716C175.713 132.486 175.835 133.287 175.835 134.087C175.835 134.826 175.758 135.581 175.545 136.289C175.361 136.92 175.102 137.505 174.735 138.044C174.4 138.537 174.003 138.968 173.514 139.307C173.056 139.63 172.567 139.892 172.033 140.061C171.514 140.23 170.979 140.307 170.43 140.307C169.971 140.307 169.498 140.246 169.055 140.123C168.781 140.061 168.536 139.953 168.277 139.83ZM159.131 139.584C158.764 139.815 158.352 139.999 157.924 140.123C157.436 140.261 156.932 140.323 156.428 140.323C155.848 140.323 155.252 140.23 154.718 139.999C154.229 139.799 153.786 139.522 153.435 139.137C153.344 139.06 153.267 138.952 153.191 138.86C153.481 139.091 153.802 139.276 154.153 139.414C154.702 139.645 155.283 139.738 155.863 139.738C156.367 139.738 156.886 139.676 157.375 139.538C157.817 139.414 158.23 139.23 158.611 138.983L158.703 139.584H159.131ZM153.847 132.394L153.725 131.978L154.168 131.685C154.397 131.531 154.657 131.408 154.916 131.316C155.206 131.208 155.496 131.116 155.787 131.054C156.092 130.993 156.397 130.962 156.718 130.962C156.978 130.962 157.298 130.977 157.558 131.07C157.68 131.116 157.833 131.177 157.924 131.285C157.94 131.316 157.97 131.331 157.985 131.362C157.069 131.408 156.138 131.531 155.252 131.793C154.764 131.947 154.275 132.147 153.847 132.394ZM161.268 129.222L161.36 129.299C161.757 129.653 162.077 130.053 162.306 130.531C162.535 130.977 162.688 131.47 162.765 131.947C162.856 132.424 162.887 132.917 162.887 133.41V136.889C162.887 137.197 162.887 137.49 162.902 137.798C162.902 138.075 162.917 138.367 162.948 138.629C162.963 138.845 162.994 139.06 163.039 139.276L163.223 140.138H159.283L159.192 139.568H162.658L162.474 138.706C162.429 138.506 162.398 138.275 162.383 138.059C162.352 137.782 162.337 137.505 162.337 137.213C162.322 136.905 162.322 136.597 162.322 136.304V132.825C162.322 132.332 162.276 131.839 162.2 131.362C162.108 130.869 161.955 130.392 161.742 129.93C161.604 129.699 161.436 129.453 161.268 129.222ZM145.052 135.919V140.169H141.006V139.584H144.488V135.334C144.656 135.365 144.823 135.411 144.991 135.488C145.22 135.581 145.434 135.75 145.602 135.919C145.709 136.027 145.801 136.135 145.892 136.258C145.785 136.181 145.679 136.12 145.572 136.073C145.388 135.996 145.22 135.95 145.052 135.919ZM144.488 128.344H145.052V130.531L144.488 131.239V128.344ZM151.969 128.344H153.099L152.656 128.791L152.397 128.945L152.427 129.022L148.427 133.148C148.351 133.086 148.259 133.025 148.183 132.963C148.045 132.856 147.893 132.779 147.74 132.686L151.969 128.344ZM149.068 133.795C149.389 134.072 149.679 134.395 149.923 134.749C150.244 135.227 150.519 135.735 150.748 136.258C150.839 136.474 150.931 136.705 151.023 136.92C151.13 137.167 151.236 137.413 151.343 137.659C151.45 137.906 151.572 138.152 151.695 138.398C151.801 138.614 151.924 138.829 152.046 139.029L152.748 140.138H148.29L148.076 139.876C147.999 139.784 147.923 139.676 147.847 139.568H152.183L151.465 138.46C151.328 138.26 151.221 138.044 151.114 137.829C150.992 137.582 150.87 137.336 150.763 137.074C150.656 136.828 150.534 136.581 150.442 136.335C150.351 136.12 150.259 135.889 150.168 135.673C149.939 135.15 149.664 134.626 149.343 134.164C149.267 134.041 149.175 133.918 149.068 133.795ZM133.234 135.827L133.25 135.842C133.204 135.812 133.173 135.796 133.143 135.765C132.944 135.627 132.791 135.442 132.669 135.242H139.22L139.357 134.688C139.403 134.503 139.433 134.318 139.449 134.133C139.479 133.887 139.479 133.625 139.495 133.379C139.495 132.84 139.434 132.301 139.327 131.778C139.22 131.239 139.037 130.715 138.792 130.223C138.624 129.884 138.41 129.561 138.166 129.268C138.227 129.33 138.304 129.391 138.365 129.453C138.777 129.838 139.098 130.3 139.357 130.808C139.601 131.301 139.785 131.824 139.892 132.363C139.998 132.886 140.06 133.425 140.06 133.964C140.06 134.21 140.044 134.472 140.014 134.718C139.998 134.903 139.968 135.088 139.922 135.273L139.785 135.827H138.38H137.555H133.234ZM138.472 136.258L138.899 136.104L139.571 139.337L139.052 139.584C138.487 139.83 137.891 139.999 137.296 140.123C136.563 140.277 135.83 140.323 135.082 140.323C134.227 140.323 133.372 140.215 132.578 139.922C131.845 139.661 131.188 139.26 130.639 138.722C130.516 138.614 130.41 138.491 130.303 138.367C130.807 138.799 131.387 139.122 132.013 139.353C132.822 139.645 133.677 139.753 134.517 139.753C135.265 139.753 135.998 139.692 136.731 139.553C137.326 139.43 137.922 139.26 138.472 139.014L138.991 138.783L138.472 136.258ZM121.431 131.963V140.169H117.339V139.584H120.866V131.377H123.6V131.963H121.431ZM127.676 128.406H128.241V140.169H124.149V139.584H127.676V128.406ZM195.623 119.83L195.486 120.092C195.257 120.538 195.028 120.985 194.799 121.431C194.585 121.832 194.356 122.232 194.142 122.632C193.959 122.956 193.776 123.279 193.577 123.587L193.364 123.91H189.226V123.341H192.783L192.997 123.017C193.196 122.709 193.379 122.386 193.562 122.063C193.776 121.662 194.005 121.262 194.219 120.846C194.448 120.4 194.677 119.953 194.906 119.507C195.135 119.06 195.364 118.614 195.593 118.167C195.608 118.152 195.608 118.121 195.623 118.106C195.623 118.137 195.623 118.152 195.623 118.183C195.608 118.583 195.608 118.983 195.608 119.399V119.83H195.623ZM192.585 112.101H193.15V115.458L192.615 116.443C192.6 116.474 192.585 116.489 192.57 116.52C192.57 116.166 192.57 115.827 192.57 115.488V112.101H192.585ZM199.563 112.101H200.128V123.926H196.204V123.356H199.563V112.101ZM194.906 112.24L195.303 111.532H197.074C197.395 111.301 197.654 111.008 197.868 110.669C198.219 110.115 198.372 109.484 198.418 108.837L198.479 108.067H197.868L197.853 108.252C197.807 108.899 197.654 109.53 197.303 110.084C196.982 110.608 196.509 111.008 195.944 111.285C195.349 111.562 194.692 111.67 194.035 111.67C193.364 111.67 192.676 111.562 192.096 111.239C191.944 111.162 191.806 111.07 191.669 110.962C191.821 111.178 192.005 111.362 192.218 111.516L192.6 111.778L192.661 111.809C193.257 112.132 193.944 112.24 194.6 112.24C194.692 112.255 194.799 112.255 194.906 112.24ZM193.501 108.083H194.02L194.081 108.73C194.097 108.806 194.097 108.868 194.112 108.93H194.066C193.99 108.93 193.837 108.914 193.776 108.868C193.7 108.806 193.654 108.745 193.623 108.653C193.562 108.483 193.532 108.314 193.516 108.144L193.501 108.083ZM165.146 119.799L165.803 123.279L165.284 123.51C165.009 123.633 164.719 123.726 164.444 123.803C164.078 123.895 163.696 123.956 163.329 124.003C162.887 124.064 162.444 124.08 161.986 124.08C161.131 124.08 160.291 123.956 159.482 123.664C158.749 123.402 158.077 122.987 157.512 122.448C157.39 122.324 157.268 122.201 157.146 122.063C157.665 122.509 158.26 122.848 158.917 123.094C159.726 123.387 160.566 123.51 161.421 123.51C161.864 123.51 162.306 123.479 162.749 123.433C163.131 123.387 163.497 123.325 163.864 123.233C164.154 123.156 164.444 123.063 164.704 122.94L165.223 122.709L164.704 119.984L165.146 119.799ZM165.238 112.425L165.314 112.455L165.879 112.686L165.009 116.274L164.2 115.873C163.986 115.766 163.757 115.704 163.528 115.642C163.177 115.565 162.81 115.535 162.459 115.535C162.093 115.535 161.726 115.596 161.39 115.719C161.1 115.827 160.841 115.997 160.627 116.212C160.413 116.428 160.26 116.689 160.138 116.982C160.016 117.305 159.97 117.644 159.97 117.983C159.97 118.337 160.031 118.722 160.169 119.06C160.23 119.199 160.291 119.307 160.367 119.43C160.276 119.368 160.199 119.307 160.108 119.23C159.879 119.03 159.711 118.768 159.589 118.491C159.451 118.152 159.39 117.783 159.39 117.413C159.39 117.074 159.436 116.736 159.558 116.412C159.665 116.12 159.818 115.873 160.047 115.642C160.26 115.427 160.52 115.258 160.81 115.15C161.146 115.011 161.512 114.965 161.879 114.965C162.23 114.965 162.597 114.98 162.948 115.057C163.177 115.104 163.406 115.181 163.62 115.288L164.414 115.689L165.238 112.425ZM115.247 115.858C115.37 115.95 115.476 116.058 115.583 116.181C115.935 116.535 116.194 116.951 116.393 117.413C116.408 117.459 116.423 117.49 116.438 117.536V117.552C116.438 118.167 116.515 118.783 116.683 119.384C116.652 119.753 116.591 120.123 116.469 120.462C116.316 120.908 116.102 121.308 115.828 121.693C115.568 122.063 115.247 122.386 114.881 122.648C114.133 123.202 113.186 123.51 112.285 123.695C111.094 123.941 109.842 124.003 108.636 124.003C107.934 124.003 107.216 123.987 106.514 123.941C105.994 123.91 105.46 123.864 104.941 123.787L104.33 123.71V123.217L104.376 123.233C104.895 123.31 105.429 123.341 105.949 123.387C106.651 123.433 107.369 123.448 108.071 123.448C109.277 123.448 110.529 123.371 111.72 123.14C112.621 122.956 113.568 122.648 114.331 122.094C114.698 121.832 115.003 121.508 115.278 121.139C115.553 120.769 115.767 120.354 115.919 119.907C116.087 119.43 116.148 118.937 116.148 118.429C116.148 117.89 116.057 117.351 115.843 116.859C115.675 116.474 115.476 116.151 115.247 115.858ZM114.774 109.438C114.85 109.499 114.927 109.561 114.988 109.623C115.354 109.961 115.629 110.377 115.828 110.839C116.041 111.347 116.133 111.917 116.133 112.471C116.133 112.994 116.026 113.502 115.797 113.995C115.568 114.503 115.217 114.934 114.805 115.288L114.728 115.35C114.514 115.165 114.285 114.996 114.056 114.857C114.118 114.811 114.179 114.765 114.24 114.719C114.667 114.365 115.003 113.933 115.232 113.425C115.446 112.948 115.568 112.44 115.568 111.901C115.568 111.347 115.476 110.777 115.263 110.269C115.141 109.977 114.973 109.684 114.774 109.438ZM180.492 134.872C180.614 134.872 180.736 134.857 180.858 134.857C181.164 134.857 181.469 134.872 181.759 134.934C181.988 134.98 182.217 135.042 182.431 135.134C182.416 135.057 182.385 134.98 182.339 134.919C182.232 134.78 182.095 134.672 181.927 134.595C181.698 134.488 181.439 134.411 181.194 134.364C180.889 134.318 180.599 134.287 180.293 134.287C180.171 134.287 180.049 134.287 179.927 134.303V136.32C180.08 136.32 180.232 136.335 180.385 136.335H180.492V134.872ZM168.277 133.456C168.277 133.256 168.322 133.056 168.384 132.871C168.46 132.671 168.567 132.486 168.719 132.317C168.857 132.147 169.025 132.024 169.223 131.932C169.437 131.839 169.651 131.793 169.88 131.793C170.124 131.793 170.384 131.839 170.613 131.963L170.674 131.993C170.643 131.932 170.613 131.886 170.567 131.839C170.43 131.655 170.246 131.501 170.033 131.393C169.804 131.27 169.559 131.224 169.3 131.224C169.071 131.224 168.857 131.27 168.643 131.362C168.46 131.454 168.277 131.593 168.139 131.747C168.002 131.916 167.88 132.101 167.803 132.301C167.727 132.486 167.696 132.686 167.696 132.886V134.488C167.696 134.734 167.727 134.996 167.834 135.227C167.925 135.411 168.032 135.581 168.185 135.719C168.261 135.781 168.368 135.858 168.46 135.904C168.445 135.873 168.414 135.842 168.399 135.796C168.292 135.565 168.261 135.304 168.261 135.042V133.456H168.277ZM158.23 135.196L158.153 135.211C157.817 135.257 157.466 135.334 157.146 135.473C156.947 135.55 156.749 135.673 156.626 135.827C156.52 135.95 156.489 136.073 156.489 136.227C156.489 136.258 156.489 136.289 156.489 136.335C156.413 136.32 156.321 136.304 156.26 136.274C156.153 136.227 156.077 136.166 156.016 136.058C155.939 135.95 155.924 135.796 155.924 135.658C155.924 135.504 155.97 135.381 156.061 135.257C156.199 135.088 156.382 134.98 156.581 134.903C156.901 134.765 157.252 134.688 157.588 134.642C157.802 134.611 158.031 134.595 158.245 134.58V135.196H158.23ZM135.296 131.608C135.235 131.501 135.173 131.393 135.082 131.285C134.975 131.162 134.853 131.085 134.715 131.023C134.532 130.931 134.303 130.916 134.105 130.916C133.86 130.916 133.631 130.946 133.418 131.07C133.234 131.162 133.066 131.301 132.944 131.47C132.837 131.608 132.761 131.747 132.685 131.901H133.631C133.738 131.793 133.86 131.716 133.982 131.639C134.196 131.531 134.425 131.485 134.67 131.485C134.883 131.485 135.097 131.516 135.296 131.608ZM123.859 115.581C123.63 115.442 123.355 115.396 123.08 115.396C122.79 115.396 122.5 115.442 122.256 115.596C122.027 115.735 121.828 115.904 121.691 116.135C121.508 116.397 121.401 116.689 121.324 116.997C121.248 117.336 121.202 117.706 121.202 118.06C121.202 118.414 121.248 118.783 121.34 119.122C121.416 119.384 121.523 119.646 121.66 119.876C121.462 119.753 121.279 119.584 121.141 119.384C120.958 119.122 120.836 118.845 120.76 118.537C120.668 118.198 120.622 117.829 120.622 117.475C120.622 117.121 120.668 116.766 120.744 116.412C120.821 116.104 120.943 115.812 121.111 115.55C121.263 115.319 121.447 115.15 121.676 115.011C121.92 114.873 122.21 114.811 122.5 114.811C122.775 114.811 123.05 114.857 123.279 114.996C123.508 115.134 123.691 115.304 123.829 115.535L123.859 115.581ZM108.468 111.624V113.425H107.903V111.054C108.025 111.039 108.132 111.039 108.239 111.039C108.514 111.024 108.804 111.024 109.079 111.024C109.537 111.024 110.025 111.054 110.468 111.178C110.728 111.255 111.003 111.362 111.186 111.562C111.262 111.639 111.308 111.747 111.339 111.855C111.247 111.809 111.14 111.778 111.033 111.747C110.59 111.624 110.102 111.593 109.644 111.593C109.369 111.593 109.079 111.593 108.804 111.609C108.712 111.609 108.59 111.609 108.468 111.624ZM108.468 117.444H109.445C109.888 117.444 110.346 117.475 110.774 117.552C111.11 117.613 111.43 117.706 111.736 117.86C111.72 117.813 111.69 117.767 111.659 117.721C111.537 117.536 111.354 117.398 111.155 117.29C110.85 117.136 110.529 117.044 110.193 116.982C109.751 116.905 109.308 116.874 108.85 116.874H107.888V119.876C107.903 119.876 107.934 119.876 107.949 119.876C108.117 119.876 108.285 119.876 108.453 119.876V117.444H108.468Z" fill="#F39200"/>
<path fill-rule="evenodd" clip-rule="evenodd" d="M137.052 101.016C136.915 100.339 136.792 99.7843 136.243 99.1376C135.876 98.6911 135.388 98.1369 134.945 97.7673C134.914 97.7365 134.869 97.7058 134.838 97.675C135.128 97.6596 135.418 97.5826 135.708 97.4594C136.747 97.0283 137.663 96.1199 137.968 95.7812C138.197 95.5503 138.747 94.7651 138.747 94.7651C138.762 94.7497 138.762 94.7497 138.762 94.7343C138.762 94.7035 138.732 94.6881 138.701 94.6881C138.564 94.7035 138.411 94.7035 138.243 94.7035C137.754 94.7189 137.159 94.7189 136.273 95.0268C135.617 95.2577 135.098 95.5503 134.701 95.9506C134.288 96.3355 133.998 96.8128 133.769 97.4132C133.754 97.4286 133.769 97.4594 133.784 97.4748L133.769 97.5056C133.754 97.5056 133.754 97.521 133.754 97.5364C133.952 98.3678 134.273 99.0452 134.716 99.6611C135.174 100.292 135.754 100.862 136.472 101.524C136.838 101.847 137.159 101.817 137.159 101.817C137.159 101.817 137.159 101.817 137.174 101.817C137.189 101.817 137.205 101.786 137.205 101.77C137.144 101.493 137.098 101.247 137.052 101.016ZM168.567 98.999C168.308 98.8759 167.895 98.7219 167.376 98.6449C166.765 98.5372 166.201 98.5833 165.681 98.7065C164.765 98.9375 163.971 99.4609 163.162 100.046L163.147 100.061C163.131 100.077 163.147 100.108 163.162 100.123C165.895 101.878 168.842 99.2916 168.918 99.2146L168.934 99.1992C168.949 99.1838 168.934 99.153 168.918 99.1376C168.781 99.0914 168.674 99.0452 168.567 98.999ZM143.434 102.586C143.404 102.463 143.373 102.355 143.358 102.263C143.205 101.308 143.114 101.047 142.808 100.631C142.747 100.539 142.671 100.446 142.61 100.369C142.366 100.046 142.091 99.7843 141.816 99.5687C141.556 99.3686 141.297 99.1992 141.068 99.076C143.434 99.5533 145.603 96.859 145.633 96.8128C145.633 96.7974 145.633 96.7666 145.618 96.7512C144.992 96.4125 143.923 96.4894 142.854 96.859C141.862 97.2131 140.854 97.8443 140.182 98.6757C140.182 98.6911 140.182 98.6911 140.182 98.7065V98.7219C140.335 101.108 141.785 102.54 142.045 102.802V102.817C142.457 103.218 143.862 103.972 143.862 103.972C143.877 103.972 143.893 103.972 143.908 103.972C143.923 103.957 143.938 103.926 143.938 103.91L143.801 103.572C143.648 103.156 143.526 102.833 143.434 102.586ZM164.826 101.693C165.01 101.801 165.269 101.955 165.605 102.124L165.88 102.263C165.895 102.278 165.91 102.294 165.895 102.325C165.895 102.34 165.88 102.34 165.865 102.34C165.865 102.34 164.536 102.633 164.048 102.602C163.742 102.571 162.017 102.448 160.627 100.985C160.612 100.97 160.612 100.954 160.612 100.939L160.597 100.924C160.597 100.908 160.597 100.908 160.597 100.908C160.612 100.785 160.704 100.215 161.009 99.5995C161.131 99.3532 161.284 99.1068 161.482 98.8913C161.543 98.8297 161.589 98.7681 161.65 98.7065C161.925 98.4294 162.093 98.3062 162.78 98.0599C162.841 98.0445 162.918 97.9983 162.994 97.9675C163.162 97.8751 163.376 97.7212 163.666 97.5364L163.895 97.3824C163.91 97.367 163.941 97.3824 163.941 97.3978C163.941 97.4132 163.941 97.4132 163.941 97.4286C163.941 97.4286 163.605 98.5987 163.36 98.9683C163.238 99.1684 162.597 100.169 161.299 100.739C161.543 100.693 161.834 100.646 162.154 100.631C162.46 100.616 162.78 100.646 163.101 100.708C163.193 100.723 163.284 100.739 163.376 100.77C163.803 100.877 164.002 101.001 164.613 101.539C164.658 101.57 164.735 101.632 164.826 101.693ZM158.52 103.818C158.413 103.618 158.337 103.433 158.276 103.295C158.261 103.264 158.245 103.233 158.245 103.187C157.986 102.556 157.36 101.909 156.551 101.509C156.108 101.293 155.634 101.155 155.115 101.124C156.993 100.246 157.711 97.9059 157.726 97.8289V97.8135C157.726 97.7981 157.711 97.7827 157.68 97.7827C157.604 97.7981 157.512 97.8135 157.436 97.8135C157.131 97.8289 156.596 97.9213 155.97 98.26C155.527 98.4756 155.176 98.7527 154.871 99.0606C154.245 99.7073 153.863 100.539 153.497 101.401C153.497 101.401 153.497 101.401 153.497 101.416C153.497 101.432 153.512 101.462 153.527 101.462C154.596 102.663 155.314 103.31 155.924 103.71C156.551 104.111 157.054 104.234 157.711 104.357C158.184 104.465 158.887 104.588 158.917 104.588C158.932 104.588 158.932 104.588 158.948 104.588C158.978 104.573 158.978 104.542 158.963 104.526C158.795 104.28 158.642 104.034 158.52 103.818ZM158.765 98.568C158.001 99.1684 157.314 100.015 156.978 100.939C156.978 100.939 156.978 100.939 156.978 100.954C156.978 100.97 156.993 100.985 157.009 101.001C157.009 101.016 157.009 101.031 157.009 101.047C158.215 102.925 160.047 103.418 160.352 103.51H160.368C160.887 103.649 162.368 103.618 162.368 103.618C162.383 103.618 162.399 103.618 162.399 103.603C162.414 103.587 162.414 103.556 162.399 103.541L162.139 103.325C161.818 103.064 161.559 102.864 161.391 102.694C161.314 102.617 161.238 102.54 161.192 102.463C160.643 101.755 160.444 101.586 160.001 101.37C159.91 101.324 159.818 101.278 159.726 101.247C159.391 101.093 159.039 101.001 158.719 100.954C158.581 100.939 158.444 100.924 158.306 100.908C160.185 100.308 161.131 97.7519 161.146 97.7058C161.146 97.6904 161.131 97.6596 161.116 97.6596C160.475 97.5518 159.574 97.9213 158.765 98.568ZM152.031 98.6603C152.916 97.9983 153.878 97.6442 154.55 97.7673C154.581 97.7673 154.581 97.7981 154.581 97.8135C154.566 97.8597 153.344 100.877 151.099 101.185C151.344 101.232 151.619 101.278 151.893 101.37C152.229 101.478 152.581 101.632 152.916 101.847C153.008 101.894 153.1 101.955 153.191 102.017C153.619 102.309 153.787 102.525 154.26 103.372C154.306 103.449 154.367 103.541 154.428 103.649C154.581 103.849 154.825 104.111 155.115 104.434L155.36 104.711C155.375 104.726 155.375 104.757 155.36 104.773C155.344 104.773 155.329 104.788 155.314 104.788C155.314 104.788 153.726 104.573 153.207 104.342H153.191C152.871 104.203 151.008 103.356 150.046 101.17C150.046 101.155 150.046 101.139 150.046 101.124C150.031 101.124 150.031 101.108 150.031 101.093C150.458 100.138 151.206 99.2762 152.031 98.6603ZM139.419 96.1045C140.472 95.6888 141.526 95.5811 142.167 95.889C142.182 95.9044 142.198 95.9198 142.182 95.9506C142.182 95.9506 142.182 95.9506 142.182 95.966C142.152 96.0122 140.396 98.3678 138.258 98.414C138.64 98.6141 138.976 98.8913 139.251 99.1992C139.8 99.7997 140.106 100.539 140.091 101.155C140.091 101.185 140.091 101.216 140.091 101.247C140.075 101.385 140.091 101.555 140.106 101.755C140.136 101.971 140.182 102.217 140.243 102.494C140.243 102.509 140.228 102.54 140.213 102.54C140.197 102.54 140.197 102.54 140.182 102.54C140.152 102.525 139.617 102.186 139.266 101.94C138.762 101.616 138.396 101.339 138.014 100.8C137.632 100.262 137.266 99.4609 136.777 98.1061C136.762 98.0907 136.777 98.0599 136.792 98.0599C136.792 98.0445 136.792 98.0445 136.792 98.0291C137.449 97.1669 138.441 96.5048 139.419 96.1045ZM148.962 97.3362L149.023 97.3208C149.053 97.3208 149.069 97.3362 149.084 97.3516C149.084 97.367 149.084 97.3824 149.053 97.3978C149.053 97.3978 148.336 97.8135 148.046 98.2908C147.756 98.7989 146.901 99.3378 145.939 99.6611C145.557 99.7997 145.145 99.892 144.748 99.9228C145.251 100.092 145.694 100.385 146.045 100.723C146.641 101.293 147.007 102.032 147.038 102.648C147.038 102.679 147.038 102.71 147.038 102.74C147.038 102.879 147.053 103.064 147.099 103.264C147.145 103.479 147.206 103.726 147.298 104.003C147.298 104.018 147.298 104.049 147.267 104.049C147.252 104.049 147.252 104.049 147.236 104.049C147.206 104.034 146.641 103.741 146.259 103.51C145.74 103.218 145.328 102.971 144.9 102.448C144.473 101.94 144.045 101.155 143.45 99.8151C143.45 99.8151 143.45 99.7997 143.45 99.7843C143.45 99.7843 143.45 99.7689 143.45 99.7535C143.908 98.9375 144.519 98.3986 145.145 98.0599C146.061 97.5518 147.023 97.444 147.557 97.4902C148 97.5364 148.565 97.4132 148.962 97.3362ZM150.489 97.9675C150.382 97.9829 150.275 97.9983 150.183 98.0137C149.298 98.0907 149.053 98.1676 148.641 98.414C148.55 98.4756 148.458 98.5218 148.382 98.5833C148.076 98.7835 147.817 99.0298 147.588 99.2762C147.023 99.892 146.733 100.554 146.671 100.693V100.708C146.671 100.723 146.687 100.739 146.702 100.754C146.687 100.77 146.671 100.785 146.687 100.816C147.389 102.171 147.908 102.941 148.382 103.449C148.855 103.957 149.298 104.188 149.863 104.449C150.275 104.665 150.886 104.927 150.916 104.942C150.932 104.942 150.932 104.942 150.947 104.942C150.962 104.927 150.977 104.911 150.962 104.896C150.855 104.619 150.779 104.372 150.718 104.141C150.657 103.941 150.626 103.757 150.611 103.603C150.611 103.572 150.611 103.541 150.596 103.51C150.504 102.864 150.076 102.14 149.42 101.586C148.87 101.124 148.168 100.8 147.374 100.739C149.206 100.539 150.367 99.5071 150.58 99.307H150.596C150.993 98.9529 151.787 97.6904 151.787 97.675C151.787 97.6596 151.802 97.6442 151.787 97.6442C151.787 97.6288 151.756 97.6134 151.726 97.6134L151.405 97.7212C151.038 97.7981 150.718 97.9059 150.489 97.9675Z" fill="#FDD5A5"/>
<path fill-rule="evenodd" clip-rule="evenodd" d="M151.374 150.669V151.593H153.222V153.594H154.138V146.189H153.222L151.374 150.669ZM153.222 150.669H152.306L153.222 148.437V150.669ZM150.474 146.527C150.351 146.404 150.199 146.312 150.031 146.235C149.863 146.158 149.68 146.127 149.496 146.127C149.298 146.127 149.13 146.173 148.962 146.235C148.794 146.312 148.641 146.404 148.519 146.527C148.397 146.651 148.305 146.805 148.229 146.974C148.168 147.143 148.122 147.328 148.122 147.513V150.238C148.122 150.438 148.168 150.607 148.229 150.777C148.305 150.946 148.397 151.1 148.519 151.223C148.641 151.347 148.794 151.454 148.962 151.516C149.13 151.593 149.313 151.624 149.496 151.624C149.634 151.624 149.786 151.593 149.954 151.547V152.193C149.954 152.332 149.909 152.44 149.817 152.532C149.725 152.624 149.619 152.671 149.496 152.671H149.038V153.594H149.496C149.68 153.594 149.863 153.564 150.031 153.487C150.199 153.41 150.351 153.317 150.474 153.194C150.596 153.071 150.703 152.917 150.779 152.748C150.84 152.578 150.886 152.393 150.886 152.193V147.497C150.886 147.313 150.855 147.128 150.779 146.959C150.703 146.789 150.596 146.651 150.474 146.527ZM149.954 150.284C149.954 150.484 149.786 150.654 149.588 150.654H149.42C149.222 150.654 149.054 150.484 149.054 150.284V147.497C149.054 147.282 149.222 147.128 149.42 147.128H149.588C149.802 147.128 149.954 147.297 149.954 147.497V150.284ZM146.122 147.805L146.656 147.559V153.579H147.572V146.096L145.725 146.959L146.122 147.805ZM157.177 146.527C157.055 146.404 156.902 146.312 156.734 146.235C156.566 146.158 156.383 146.127 156.199 146.127C156.001 146.127 155.818 146.173 155.665 146.235C155.497 146.312 155.36 146.404 155.238 146.527C155.115 146.651 155.024 146.805 154.947 146.974C154.871 147.143 154.841 147.328 154.841 147.513V152.27C154.841 152.47 154.871 152.64 154.947 152.809C155.008 152.979 155.115 153.117 155.238 153.256C155.36 153.379 155.512 153.471 155.665 153.548C155.833 153.625 156.001 153.656 156.199 153.656C156.383 153.656 156.566 153.625 156.734 153.548C156.902 153.487 157.055 153.379 157.177 153.256C157.299 153.132 157.39 152.979 157.467 152.809C157.528 152.64 157.574 152.47 157.574 152.27V147.513C157.574 147.328 157.528 147.143 157.467 146.974C157.39 146.789 157.299 146.651 157.177 146.527ZM156.658 152.286C156.658 152.486 156.49 152.655 156.276 152.655H156.108C155.894 152.655 155.741 152.486 155.741 152.286V147.497C155.741 147.282 155.909 147.128 156.108 147.128H156.276C156.474 147.128 156.658 147.297 156.658 147.497V152.286ZM140.304 98.6757L140.35 98.7065C140.442 98.7373 140.564 98.7989 140.732 98.8759C143.038 99.6765 145.267 97.1361 145.557 96.782L145.496 96.7512C145.145 96.9051 143.129 97.7519 140.304 98.6757ZM146.779 100.646C148.931 100.646 150.29 99.4147 150.535 99.1992V99.1838C150.855 98.9067 151.436 98.0137 151.634 97.6904C150.046 98.3524 148.229 99.4301 146.779 100.616V100.646ZM142.121 102.74C142.442 103.064 143.435 103.618 143.801 103.818C142.961 102.155 141.694 100.277 140.304 98.7989H140.289C140.457 101.093 141.862 102.479 142.121 102.74ZM148 97.7365C147.237 97.9675 146.382 98.1522 145.16 98.9221C144.183 99.5225 143.755 99.7073 143.587 99.7535H143.679C143.969 99.7535 144.244 99.7843 144.503 99.8612C144.961 99.8458 145.45 99.7381 145.908 99.5841C146.855 99.2762 147.695 98.7373 147.969 98.2446C148.168 97.9213 148.55 97.6134 148.794 97.4594C148.641 97.521 148.336 97.6442 148 97.7365ZM146.305 103.449C146.58 103.618 146.931 103.803 147.13 103.91C147.038 103.833 146.916 103.695 146.748 103.51C146.549 103.279 146.488 102.848 146.275 102.648C145.847 102.186 145.832 101.601 143.572 99.8458C144.137 101.139 144.564 101.894 144.977 102.402C145.389 102.91 145.786 103.156 146.305 103.449ZM150.168 101.078C150.229 101.108 150.306 101.108 150.367 101.124C150.458 101.124 150.565 101.139 150.687 101.155C153.008 101.17 154.321 98.26 154.489 97.8597L154.428 97.8443C154.153 98.0753 152.52 99.4301 150.168 101.078ZM144.839 104.326C154.321 107.482 163.88 106.913 174.263 102.756C165.239 106.174 153.65 107.005 144.458 103.864C144.473 103.849 144.702 104.064 144.839 104.326ZM157.07 100.908C157.116 100.924 157.146 100.924 157.207 100.939C157.39 100.908 157.696 100.893 158.062 100.893C159.925 100.477 160.933 98.0753 161.055 97.7212H160.994C160.75 97.9521 159.238 99.2762 157.07 100.908ZM142.091 95.9506L142.03 95.9198C141.694 96.0737 139.709 96.9975 136.93 98.0137L136.915 98.0291L136.976 98.0599H137.006C137.388 98.0753 137.755 98.183 138.09 98.3216C140.106 98.3986 141.831 96.2739 142.091 95.9506ZM163.284 98.9221C163.468 98.6141 163.727 97.7981 163.819 97.5056C162.735 98.3832 161.544 99.6149 160.673 100.862V100.877C162.353 100.4 163.147 99.1376 163.284 98.9221ZM157.116 101.031C158.307 102.833 160.078 103.31 160.383 103.402H160.398C160.811 103.51 161.864 103.51 162.246 103.51C160.826 102.556 158.933 101.601 157.146 101.031H157.116ZM156.429 98.8143C155.955 99.4301 154.459 100.677 153.665 101.339L153.741 101.308C154.138 101.17 154.55 101.108 154.947 101.124C156.764 100.369 157.528 98.2446 157.65 97.8751H157.635C157.39 98.0291 156.673 98.4756 156.429 98.8143ZM140.091 102.386C140.014 102.309 139.892 102.171 139.739 101.971C139.556 101.724 139.526 101.308 139.327 101.078C138.961 100.6 138.976 100.015 136.869 98.1522C137.342 99.4609 137.693 100.231 138.075 100.754C138.442 101.278 138.823 101.555 139.312 101.878C139.572 102.048 139.907 102.263 140.091 102.386ZM153.253 104.28C153.68 104.465 154.81 104.649 155.207 104.711C153.848 103.449 152 102.124 150.214 101.232H150.183C151.145 103.325 152.947 104.126 153.253 104.28ZM157.742 104.28C158.078 104.357 158.52 104.434 158.765 104.48C158.643 104.434 158.475 104.342 158.23 104.188C157.94 104.018 157.726 103.587 157.436 103.449C156.841 103.11 156.627 102.509 153.695 101.478H153.665C154.688 102.633 155.39 103.264 155.986 103.649C156.596 104.034 157.1 104.157 157.742 104.28ZM146.794 100.816C147.481 102.124 147.985 102.879 148.443 103.372C148.916 103.864 149.344 104.095 149.909 104.357C150.199 104.496 150.58 104.68 150.794 104.773C150.703 104.696 150.565 104.573 150.367 104.388C150.138 104.172 150.046 103.726 149.802 103.526C149.344 103.064 149.283 102.463 146.794 100.816ZM171.01 98.9375C176.187 97.9213 180.767 95.7658 185.226 93.0253C182.141 94.919 174.171 98.3678 171.53 98.3986C170.69 98.6141 170.934 98.9221 171.01 98.9375ZM137.113 101.678C136.945 101.37 136.38 100.323 136.151 100.015C135.922 99.7381 135.327 98.8451 133.861 97.598C134.044 98.3678 134.365 98.999 134.792 99.5841C135.235 100.2 135.815 100.785 136.533 101.432C136.793 101.647 137.022 101.693 137.113 101.709V101.678ZM133.433 96.8282C129.128 96.0583 118.546 95.6888 111.812 104.234C115.126 100.154 124.318 94.5187 133.51 98.183C133.281 97.5056 133.342 97.1053 133.433 96.8282ZM142.198 104.018C140.472 103.418 138.701 102.787 136.793 102.171C138.579 102.956 140.289 103.71 142.091 104.388C152.947 108.499 161.589 109.191 177.5 102.694C171.514 105.004 165.239 106.759 158.826 107.113C153.054 107.421 147.618 105.927 142.198 104.018ZM113.385 103.464C119.676 97.2285 127.188 97.8751 129.876 97.5672C125.402 97.1361 118.439 97.7211 113.385 103.464ZM182.248 98.4294C181.744 98.7065 181.271 98.9221 180.783 99.1684C181.317 98.9221 181.821 98.6757 182.248 98.4294ZM167.85 102.232C170.568 102.032 175.667 101.031 183.943 96.4279C179.989 98.491 171.423 101.986 166.811 101.909C166.75 102.094 167.483 102.263 167.85 102.232ZM162.78 103.726C162.719 103.895 163.254 104.172 163.758 104.157C167.376 104.018 173.453 102.864 180.783 99.1684C175.713 101.555 166.185 104.388 162.78 103.726ZM135.663 97.367C136.686 96.9513 137.587 96.043 137.892 95.7196C138.06 95.5349 138.442 95.0114 138.594 94.7959C138.533 94.7959 138.487 94.7959 138.426 94.8112C138.167 94.8882 137.739 95.0576 137.327 95.3501C137.022 95.5657 136.044 96.4894 134.914 96.9359C134.533 97.0899 134.136 97.2747 133.937 97.367C134.136 97.2901 134.395 97.3824 134.685 97.5826C135.021 97.5826 135.342 97.4902 135.663 97.367ZM169.178 100.739C174.553 99.6303 180.691 97.2285 185.531 94.2416C183.485 95.2885 180.034 96.859 177.927 97.6442C175.851 98.414 173.789 99.0606 171.82 99.6457C169.804 100.231 168.46 100.492 168.109 100.462C168.14 100.677 168.445 100.877 169.178 100.739ZM168.934 97.8905C168.247 97.9521 167.697 98.1984 167.514 98.414C167.865 98.3216 168.598 98.337 168.69 98.3524C174.507 97.4748 179.454 95.0422 184.462 92.0861C182.355 93.0715 181.134 93.8105 176.706 95.6734C173.163 97.1823 170.461 97.7827 168.934 97.8905ZM168.796 99.1838C168.491 99.1838 167.605 99.1838 167.193 99.3378C166.414 99.6303 164.323 99.9228 163.254 100.061H163.238C165.758 101.632 168.415 99.5225 168.796 99.1838ZM167.529 96.8436C167.437 96.859 167.361 96.8744 167.269 96.8744C166.14 96.8897 165.712 97.7365 165.59 97.8135C165.956 97.6904 166.705 97.4132 167.086 97.3516C167.193 97.3362 167.285 97.3362 167.407 97.3054C167.499 97.3054 167.575 97.2747 167.682 97.2747C173.224 96.3663 178.233 94.0722 183.073 91.3009C179.439 93.2716 176.782 94.3648 173.026 95.5041C171.209 96.043 169.392 96.4587 167.529 96.8436ZM141.694 95.1346C149.023 96.0737 165.01 95.2731 174.736 90.1308C167.468 93.1023 162.139 94.1338 154.673 94.6265C148.137 95.0576 143.236 94.7805 141.709 94.6727C141.633 94.6727 141.541 94.6573 141.465 94.6419C140.35 94.5649 139.801 95.073 139.648 95.1192C140.396 94.996 140.946 95.0268 141.694 95.1346ZM167.361 95.3347C165.3 95.7504 163.254 95.9968 161.208 96.1661C159.177 96.3355 157.116 96.4125 155.008 96.3817C153.543 96.3663 152.443 96.3047 151.802 96.3047C151.71 96.3047 151.619 96.3047 151.542 96.3047C150.413 96.3355 149.909 96.8897 149.771 96.9513C150.138 96.8744 150.901 96.7358 151.283 96.7358C151.374 96.7512 151.466 96.7512 151.588 96.7512C151.68 96.7512 151.756 96.782 151.833 96.782C155.299 96.9513 159.055 97.1823 163.559 96.5818C168.201 95.966 173.621 94.3955 180.981 90.7158C178.37 91.7474 176.477 92.5634 174.293 93.364C172.14 94.1338 169.972 94.8112 167.361 95.3347ZM164.048 102.525C164.429 102.556 165.376 102.371 165.727 102.294C164.277 101.678 162.429 101.155 160.734 100.97H160.719C162.078 102.371 163.742 102.494 164.048 102.525Z" fill="white"/>
<path d="M179.21 133.641C179.378 133.625 179.561 133.61 179.729 133.595C179.897 133.579 180.08 133.564 180.294 133.564C180.63 133.564 180.966 133.595 181.317 133.641C181.653 133.702 181.958 133.795 182.248 133.933C182.523 134.072 182.752 134.257 182.92 134.488C183.088 134.718 183.18 134.996 183.18 135.334C183.18 135.658 183.103 135.919 182.935 136.135C182.767 136.35 182.569 136.535 182.294 136.658C182.035 136.797 181.729 136.889 181.393 136.951C181.073 137.013 180.721 137.043 180.385 137.043C180.141 137.043 179.927 137.028 179.729 137.028C179.546 137.013 179.378 136.997 179.21 136.997V133.641ZM179.21 128.483H176.568V138.737C177.011 138.799 177.484 138.829 178.004 138.86C178.523 138.891 179.057 138.922 179.622 138.922C180.538 138.922 181.363 138.845 182.126 138.706C182.874 138.568 183.531 138.337 184.096 138.044C184.646 137.752 185.073 137.367 185.378 136.889C185.684 136.412 185.821 135.858 185.837 135.196C185.837 134.672 185.745 134.21 185.546 133.826C185.363 133.425 185.104 133.102 184.783 132.825C184.462 132.548 184.081 132.332 183.668 132.163C183.241 131.993 182.798 131.87 182.325 131.793C181.851 131.716 181.378 131.685 180.889 131.685C180.584 131.685 180.294 131.685 180.019 131.716C179.744 131.732 179.469 131.762 179.225 131.793V128.483H179.21ZM166.995 132.886C166.995 132.609 167.056 132.317 167.147 132.04C167.254 131.762 167.407 131.501 167.605 131.27C167.804 131.039 168.048 130.854 168.338 130.7C168.628 130.561 168.949 130.485 169.3 130.485C169.697 130.485 170.064 130.561 170.369 130.715C170.674 130.869 170.934 131.1 171.148 131.377C171.362 131.655 171.514 131.993 171.621 132.378C171.728 132.748 171.774 133.163 171.774 133.61C171.774 134.257 171.667 134.826 171.468 135.304C171.27 135.781 170.98 136.15 170.598 136.427C170.232 136.689 169.774 136.828 169.254 136.828C168.995 136.828 168.735 136.782 168.476 136.689C168.201 136.597 167.972 136.458 167.743 136.258C167.529 136.073 167.346 135.812 167.193 135.519C167.056 135.227 166.995 134.872 166.995 134.472V132.886ZM166.995 137.736H167.025C167.193 137.998 167.422 138.229 167.712 138.429C167.987 138.629 168.308 138.768 168.674 138.875C169.041 138.983 169.438 139.045 169.85 139.045C170.323 139.045 170.781 138.983 171.239 138.829C171.697 138.691 172.125 138.475 172.522 138.183C172.919 137.89 173.27 137.536 173.576 137.09C173.881 136.643 174.125 136.135 174.293 135.534C174.461 134.949 174.553 134.272 174.553 133.533C174.553 132.748 174.446 132.04 174.217 131.393C174.003 130.762 173.698 130.207 173.301 129.745C172.904 129.299 172.446 128.929 171.926 128.683C171.407 128.437 170.842 128.314 170.232 128.314C169.453 128.314 168.766 128.468 168.186 128.776C167.59 129.083 167.117 129.515 166.75 130.069H166.704L166.567 128.468H164.155C164.185 128.976 164.2 129.515 164.216 130.1C164.231 130.685 164.246 131.285 164.246 131.932V143.002H166.979V137.736H166.995ZM158.948 135.211C158.948 135.473 158.902 135.704 158.795 135.904C158.704 136.104 158.566 136.274 158.398 136.427C158.23 136.581 158.062 136.705 157.864 136.782C157.68 136.874 157.482 136.951 157.284 136.997C157.085 137.043 156.902 137.059 156.734 137.059C156.459 137.059 156.184 137.013 155.97 136.905C155.741 136.797 155.543 136.643 155.421 136.427C155.283 136.227 155.207 135.95 155.207 135.642C155.207 135.304 155.299 135.026 155.497 134.78C155.696 134.549 155.955 134.364 156.306 134.21C156.642 134.072 157.039 133.964 157.497 133.902C157.955 133.841 158.444 133.81 158.963 133.81V135.211H158.948ZM159.116 137.644L159.314 138.875H161.788C161.742 138.675 161.712 138.429 161.681 138.152C161.65 137.875 161.635 137.582 161.62 137.274C161.62 136.966 161.605 136.658 161.605 136.335V132.856C161.605 132.409 161.574 131.963 161.498 131.516C161.421 131.085 161.284 130.669 161.101 130.284C160.918 129.899 160.658 129.561 160.322 129.268C159.986 128.976 159.574 128.745 159.055 128.575C158.551 128.406 157.94 128.329 157.222 128.314C156.642 128.314 156.123 128.36 155.634 128.452C155.131 128.545 154.688 128.652 154.291 128.806C153.894 128.945 153.558 129.114 153.268 129.268L153.817 131.07C154.077 130.9 154.367 130.762 154.673 130.638C154.993 130.515 155.314 130.423 155.665 130.346C156.016 130.284 156.367 130.238 156.734 130.238C157.177 130.238 157.528 130.284 157.803 130.392C158.093 130.485 158.307 130.623 158.459 130.808C158.612 130.993 158.719 131.177 158.78 131.393C158.841 131.608 158.871 131.839 158.871 132.07C157.543 132.055 156.413 132.193 155.466 132.486C154.52 132.763 153.802 133.194 153.298 133.779C152.794 134.364 152.535 135.088 152.535 135.95C152.535 136.335 152.611 136.72 152.749 137.074C152.886 137.444 153.1 137.767 153.39 138.059C153.665 138.352 154.016 138.583 154.443 138.752C154.856 138.922 155.344 139.014 155.894 139.014C156.367 139.014 156.795 138.952 157.207 138.845C157.604 138.722 157.971 138.552 158.291 138.352C158.612 138.136 158.871 137.906 159.101 137.628H159.116V137.644ZM143.77 134.58C143.969 134.565 144.198 134.58 144.442 134.611C144.702 134.642 144.961 134.703 145.252 134.826C145.526 134.934 145.801 135.134 146.076 135.396C146.351 135.673 146.61 136.043 146.855 136.52C147.069 137.028 147.282 137.49 147.496 137.89C147.695 138.29 147.893 138.629 148.107 138.875H150.916C150.794 138.675 150.657 138.429 150.535 138.183C150.397 137.936 150.29 137.675 150.168 137.397C150.046 137.136 149.939 136.874 149.832 136.643C149.725 136.397 149.634 136.181 149.557 135.981C149.328 135.458 149.084 134.996 148.794 134.595C148.504 134.18 148.183 133.841 147.801 133.579C147.42 133.317 146.977 133.133 146.458 133.04L150.855 128.498H147.618L144.229 132.763H143.801V128.498H141.175V138.875H143.801V134.58H143.77ZM131.754 132.625C131.784 132.378 131.845 132.101 131.937 131.824C132.029 131.547 132.181 131.285 132.364 131.023C132.548 130.777 132.792 130.577 133.067 130.423C133.357 130.269 133.693 130.192 134.09 130.177C134.441 130.177 134.746 130.238 134.991 130.346C135.235 130.454 135.434 130.608 135.602 130.792C135.769 130.977 135.892 131.177 135.983 131.393C136.075 131.608 136.136 131.824 136.166 132.04C136.197 132.255 136.212 132.44 136.212 132.609H131.754V132.625ZM138.655 134.534C138.686 134.426 138.716 134.272 138.732 134.072C138.747 133.872 138.762 133.641 138.762 133.394C138.762 132.902 138.716 132.424 138.61 131.947C138.518 131.47 138.35 131.008 138.136 130.577C137.922 130.146 137.632 129.761 137.281 129.422C136.93 129.083 136.502 128.822 135.999 128.637C135.495 128.452 134.914 128.344 134.243 128.344C133.571 128.344 132.96 128.452 132.41 128.652C131.861 128.852 131.387 129.13 130.975 129.484C130.563 129.838 130.212 130.254 129.937 130.715C129.662 131.193 129.448 131.685 129.311 132.224C129.173 132.763 129.097 133.317 129.097 133.887C129.097 134.672 129.219 135.381 129.463 136.027C129.708 136.658 130.059 137.213 130.517 137.659C130.975 138.106 131.555 138.46 132.212 138.691C132.884 138.937 133.632 139.06 134.472 139.06C135.235 139.06 135.937 138.999 136.548 138.875C137.159 138.752 137.693 138.583 138.136 138.383L137.754 136.52C137.357 136.674 136.93 136.782 136.457 136.859C135.983 136.951 135.449 136.997 134.853 136.997C134.441 136.997 134.044 136.951 133.678 136.843C133.311 136.735 132.975 136.581 132.685 136.381C132.395 136.181 132.166 135.919 131.998 135.611C131.83 135.304 131.723 134.949 131.708 134.549H138.655V134.534ZM120.134 130.654H124.302V138.86H126.975V128.529H117.477V138.86H120.134V130.654ZM196.479 114.996C196.464 115.427 196.433 115.812 196.418 116.166C196.403 116.52 196.387 116.859 196.372 117.182C196.357 117.505 196.357 117.86 196.342 118.214C196.342 118.568 196.342 118.968 196.342 119.399V122.632H198.83V112.255H195.716L193.242 116.797C193.059 117.121 192.891 117.444 192.738 117.767C192.585 118.09 192.433 118.414 192.28 118.753C192.127 119.091 191.975 119.445 191.822 119.83H191.73C191.776 119.214 191.807 118.552 191.837 117.829C191.853 117.105 191.883 116.32 191.883 115.488V112.255H189.394V122.632H192.433C192.585 122.386 192.769 122.078 192.967 121.709C193.166 121.339 193.379 120.954 193.608 120.508C193.837 120.077 194.067 119.63 194.296 119.168C194.525 118.706 194.754 118.26 194.983 117.829C195.166 117.475 195.349 117.121 195.502 116.782C195.67 116.443 195.822 116.12 195.975 115.812C196.128 115.504 196.265 115.227 196.387 114.98H196.479V114.996ZM195.425 108.221C195.41 108.514 195.349 108.76 195.242 108.976C195.135 109.191 194.998 109.361 194.799 109.469C194.601 109.592 194.357 109.653 194.067 109.653C193.746 109.653 193.502 109.576 193.334 109.438C193.15 109.299 193.028 109.114 192.952 108.899C192.876 108.683 192.83 108.452 192.799 108.221H191.104C191.135 108.76 191.242 109.253 191.456 109.653C191.669 110.069 191.99 110.377 192.402 110.608C192.83 110.839 193.364 110.947 194.005 110.947C194.631 110.947 195.166 110.839 195.609 110.623C196.051 110.408 196.403 110.1 196.662 109.699C196.922 109.299 197.059 108.791 197.105 108.206H195.425V108.221ZM184.768 114.996C184.737 115.412 184.722 115.812 184.707 116.166C184.691 116.52 184.676 116.859 184.661 117.182C184.646 117.505 184.63 117.86 184.63 118.214C184.63 118.568 184.63 118.968 184.63 119.399V122.632H187.119V112.255H184.004L181.515 116.797C181.332 117.121 181.164 117.444 181.012 117.767C180.859 118.09 180.706 118.414 180.553 118.753C180.401 119.091 180.248 119.445 180.095 119.83H180.004C180.05 119.214 180.08 118.552 180.111 117.829C180.126 117.105 180.141 116.32 180.141 115.488V112.255H177.668V122.632H180.691C180.859 122.386 181.027 122.078 181.225 121.709C181.424 121.339 181.653 120.954 181.882 120.508C182.111 120.077 182.34 119.63 182.569 119.168C182.798 118.706 183.027 118.26 183.256 117.829C183.439 117.475 183.607 117.121 183.775 116.782C183.943 116.443 184.096 116.12 184.233 115.812C184.386 115.504 184.523 115.227 184.646 114.98H184.768V114.996ZM169.422 118.337C169.621 118.337 169.85 118.337 170.109 118.368C170.354 118.398 170.629 118.46 170.903 118.583C171.178 118.691 171.468 118.891 171.743 119.153C172.018 119.415 172.278 119.799 172.507 120.261C172.72 120.769 172.934 121.231 173.148 121.632C173.362 122.032 173.56 122.355 173.759 122.617H176.568C176.446 122.417 176.309 122.17 176.187 121.924C176.049 121.662 175.927 121.416 175.82 121.154C175.698 120.893 175.591 120.631 175.484 120.385C175.393 120.138 175.301 119.923 175.209 119.738C174.98 119.214 174.736 118.753 174.446 118.352C174.156 117.937 173.835 117.598 173.453 117.336C173.072 117.074 172.629 116.89 172.11 116.797L176.507 112.255H173.255L169.865 116.52H169.438V112.255H166.811V122.632H169.438V118.337H169.422ZM164.032 120.215C163.773 120.323 163.452 120.415 163.116 120.492C162.765 120.569 162.368 120.6 161.91 120.615C161.467 120.615 161.055 120.538 160.658 120.4C160.276 120.261 159.94 120.061 159.635 119.784C159.345 119.507 159.116 119.184 158.948 118.783C158.78 118.383 158.704 117.937 158.704 117.428C158.704 116.967 158.765 116.551 158.917 116.166C159.07 115.781 159.284 115.442 159.559 115.15C159.833 114.857 160.169 114.642 160.566 114.488C160.963 114.318 161.406 114.241 161.895 114.241C162.368 114.241 162.78 114.288 163.116 114.365C163.452 114.442 163.727 114.534 163.956 114.642L164.46 112.532C164.109 112.394 163.727 112.286 163.269 112.194C162.826 112.117 162.353 112.071 161.864 112.071C160.918 112.071 160.093 112.209 159.36 112.486C158.627 112.763 158.001 113.148 157.482 113.641C156.978 114.134 156.581 114.719 156.322 115.381C156.047 116.043 155.925 116.766 155.909 117.536C155.909 118.337 156.047 119.045 156.291 119.692C156.551 120.338 156.917 120.893 157.406 121.339C157.879 121.801 158.459 122.155 159.131 122.401C159.803 122.648 160.551 122.771 161.391 122.771C161.834 122.771 162.246 122.74 162.628 122.694C163.009 122.648 163.361 122.586 163.651 122.509C163.956 122.432 164.2 122.355 164.399 122.263L164.032 120.215ZM143.709 112.255H140.808L144.274 116.859C143.877 116.951 143.526 117.136 143.221 117.382C142.915 117.629 142.656 117.952 142.442 118.321C142.228 118.691 142.045 119.107 141.892 119.553C141.785 119.876 141.679 120.231 141.556 120.585C141.434 120.939 141.312 121.293 141.175 121.647C141.037 122.001 140.9 122.324 140.762 122.617H143.373C143.541 122.309 143.679 121.955 143.816 121.555C143.954 121.154 144.091 120.692 144.259 120.184C144.412 119.707 144.58 119.338 144.763 119.076C144.946 118.814 145.129 118.614 145.328 118.506C145.526 118.383 145.725 118.321 145.939 118.291C146.152 118.26 146.366 118.244 146.58 118.26V122.617H149.176V118.26C149.374 118.26 149.588 118.275 149.786 118.291C149.985 118.321 150.199 118.383 150.397 118.506C150.596 118.629 150.779 118.814 150.962 119.076C151.145 119.338 151.313 119.707 151.466 120.169C151.619 120.677 151.756 121.124 151.894 121.539C152.016 121.955 152.168 122.309 152.321 122.617H154.947C154.81 122.324 154.688 122.001 154.55 121.647C154.428 121.293 154.306 120.939 154.184 120.569C154.062 120.215 153.955 119.861 153.848 119.538C153.695 119.06 153.512 118.645 153.298 118.275C153.085 117.906 152.825 117.582 152.52 117.351C152.214 117.105 151.863 116.936 151.466 116.843L154.917 112.24H152.016L149.542 116.535H149.176V112.24H146.58V116.535H146.198L143.709 112.255ZM132.746 114.411H136.487V122.632H139.159V112.301H130.227V116.597C130.227 117.151 130.212 117.659 130.181 118.137C130.15 118.599 130.074 119.014 129.967 119.368C129.86 119.722 129.677 120 129.448 120.231C129.219 120.462 128.898 120.615 128.517 120.692L128.837 122.833C129.28 122.833 129.677 122.771 130.044 122.648C130.41 122.54 130.715 122.355 130.975 122.14C131.448 121.847 131.815 121.431 132.074 120.923C132.334 120.415 132.517 119.799 132.609 119.076C132.7 118.352 132.761 117.552 132.746 116.643V114.411ZM122.516 120.785C122.073 120.785 121.707 120.692 121.371 120.508C121.05 120.323 120.775 120.077 120.562 119.769C120.348 119.461 120.18 119.107 120.088 118.706C119.981 118.306 119.92 117.89 119.92 117.459C119.92 117.044 119.966 116.628 120.073 116.228C120.18 115.827 120.317 115.473 120.531 115.15C120.745 114.826 121.004 114.565 121.34 114.38C121.676 114.195 122.058 114.087 122.516 114.087C122.959 114.087 123.341 114.195 123.661 114.38C123.982 114.565 124.241 114.826 124.44 115.15C124.638 115.473 124.791 115.827 124.898 116.212C125.005 116.612 125.051 116.997 125.051 117.398C125.051 118.09 124.928 118.691 124.715 119.199C124.486 119.707 124.196 120.092 123.814 120.369C123.432 120.646 123.005 120.785 122.516 120.785ZM122.44 122.802C122.974 122.802 123.493 122.74 124.012 122.602C124.531 122.463 125.005 122.263 125.478 121.986C125.936 121.709 126.333 121.354 126.684 120.908C127.036 120.477 127.31 119.969 127.509 119.368C127.707 118.783 127.814 118.106 127.814 117.351C127.814 116.582 127.692 115.873 127.433 115.242C127.188 114.596 126.837 114.041 126.379 113.579C125.921 113.117 125.371 112.748 124.73 112.486C124.089 112.224 123.386 112.101 122.608 112.101C121.798 112.101 121.065 112.224 120.394 112.486C119.722 112.733 119.157 113.102 118.668 113.564C118.18 114.041 117.813 114.611 117.554 115.288C117.279 115.95 117.157 116.705 117.141 117.552C117.141 118.352 117.279 119.076 117.538 119.722C117.798 120.369 118.164 120.923 118.638 121.385C119.111 121.847 119.676 122.201 120.317 122.448C120.959 122.663 121.661 122.802 122.44 122.802ZM107.201 116.151H108.881C109.415 116.151 109.904 116.181 110.347 116.258C110.789 116.335 111.171 116.458 111.507 116.643C111.828 116.813 112.087 117.044 112.27 117.321C112.454 117.598 112.545 117.937 112.545 118.337C112.545 118.691 112.469 118.999 112.347 119.245C112.209 119.507 112.026 119.722 111.782 119.892C111.538 120.061 111.263 120.2 110.957 120.308C110.652 120.415 110.331 120.477 109.98 120.538C109.629 120.585 109.278 120.6 108.927 120.6C108.56 120.6 108.224 120.6 107.949 120.585C107.659 120.585 107.415 120.554 107.201 120.523V116.151ZM107.201 110.408C107.308 110.392 107.445 110.362 107.613 110.346C107.781 110.331 107.98 110.315 108.224 110.315C108.469 110.3 108.759 110.3 109.095 110.3C109.69 110.3 110.224 110.362 110.683 110.485C111.141 110.608 111.492 110.808 111.751 111.085C111.996 111.362 112.133 111.732 112.133 112.209C112.133 112.594 112.011 112.917 111.782 113.21C111.553 113.502 111.202 113.733 110.744 113.903C110.27 114.072 109.69 114.149 108.972 114.164H107.201V110.408ZM104.453 122.494C104.85 122.54 105.369 122.602 105.964 122.632C106.575 122.679 107.262 122.694 108.041 122.694C109.4 122.694 110.576 122.602 111.538 122.401C112.5 122.217 113.278 121.893 113.858 121.478C114.164 121.247 114.439 120.985 114.668 120.677C114.897 120.369 115.08 120.03 115.202 119.661C115.324 119.276 115.385 118.876 115.385 118.414C115.385 117.937 115.294 117.505 115.141 117.121C114.973 116.736 114.759 116.397 114.484 116.12C114.21 115.827 113.889 115.596 113.538 115.412C113.187 115.227 112.805 115.088 112.423 114.996V114.919C112.958 114.734 113.416 114.488 113.767 114.18C114.133 113.872 114.393 113.518 114.576 113.133C114.759 112.748 114.836 112.332 114.836 111.917C114.836 111.408 114.744 110.947 114.591 110.562C114.423 110.177 114.21 109.869 113.92 109.592C113.645 109.33 113.324 109.114 112.958 108.945C112.606 108.776 112.225 108.637 111.843 108.545C111.461 108.452 111.08 108.375 110.698 108.345C110.316 108.298 109.965 108.268 109.644 108.268C109.324 108.252 109.049 108.252 108.82 108.252C108.392 108.252 107.98 108.268 107.552 108.283C107.14 108.298 106.728 108.329 106.346 108.345C105.949 108.375 105.613 108.406 105.277 108.452C104.957 108.499 104.667 108.529 104.438 108.576V122.494H104.453Z" fill="#FFFBDC"/>
</g>
<defs>
<radialGradient id="paint0_radial_542_10611" cx="0" cy="0" r="1" gradientUnits="userSpaceOnUse" gradientTransform="translate(151.001 120.499) scale(62.3029 38.6922)">
<stop stop-color="#E84E0F"/>
<stop offset="0.6778" stop-color="#9D2105"/>
<stop offset="1" stop-color="#770F00"/>
</radialGradient>
<linearGradient id="paint1_linear_542_10611" x1="151.002" y1="83.8187" x2="151.002" y2="125.105" gradientUnits="userSpaceOnUse">
<stop stop-color="white" stop-opacity="0.75"/>
<stop offset="1" stop-color="white" stop-opacity="0"/>
</linearGradient>
<clipPath id="clip0_542_10611">
<rect width="128" height="81" fill="white" transform="translate(87 80)"/>
</clipPath>
</defs>
</svg>
