<svg width="330" height="240" viewBox="0 0 330 240" fill="none" xmlns="http://www.w3.org/2000/svg">
<rect width="330" height="240" fill="white"/>
<g clip-path="url(#clip0_3039_774)">
<path d="M125.605 70.4586C139.913 63.7934 163.847 54.6069 191.913 58.2507C191.913 58.2507 243.746 60.647 245.978 108.273C245.978 108.273 249.072 159.777 179.151 160.1C179.151 160.1 139.895 160.746 131.735 184.997C131.735 184.997 129.639 172.388 109.551 167.213C90.1956 162.228 72.6063 132.108 91.1662 101.396C91.7619 100.412 103.895 80.5724 125.605 70.4586Z" fill="white"/>
<path d="M125.311 67.0336C139.616 60.3684 163.55 51.1818 191.616 54.8283C191.616 54.8283 243.449 57.2246 245.681 104.85C245.681 104.85 248.775 156.354 178.854 156.677C178.854 156.677 139.598 157.323 131.438 181.575C131.438 181.575 129.342 168.966 109.255 163.791C89.8987 158.805 72.3094 128.685 90.8693 97.9741C91.465 96.9869 103.598 77.1474 125.311 67.0336Z" fill="#002169"/>
<path d="M113.166 90.345C118.962 89.4464 122.341 91.2124 122.341 96.268C122.341 99.1174 121.239 100.933 119.532 102.483C121.771 103.379 123.124 105.137 123.124 108.549C123.124 112.964 120.492 116.902 113.95 117.915L105.997 119.147C105.258 119.262 104.598 118.618 104.598 117.785V93.132C104.598 92.2959 105.15 91.5874 105.892 91.4728L113.166 90.345ZM110.498 101.313L112.989 100.928C115.372 100.558 116.438 99.5498 116.438 97.9454C116.438 96.2992 115.69 95.4527 112.455 95.9528L110.498 96.255V101.313ZM110.498 112.912L113.308 112.477C115.94 112.068 117.218 110.867 117.218 108.82C117.218 106.572 115.868 106.02 112.879 106.481L110.496 106.851V112.912H110.498Z" fill="white"/>
<path d="M137.429 113.755L132.335 104.428C132.176 104.137 131.878 103.978 131.575 104.025L131.349 104.058C130.969 104.118 130.686 104.48 130.686 104.908V114.568C130.686 114.998 130.404 115.36 130.024 115.417L125.656 116.094C125.194 116.165 124.783 115.766 124.783 115.245V89.2928C124.783 88.8656 125.065 88.501 125.445 88.4437L129.813 87.7665C130.275 87.6961 130.686 88.0946 130.686 88.6156V97.6406C130.686 98.1615 131.097 98.5627 131.559 98.4897C131.814 98.4507 132.034 98.2709 132.145 98.0131L136.872 87.058C136.982 86.8001 137.203 86.6204 137.458 86.5813L142.095 85.8625C142.703 85.7687 143.161 86.472 142.891 87.0892L137.486 99.4639C137.37 99.7295 137.383 100.039 137.522 100.292L144.008 112.042C144.298 112.57 144.008 113.258 143.461 113.341L138.192 114.157C137.889 114.206 137.591 114.047 137.429 113.755Z" fill="white"/>
<path d="M164.571 82.3827C164.879 82.3358 165.125 82.6692 165.023 83L158.1 105.017C156.536 110.039 154.107 111.859 149.665 112.755C149.002 112.888 148.391 112.315 148.391 111.562V108.536C148.391 107.809 148.848 107.181 149.485 107.038C151.193 106.655 152.145 106.069 152.8 104.993L145.081 86.9095C144.783 86.2089 145.179 85.3858 145.867 85.2816L149.747 84.6799C150.502 84.5627 151.236 85.0159 151.55 85.7947L155.609 95.8903L159.047 83.7527C159.14 83.4245 159.394 83.1849 159.7 83.1354L164.571 82.3827Z" fill="white"/>
<path d="M178.383 88.7901C178.044 88.8422 177.723 88.613 177.62 88.2457C177.22 86.8132 176.172 85.7192 174.341 86.0031C171.886 86.3834 170.572 88.5921 170.572 93.1294V97.4635C170.572 101.798 171.853 103.806 174.341 103.42C176.272 103.121 177.24 101.951 177.659 100C177.725 99.6853 177.956 99.4482 178.241 99.404L182.419 98.758C182.902 98.6825 183.297 99.1669 183.2 99.7009C182.16 105.332 179.225 108.202 174.341 108.96C168.759 109.825 164.668 106.645 164.668 98.3777V94.0436C164.668 85.6958 168.759 81.3304 174.341 80.4657C178.981 79.7468 182.232 81.8982 183.238 87.1934C183.323 87.6362 183.048 88.066 182.648 88.1259L178.383 88.7901Z" fill="white"/>
<path d="M191.633 88.7849L197.96 87.8055C198.26 87.7586 198.483 87.4721 198.483 87.1335V77.7204C198.483 77.3818 198.707 77.0953 199.007 77.0484L203.698 76.3217C204.063 76.2644 204.389 76.5822 204.389 76.9937V103.316C204.389 103.655 204.166 103.941 203.865 103.988L199.174 104.715C198.809 104.772 198.483 104.454 198.483 104.043V94.041C198.483 93.6295 198.157 93.3117 197.793 93.369L191.466 94.3484C191.165 94.3952 190.942 94.6818 190.942 95.0204V105.397C190.942 105.736 190.718 106.022 190.418 106.069L185.727 106.796C185.362 106.853 185.036 106.535 185.036 106.124V79.8015C185.036 79.4629 185.259 79.1764 185.56 79.1295L190.251 78.4028C190.616 78.3455 190.942 78.6633 190.942 79.0748V88.1129C190.942 88.5244 191.268 88.8396 191.633 88.7849Z" fill="white"/>
<path d="M216.188 102.477C210.606 103.342 206.515 100.162 206.515 91.8948V87.5607C206.515 79.2129 210.606 74.8475 216.188 73.9827C221.771 73.118 225.861 76.2175 225.861 84.5628V88.8969C225.861 97.1666 221.771 101.613 216.188 102.477ZM212.419 90.9832C212.419 95.5178 213.733 97.3203 216.188 96.94C218.643 96.5597 219.958 94.351 219.958 89.8137V85.4796C219.958 80.9449 218.643 79.1425 216.188 79.5228C213.733 79.9031 212.419 82.1118 212.419 86.6491V90.9832Z" fill="white"/>
<path d="M109.138 130.454V141.333C109.138 141.544 109.384 141.622 109.485 141.443L116.292 129.18C116.32 129.128 116.369 129.092 116.425 129.084L119.671 128.581C119.784 128.563 119.884 128.662 119.884 128.789V149.285C119.884 149.389 119.815 149.478 119.722 149.494L115.637 150.127C115.524 150.145 115.424 150.046 115.424 149.918V139.187C115.424 138.976 115.177 138.898 115.077 139.075L108.324 151.181C108.296 151.234 108.247 151.27 108.19 151.278L104.891 151.788C104.778 151.807 104.678 151.708 104.678 151.58V131.084C104.678 130.98 104.747 130.891 104.84 130.876L108.925 130.243C109.038 130.23 109.138 130.326 109.138 130.454Z" fill="white"/>
<path d="M143.736 125.685V145.141C143.736 145.503 143.497 145.808 143.176 145.858L140.012 146.347C139.622 146.407 139.275 146.069 139.275 145.631V130.558C139.275 130.118 138.929 129.782 138.538 129.842L133.708 130.589C133.388 130.639 133.149 130.946 133.149 131.305V146.78C133.149 147.142 132.91 147.446 132.589 147.496L129.425 147.986C129.035 148.045 128.688 147.707 128.688 147.269V127.813C128.688 127.451 128.927 127.146 129.248 127.096L142.996 124.966C143.389 124.906 143.736 125.245 143.736 125.685Z" fill="white"/>
<path d="M150.083 138.38V144.136C150.083 144.511 149.837 144.829 149.503 144.881L146.388 145.363C145.985 145.425 145.623 145.074 145.623 144.618V125.216C145.623 124.841 145.87 124.523 146.203 124.471L152.607 123.479C156.88 122.817 159.62 124.515 159.62 129.183C159.62 133.822 156.906 136.666 152.607 137.333L150.661 137.635C150.33 137.687 150.083 138.005 150.083 138.38ZM151.801 133.275C154.138 132.913 155.16 131.964 155.16 129.873C155.16 128.175 154.138 127.425 151.801 127.787L150.661 127.964C150.33 128.016 150.081 128.334 150.081 128.709V132.678C150.081 133.134 150.44 133.486 150.846 133.423L151.801 133.275Z" fill="white"/>
<path d="M167.565 142.383C163.346 143.037 160.257 140.635 160.257 134.389V131.115C160.257 124.81 163.346 121.512 167.565 120.858C171.784 120.205 174.873 122.546 174.873 128.852V132.126C174.873 138.372 171.781 141.732 167.565 142.383ZM164.717 133.699C164.717 137.124 165.711 138.486 167.565 138.2C169.419 137.913 170.412 136.244 170.412 132.816V129.542C170.412 126.117 169.419 124.755 167.565 125.041C165.711 125.328 164.717 126.997 164.717 130.425V133.699Z" fill="white"/>
<path d="M186.432 124.698C186.119 124.747 185.826 124.533 185.721 124.2C185.398 123.169 184.614 122.4 183.274 122.609C181.42 122.895 180.426 124.565 180.426 127.992V131.266C180.426 134.54 181.394 136.059 183.274 135.767C184.704 135.546 185.433 134.691 185.76 133.275C185.826 132.983 186.039 132.761 186.307 132.722L189.198 132.274C189.652 132.204 190.027 132.662 189.927 133.163C189.108 137.281 186.905 139.39 183.274 139.953C179.055 140.607 175.966 138.205 175.966 131.959V128.685C175.966 122.379 179.055 119.082 183.274 118.428C186.733 117.892 189.172 119.47 189.966 123.359C190.05 123.773 189.791 124.177 189.414 124.237L186.432 124.698Z" fill="white"/>
<path d="M204.492 115.956V119.236C204.492 119.46 204.344 119.65 204.146 119.681L200.001 120.324C199.804 120.356 199.655 120.546 199.655 120.77V136.723C199.655 136.947 199.506 137.137 199.308 137.169L195.652 137.736C195.41 137.773 195.195 137.564 195.195 137.291V121.585C195.195 121.314 194.979 121.103 194.737 121.14L190.814 121.746C190.573 121.783 190.357 121.575 190.357 121.301V118.022C190.357 117.798 190.506 117.608 190.703 117.576L204.033 115.511C204.279 115.475 204.492 115.683 204.492 115.956Z" fill="white"/>
<path d="M212.148 135.478C207.932 136.132 204.841 133.73 204.841 127.485V124.21C204.841 117.905 207.93 114.607 212.148 113.953C216.367 113.3 219.456 115.641 219.456 121.947V125.221C219.454 131.464 216.365 134.824 212.148 135.478ZM209.301 126.794C209.301 130.219 210.295 131.582 212.148 131.295C214.002 131.009 214.996 129.339 214.996 125.911V122.637C214.996 119.212 214.002 117.85 212.148 118.136C210.295 118.423 209.301 120.093 209.301 123.52V126.794Z" fill="white"/>
<path d="M224.644 133.238L221.318 133.754C221.059 133.793 220.825 133.569 220.825 133.275V129.521C220.825 129.279 220.985 129.076 221.198 129.042L224.523 128.526C224.782 128.487 225.016 128.711 225.016 129.006V132.759C225.019 133.001 224.859 133.207 224.644 133.238ZM224.392 112.359L221.336 112.833C221.123 112.867 220.964 113.07 220.964 113.313V127.526C220.964 127.82 221.195 128.044 221.457 128.005L224.513 127.531C224.726 127.498 224.885 127.294 224.885 127.052V112.839C224.883 112.544 224.651 112.318 224.392 112.359Z" fill="white"/>
</g>
<defs>
<clipPath id="clip0_3039_774">
<rect width="163" height="131" fill="white" transform="translate(83 54)"/>
</clipPath>
</defs>
</svg>
