<svg width="330" height="240" viewBox="0 0 330 240" fill="none" xmlns="http://www.w3.org/2000/svg">
<rect width="330" height="240" fill="white"/>
<g clip-path="url(#clip0_3039_830)">
<path d="M165.025 183C220.82 183 266.05 155.018 266.05 120.5C266.05 85.9822 220.82 58 165.025 58C109.23 58 64 85.9822 64 120.5C64 155.018 109.23 183 165.025 183Z" fill="#812B2F"/>
<path d="M179.852 84.1885C180.757 83.5338 183.672 83.1813 183.672 83.1813C199.253 81.5193 207.797 76.4831 211.014 74.1664C212.019 73.4613 211.467 73.6124 210.964 73.9146C200.258 79.9581 184.527 82.1237 182.617 82.4258C180.556 82.728 179.852 84.1885 179.852 84.1885ZM161.557 80.3106C161.708 80.3106 161.808 80.361 161.959 80.361C167.689 80.6632 173.871 81.0661 181.26 80.0084C188.899 78.9508 194.83 77.9939 206.993 71.3461C206.893 70.9432 202.52 73.0584 198.901 74.4182C195.333 75.778 191.764 76.9867 187.492 77.8932C184.074 78.5983 180.707 79.0515 177.339 79.3537C174.022 79.6559 170.604 79.7566 167.136 79.7063C164.724 79.6559 162.914 79.5552 161.859 79.5552C161.708 79.5552 161.557 79.5552 161.457 79.5552C159.597 79.6055 158.793 80.5624 158.541 80.6632C159.496 80.361 159.999 80.2603 161.055 80.3106C161.256 80.2603 161.406 80.2603 161.557 80.3106ZM192.317 85.3972C200.409 83.836 207.848 80.4617 214.935 76.3823C215.739 75.9291 215.789 75.6269 214.884 76.0802C208.752 79.1523 198.6 83.0806 193.222 84.4907C191.764 84.8432 192.216 85.3469 192.317 85.3972ZM181.863 93.4049C181.762 93.7071 182.717 94.11 183.572 94.1603C189.151 94.3114 200.359 91.0882 209.456 86.052C211.115 85.1454 211.517 84.39 209.607 85.498C202.068 89.7284 186.336 94.1603 181.863 93.4049ZM99.9368 91.1889C98.9316 92.1962 98.8311 92.4984 99.9871 91.4911C105.817 86.6059 116.272 82.5266 127.782 84.6922C127.43 83.7353 128.133 83.0302 128.234 82.6273C122.504 81.8215 109.336 81.7711 99.9368 91.1889ZM182.265 91.5918C186.637 91.1889 198.65 89.4766 212.422 80.7135C213.628 79.9581 213.829 79.5552 212.371 80.361C204.732 84.6922 191.714 90.3328 180.405 90.8868C180.305 91.2393 181.611 91.6422 182.265 91.5918ZM146.227 94.4121C146.227 94.4121 146.177 94.9158 146.881 95.2179C154.269 97.6857 162.864 99.3477 171.609 98.693C186.989 97.5346 194.981 94.8654 199.555 92.8509C201.314 92.0451 200.711 91.9444 199.253 92.448C190.256 95.6712 180.707 97.3835 171.509 97.6857C162.412 98.0383 153.666 96.9303 146.227 94.4121Z" fill="#D4A549"/>
<path d="M151.756 91.5415C149.997 87.0592 146.328 86.4549 145.725 86.203C152.41 87.311 156.682 80.9653 156.732 80.8646C156.732 80.8142 156.732 80.7639 156.682 80.7639C155.073 80.1595 152.46 80.4617 149.846 81.4186C147.434 82.2748 145.021 83.7353 143.463 85.5483C143.463 85.5483 143.463 85.8001 143.564 86.1527C143.564 86.203 143.614 86.2534 143.614 86.3038C143.966 87.8147 145.172 91.2897 149.143 93.556C149.896 93.9589 150.952 94.3618 151.806 94.7143C152.209 94.8151 152.56 94.9661 153.013 95.0669C153.013 95.0669 153.113 94.9158 153.013 94.7647C152.862 94.664 152.309 92.9516 151.756 91.5415ZM143.513 90.8364C143.513 90.786 143.513 90.6853 143.513 90.635C143.463 89.3759 142.759 87.5628 141.352 86.4045C140.648 85.8001 139.593 85.6491 138.638 85.2965C143.915 84.8433 147.987 79.7566 148.037 79.7063C148.037 79.6559 148.037 79.6055 147.987 79.6055C146.378 79.0516 143.765 79.4545 141.201 80.4617C138.839 81.4186 136.477 82.9295 135.019 84.7425V84.7929C134.969 84.7929 134.969 84.8433 134.969 84.8936C136.326 87.6132 137.331 89.1744 138.336 90.1817C139.342 91.2393 140.297 91.7429 141.553 92.3473C142.458 92.8005 143.815 93.4049 143.915 93.4553H143.966C144.016 93.4553 144.066 93.4049 144.016 93.3545C143.815 92.8005 143.664 92.2969 143.614 91.894C143.564 91.4911 143.513 91.1386 143.513 90.8364ZM153.365 95.8223C153.314 95.7719 153.365 95.7719 153.365 95.8223C153.314 95.7719 153.314 95.8223 153.365 95.8223ZM134.466 87.2607C133.562 86.4549 132.406 85.498 131.3 84.8433C131.199 84.7929 131.149 84.7425 131.049 84.6922C131.702 84.5914 132.406 84.4404 133.009 84.1382C135.321 83.1813 137.331 81.3179 138.035 80.6128C138.537 80.1092 139.693 78.5983 139.693 78.5983V78.5479C139.693 78.4976 139.643 78.4472 139.543 78.4472C139.241 78.4976 138.889 78.4976 138.487 78.5479C137.381 78.6487 135.974 78.7494 134.014 79.4545C132.506 79.9581 131.4 80.6128 130.496 81.4186C129.591 82.2244 128.988 83.1813 128.535 84.2893C128.535 84.3396 128.535 84.39 128.586 84.39L128.535 84.4404C128.535 84.4404 128.485 84.4907 128.535 84.4907C129.088 86.052 129.893 87.2607 130.998 88.419C131.903 89.3255 133.009 90.1817 134.316 91.0882C136.024 92.2466 136.728 92.1962 136.879 92.1458L136.929 92.0955C136.728 91.5918 136.577 91.1386 136.426 90.7357C136.125 89.4766 135.773 88.419 134.466 87.2607ZM191.06 85.498C190.759 85.3972 190.508 85.3469 190.256 85.2462C189.603 85.0447 188.497 84.4907 187.19 84.4404C185.632 84.3396 184.275 84.4907 183.019 84.8433C180.807 85.4476 178.948 86.9081 176.987 88.2176C176.937 88.2679 176.987 88.3183 177.038 88.3183C185.532 91.9947 190.96 85.7498 191.161 85.5987C191.161 85.5987 191.161 85.5987 191.211 85.5483C191.111 85.5483 191.111 85.498 191.06 85.498ZM158.24 88.8723C157.285 88.2679 156.179 87.7139 154.923 87.4118C155.878 87.2607 156.883 87.0088 157.838 86.7067C160.2 85.9009 162.211 84.6418 162.864 83.5842C163.517 82.5769 165.276 81.6201 165.276 81.6201C165.327 81.6201 165.327 81.5697 165.327 81.5193C165.327 81.469 165.276 81.4186 165.176 81.469L165.025 81.5193C164.07 81.7711 160.2 81.2171 155.727 83.5842C154.219 84.39 152.761 85.5987 151.756 87.311V87.3614V87.4118C153.365 90.081 154.47 91.7429 155.576 92.7502C156.682 93.7574 158.441 94.8151 159.798 95.3187C160.753 95.7216 162.261 96.1748 162.311 96.2252H162.361C162.412 96.2252 162.462 96.1748 162.412 96.1245C162.16 95.5705 162.009 95.0669 161.859 94.664C161.306 93.1531 161.306 90.8364 158.24 88.8723ZM179.651 93.556C176.434 88.6205 171.358 89.1241 170.755 89.0737C177.993 88.0161 178.897 81.7711 178.948 81.6704C178.948 81.62 178.897 81.5697 178.847 81.5697C177.138 81.4186 174.826 82.2748 172.715 83.7353C170.755 85.0951 168.996 87.0088 168.141 89.0234V89.0737C168.141 89.0737 168.141 89.1241 168.141 89.1744C171.258 94.5632 175.53 94.9158 176.334 95.1676C177.641 95.5705 181.611 95.7719 181.611 95.7719C181.662 95.7719 181.662 95.7719 181.712 95.7216C181.762 95.6712 181.762 95.6209 181.712 95.5705L181.31 95.218C180.606 94.9661 180.053 94.1603 179.651 93.556ZM169.9 94.0093C169.9 93.9589 169.9 93.8582 169.85 93.8078C169.549 92.4984 168.393 91.0882 166.684 90.0306C165.276 89.1744 163.467 88.5701 161.507 88.6205C169.599 88.3686 172.011 81.6704 172.011 81.6704V81.6201C172.011 81.5697 171.911 81.5697 171.861 81.5697L171.056 81.8215C170.102 82.1237 169.348 82.3755 168.795 82.5266C168.543 82.5769 168.292 82.6273 168.091 82.6777C165.88 82.9798 165.276 83.1309 164.321 83.7353C164.12 83.836 163.919 83.9871 163.718 84.1382C162.964 84.5914 162.361 85.1454 161.859 85.6491C160.552 87.0089 159.898 88.3686 159.748 88.6708C159.748 88.6708 159.748 88.6708 159.748 88.7212C159.748 88.7715 159.798 88.7715 159.798 88.8219C159.748 88.8723 159.748 88.8723 159.748 88.9226C161.658 91.5918 163.015 93.1027 164.271 94.0596C165.528 95.0165 166.633 95.4194 168.091 95.8727C169.147 96.2252 170.654 96.6785 170.755 96.7288H170.805C170.855 96.7288 170.855 96.6785 170.855 96.6281C170.554 96.0741 170.303 95.5705 170.152 95.1172C170.051 94.7143 169.9 94.3114 169.9 94.0093Z" fill="#D4A549"/>
<path fill-rule="evenodd" clip-rule="evenodd" d="M157.034 163.913V173.633H158.541V161.596L155.526 162.956L156.179 164.315L157.034 163.913ZM162.361 163.812V168.294C162.361 168.647 162.11 168.898 161.758 168.898H161.507C161.155 168.898 160.904 168.647 160.904 168.294V163.812C160.904 163.459 161.155 163.207 161.507 163.207H161.808C162.11 163.207 162.361 163.51 162.361 163.812ZM163.869 163.812C163.869 163.51 163.819 163.207 163.718 162.956C163.618 162.704 163.467 162.452 163.266 162.251C163.065 162.049 162.814 161.898 162.562 161.797C162.311 161.697 162.009 161.646 161.708 161.646C161.406 161.646 161.105 161.697 160.853 161.797C160.602 161.898 160.351 162.049 160.15 162.251C159.949 162.452 159.798 162.704 159.697 162.956C159.597 163.207 159.547 163.51 159.547 163.812V168.193C159.547 168.496 159.597 168.798 159.697 169.05C159.798 169.301 159.949 169.553 160.15 169.755C160.351 169.956 160.602 170.107 160.853 170.208C161.105 170.309 161.406 170.359 161.708 170.359C161.909 170.359 162.16 170.309 162.462 170.208V171.266C162.462 171.467 162.412 171.668 162.261 171.819C162.11 171.971 161.959 172.021 161.758 172.021H161.004V173.532H161.758C162.06 173.532 162.361 173.481 162.613 173.33C162.864 173.23 163.115 173.079 163.316 172.877C163.517 172.676 163.668 172.424 163.769 172.172C163.869 171.92 163.919 171.618 163.919 171.316V163.812H163.869ZM167.689 168.949H166.181L167.689 165.323V168.949ZM169.147 161.697H167.639L164.623 168.898V170.409H167.639V173.633H169.147V161.697ZM172.313 163.207H172.615C172.966 163.207 173.218 163.459 173.218 163.812V171.517C173.218 171.87 172.966 172.122 172.615 172.122H172.313C171.961 172.122 171.71 171.87 171.71 171.517V163.812C171.71 163.51 172.011 163.207 172.313 163.207ZM174.726 171.517V163.862C174.726 163.56 174.675 163.258 174.525 163.006C174.424 162.754 174.273 162.502 174.072 162.301C173.871 162.1 173.62 161.948 173.369 161.848C173.117 161.747 172.816 161.697 172.514 161.697C172.212 161.697 171.911 161.747 171.66 161.848C171.408 161.948 171.157 162.1 170.956 162.301C170.755 162.502 170.604 162.754 170.504 163.006C170.403 163.258 170.353 163.56 170.353 163.862V171.517C170.353 171.819 170.403 172.122 170.504 172.373C170.604 172.625 170.755 172.877 170.956 173.079C171.157 173.28 171.408 173.431 171.66 173.532C171.911 173.633 172.212 173.683 172.514 173.683C172.816 173.683 173.117 173.633 173.369 173.532C173.62 173.431 173.871 173.28 174.072 173.079C174.273 172.877 174.424 172.625 174.525 172.373C174.625 172.122 174.726 171.819 174.726 171.517Z" fill="white"/>
<path fill-rule="evenodd" clip-rule="evenodd" d="M150.801 169.704C142.458 168.999 134.667 167.589 127.58 165.625C127.329 165.575 127.178 165.373 127.178 165.121V164.869C127.178 164.819 127.178 164.819 127.178 164.769V164.668C127.178 164.567 127.229 164.517 127.279 164.467C127.329 164.416 127.43 164.416 127.53 164.416C134.617 166.28 142.458 167.539 150.801 168.093V168.596V169.15V169.704ZM202.972 164.92C202.972 164.869 202.972 164.869 202.972 164.819V164.718C202.972 164.618 202.922 164.567 202.872 164.517C202.822 164.467 202.721 164.467 202.621 164.467C195.534 166.33 187.693 167.589 179.35 168.143V168.647V169.201V169.704C187.693 168.999 195.483 167.589 202.57 165.625C202.822 165.575 202.972 165.373 202.972 165.121V164.92Z" fill="#D4A549"/>
<path fill-rule="evenodd" clip-rule="evenodd" d="M124.163 109.219C123.409 108.463 122.554 107.859 121.499 107.456C120.443 107.053 119.338 106.852 118.031 106.801C116.724 106.801 115.518 107.003 114.462 107.406C113.407 107.809 112.452 108.413 111.648 109.168C110.843 109.924 110.24 110.83 109.838 111.938C109.386 112.996 109.185 114.205 109.185 115.564C109.185 116.874 109.386 118.032 109.838 119.039C110.24 120.097 110.843 120.953 111.597 121.709C112.351 122.464 113.256 123.018 114.312 123.421C115.367 123.824 116.523 124.025 117.78 124.025C118.634 124.025 119.488 123.925 120.343 123.723C121.197 123.522 121.951 123.169 122.705 122.716C123.459 122.263 124.112 121.709 124.665 121.004C125.218 120.299 125.671 119.493 125.972 118.536C126.274 117.579 126.475 116.521 126.475 115.262C126.475 114.003 126.274 112.895 125.872 111.888C125.47 110.83 124.917 109.974 124.163 109.219ZM121.449 118.284C121.097 119.09 120.594 119.745 119.991 120.147C119.388 120.601 118.684 120.802 117.88 120.802C117.176 120.802 116.573 120.651 116.02 120.349C115.518 120.047 115.065 119.644 114.714 119.14C114.362 118.637 114.11 118.083 113.96 117.428C113.809 116.773 113.708 116.118 113.708 115.413C113.708 114.708 113.809 114.054 113.96 113.449C114.11 112.794 114.362 112.24 114.714 111.687C115.065 111.183 115.468 110.78 116.02 110.478C116.573 110.176 117.176 110.025 117.93 110.025C118.634 110.025 119.237 110.176 119.79 110.478C120.293 110.78 120.745 111.183 121.047 111.737C121.398 112.24 121.599 112.845 121.8 113.449C121.951 114.104 122.052 114.708 122.052 115.363C122.001 116.471 121.8 117.428 121.449 118.284Z" fill="white"/>
<path fill-rule="evenodd" clip-rule="evenodd" d="M231.169 104.434C231.873 104.787 232.727 104.988 233.783 104.988C234.788 104.988 235.642 104.837 236.396 104.485C237.1 104.132 237.703 103.629 238.105 102.974C238.507 102.319 238.758 101.513 238.809 100.556H236.044C235.994 101.01 235.894 101.413 235.743 101.765C235.592 102.118 235.341 102.369 235.039 102.571C234.737 102.772 234.335 102.873 233.833 102.873C233.33 102.873 232.928 102.772 232.627 102.521C232.325 102.319 232.124 102.017 232.023 101.664C231.873 101.312 231.822 100.959 231.772 100.556H229.008C229.058 101.463 229.259 102.218 229.561 102.873C229.963 103.578 230.465 104.082 231.169 104.434Z" fill="white"/>
<path fill-rule="evenodd" clip-rule="evenodd" d="M109.738 149.912H114.06V136.717H120.795V149.912H125.118V133.292H109.738V149.912Z" fill="white"/>
<path fill-rule="evenodd" clip-rule="evenodd" d="M143.212 136.566C142.86 135.861 142.408 135.256 141.855 134.702C141.302 134.148 140.598 133.745 139.794 133.443C138.99 133.141 138.035 132.99 136.929 132.99C135.823 132.99 134.868 133.141 133.964 133.494C133.059 133.796 132.305 134.249 131.652 134.803C130.998 135.357 130.445 136.012 129.993 136.767C129.541 137.523 129.189 138.328 128.988 139.185C128.737 140.041 128.636 140.947 128.636 141.854C128.636 143.113 128.837 144.271 129.239 145.278C129.641 146.286 130.194 147.192 130.948 147.897C131.702 148.602 132.607 149.207 133.712 149.559C134.768 149.962 136.024 150.164 137.381 150.164C138.638 150.164 139.744 150.063 140.749 149.861C141.754 149.66 142.609 149.408 143.312 149.056L142.709 146.084C142.056 146.336 141.352 146.537 140.598 146.638C139.844 146.789 138.99 146.84 137.985 146.84C137.331 146.84 136.678 146.739 136.075 146.588C135.472 146.437 134.969 146.185 134.466 145.832C134.014 145.48 133.612 145.077 133.361 144.573C133.059 144.07 132.908 143.516 132.908 142.861H144.066C144.116 142.66 144.167 142.408 144.167 142.106C144.217 141.803 144.217 141.4 144.217 140.998C144.217 140.192 144.116 139.436 143.966 138.681C143.815 137.976 143.564 137.271 143.212 136.566ZM132.858 139.89C132.908 139.487 133.009 139.033 133.159 138.58C133.31 138.127 133.562 137.724 133.863 137.321C134.165 136.918 134.567 136.616 135.019 136.364C135.472 136.112 136.024 135.961 136.678 135.961C137.231 135.961 137.733 136.062 138.135 136.213C138.537 136.415 138.889 136.616 139.141 136.918C139.392 137.22 139.593 137.523 139.744 137.875C139.895 138.228 139.995 138.58 140.045 138.933C140.096 139.285 140.146 139.587 140.096 139.839H132.858V139.89Z" fill="white"/>
<path fill-rule="evenodd" clip-rule="evenodd" d="M104.913 113.248C104.46 112.795 103.958 112.392 103.355 112.089C102.802 111.787 102.199 111.535 101.545 111.435V111.334C102.4 111.032 103.154 110.629 103.757 110.125C104.36 109.622 104.762 109.068 105.063 108.413C105.365 107.809 105.516 107.154 105.516 106.449C105.516 105.593 105.365 104.888 105.114 104.283C104.862 103.679 104.511 103.175 104.008 102.722C103.556 102.319 103.053 101.967 102.45 101.664C101.847 101.413 101.244 101.161 100.64 101.01C99.9871 100.859 99.3839 100.758 98.7808 100.707C98.1777 100.657 97.5745 100.607 97.0719 100.607C96.519 100.607 96.1169 100.607 95.7149 100.607C95.0112 100.607 90.5379 100.506 84.7076 102.168L85.361 105.542C85.361 105.542 86.6176 105.139 88.6783 104.737V123.572C89.3317 123.673 90.1359 123.723 91.1411 123.774C92.096 123.824 93.2521 123.874 94.5086 123.874C96.7201 123.874 98.63 123.723 100.188 123.421C101.746 123.119 103.003 122.615 103.958 121.91C104.46 121.558 104.913 121.104 105.264 120.601C105.616 120.097 105.918 119.543 106.119 118.939C106.32 118.334 106.421 117.68 106.421 116.924C106.421 116.169 106.27 115.464 106.018 114.859C105.717 114.255 105.365 113.751 104.913 113.248ZM94.7599 103.981C95.162 103.981 95.6143 103.981 96.1672 103.981C97.1222 103.981 97.9766 104.082 98.7305 104.283C99.4845 104.485 100.037 104.787 100.439 105.24C100.842 105.693 101.043 106.298 101.043 107.053C101.043 107.658 100.842 108.212 100.49 108.665C100.138 109.118 99.5347 109.521 98.7808 109.773C98.0269 110.025 97.0719 110.176 95.9159 110.176H93.051V104.132C93.1515 104.132 93.3526 104.082 93.5034 104.082C93.9055 104.031 94.3075 103.981 94.7599 103.981ZM101.394 118.334C101.193 118.737 100.892 119.09 100.49 119.392C100.088 119.644 99.6855 119.896 99.1829 120.047C98.6803 120.198 98.1777 120.349 97.5745 120.399C97.0217 120.45 96.4688 120.5 95.8656 120.5C95.2625 120.5 94.7096 120.5 94.2573 120.5C93.8049 120.5 93.4028 120.45 93.051 120.399V113.349H95.7651C96.6196 113.349 97.4237 113.399 98.1274 113.55C98.8311 113.701 99.4845 113.902 99.9871 114.154C100.54 114.406 100.942 114.809 101.244 115.262C101.545 115.716 101.696 116.27 101.696 116.924C101.746 117.428 101.646 117.932 101.394 118.334Z" fill="white"/>
<path fill-rule="evenodd" clip-rule="evenodd" d="M169.8 122.212C169.599 121.658 169.398 121.054 169.197 120.5C168.996 119.896 168.845 119.342 168.644 118.838C168.393 118.083 168.091 117.377 167.739 116.824C167.387 116.219 166.985 115.716 166.483 115.313C165.98 114.91 165.427 114.658 164.774 114.507L170.353 107.104H165.628L161.607 114.003H161.004V107.053H156.782V113.953H156.179L152.158 107.053H147.434L153.063 114.456C152.41 114.608 151.857 114.91 151.354 115.313C150.851 115.716 150.449 116.219 150.098 116.824C149.746 117.428 149.444 118.083 149.193 118.838C149.042 119.392 148.841 119.946 148.64 120.5C148.439 121.104 148.238 121.658 148.037 122.212C147.836 122.766 147.584 123.32 147.383 123.774H151.605C151.857 123.27 152.108 122.716 152.309 122.061C152.51 121.407 152.761 120.701 153.013 119.845C153.264 119.09 153.515 118.485 153.817 118.032C154.118 117.579 154.42 117.277 154.722 117.126C155.023 116.924 155.375 116.824 155.727 116.773C156.079 116.723 156.43 116.723 156.782 116.723V123.723H161.004V116.723C161.356 116.723 161.658 116.723 162.009 116.773C162.361 116.824 162.663 116.924 163.015 117.126C163.316 117.327 163.618 117.629 163.919 118.032C164.221 118.435 164.472 119.039 164.724 119.795C164.975 120.601 165.176 121.356 165.427 122.011C165.628 122.666 165.88 123.27 166.131 123.774H170.403C170.252 123.32 170.051 122.817 169.8 122.212Z" fill="white"/>
<path fill-rule="evenodd" clip-rule="evenodd" d="M213.477 114.406C213.175 114.91 212.924 115.464 212.673 115.967C212.422 116.471 212.17 117.025 211.919 117.579C211.668 118.133 211.416 118.687 211.165 119.291H211.014C211.064 118.334 211.165 117.226 211.165 116.068C211.215 114.91 211.215 113.651 211.215 112.291V107.053H207.194V123.774H212.12C212.371 123.371 212.673 122.867 212.974 122.313C213.276 121.709 213.628 121.104 214.03 120.399C214.382 119.694 214.784 118.989 215.136 118.234C215.538 117.478 215.89 116.773 216.241 116.068C216.543 115.514 216.794 114.91 217.096 114.356C217.347 113.802 217.598 113.298 217.85 112.794C218.101 112.291 218.302 111.838 218.503 111.485H218.704C218.654 112.19 218.654 112.794 218.604 113.348C218.553 113.902 218.553 114.456 218.553 114.96C218.553 115.464 218.503 116.018 218.503 116.622C218.503 117.176 218.503 117.831 218.503 118.536V123.774H222.574V107.053H217.498L213.477 114.406Z" fill="white"/>
<path fill-rule="evenodd" clip-rule="evenodd" d="M218.754 140.192C218.202 139.738 217.649 139.386 216.945 139.134C216.241 138.882 215.538 138.681 214.784 138.53C214.03 138.379 213.226 138.328 212.472 138.328C211.969 138.328 211.517 138.328 211.064 138.379C210.612 138.429 210.16 138.429 209.758 138.53V133.242H205.485V149.761C206.189 149.861 206.993 149.912 207.797 149.962C208.602 150.012 209.506 150.063 210.411 150.063C211.869 150.063 213.226 149.962 214.482 149.71C215.688 149.458 216.744 149.106 217.649 148.653C218.553 148.149 219.257 147.545 219.709 146.789C220.212 146.034 220.463 145.127 220.463 144.07C220.463 143.213 220.313 142.508 220.011 141.854C219.709 141.199 219.307 140.645 218.754 140.192ZM215.789 145.53C215.538 145.883 215.186 146.185 214.734 146.386C214.281 146.588 213.829 146.739 213.276 146.84C212.723 146.94 212.22 146.991 211.617 146.991C211.215 146.991 210.863 146.991 210.562 146.94C210.26 146.94 210.009 146.89 209.707 146.89V141.501C209.959 141.451 210.26 141.451 210.562 141.4C210.863 141.4 211.165 141.35 211.467 141.35C212.019 141.35 212.572 141.4 213.125 141.501C213.678 141.602 214.181 141.753 214.633 141.954C215.085 142.156 215.437 142.458 215.739 142.811C216.04 143.163 216.141 143.616 216.141 144.17C216.191 144.775 216.04 145.178 215.789 145.53Z" fill="white"/>
<path fill-rule="evenodd" clip-rule="evenodd" d="M204.229 121.407C204.028 121.004 203.877 120.55 203.676 120.198C203.525 119.795 203.374 119.442 203.224 119.14C202.872 118.284 202.47 117.579 201.967 116.924C201.515 116.27 200.962 115.716 200.359 115.262C199.756 114.809 199.002 114.557 198.198 114.406L205.335 107.104H200.057L194.579 114.003H193.875V107.053H189.653V123.774H193.925V116.874C194.227 116.874 194.629 116.874 195.031 116.924C195.433 116.975 195.886 117.075 196.338 117.277C196.79 117.478 197.243 117.78 197.695 118.183C198.147 118.637 198.549 119.191 198.951 119.996C199.303 120.802 199.655 121.558 200.007 122.212C200.359 122.867 200.66 123.371 201.012 123.774H205.586C205.385 123.421 205.184 123.068 204.933 122.666C204.631 122.263 204.43 121.86 204.229 121.407Z" fill="white"/>
<path fill-rule="evenodd" clip-rule="evenodd" d="M236.497 107.053L232.476 114.356C232.174 114.859 231.923 115.413 231.672 115.917C231.42 116.421 231.169 116.975 230.918 117.529C230.666 118.083 230.415 118.637 230.164 119.241H230.013C230.063 118.284 230.164 117.176 230.164 116.018C230.214 114.859 230.214 113.6 230.214 112.241V107.053H226.193V123.774H231.119C231.37 123.371 231.672 122.867 231.973 122.313C232.275 121.709 232.627 121.104 233.029 120.399C233.38 119.694 233.783 118.989 234.134 118.234C234.536 117.478 234.888 116.773 235.24 116.068C235.542 115.514 235.793 114.91 236.095 114.356C236.346 113.802 236.597 113.298 236.848 112.794C237.1 112.291 237.301 111.838 237.502 111.485H237.703C237.653 112.19 237.653 112.794 237.602 113.348C237.552 113.902 237.552 114.456 237.552 114.96C237.552 115.464 237.502 116.018 237.502 116.622C237.502 117.176 237.502 117.831 237.502 118.536V123.774H241.573V107.053H236.497Z" fill="white"/>
<path fill-rule="evenodd" clip-rule="evenodd" d="M200.158 135.256C199.504 134.501 198.801 133.947 197.946 133.544C197.092 133.141 196.187 132.94 195.182 132.94C193.925 132.94 192.82 133.191 191.865 133.695C190.91 134.199 190.156 134.904 189.553 135.76H189.502L189.301 133.191H185.381C185.431 133.997 185.481 134.904 185.481 135.81C185.481 136.767 185.532 137.724 185.532 138.731V156.56H189.955V148.048H190.005C190.307 148.451 190.658 148.854 191.111 149.156C191.563 149.459 192.066 149.71 192.669 149.912C193.272 150.063 193.875 150.164 194.579 150.164C195.333 150.164 196.087 150.063 196.841 149.811C197.594 149.559 198.248 149.257 198.901 148.753C199.555 148.3 200.107 147.696 200.61 146.991C201.113 146.286 201.465 145.48 201.766 144.523C202.017 143.566 202.168 142.508 202.168 141.3C202.168 140.041 201.967 138.882 201.615 137.875C201.314 136.868 200.811 136.012 200.158 135.256ZM197.243 144.221C196.891 144.976 196.438 145.581 195.835 146.034C195.232 146.487 194.529 146.689 193.674 146.689C193.272 146.689 192.82 146.638 192.418 146.437C191.965 146.286 191.613 146.034 191.211 145.732C190.859 145.429 190.558 145.027 190.357 144.573C190.156 144.07 190.005 143.516 190.005 142.861V140.293C190.005 139.839 190.106 139.386 190.256 138.933C190.407 138.479 190.658 138.077 191.01 137.674C191.312 137.321 191.714 136.969 192.216 136.767C192.669 136.566 193.222 136.415 193.775 136.415C194.428 136.415 194.981 136.566 195.483 136.817C195.986 137.069 196.388 137.422 196.74 137.875C197.092 138.328 197.343 138.882 197.494 139.487C197.645 140.091 197.745 140.746 197.745 141.451C197.745 142.508 197.544 143.415 197.243 144.221Z" fill="white"/>
<path fill-rule="evenodd" clip-rule="evenodd" d="M181.26 147.343C181.26 146.84 181.209 146.336 181.209 145.832V140.242C181.209 139.537 181.159 138.782 181.008 138.077C180.908 137.371 180.656 136.717 180.355 136.112C180.053 135.508 179.601 134.954 179.098 134.501C178.545 134.048 177.892 133.645 177.038 133.393C176.233 133.141 175.228 132.99 174.072 132.99C173.167 132.99 172.313 133.091 171.509 133.191C170.705 133.342 170.001 133.544 169.348 133.745C168.694 133.997 168.141 134.249 167.689 134.501L168.594 137.422C168.996 137.17 169.498 136.918 170.001 136.717C170.504 136.515 171.056 136.364 171.609 136.263C172.162 136.163 172.765 136.112 173.318 136.112C174.022 136.112 174.625 136.213 175.077 136.364C175.53 136.515 175.882 136.767 176.133 137.019C176.384 137.321 176.585 137.623 176.635 137.976C176.736 138.328 176.786 138.681 176.786 139.033C174.625 139.033 172.816 139.235 171.258 139.688C169.75 140.141 168.543 140.847 167.739 141.753C166.935 142.71 166.533 143.868 166.483 145.278C166.483 145.883 166.583 146.487 166.835 147.091C167.086 147.696 167.387 148.199 167.84 148.653C168.292 149.106 168.845 149.509 169.549 149.761C170.202 150.063 171.006 150.164 171.911 150.164C172.665 150.164 173.369 150.063 174.022 149.861C174.675 149.66 175.278 149.408 175.781 149.056C176.284 148.703 176.736 148.351 177.088 147.897H177.188L177.49 149.861H181.461C181.41 149.509 181.36 149.106 181.31 148.703C181.31 148.3 181.31 147.847 181.26 147.343ZM176.937 144.019C176.937 144.422 176.837 144.825 176.686 145.127C176.535 145.429 176.334 145.732 176.032 145.983C175.781 146.235 175.479 146.437 175.178 146.588C174.876 146.739 174.525 146.84 174.223 146.94C173.921 146.991 173.62 147.041 173.318 147.041C172.866 147.041 172.464 146.94 172.062 146.789C171.71 146.638 171.408 146.386 171.157 146.034C170.956 145.681 170.805 145.278 170.805 144.775C170.805 144.221 170.956 143.768 171.258 143.415C171.559 143.062 172.011 142.71 172.564 142.508C173.117 142.257 173.771 142.106 174.474 142.005C175.228 141.904 175.982 141.854 176.837 141.854V144.019H176.937Z" fill="white"/>
<path fill-rule="evenodd" clip-rule="evenodd" d="M162.663 147.545C162.462 147.142 162.311 146.689 162.11 146.336C161.959 145.933 161.808 145.581 161.658 145.278C161.306 144.422 160.904 143.717 160.401 143.012C159.949 142.357 159.396 141.803 158.793 141.35C158.19 140.897 157.436 140.645 156.632 140.494L163.769 133.191H158.491L153.013 140.091H152.309V133.242H148.037V149.962H152.309V143.062C152.611 143.062 153.013 143.062 153.415 143.113C153.817 143.163 154.269 143.264 154.722 143.465C155.174 143.667 155.626 143.969 156.079 144.372C156.531 144.825 156.933 145.379 157.335 146.185C157.687 146.991 158.039 147.746 158.391 148.401C158.742 149.056 159.044 149.559 159.346 150.012H163.919C163.718 149.66 163.517 149.307 163.266 148.904C163.065 148.401 162.864 147.998 162.663 147.545Z" fill="white"/>
<path fill-rule="evenodd" clip-rule="evenodd" d="M185.18 119.896C184.778 120.047 184.275 120.198 183.672 120.349C183.119 120.45 182.466 120.55 181.712 120.55C181.008 120.55 180.305 120.45 179.701 120.198C179.098 119.996 178.545 119.644 178.043 119.191C177.59 118.737 177.188 118.234 176.937 117.579C176.686 116.924 176.535 116.219 176.535 115.413C176.535 114.658 176.635 114.003 176.887 113.348C177.138 112.744 177.49 112.19 177.942 111.737C178.395 111.284 178.948 110.931 179.601 110.679C180.254 110.427 180.958 110.276 181.762 110.276C182.516 110.276 183.22 110.327 183.722 110.478C184.275 110.579 184.728 110.78 185.079 110.931L185.884 107.506C185.331 107.255 184.677 107.104 183.974 106.952C183.27 106.801 182.466 106.751 181.662 106.751C180.154 106.751 178.797 107.003 177.59 107.406C176.384 107.859 175.379 108.463 174.575 109.269C173.771 110.075 173.117 110.981 172.665 112.039C172.212 113.097 172.011 114.255 172.011 115.514C172.011 116.773 172.212 117.931 172.665 118.989C173.067 119.996 173.67 120.903 174.474 121.658C175.228 122.414 176.183 122.968 177.289 123.371C178.395 123.774 179.601 123.975 180.958 123.975C181.662 123.975 182.365 123.925 182.968 123.874C183.572 123.774 184.124 123.673 184.627 123.572C185.13 123.421 185.532 123.32 185.833 123.169L185.18 119.896Z" fill="white"/>
<path fill-rule="evenodd" clip-rule="evenodd" d="M130.395 114.054C130.395 114.96 130.395 115.766 130.345 116.521C130.295 117.277 130.194 117.931 129.993 118.485C129.792 119.039 129.541 119.543 129.139 119.896C128.787 120.248 128.234 120.5 127.631 120.651L128.184 124.076C128.887 124.076 129.541 123.975 130.144 123.774C130.747 123.572 131.25 123.32 131.652 122.968C132.406 122.464 133.009 121.86 133.461 121.004C133.863 120.198 134.165 119.191 134.315 118.032C134.466 116.874 134.567 115.564 134.567 114.104V110.528H140.648V123.774H144.971V107.154H130.496V114.054H130.395Z" fill="white"/>
</g>
<defs>
<clipPath id="clip0_3039_830">
<rect width="202" height="125" fill="white" transform="translate(64 58)"/>
</clipPath>
</defs>
</svg>
