<svg width="301" height="240" viewBox="0 0 301 240" fill="none" xmlns="http://www.w3.org/2000/svg">
<rect width="301" height="240" fill="white"/>
<g clip-path="url(#clip0_542_10604)">
<path d="M233.282 105.764C226.314 94.7386 196.097 83 151 83C106.041 83 75.9349 94.9631 68.7853 105.764C65.3272 110.988 64.8485 127.11 68.718 133.232C75.6856 144.257 105.902 156 151 155.996C195.959 155.996 226.065 144.033 233.214 133.232C236.672 128.009 237.151 111.89 233.282 105.764Z" fill="url(#paint0_linear_542_10604)"/>
<path d="M229.281 106.422C222.654 95.9243 194.115 84.745 150.999 84.749C108.011 84.749 79.5823 96.1409 72.7809 106.426C69.493 111.401 69.038 126.748 72.7176 132.578C79.3489 143.076 107.884 154.255 150.999 154.255C193.988 154.255 222.416 142.863 229.218 132.578C232.51 127.603 232.965 112.252 229.281 106.422Z" fill="white"/>
<path d="M229.281 106.422C222.654 95.9243 194.115 84.745 150.999 84.749C108.011 84.749 79.5823 96.1409 72.7809 106.426C69.493 111.401 69.038 126.748 72.7176 132.578C79.3489 143.076 107.884 154.255 150.999 154.255C193.988 154.255 222.416 142.863 229.218 132.578C232.51 127.603 232.965 112.252 229.281 106.422Z" fill="url(#paint1_radial_542_10604)"/>
<path d="M229.281 106.422C222.654 95.9243 194.115 84.745 150.999 84.749C108.011 84.749 79.5823 96.1409 72.7809 106.426C69.493 111.401 69.038 126.748 72.7176 132.578C79.3489 143.076 107.884 154.255 150.999 154.255C193.988 154.255 222.416 142.863 229.218 132.578C232.51 127.603 232.965 112.252 229.281 106.422Z" fill="url(#paint2_radial_542_10604)"/>
<path d="M214.21 111.708C214.21 111.708 213.91 109.751 214.907 108.214C215.904 106.678 217.823 106.15 217.823 106.15C217.823 106.15 218.123 108.108 217.126 109.644C216.129 111.181 214.21 111.708 214.21 111.708ZM217.162 111.74L217.17 111.791L212.691 125.444L212.936 111.74H210.028V131.357H213.087L217.554 117.735L217.312 131.357H220.216V111.74H217.162ZM151.846 122.825H156.198V120.083H151.846V114.489H157.37V111.748H148.938V131.341H157.524V128.599H151.846V122.825ZM169.853 131.353V111.736H166.945V120.087H162.873V111.736H159.965V131.353H162.873V122.825H166.945V131.353H169.853ZM204.026 111.787L199.547 125.44L199.792 111.736H196.888V131.353H199.947L204.414 117.731L204.172 131.353H207.08V111.736H204.022L204.026 111.787ZM81.7744 131.361H85.1455V108.675H81.7744V131.361ZM108.137 120.875C107.975 124.03 107.793 125.787 107.409 127.544C107.073 129.092 106.618 130.147 105.7 131.203C105.7 131.203 106.262 131.747 107.322 131.747C108.636 131.747 109.593 130.833 110.116 128.513C110.523 126.709 110.725 124.144 110.852 122.147C111.346 114.485 111.346 114.485 111.346 114.485H113.946V131.357H116.85V111.748L108.608 111.736C108.612 111.736 108.612 111.736 108.137 120.875ZM91.48 114.304C93.7471 110.94 94.0716 107.289 94.0716 107.289C94.0716 107.289 90.7638 109.124 88.5165 112.496C86.6015 115.372 86.0713 118.429 85.9566 119.275C85.9526 119.275 89.197 117.696 91.48 114.304ZM193.446 128.32L189.826 121.139L194.293 111.732H191.187L186.834 121.017V111.736H183.926V131.353H186.834V121.584C187.104 122.135 187.911 123.79 190.36 128.808C191.464 131.069 192.651 131.747 193.865 131.747C195.025 131.747 195.606 131.211 195.606 131.211C194.878 130.612 194.166 129.718 193.446 128.32ZM141.693 111.748L138.975 125.681L136.154 111.748H132.217L131.853 131.341H134.761L134.627 116.613L137.832 131.341H137.867H140.119H140.154L143.142 116.589L143.161 131.341H146.069L145.705 111.748H141.693ZM104.572 116.002V126.945C104.572 129.474 102.495 131.53 99.9828 131.53C97.4664 131.53 95.3931 129.474 95.3931 126.945V116.002C95.3931 113.473 97.4703 111.417 99.9828 111.417C102.495 111.417 104.572 113.473 104.572 116.002ZM101.664 115.75C101.664 114.789 100.893 114.009 99.9788 114.009C99.0648 114.009 98.2933 114.789 98.2933 115.75V127.193C98.2933 128.154 99.0648 128.934 99.9788 128.934C100.893 128.934 101.664 128.154 101.664 127.193V115.75ZM129.064 126.945C129.064 129.474 126.991 131.53 124.474 131.53C121.958 131.53 119.885 129.474 119.885 126.945V116.002C119.885 113.473 121.958 111.417 124.474 111.417C126.991 111.417 129.064 113.473 129.064 116.002V126.945ZM126.16 115.75C126.16 114.789 125.388 114.009 124.474 114.009C123.56 114.009 122.789 114.789 122.789 115.75V127.193C122.789 128.154 123.56 128.934 124.474 128.934C125.388 128.934 126.16 128.154 126.16 127.193V115.75ZM181.394 126.945V125.027H178.577V127.193C178.577 128.154 177.805 128.934 176.891 128.934C175.978 128.934 175.206 128.154 175.206 127.193V115.75C175.206 114.789 175.978 114.009 176.891 114.009C177.805 114.009 178.577 114.789 178.577 115.75V117.802H181.394V116.002C181.394 113.473 179.408 111.417 176.891 111.417C174.375 111.417 172.302 113.473 172.302 116.002V126.945C172.302 129.474 174.375 131.53 176.891 131.53C179.408 131.53 181.394 129.474 181.394 126.945ZM92.2713 128.032L89.4186 119.933H85.9526C86.095 120.371 86.6411 122.06 88.7618 128.607C89.6718 131.42 90.9459 132.062 92.3148 132.062C93.6759 132.062 94.3406 131.432 94.3406 131.432C93.3871 130.727 92.9242 129.824 92.2713 128.032Z" fill="white"/>
</g>
<defs>
<linearGradient id="paint0_linear_542_10604" x1="65.9998" y1="119.499" x2="236" y2="119.499" gradientUnits="userSpaceOnUse">
<stop stop-color="#A57D6D"/>
<stop offset="0.0636" stop-color="#B38970"/>
<stop offset="0.2546" stop-color="#DBA979"/>
<stop offset="0.4067" stop-color="#F3BD7E"/>
<stop offset="0.5" stop-color="#FCC480"/>
<stop offset="0.5933" stop-color="#F3BD7E"/>
<stop offset="0.7454" stop-color="#DBA979"/>
<stop offset="0.9364" stop-color="#B38970"/>
<stop offset="1" stop-color="#A57D6D"/>
</linearGradient>
<radialGradient id="paint1_radial_542_10604" cx="0" cy="0" r="1" gradientUnits="userSpaceOnUse" gradientTransform="translate(150.999 119.497) scale(79.3495 31.2599)">
<stop offset="0.1462" stop-color="#00BDF2"/>
<stop offset="0.255" stop-color="#2AC8F4"/>
<stop offset="0.4624" stop-color="#75DBF8"/>
<stop offset="0.6481" stop-color="#B0EBFB"/>
<stop offset="0.8051" stop-color="#DBF6FD"/>
<stop offset="0.9274" stop-color="#F5FCFF"/>
<stop offset="1" stop-color="white"/>
</radialGradient>
<radialGradient id="paint2_radial_542_10604" cx="0" cy="0" r="1" gradientUnits="userSpaceOnUse" gradientTransform="translate(150.999 119.497) scale(79.3495 31.2599)">
<stop offset="0.1462" stop-color="#CCDCF0"/>
<stop offset="0.3651" stop-color="#8AAFDD"/>
<stop offset="0.5838" stop-color="#4F86CB"/>
<stop offset="0.7695" stop-color="#2469BF"/>
<stop offset="0.9141" stop-color="#0A57B7"/>
<stop offset="1" stop-color="#0050B4"/>
</radialGradient>
<clipPath id="clip0_542_10604">
<rect width="170" height="73" fill="white" transform="translate(66 83)"/>
</clipPath>
</defs>
</svg>
