<svg width="113" height="144" viewBox="0 0 113 144" fill="none" xmlns="http://www.w3.org/2000/svg">
<line y1="-3" x2="144" y2="-3" transform="matrix(-3.12908e-09 1 1 3.12908e-09 25.2197 0)" stroke="#2D2C29" stroke-width="6"/>
<path d="M44.0508 20.5572C33.1976 22.022 24.8304 31.3223 24.8304 42.5768L24.8304 51.5794C35.6836 50.1146 44.0508 40.8144 44.0508 29.5598L44.0508 20.5572Z" stroke="#2D2C29" stroke-width="6"/>
<path d="M44.0508 57.9806C33.1976 59.4453 24.8304 68.7456 24.8304 80.0001L24.8304 89.0027C35.6836 87.538 44.0508 78.2377 44.0508 66.9832L44.0508 57.9806Z" stroke="#2D2C29" stroke-width="6"/>
<path d="M44.0508 95.4044C33.1976 96.8691 24.8304 106.169 24.8304 117.424L24.8304 126.427C35.6836 124.962 44.0508 115.662 44.0508 104.407L44.0508 95.4044Z" stroke="#2D2C29" stroke-width="6"/>
<path d="M2.99902 20.5572C13.8522 22.022 22.2194 31.3223 22.2194 42.5768L22.2194 51.5794C11.3662 50.1146 2.99902 40.8144 2.99902 29.5598L2.99902 20.5572Z" stroke="#2D2C29" stroke-width="6"/>
<path d="M2.99902 57.9806C13.8522 59.4453 22.2194 68.7456 22.2194 80.0001L22.2194 89.0027C11.3662 87.538 2.99902 78.2377 2.99902 66.9832L2.99902 57.9806Z" stroke="#2D2C29" stroke-width="6"/>
<path d="M2.99902 95.4049C13.8522 96.8696 22.2194 106.17 22.2194 117.424L22.2194 126.427C11.3662 124.962 2.99902 115.662 2.99902 104.407L2.99902 95.4049Z" stroke="#2D2C29" stroke-width="6"/>
<line y1="-3" x2="144" y2="-3" transform="matrix(-3.12908e-09 1 1 3.12908e-09 90.9805 0)" stroke="#2D2C29" stroke-width="6"/>
<path d="M109.812 20.5572C98.9584 22.022 90.5912 31.3223 90.5912 42.5768L90.5912 51.5794C101.444 50.1146 109.812 40.8144 109.812 29.5598L109.812 20.5572Z" stroke="#2D2C29" stroke-width="6"/>
<path d="M109.812 57.9806C98.9584 59.4453 90.5912 68.7456 90.5912 80.0001L90.5912 89.0027C101.444 87.538 109.812 78.2377 109.812 66.9832L109.812 57.9806Z" stroke="#2D2C29" stroke-width="6"/>
<path d="M109.812 95.4044C98.9584 96.8691 90.5912 106.169 90.5912 117.424L90.5912 126.427C101.444 124.962 109.812 115.662 109.812 104.407L109.812 95.4044Z" stroke="#2D2C29" stroke-width="6"/>
<path d="M68.7598 20.5572C79.6129 22.022 87.9801 31.3223 87.9801 42.5768L87.9801 51.5794C77.127 50.1146 68.7598 40.8144 68.7598 29.5598L68.7598 20.5572Z" stroke="#2D2C29" stroke-width="6"/>
<path d="M68.7598 57.9806C79.6129 59.4453 87.9801 68.7456 87.9801 80.0001L87.9801 89.0027C77.127 87.538 68.7598 78.2377 68.7598 66.9832L68.7598 57.9806Z" stroke="#2D2C29" stroke-width="6"/>
<path d="M68.7598 95.4049C79.6129 96.8696 87.9801 106.17 87.9801 117.424L87.9801 126.427C77.127 124.962 68.7598 115.662 68.7598 104.407L68.7598 95.4049Z" stroke="#2D2C29" stroke-width="6"/>
</svg>
