<svg width="335" height="156" viewBox="0 0 335 156" fill="none" xmlns="http://www.w3.org/2000/svg">
<path d="M-98.9973 164.127V145.288C523.324 130.216 799.354 266.397 859.578 336.372H488.193C419.938 235.178 68.2934 179.378 -98.9973 164.127Z" fill="#EEECE3"/>
<path d="M-99.0001 134.524V102.228C824.445 -11.8843 1175.75 210.778 1235.98 336.373H884.669C776.265 157.669 183.721 127.347 -99.0001 134.524Z" fill="#EEECE3"/>
<path d="M182.785 18.9815L182.785 77.2816" stroke="#EEECE3"/>
<path d="M170.696 29.288C177.378 29.6968 182.671 35.2455 182.671 42.0303L182.671 47.9936C175.989 47.5848 170.696 42.0361 170.696 35.2513L170.696 29.288Z" fill="#EEECE3" stroke="#EEECE3" stroke-width="1.58333"/>
<path d="M170.696 0.815813C177.378 1.22462 182.671 6.77329 182.671 13.5582L182.671 19.5214C175.989 19.1126 170.696 13.564 170.696 6.77908L170.696 0.815813Z" fill="#EEECE3" stroke="#EEECE3" stroke-width="1.58333"/>
<path d="M170.696 57.7601C177.378 58.1689 182.671 63.7176 182.671 70.5024L182.671 76.4657C175.989 76.0569 170.696 70.5082 170.696 63.7234L170.696 57.7601Z" fill="#EEECE3" stroke="#EEECE3" stroke-width="1.58333"/>
<path d="M196.229 29.2857C188.798 29.6963 182.899 35.8523 182.899 43.3862L182.899 47.9959C190.33 47.5853 196.229 41.4293 196.229 33.8954L196.229 29.2857Z" fill="#EEECE3" stroke="#EEECE3" stroke-width="1.58333"/>
<path d="M196.229 0.813482C188.798 1.22411 182.899 7.38012 182.899 14.914L182.899 19.5238C190.33 19.1131 196.229 12.9571 196.229 5.42326L196.229 0.813482Z" fill="#EEECE3" stroke="#EEECE3" stroke-width="1.58333"/>
<path d="M196.229 57.7578C188.798 58.1684 182.899 64.3244 182.899 71.8583L182.899 76.468C190.33 76.0574 196.229 69.9014 196.229 62.3675L196.229 57.7578Z" fill="#EEECE3" stroke="#EEECE3" stroke-width="1.58333"/>
<path d="M151.262 29.8279L151.262 78.4113" stroke="#EEECE3"/>
<path d="M141.32 38.5579C146.753 38.9626 151.035 43.4989 151.035 49.0353L151.035 53.8635C145.602 53.4588 141.32 48.9225 141.32 43.3861L141.32 38.5579Z" fill="#EEECE3" stroke="#EEECE3" stroke-width="1.58333"/>
<path d="M141.32 14.8311C146.753 15.2358 151.035 19.7721 151.035 25.3085L151.035 30.1367C145.602 29.732 141.32 25.1957 141.32 19.6593L141.32 14.8311Z" fill="#EEECE3" stroke="#EEECE3" stroke-width="1.58333"/>
<path d="M141.32 62.2846C146.753 62.6893 151.035 67.2256 151.035 72.762L151.035 77.5902C145.602 77.1855 141.32 72.6492 141.32 67.1128L141.32 62.2846Z" fill="#EEECE3" stroke="#EEECE3" stroke-width="1.58333"/>
<path d="M162.334 38.555C156.276 38.962 151.489 44.0045 151.489 50.1651L151.489 53.8664C157.546 53.4594 162.334 48.4169 162.334 42.2562L162.334 38.555Z" fill="#EEECE3" stroke="#EEECE3" stroke-width="1.58333"/>
<path d="M162.334 14.8282C156.276 15.2351 151.489 20.2777 151.489 26.4383L151.489 30.1396C157.546 29.7326 162.334 24.6901 162.334 18.5294L162.334 14.8282Z" fill="#EEECE3" stroke="#EEECE3" stroke-width="1.58333"/>
<path d="M162.334 62.2817C156.276 62.6887 151.489 67.7312 151.489 73.8919L151.489 77.5931C157.546 77.1861 162.334 72.1436 162.334 65.983L162.334 62.2817Z" fill="#EEECE3" stroke="#EEECE3" stroke-width="1.58333"/>
<path d="M121.916 41.4633L121.916 80.671" stroke="#EEECE3"/>
<path d="M114.045 48.6747C118.272 49.0734 121.58 52.6324 121.58 56.964L121.58 60.6942C117.352 60.2955 114.045 56.7365 114.045 52.4049L114.045 48.6747Z" fill="#EEECE3" stroke="#EEECE3" stroke-width="1.58333"/>
<path d="M114.045 29.5267C118.272 29.9254 121.58 33.4845 121.58 37.816L121.58 41.5462C117.352 41.1475 114.045 37.5885 114.045 33.257L114.045 29.5267Z" fill="#EEECE3" stroke="#EEECE3" stroke-width="1.58333"/>
<path d="M114.045 67.8226C118.272 68.2213 121.58 71.7803 121.58 76.1118L121.58 79.8421C117.352 79.4434 114.045 75.8843 114.045 71.5528L114.045 67.8226Z" fill="#EEECE3" stroke="#EEECE3" stroke-width="1.58333"/>
<path d="M130.698 48.6709C125.967 49.0724 122.252 53.0402 122.252 57.8756L122.252 60.6978C126.983 60.2962 130.698 56.3284 130.698 51.493L130.698 48.6709Z" fill="#EEECE3" stroke="#EEECE3" stroke-width="1.58333"/>
<path d="M130.698 29.5231C125.967 29.9246 122.252 33.8924 122.252 38.7278L122.252 41.5499C126.983 41.1484 130.698 37.1806 130.698 32.3452L130.698 29.5231Z" fill="#EEECE3" stroke="#EEECE3" stroke-width="1.58333"/>
<path d="M130.698 67.819C125.967 68.2206 122.252 72.1883 122.252 77.0238L122.252 79.8459C126.983 79.4443 130.698 75.4766 130.698 70.6411L130.698 67.819Z" fill="#EEECE3" stroke="#EEECE3" stroke-width="1.58333"/>
</svg>
