<svg width="1340" height="188" viewBox="0 0 1340 188" fill="none" xmlns="http://www.w3.org/2000/svg">
<path d="M1340 194.29V140.464C1267.73 157.688 1216.2 185.319 1199.48 196.982L1254.68 229.277C1266.73 222.818 1316.58 203.261 1340 194.29Z" fill="#EEECE3"/>
<path d="M1340 124.316V78.5635C1215.54 95.788 1124.2 134.184 1094.08 151.229L1184.42 186.216C1224.57 160.38 1304.87 134.184 1340 124.316Z" fill="#EEECE3"/>
<path d="M883.296 94.7112C967.611 107.63 1042.22 132.39 1068.99 143.155C1157.32 104.4 1286.47 73.1806 1340 62.4154V24.7368C1123.19 29.043 945.194 73.1806 883.296 94.7112Z" fill="#EEECE3"/>
<path d="M215.808 334.239C203.763 271.8 66.9197 216.718 0.00341797 196.982V180.834C289.082 180.834 488.492 283.104 552.063 334.239H215.808Z" fill="#EEECE3"/>
<path d="M0.00274658 164.685V145.846C622.324 130.775 898.354 266.956 958.578 336.93H587.193C518.938 235.736 167.293 179.936 0.00274658 164.685Z" fill="#EEECE3"/>
<path d="M-0.00012207 135.082V102.786C923.445 -11.3261 1274.75 211.336 1334.98 336.931H983.669C875.265 158.227 282.721 127.905 -0.00012207 135.082Z" fill="#EEECE3"/>
<path d="M281.785 19.5397L281.785 77.8398" stroke="#EEECE3"/>
<path d="M269.696 29.8462C276.378 30.255 281.671 35.8037 281.671 42.5885L281.671 48.5518C274.989 48.143 269.696 42.5943 269.696 35.8094L269.696 29.8462Z" fill="#EEECE3" stroke="#EEECE3" stroke-width="1.58333"/>
<path d="M269.696 1.37401C276.378 1.78281 281.671 7.33149 281.671 14.1164L281.671 20.0796C274.989 19.6708 269.696 14.1222 269.696 7.33728L269.696 1.37401Z" fill="#EEECE3" stroke="#EEECE3" stroke-width="1.58333"/>
<path d="M269.696 58.3183C276.378 58.7271 281.671 64.2758 281.671 71.0606L281.671 77.0239C274.989 76.6151 269.696 71.0664 269.696 64.2816L269.696 58.3183Z" fill="#EEECE3" stroke="#EEECE3" stroke-width="1.58333"/>
<path d="M295.229 29.8438C287.798 30.2545 281.899 36.4105 281.899 43.9444L281.899 48.5541C289.33 48.1435 295.229 41.9875 295.229 34.4536L295.229 29.8438Z" fill="#EEECE3" stroke="#EEECE3" stroke-width="1.58333"/>
<path d="M295.229 1.37168C287.798 1.78231 281.899 7.93831 281.899 15.4722L281.899 20.082C289.33 19.6713 295.229 13.5153 295.229 5.98145L295.229 1.37168Z" fill="#EEECE3" stroke="#EEECE3" stroke-width="1.58333"/>
<path d="M295.229 58.316C287.798 58.7266 281.899 64.8826 281.899 72.4165L281.899 77.0262C289.33 76.6156 295.229 70.4596 295.229 62.9257L295.229 58.316Z" fill="#EEECE3" stroke="#EEECE3" stroke-width="1.58333"/>
<path d="M250.262 30.386L250.262 78.9695" stroke="#EEECE3"/>
<path d="M240.32 39.116C245.753 39.5207 250.035 44.057 250.035 49.5934L250.035 54.4216C244.602 54.0169 240.32 49.4806 240.32 43.9442L240.32 39.116Z" fill="#EEECE3" stroke="#EEECE3" stroke-width="1.58333"/>
<path d="M240.32 15.3892C245.753 15.7939 250.035 20.3302 250.035 25.8666L250.035 30.6948C244.602 30.2901 240.32 25.7538 240.32 20.2174L240.32 15.3892Z" fill="#EEECE3" stroke="#EEECE3" stroke-width="1.58333"/>
<path d="M240.32 62.8428C245.753 63.2475 250.035 67.7838 250.035 73.3202L250.035 78.1484C244.602 77.7437 240.32 73.2074 240.32 67.671L240.32 62.8428Z" fill="#EEECE3" stroke="#EEECE3" stroke-width="1.58333"/>
<path d="M261.334 39.1131C255.276 39.5201 250.489 44.5626 250.489 50.7233L250.489 54.4245C256.546 54.0175 261.334 48.975 261.334 42.8143L261.334 39.1131Z" fill="#EEECE3" stroke="#EEECE3" stroke-width="1.58333"/>
<path d="M261.334 15.3863C255.276 15.7933 250.489 20.8358 250.489 26.9965L250.489 30.6977C256.546 30.2907 261.334 25.2482 261.334 19.0875L261.334 15.3863Z" fill="#EEECE3" stroke="#EEECE3" stroke-width="1.58333"/>
<path d="M261.334 62.8399C255.276 63.2469 250.489 68.2894 250.489 74.4501L250.489 78.1513C256.546 77.7443 261.334 72.7018 261.334 66.5412L261.334 62.8399Z" fill="#EEECE3" stroke="#EEECE3" stroke-width="1.58333"/>
<path d="M220.916 42.0215L220.916 81.2292" stroke="#EEECE3"/>
<path d="M213.045 49.2329C217.272 49.6316 220.58 53.1906 220.58 57.5222L220.58 61.2524C216.352 60.8537 213.045 57.2947 213.045 52.9631L213.045 49.2329Z" fill="#EEECE3" stroke="#EEECE3" stroke-width="1.58333"/>
<path d="M213.045 30.0849C217.272 30.4836 220.58 34.0427 220.58 38.3742L220.58 42.1044C216.352 41.7057 213.045 38.1467 213.045 33.8152L213.045 30.0849Z" fill="#EEECE3" stroke="#EEECE3" stroke-width="1.58333"/>
<path d="M213.045 68.3808C217.272 68.7795 220.58 72.3385 220.58 76.6701L220.58 80.4003C216.352 80.0016 213.045 76.4426 213.045 72.111L213.045 68.3808Z" fill="#EEECE3" stroke="#EEECE3" stroke-width="1.58333"/>
<path d="M229.698 49.2291C224.967 49.6306 221.252 53.5984 221.252 58.4338L221.252 61.2559C225.983 60.8544 229.698 56.8866 229.698 52.0512L229.698 49.2291Z" fill="#EEECE3" stroke="#EEECE3" stroke-width="1.58333"/>
<path d="M229.698 30.0812C224.967 30.4828 221.252 34.4506 221.252 39.286L221.252 42.1081C225.983 41.7066 229.698 37.7388 229.698 32.9034L229.698 30.0812Z" fill="#EEECE3" stroke="#EEECE3" stroke-width="1.58333"/>
<path d="M229.698 68.3772C224.967 68.7787 221.252 72.7465 221.252 77.5819L221.252 80.4041C225.983 80.0025 229.698 76.0347 229.698 71.1993L229.698 68.3772Z" fill="#EEECE3" stroke="#EEECE3" stroke-width="1.58333"/>
</svg>
