<svg width="141" height="371" viewBox="0 0 141 371" fill="none" xmlns="http://www.w3.org/2000/svg">
<path d="M0.198149 151.344L18.3201 180.195C18.3201 180.195 19.9045 182.7 19.8055 187.524C19.6074 194.574 20.0036 210.809 26.6384 220.086C35.3527 232.146 59.8124 239.196 59.8124 239.196C61.793 239.753 63.5755 238.64 63.7735 236.691C63.7735 236.691 65.8531 212.757 57.0397 200.697C50.0088 190.956 32.58 184.462 26.2423 182.329C22.4792 180.937 20.4987 178.154 20.4987 178.154L2.67383 149.952C2.27772 149.303 1.28745 149.024 0.594258 149.395C0.297177 149.674 9.54519e-05 150.138 9.54275e-05 150.694C9.54194e-05 150.88 0.0991224 151.158 0.198149 151.344Z" fill="#F5F4EF"/>
<path d="M7.42734 84.3662L28.025 116.928C28.4211 117.67 29.0152 119.155 29.0152 121.01C28.3221 126.02 26.8366 142.254 32.5802 151.531C39.4131 162.664 60.5059 170.456 60.5059 170.456C62.2883 171.106 63.8728 170.178 64.1699 168.508C64.1699 168.508 67.6358 147.542 60.8029 136.41C54.8613 126.762 38.3238 119.711 33.9666 117.949C31.887 116.928 30.4016 114.887 30.1045 114.516L10.1011 82.8819C9.70496 82.2326 8.71469 81.9542 8.0215 82.4181C7.52637 82.6964 7.32831 83.1602 7.32831 83.6241C7.22929 83.9024 7.32831 84.1807 7.42734 84.3662Z" fill="#F5F4EF"/>
<path d="M17.0333 29.7266L38.3241 63.4019C38.3241 63.4019 39.1163 64.5152 39.0173 65.4429C38.6212 68.0404 36.9377 81.3064 41.592 88.728C46.6424 96.9845 62.2887 102.736 62.2887 102.736C63.576 103.2 64.7644 102.551 64.9624 101.252C64.9624 101.252 67.5371 85.7594 62.4867 77.5029C57.7334 69.803 43.9687 64.3296 42.0872 63.5875C42.0872 63.5875 40.9979 63.1236 40.3047 62.0104L19.2119 28.6134C19.0138 28.2423 18.5187 28.1496 18.1226 28.3351L17.4294 28.7062C17.2314 28.8917 17.0333 29.0773 17.0333 29.3556C16.9343 29.5411 17.0333 29.6339 17.0333 29.7266Z" fill="#F5F4EF"/>
<path d="M0.198089 219.996L18.5181 248.94C18.5181 248.94 19.9045 251.259 19.9045 256.547C19.7064 263.597 20.1025 279.739 26.7373 289.016C35.4517 301.076 59.9114 308.126 59.9114 308.126C61.892 308.683 63.6744 307.57 63.8725 305.622C63.8725 305.622 65.9521 281.687 57.1387 269.627C50.3058 259.979 33.2731 253.578 26.7373 251.352C22.8753 249.96 21.2909 247.548 20.9938 247.177L2.87182 218.418C2.47571 217.769 1.48544 217.491 0.792251 217.862C0.297116 218.233 3.44289e-05 218.79 3.44086e-05 219.253C3.44005e-05 219.439 0.0990615 219.717 0.198089 219.996Z" fill="#F5F4EF"/>
<path d="M76.6481 236.602C76.8462 238.55 78.6287 239.663 80.6092 239.107C80.6092 239.107 105.069 232.056 113.783 219.996C120.517 210.719 120.814 194.485 120.616 187.434C120.616 182.703 122.201 180.105 122.201 180.105L140.422 151.254C140.818 150.605 140.62 149.677 139.926 149.306C139.233 148.935 138.243 149.12 137.847 149.863L120.022 178.064C120.022 178.064 118.041 180.848 114.278 182.239C107.941 184.373 90.5119 190.867 83.481 200.607C77.5394 208.771 76.5491 222.501 76.5491 230.386C76.4501 234.19 76.6481 236.602 76.6481 236.602Z" fill="#F5F4EF"/>
<path d="M76.4485 168.603C76.7456 170.272 78.429 171.2 80.1125 170.551C80.1125 170.551 101.106 162.851 108.038 151.626C113.782 142.256 112.197 126.114 111.603 121.105C111.603 119.249 112.197 117.765 112.593 117.023L133.191 84.4608C133.587 83.8114 133.389 82.8837 132.696 82.5126C132.003 82.1416 131.012 82.3271 130.616 82.9765L110.613 114.611C110.316 114.982 108.731 117.023 106.652 118.043C102.295 119.806 85.757 126.856 79.8154 136.504C76.4485 142.071 75.5573 149.956 75.5573 156.543C75.5573 163.222 76.4485 168.603 76.4485 168.603Z" fill="#F5F4EF"/>
<path d="M75.7571 101.252C75.9551 102.551 77.1435 103.2 78.4308 102.736C78.4308 102.736 93.978 96.9845 99.1274 88.728C103.683 81.3064 101.999 67.9476 101.702 65.4429C101.603 64.5152 102.395 63.4019 102.395 63.4019L123.686 29.8194C123.884 29.4483 123.785 28.9845 123.389 28.799L122.696 28.4279C122.3 28.2423 121.904 28.3351 121.607 28.7062L100.514 62.1032C99.8206 63.2164 98.7313 63.6802 98.7313 63.6802C96.8498 64.4224 82.986 69.8958 78.3318 77.5957C75.8561 81.6775 75.1629 87.522 75.1629 92.4388C75.0639 97.3555 75.7571 101.252 75.7571 101.252Z" fill="#F5F4EF"/>
<path d="M76.6475 305.622C76.8455 307.57 78.628 308.683 80.6086 308.126C80.6086 308.126 105.068 301.076 113.783 289.016C120.417 279.832 120.814 263.69 120.615 256.547C120.615 251.259 122.002 248.94 122.002 248.94L140.322 219.903C140.718 219.253 140.52 218.326 139.827 217.955C139.134 217.584 138.143 217.769 137.747 218.511L119.625 247.27C119.328 247.641 117.744 250.053 113.882 251.444C107.346 253.578 90.3132 259.979 83.2823 269.627C77.3407 277.791 76.3504 291.521 76.3504 299.406C76.4494 303.21 76.6475 305.622 76.6475 305.622Z" fill="#F5F4EF"/>
<path d="M68.4713 44.9388C69.5606 45.8664 71.2441 45.8664 72.3334 44.9388C72.3334 44.9388 85.1078 38.4449 85.1078 29.9101C85.1078 21.9319 74.0168 11.9129 72.5314 10.5213C71.2441 9.3153 71.3431 8.01653 71.3431 8.01653L71.3431 1.42988C71.3431 1.0588 70.947 0.687737 70.5509 0.687737L70.2538 0.687737C69.8577 0.687737 69.4616 0.966031 69.4616 1.42988L69.4616 8.01653C69.4616 8.01653 69.6596 9.3153 68.2733 10.5213C66.7879 11.8201 55.6968 21.9319 55.6968 29.9101C55.6968 38.4449 68.4713 44.9388 68.4713 44.9388Z" fill="#F5F4EF"/>
<path d="M100.346 347.376C94.0693 347.376 89.0476 352.179 89.0476 357.961C89.0476 363.842 94.0693 368.546 100.346 368.546C106.624 368.546 111.645 363.842 111.645 357.961C111.645 352.081 106.624 347.376 100.346 347.376Z" fill="#F5F4EF"/>
<path d="M41.1332 347.376C34.8561 347.376 29.8344 352.179 29.8344 357.961C29.8344 363.842 34.8561 368.546 41.1332 368.546C47.4103 368.546 52.432 363.744 52.432 357.961C52.432 352.081 47.3057 347.376 41.1332 347.376Z" fill="#F5F4EF"/>
<path d="M70.5299 319.247C64.2527 319.247 59.231 324.049 59.231 329.832C59.231 335.712 64.2527 340.417 70.5299 340.417C76.807 340.417 81.8287 335.614 81.8287 329.832C81.8287 324.049 76.7024 319.247 70.5299 319.247Z" fill="#F5F4EF"/>
<path d="M82.144 354.624L74.0883 347.078C72.1006 345.216 68.962 345.216 66.9743 347.078L58.9186 354.624C56.9308 356.487 56.9308 359.427 58.9186 361.289L66.9742 368.836C68.962 370.698 72.1006 370.698 74.0883 368.836L82.144 361.289C83.0855 360.407 83.6086 359.133 83.6086 357.957C83.6086 356.781 83.0855 355.507 82.144 354.624Z" fill="#F5F4EF"/>
</svg>
