<svg width="83" height="90" viewBox="0 0 83 90" fill="none" xmlns="http://www.w3.org/2000/svg">
<g clip-path="url(#clip0_2435_20060)">
<path d="M81.3473 58.4951H66.7235V0.883307V0.490723H66.331H53.7683H53.572L53.4738 0.588869L1.35823 62.3228L1.26009 62.4209V62.5191V72.3337V72.7263H1.65267H51.2165V89.1167V89.5093H51.6091H66.331H66.7235V89.1167V72.8244H81.3473H81.7399V72.4318V58.8877V58.4951H81.3473ZM51.2165 58.4951H22.7541L51.2165 26.0087V58.4951Z" fill="url(#paint0_linear_2435_20060)"/>
<path d="M81.3473 58.4951H66.7236V0.883307V0.490723H66.331H53.7683H53.572L53.4738 0.588869L1.35823 62.3228L1.26009 62.4209V62.5191V72.3337V72.7263H1.65267H51.2165V89.1167V89.5093H51.609H66.331H66.7236V89.1167V72.8244H81.3473H81.7399V72.4318V58.8877V58.4951H81.3473ZM51.2165 58.4951H22.7541L51.2165 26.0087V58.4951Z" stroke="#ECBB7C" stroke-miterlimit="10"/>
</g>
<defs>
<linearGradient id="paint0_linear_2435_20060" x1="16.8233" y1="88.3417" x2="85.7063" y2="19.4587" gradientUnits="userSpaceOnUse">
<stop stop-color="#ECBB7C"/>
<stop offset="0.5" stop-color="#F6DFC2"/>
<stop offset="1" stop-color="#ECBB7C"/>
</linearGradient>
<clipPath id="clip0_2435_20060">
<rect width="81.4613" height="90" fill="white" transform="translate(0.769356)"/>
</clipPath>
</defs>
</svg>
