<svg width="71" height="90" viewBox="0 0 71 90" fill="none" xmlns="http://www.w3.org/2000/svg">
<g clip-path="url(#clip0_2435_20095)">
<path d="M61.3615 38.6696C55.7672 33.566 47.4248 30.8179 36.9231 30.8179C31.0344 30.8179 26.0289 31.7012 21.9068 33.6641L23.6734 15.4089H67.054H67.4466V15.0164V0.883307V0.490723H67.054H10.1292H9.73665V0.883307L5.71266 48.5823V48.9749H6.10524L18.6679 50.2508H18.8642L18.9624 50.1527C22.9864 46.8157 28.3844 45.1472 35.1565 45.1472C41.0453 45.1472 45.6581 46.5213 48.7988 49.1712C51.9395 51.723 53.7061 55.5507 53.7061 60.3599C53.7061 64.482 52.1358 67.9171 49.2895 70.3708C46.4433 72.8244 42.1249 74.2966 36.825 74.2966C27.3048 74.2966 18.8642 69.9782 16.1161 62.7154L16.018 62.3228L15.6254 62.4209L1.59052 67.6227L1.19794 67.7208L1.29608 68.1134C6.98856 84.3075 22.3975 89.6074 35.9417 89.6074C45.8544 89.6074 53.9024 86.8593 60.3801 81.3631C66.6614 75.9651 69.9002 68.8004 69.9002 59.8691C69.9002 51.036 66.9558 43.7732 61.3615 38.6696Z" fill="url(#paint0_linear_2435_20095)"/>
<path d="M6.10524 48.9749H5.71266V48.5823L9.73665 0.883307V0.490723H10.1292H67.054H67.4466V0.883307V15.0164V15.4089H67.054H23.6734L21.9068 33.6641C26.0289 31.7012 31.0344 30.8179 36.9231 30.8179C47.4248 30.8179 55.7672 33.566 61.3615 38.6696C66.9559 43.7732 69.9002 51.036 69.9002 59.8691C69.9002 68.8004 66.6614 75.9651 60.3801 81.3631M6.10524 48.9749V48.5823M6.10524 48.9749L18.6679 50.2508H18.8642L18.9624 50.1527C22.9864 46.8157 28.3844 45.1472 35.1565 45.1472C41.0453 45.1472 45.6581 46.5213 48.7988 49.1712C51.9395 51.723 53.7061 55.5507 53.7061 60.3599C53.7061 64.482 52.1358 67.9171 49.2895 70.3708C46.4433 72.8244 42.1249 74.2966 36.825 74.2966C27.3048 74.2966 18.8642 69.9782 16.1161 62.7154L16.018 62.3228L15.6254 62.4209L1.59052 67.6227L1.19794 67.7208L1.29608 68.1134M1.29608 68.1134L1.68867 68.0153M1.29608 68.1134C6.98856 84.3075 22.3975 89.6074 35.9417 89.6074C45.8544 89.6074 53.9024 86.8593 60.3801 81.3631M60.3801 81.3631L60.0856 81.0687" stroke="#ECBB7C" stroke-miterlimit="10"/>
</g>
<defs>
<linearGradient id="paint0_linear_2435_20095" x1="2.49965" y1="73.5745" x2="71.5191" y2="4.55516" gradientUnits="userSpaceOnUse">
<stop stop-color="#ECBB7C"/>
<stop offset="0.5" stop-color="#F6DFC2"/>
<stop offset="1" stop-color="#ECBB7C"/>
</linearGradient>
<clipPath id="clip0_2435_20095">
<rect width="69.7819" height="90" fill="white" transform="translate(0.60907)"/>
</clipPath>
</defs>
</svg>
