<svg width="71" height="90" viewBox="0 0 71 90" fill="none" xmlns="http://www.w3.org/2000/svg">
<g clip-path="url(#clip0_2435_19995)">
<path d="M70.0965 74.7873H27.4029L36.1379 69.7819C43.7933 64.3839 49.7803 59.771 54.1968 55.6488C62.8337 47.6009 67.741 38.1788 67.741 26.6957C67.741 18.8441 64.7966 12.2683 59.3004 7.65539C53.8042 3.04252 45.8544 0.490723 35.8435 0.490723C18.6679 0.490723 5.12376 8.93129 0.707185 24.1439L0.609039 24.4384L0.903478 24.5365L14.0551 29.7383L14.4476 29.8364L14.6439 29.4438C18.0791 21.494 25.0474 15.6052 35.7454 15.6052C40.7508 15.6052 44.6767 16.8811 47.4247 19.2366C50.0747 21.494 51.645 24.831 51.645 28.9531C51.645 30.8179 51.4487 32.4864 50.958 34.253C50.3691 35.9215 49.2895 37.8844 48.0136 39.651C46.7377 41.5158 45.3637 43.1843 44.2841 44.4602C43.2045 45.8342 41.4378 47.5027 38.9842 49.6619C36.3342 51.8211 34.5676 53.2933 33.5861 54.1767C32.6047 55.06 30.6418 56.6303 27.5011 58.9858C24.3604 61.3413 22.5938 62.7154 22.0049 63.2061L2.08123 77.7317L1.98309 77.8299V78.0262V89.1167V89.5093H2.37567H70.1946H70.5872V89.1167V75.1799V74.7873H70.0965Z" fill="url(#paint0_linear_2435_19995)"/>
<path d="M14.0551 29.7383L0.903478 24.5365L0.609039 24.4384L0.707185 24.1439C5.12376 8.93129 18.6679 0.490723 35.8435 0.490723C45.8544 0.490723 53.8042 3.04252 59.3004 7.65539C64.7966 12.2683 67.741 18.8441 67.741 26.6957C67.741 38.1788 62.8337 47.6009 54.1968 55.6489C49.7803 59.771 43.7933 64.3839 36.1379 69.7819L27.4029 74.7873H70.0965H70.5872V75.1799V89.1167V89.5093H70.1947H2.37567H1.98309V89.1167V78.0262V77.8299L2.08123 77.7317L22.0049 63.2061C22.5938 62.7154 24.3604 61.3413 27.5011 58.9858C30.6418 56.6303 32.6047 55.06 33.5861 54.1767C34.5676 53.2933 36.3342 51.8211 38.9842 49.6619C41.4378 47.5027 43.2045 45.8342 44.2841 44.4602C45.3637 43.1843 46.7377 41.5158 48.0136 39.651C49.2895 37.8844 50.3691 35.9215 50.958 34.253C51.4487 32.4864 51.645 30.8179 51.645 28.9531C51.645 24.831 50.0747 21.494 47.4247 19.2366C44.6767 16.8811 40.7508 15.6052 35.7454 15.6052C25.0474 15.6052 18.0791 21.494 14.6439 29.4438L14.4476 29.8364L14.0551 29.7383ZM14.0551 29.7383L14.1532 29.3457" stroke="#ECBB7C" stroke-miterlimit="10"/>
</g>
<defs>
<linearGradient id="paint0_linear_2435_19995" x1="1.02125" y1="88.623" x2="70.7139" y2="18.9302" gradientUnits="userSpaceOnUse">
<stop stop-color="#ECBB7C"/>
<stop offset="0.5" stop-color="#F6DFC2"/>
<stop offset="1" stop-color="#ECBB7C"/>
</linearGradient>
<clipPath id="clip0_2435_19995">
<rect width="70.9597" height="90" fill="white" transform="translate(0.0201721)"/>
</clipPath>
</defs>
</svg>
