<svg width="167" height="100" viewBox="0 0 167 100" fill="none" xmlns="http://www.w3.org/2000/svg">
<path d="M0.730906 89.578C0.255637 89.8593 0.0984288 90.4727 0.379763 90.9479L4.96429 98.6927C5.24561 99.168 5.85895 99.3252 6.33421 99.0439C6.80947 98.7626 6.96669 98.1492 6.68535 97.674L2.61021 90.7897L9.4945 86.7146C9.96976 86.4332 10.127 85.8199 9.84564 85.3446C9.56432 84.8694 8.95097 84.7122 8.47572 84.9935L0.730906 89.578ZM108.5 79.0005L108.98 79.878L108.5 79.0005ZM165.24 0.43855C164.256 0.262942 164.256 0.262899 164.256 0.26286C164.256 0.262851 164.256 0.262817 164.256 0.262798C164.256 0.26276 164.256 0.262735 164.256 0.26272C164.256 0.262691 164.256 0.262701 164.256 0.262759C164.256 0.26287 164.256 0.263155 164.256 0.263613C164.256 0.264526 164.255 0.26613 164.255 0.26842C164.254 0.273 164.253 0.280321 164.251 0.290356C164.247 0.310422 164.241 0.341335 164.233 0.382852C164.218 0.465885 164.193 0.591331 164.16 0.757242C164.092 1.08907 163.988 1.58273 163.841 2.22265L165.79 2.67094C165.941 2.01357 166.049 1.50311 166.12 1.15514C166.155 0.981146 166.181 0.847774 166.198 0.756962C166.207 0.711558 166.213 0.676794 166.218 0.652913C166.22 0.64097 166.222 0.63175 166.223 0.625283C166.223 0.622046 166.224 0.619501 166.224 0.617647C166.224 0.61672 166.224 0.615963 166.225 0.615383C166.225 0.615093 166.225 0.614843 166.225 0.61464C166.225 0.614539 166.225 0.614447 166.225 0.614366C166.225 0.614327 166.225 0.614274 166.225 0.614255C166.225 0.614206 166.225 0.614158 165.24 0.43855ZM162.824 6.20963C162.497 7.38511 162.108 8.7114 161.647 10.1671L163.554 10.7706C164.022 9.29104 164.418 7.94182 164.751 6.74446L162.824 6.20963ZM160.336 14.081C159.9 15.3176 159.42 16.6162 158.894 17.9679L160.758 18.6931C161.292 17.3209 161.779 16.0025 162.222 14.7468L160.336 14.081ZM157.343 21.7802C156.821 23.0079 156.263 24.2682 155.668 25.5557L157.483 26.3949C158.088 25.088 158.654 23.8088 159.183 22.5627L157.343 21.7802ZM153.873 29.285C153.27 30.4891 152.635 31.7111 151.966 32.947L153.725 33.8988C154.404 32.6438 155.049 31.4031 155.661 30.1806L153.873 29.285ZM149.946 36.5409C149.264 37.7096 148.552 38.8868 147.809 40.0694L149.502 41.1336C150.257 39.932 150.981 38.736 151.673 37.5489L149.946 36.5409ZM145.555 43.5255C144.794 44.6501 144.005 45.7768 143.185 46.9027L144.802 48.0796C145.635 46.9347 146.438 45.7892 147.212 44.646L145.555 43.5255ZM140.7 50.1948C139.861 51.2656 138.994 52.3333 138.099 53.3956L139.628 54.6847C140.539 53.6036 141.421 52.5172 142.274 51.4279L140.7 50.1948ZM135.384 56.4991C134.469 57.5069 133.526 58.5075 132.556 59.499L133.985 60.8981C134.973 59.8884 135.933 58.8695 136.864 57.8435L135.384 56.4991ZM129.616 62.3893C128.627 63.3254 127.611 64.251 126.567 65.1644L127.885 66.6693C128.948 65.7387 129.983 64.7956 130.991 63.842L129.616 62.3893ZM123.412 67.8186C122.352 68.675 121.266 69.5184 120.153 70.3469L121.347 71.9511C122.482 71.1066 123.589 70.2471 124.669 69.3742L123.412 67.8186ZM116.803 72.7386C115.681 73.506 114.534 74.2582 113.361 74.9937L114.424 76.6881C115.619 75.9383 116.789 75.1715 117.932 74.3892L116.803 72.7386ZM109.831 77.1102C109.234 77.4522 108.63 77.7898 108.021 78.1229L108.98 79.878C109.601 79.5385 110.216 79.1943 110.825 78.8458L109.831 77.1102ZM108.021 78.1229C107.447 78.4362 106.872 78.7436 106.296 79.0453L107.224 80.8172C107.811 80.51 108.396 80.197 108.98 79.878L108.021 78.1229ZM102.816 80.7908C101.64 81.3554 100.459 81.8971 99.275 82.4169L100.079 84.2483C101.283 83.7196 102.485 83.1684 103.681 82.5939L102.816 80.7908ZM95.6759 83.9255C94.4634 84.4104 93.2481 84.8732 92.031 85.3149L92.7133 87.195C93.9502 86.7461 95.1856 86.2755 96.4185 85.7826L95.6759 83.9255ZM88.3451 86.5873C87.1048 86.994 85.8638 87.3796 84.623 87.745L85.1881 89.6635C86.4479 89.2925 87.7083 88.9009 88.9682 88.4878L88.3451 86.5873ZM80.8629 88.7922C79.5969 89.1249 78.3324 89.4374 77.0704 89.7308L77.5233 91.6788C78.8034 91.3813 80.0864 91.0642 81.3712 90.7266L80.8629 88.7922ZM73.2539 90.5622C71.9706 90.8233 70.6912 91.0654 69.417 91.2893L69.7632 93.2591C71.0546 93.0321 72.3515 92.7868 73.6527 92.522L73.2539 90.5622ZM65.5633 91.9151C64.2671 92.1084 62.9776 92.2838 61.6962 92.4423L61.9416 94.4271C63.2392 94.2667 64.5453 94.0891 65.8585 93.8932L65.5633 91.9151ZM57.8129 92.8743C56.5031 93.004 55.2033 93.1167 53.9151 93.2136L54.0651 95.2079C55.3686 95.1099 56.6841 94.9959 58.01 94.8646L57.8129 92.8743ZM50.0107 93.4619C48.693 93.5307 47.3895 93.5835 46.102 93.6218L46.1615 95.621C47.4635 95.5822 48.7819 95.5288 50.1149 95.4592L50.0107 93.4619ZM42.1907 93.6955C40.8662 93.706 39.5616 93.7019 38.2786 93.6848L38.2519 95.6846C39.5487 95.7019 40.8676 95.7061 42.2066 95.6954L42.1907 93.6955ZM34.3677 93.5915C33.0368 93.5458 31.7335 93.487 30.4603 93.417L30.3505 95.414C31.637 95.4847 32.9541 95.5442 34.2992 95.5903L34.3677 93.5915ZM26.5598 93.1626C25.2228 93.0616 23.926 92.9496 22.6726 92.8293L22.4815 94.8201C23.7479 94.9417 25.0583 95.0549 26.4093 95.1569L26.5598 93.1626ZM18.7719 92.4141C17.4079 92.2546 16.1096 92.0876 14.8827 91.9177L14.6083 93.8988C15.8488 94.0706 17.1611 94.2394 18.5396 94.4006L18.7719 92.4141ZM11.0287 91.341C9.60516 91.1116 8.32149 90.8861 7.19108 90.6754L6.8247 92.6416C7.97045 92.8551 9.27021 93.0834 10.7105 93.3155L11.0287 91.341ZM3.33448 89.898C2.72741 89.765 2.2633 89.6573 1.95227 89.5832C1.79676 89.5461 1.67951 89.5174 1.6018 89.4982C1.56295 89.4886 1.53399 89.4813 1.51507 89.4766C1.50561 89.4742 1.49866 89.4724 1.49423 89.4713C1.49203 89.4707 1.49045 89.4703 1.48951 89.4701C1.48903 89.47 1.48873 89.4699 1.48857 89.4699C1.4885 89.4698 1.48846 89.4698 1.48846 89.4698C1.48846 89.4698 1.48848 89.4698 1.4885 89.4698C1.48851 89.4698 1.48853 89.4699 1.48854 89.4698C1.48856 89.4699 1.48859 89.4699 1.24029 90.4385C0.992002 91.4072 0.992027 91.4072 0.992066 91.4073C0.992085 91.4073 0.992125 91.4073 0.992147 91.4073C0.99221 91.4073 0.992287 91.4073 0.992368 91.4073C0.99253 91.4074 0.992732 91.4074 0.992975 91.4075C0.993461 91.4076 0.994108 91.4078 0.994901 91.408C0.996516 91.4084 0.998763 91.409 1.00164 91.4097C1.00738 91.4112 1.01569 91.4132 1.02649 91.416C1.04811 91.4214 1.07981 91.4294 1.1214 91.4397C1.2046 91.4602 1.32744 91.4903 1.48867 91.5287C1.81112 91.6055 2.2871 91.7159 2.90649 91.8516L3.33448 89.898Z" fill="#F5D76B"/>
</svg>
