<svg width="195" height="320" viewBox="0 0 195 320" fill="none" xmlns="http://www.w3.org/2000/svg">
<mask id="mask0_588_9330" style="mask-type:alpha" maskUnits="userSpaceOnUse" x="7" y="22" width="179" height="230">
<path d="M45.12 89C50.56 79.08 56.96 71.4 64.96 66.28C72.96 61.16 83.2 58.6 96.32 58.6C109.44 58.6 120 61.16 128.32 65.96C136.64 70.76 140.8 77.8 140.8 86.44C140.8 104.04 121.28 116.84 92.16 116.84H69.12V152.04H90.88C125.44 152.04 145.28 159.72 145.28 182.44C145.28 202.6 125.12 214.44 97.92 214.44C86.72 214.44 76.16 211.24 65.6 205.16C55.04 199.08 47.36 191.08 42.88 181.16L7.68 195.88C11.84 208.36 19.52 219.24 30.08 227.88C51.2 245.48 75.52 251.56 101.12 251.56C125.12 251.56 144.96 245.16 161.28 232.36C177.28 219.88 185.28 202.92 185.28 182.12C185.28 151.4 167.04 135.08 144.32 129.64C165.76 123.24 180.48 103.72 180.48 78.44C180.48 61.48 172.8 48.04 157.76 37.48C142.72 27.24 123.2 22.12 99.52 22.12C57.6 22.12 23.68 41.96 12.16 74.28L45.12 89Z" fill="#D7D4C8"/>
</mask>
<g mask="url(#mask0_588_9330)">
<line x1="37.433" y1="-77.75" x2="-125.567" y2="204.574" stroke="#D7D4C8"/>
<line x1="42.6292" y1="-74.75" x2="-120.371" y2="207.574" stroke="#D7D4C8"/>
<line x1="47.8253" y1="-71.75" x2="-115.175" y2="210.574" stroke="#D7D4C8"/>
<line x1="53.0215" y1="-68.75" x2="-109.979" y2="213.574" stroke="#D7D4C8"/>
<line x1="58.2177" y1="-65.7499" x2="-104.782" y2="216.574" stroke="#D7D4C8"/>
<line x1="63.4138" y1="-62.7499" x2="-99.5862" y2="219.574" stroke="#D7D4C8"/>
<line x1="68.61" y1="-59.7499" x2="-94.39" y2="222.574" stroke="#D7D4C8"/>
<line x1="73.8062" y1="-56.7499" x2="-89.1938" y2="225.574" stroke="#D7D4C8"/>
<line x1="79.0023" y1="-53.7499" x2="-83.9977" y2="228.574" stroke="#D7D4C8"/>
<line x1="84.1985" y1="-50.7499" x2="-78.8015" y2="231.574" stroke="#D7D4C8"/>
<line x1="89.3947" y1="-47.7499" x2="-73.6053" y2="234.574" stroke="#D7D4C8"/>
<line x1="94.5908" y1="-44.7499" x2="-68.4092" y2="237.574" stroke="#D7D4C8"/>
<line x1="99.787" y1="-41.7499" x2="-63.213" y2="240.574" stroke="#D7D4C8"/>
<line x1="104.983" y1="-38.7499" x2="-58.0168" y2="243.574" stroke="#D7D4C8"/>
<line x1="110.179" y1="-35.7499" x2="-52.8207" y2="246.574" stroke="#D7D4C8"/>
<line x1="115.376" y1="-32.7499" x2="-47.6245" y2="249.574" stroke="#D7D4C8"/>
<line x1="120.572" y1="-29.7499" x2="-42.4283" y2="252.574" stroke="#D7D4C8"/>
<line x1="125.768" y1="-26.7499" x2="-37.2322" y2="255.574" stroke="#D7D4C8"/>
<line x1="130.964" y1="-23.7499" x2="-32.036" y2="258.574" stroke="#D7D4C8"/>
<line x1="136.16" y1="-20.7499" x2="-26.8398" y2="261.574" stroke="#D7D4C8"/>
<line x1="141.356" y1="-17.7498" x2="-21.6437" y2="264.574" stroke="#D7D4C8"/>
<line x1="146.552" y1="-14.7498" x2="-16.4475" y2="267.574" stroke="#D7D4C8"/>
<line x1="151.749" y1="-11.7498" x2="-11.2514" y2="270.574" stroke="#D7D4C8"/>
<line x1="156.945" y1="-8.74982" x2="-6.0552" y2="273.574" stroke="#D7D4C8"/>
<line x1="162.141" y1="-5.74982" x2="-0.859029" y2="276.574" stroke="#D7D4C8"/>
<line x1="167.337" y1="-2.74982" x2="4.33714" y2="279.574" stroke="#D7D4C8"/>
<line x1="172.533" y1="0.250183" x2="9.5333" y2="282.574" stroke="#D7D4C8"/>
<line x1="177.729" y1="3.25018" x2="14.7295" y2="285.574" stroke="#D7D4C8"/>
<line x1="182.926" y1="6.25024" x2="19.9256" y2="288.575" stroke="#D7D4C8"/>
<line x1="188.122" y1="9.25024" x2="25.1218" y2="291.575" stroke="#D7D4C8"/>
<line x1="193.318" y1="12.2502" x2="30.318" y2="294.575" stroke="#D7D4C8"/>
<line x1="198.514" y1="15.2502" x2="35.5141" y2="297.575" stroke="#D7D4C8"/>
<line x1="203.71" y1="18.2502" x2="40.7103" y2="300.575" stroke="#D7D4C8"/>
<line x1="208.906" y1="21.2502" x2="45.9065" y2="303.575" stroke="#D7D4C8"/>
<line x1="214.103" y1="24.2502" x2="51.1026" y2="306.575" stroke="#D7D4C8"/>
<line x1="219.299" y1="27.2502" x2="56.2988" y2="309.575" stroke="#D7D4C8"/>
<line x1="224.495" y1="30.2502" x2="61.495" y2="312.575" stroke="#D7D4C8"/>
<line x1="229.691" y1="33.2503" x2="66.6911" y2="315.575" stroke="#D7D4C8"/>
<line x1="234.887" y1="36.2503" x2="71.8873" y2="318.575" stroke="#D7D4C8"/>
<line x1="240.083" y1="39.2503" x2="77.0834" y2="321.575" stroke="#D7D4C8"/>
<line x1="245.28" y1="42.2503" x2="82.2796" y2="324.575" stroke="#D7D4C8"/>
<line x1="250.476" y1="45.2503" x2="87.4758" y2="327.575" stroke="#D7D4C8"/>
<line x1="255.672" y1="48.2503" x2="92.6719" y2="330.575" stroke="#D7D4C8"/>
<line x1="260.868" y1="51.2503" x2="97.8681" y2="333.575" stroke="#D7D4C8"/>
<line x1="266.064" y1="54.2503" x2="103.064" y2="336.575" stroke="#D7D4C8"/>
<line x1="271.26" y1="57.2503" x2="108.26" y2="339.575" stroke="#D7D4C8"/>
<line x1="276.457" y1="60.2503" x2="113.457" y2="342.575" stroke="#D7D4C8"/>
<line x1="281.653" y1="63.2503" x2="118.653" y2="345.575" stroke="#D7D4C8"/>
<line x1="286.849" y1="66.2503" x2="123.849" y2="348.575" stroke="#D7D4C8"/>
<line x1="292.045" y1="69.2503" x2="129.045" y2="351.575" stroke="#D7D4C8"/>
<line x1="297.241" y1="72.2503" x2="134.241" y2="354.575" stroke="#D7D4C8"/>
<line x1="302.437" y1="75.2503" x2="139.437" y2="357.575" stroke="#D7D4C8"/>
<line x1="307.633" y1="78.2503" x2="144.633" y2="360.575" stroke="#D7D4C8"/>
</g>
<path d="M45.12 89L44.7122 89.9131L45.5537 90.2889L45.9968 89.4808L45.12 89ZM64.96 66.28L64.421 65.4377L64.96 66.28ZM69.12 116.84V115.84H68.12V116.84H69.12ZM69.12 152.04H68.12V153.04H69.12V152.04ZM65.6 205.16L66.099 204.293L65.6 205.16ZM42.88 181.16L43.7914 180.748L43.3912 179.862L42.4942 180.237L42.88 181.16ZM7.68 195.88L7.29419 194.957L6.43776 195.316L6.73132 196.196L7.68 195.88ZM30.08 227.88L30.7202 227.112L30.7132 227.106L30.08 227.88ZM161.28 232.36L160.665 231.571L160.663 231.573L161.28 232.36ZM144.32 129.64L144.034 128.682L140.469 129.746L144.087 130.613L144.32 129.64ZM157.76 37.48L158.335 36.6616L158.329 36.6574L158.323 36.6534L157.76 37.48ZM12.16 74.28L11.218 73.9443L10.9074 74.8158L11.7522 75.1931L12.16 74.28ZM45.9968 89.4808C51.3844 79.6564 57.6823 72.125 65.4991 67.1223L64.421 65.4377C56.2377 70.675 49.7356 78.5036 44.2432 88.5192L45.9968 89.4808ZM65.4991 67.1223C73.2912 62.1353 83.3265 59.6 96.32 59.6V57.6C83.0735 57.6 72.6288 60.1847 64.421 65.4377L65.4991 67.1223ZM96.32 59.6C109.312 59.6 119.689 62.135 127.82 66.8262L128.82 65.0938C120.311 60.185 109.568 57.6 96.32 57.6V59.6ZM127.82 66.8262C135.858 71.4633 139.8 78.1877 139.8 86.44H141.8C141.8 77.4122 137.422 70.0567 128.82 65.0938L127.82 66.8262ZM139.8 86.44C139.8 94.8203 135.167 102.133 126.865 107.395C118.547 112.667 106.587 115.84 92.16 115.84V117.84C106.853 117.84 119.213 114.613 127.935 109.085C136.673 103.547 141.8 95.6597 141.8 86.44H139.8ZM92.16 115.84H69.12V117.84H92.16V115.84ZM68.12 116.84V152.04H70.12V116.84H68.12ZM69.12 153.04H90.88V151.04H69.12V153.04ZM90.88 153.04C108.126 153.04 121.525 154.963 130.584 159.61C135.093 161.923 138.501 164.897 140.787 168.628C143.074 172.358 144.28 176.909 144.28 182.44H146.28C146.28 176.611 145.006 171.682 142.493 167.582C139.979 163.483 136.267 160.277 131.496 157.83C121.995 152.957 108.194 151.04 90.88 151.04V153.04ZM144.28 182.44C144.28 192.133 139.455 199.837 131.255 205.161C123.025 210.505 111.392 213.44 97.92 213.44V215.44C111.648 215.44 123.695 212.455 132.345 206.839C141.025 201.203 146.28 192.907 146.28 182.44H144.28ZM97.92 213.44C86.9243 213.44 76.5346 210.302 66.099 204.293L65.101 206.027C75.7854 212.178 86.5157 215.44 97.92 215.44V213.44ZM66.099 204.293C55.6912 198.301 48.172 190.448 43.7914 180.748L41.9686 181.572C46.548 191.712 54.3888 199.859 65.101 206.027L66.099 204.293ZM42.4942 180.237L7.29419 194.957L8.06581 196.803L43.2658 182.083L42.4942 180.237ZM6.73132 196.196C10.9547 208.866 18.7495 219.902 29.4468 228.654L30.7132 227.106C20.2905 218.578 12.7253 207.854 8.62868 195.564L6.73132 196.196ZM29.4398 228.648C50.7854 246.436 75.3536 252.56 101.12 252.56V250.56C75.6864 250.56 51.6146 244.524 30.7202 227.112L29.4398 228.648ZM101.12 252.56C125.31 252.56 145.377 246.104 161.897 233.147L160.663 231.573C144.543 244.216 124.93 250.56 101.12 250.56V252.56ZM161.895 233.148C178.149 220.47 186.28 203.213 186.28 182.12H184.28C184.28 202.627 176.411 219.29 160.665 231.572L161.895 233.148ZM186.28 182.12C186.28 166.55 181.653 154.551 174.078 145.748C166.513 136.955 156.07 131.425 144.553 128.667L144.087 130.613C155.29 133.295 165.327 138.645 172.562 147.052C179.787 155.449 184.28 166.97 184.28 182.12H186.28ZM144.606 130.598C166.496 124.064 181.48 104.134 181.48 78.44H179.48C179.48 103.306 165.024 122.416 144.034 128.682L144.606 130.598ZM181.48 78.44C181.48 61.11 173.603 47.3819 158.335 36.6616L157.185 38.2984C171.997 48.6981 179.48 61.85 179.48 78.44H181.48ZM158.323 36.6534C143.072 26.2701 123.339 21.12 99.52 21.12V23.12C123.061 23.12 142.368 28.2099 157.197 38.3066L158.323 36.6534ZM99.52 21.12C57.3121 21.12 22.9206 41.1122 11.218 73.9443L13.102 74.6157C24.4394 42.8078 57.8879 23.12 99.52 23.12V21.12ZM11.7522 75.1931L44.7122 89.9131L45.5278 88.0869L12.5678 73.3669L11.7522 75.1931Z" fill="#D7D4C8"/>
</svg>
