<svg width="71" height="90" viewBox="0 0 71 90" fill="none" xmlns="http://www.w3.org/2000/svg">
<g clip-path="url(#clip0_2435_20029)">
<path d="M70.1456 62.4209C70.1456 56.434 68.379 51.8212 65.4346 48.386C62.8828 45.3435 59.2514 43.3806 55.3255 42.2028C63.0791 39.3566 68.2808 31.8975 68.2808 22.5736C68.2808 15.8997 65.2383 10.5998 59.3495 6.47764C53.4607 2.45365 45.9035 0.490723 36.6777 0.490723C20.4836 0.490723 7.23391 8.14612 2.71919 20.807L3.11177 20.9051L2.91548 21.2977L15.5763 26.9902L15.8708 27.0883L16.0671 26.7939C18.1281 22.9662 20.5818 20.1199 23.5262 18.157C26.5687 16.1941 30.3964 15.3108 35.4019 15.3108C40.4073 15.3108 44.4313 16.2922 47.572 18.0589C50.7126 19.8255 52.1848 22.4755 52.1848 25.6161C52.1848 28.855 50.4182 31.7012 47.1794 33.6641C43.9406 35.7252 39.3277 36.9029 33.8315 36.9029H24.9984H24.6058V37.2955V50.8397V51.2323H24.9984H33.3408C40.0147 51.2323 45.1183 52.0174 48.6516 53.7841C50.4182 54.6674 51.6941 55.8451 52.5774 57.2192C53.4607 58.6914 53.9515 60.3599 53.9515 62.5191C53.9515 66.2486 52.0867 69.193 48.946 71.2541C45.8053 73.3152 41.2906 74.3948 36.0889 74.3948C31.8686 74.3948 27.8446 73.217 23.8206 70.8615C19.7966 68.6041 16.9504 65.5616 15.2819 61.8321L15.0856 61.5376L14.693 61.6358L1.34514 67.4264L1.0507 67.5245L1.14885 67.819C2.81734 72.7263 5.76172 76.9466 9.88386 80.2835C18.1281 87.1538 27.5502 89.5093 37.4629 89.5093C46.7868 89.5093 54.5403 87.0556 60.8217 82.0502C67.0049 77.241 70.1456 70.5671 70.1456 62.4209Z" fill="url(#paint0_linear_2435_20029)"/>
<path d="M70.1456 62.4209C70.1456 56.434 68.379 51.8212 65.4346 48.386C62.8828 45.3435 59.2514 43.3806 55.3255 42.2028C63.0791 39.3566 68.2808 31.8975 68.2808 22.5736C68.2808 15.8997 65.2383 10.5998 59.3495 6.47764C53.4607 2.45365 45.9035 0.490723 36.6778 0.490723C20.4836 0.490723 7.23391 8.14612 2.71919 20.807L3.11177 20.9051L2.91548 21.2977L15.5763 26.9902L15.8708 27.0883L16.0671 26.7939C18.1281 22.9662 20.5818 20.1199 23.5262 18.157C26.5687 16.1941 30.3964 15.3108 35.4019 15.3108C40.4073 15.3108 44.4313 16.2923 47.572 18.0589C50.7126 19.8255 52.1848 22.4755 52.1848 25.6161C52.1848 28.855 50.4182 31.7012 47.1794 33.6641C43.9406 35.7252 39.3277 36.9029 33.8315 36.9029H24.9984H24.6058V37.2955V50.8397V51.2323H24.9984H33.3408C40.0147 51.2323 45.1183 52.0174 48.6516 53.7841C50.4182 54.6674 51.6941 55.8451 52.5774 57.2192C53.4607 58.6914 53.9515 60.3599 53.9515 62.5191C53.9515 66.2486 52.0867 69.193 48.946 71.2541C45.8053 73.3152 41.2906 74.3948 36.0889 74.3948C31.8686 74.3948 27.8446 73.217 23.8206 70.8615C19.7966 68.6041 16.9504 65.5616 15.2819 61.8321L15.0856 61.5376L14.693 61.6358L1.34514 67.4264L1.0507 67.5245L1.14885 67.819C2.81734 72.7263 5.76172 76.9466 9.88386 80.2835C18.1281 87.1538 27.5502 89.5093 37.4629 89.5093C46.7868 89.5093 54.5403 87.0556 60.8217 82.0502C67.0049 77.241 70.1456 70.5671 70.1456 62.4209Z" stroke="#ECBB7C" stroke-miterlimit="10"/>
</g>
<defs>
<linearGradient id="paint0_linear_2435_20029" x1="5.40496" y1="76.1388" x2="67.5331" y2="14.0105" gradientUnits="userSpaceOnUse">
<stop stop-color="#ECBB7C"/>
<stop offset="0.5" stop-color="#F6DFC2"/>
<stop offset="1" stop-color="#ECBB7C"/>
</linearGradient>
<clipPath id="clip0_2435_20029">
<rect width="70.2726" height="90" fill="white" transform="translate(0.363678)"/>
</clipPath>
</defs>
</svg>
