<svg width="195" height="320" viewBox="0 0 195 320" fill="none" xmlns="http://www.w3.org/2000/svg">
<mask id="mask0_588_9506" style="mask-type:alpha" maskUnits="userSpaceOnUse" x="7" y="25" width="175" height="227">
<path d="M50.88 150.76C61.44 142.12 75.52 137.64 93.12 137.64C123.52 137.64 141.76 152.36 141.76 177.64C141.76 199.4 125.12 214.44 97.28 214.44C72.64 214.44 50.56 203.24 43.2 184.04L7.36 197.16C21.76 238.12 60.8 251.56 95.36 251.56C120.64 251.56 141.12 244.52 157.44 230.76C173.44 217 181.44 199.08 181.44 176.36C181.44 131.56 151.36 102.76 97.6 102.76C81.92 102.76 68.48 105.32 57.92 110.76L62.72 61.16H175.04V25H28.8L18.56 147.56L50.88 150.76Z" fill="#D7D4C8"/>
</mask>
<g mask="url(#mask0_588_9506)">
<line x1="37.433" y1="-77.75" x2="-125.567" y2="204.574" stroke="#D7D4C8"/>
<line x1="42.6292" y1="-74.75" x2="-120.371" y2="207.574" stroke="#D7D4C8"/>
<line x1="47.8253" y1="-71.75" x2="-115.175" y2="210.574" stroke="#D7D4C8"/>
<line x1="53.0215" y1="-68.75" x2="-109.979" y2="213.574" stroke="#D7D4C8"/>
<line x1="58.2177" y1="-65.7499" x2="-104.782" y2="216.574" stroke="#D7D4C8"/>
<line x1="63.4138" y1="-62.7499" x2="-99.5862" y2="219.574" stroke="#D7D4C8"/>
<line x1="68.61" y1="-59.7499" x2="-94.39" y2="222.574" stroke="#D7D4C8"/>
<line x1="73.8062" y1="-56.7499" x2="-89.1938" y2="225.574" stroke="#D7D4C8"/>
<line x1="79.0023" y1="-53.7499" x2="-83.9977" y2="228.574" stroke="#D7D4C8"/>
<line x1="84.1985" y1="-50.7499" x2="-78.8015" y2="231.574" stroke="#D7D4C8"/>
<line x1="89.3947" y1="-47.7499" x2="-73.6053" y2="234.574" stroke="#D7D4C8"/>
<line x1="94.5908" y1="-44.7499" x2="-68.4092" y2="237.574" stroke="#D7D4C8"/>
<line x1="99.787" y1="-41.7499" x2="-63.213" y2="240.574" stroke="#D7D4C8"/>
<line x1="104.983" y1="-38.7499" x2="-58.0168" y2="243.574" stroke="#D7D4C8"/>
<line x1="110.179" y1="-35.7499" x2="-52.8207" y2="246.574" stroke="#D7D4C8"/>
<line x1="115.376" y1="-32.7499" x2="-47.6245" y2="249.574" stroke="#D7D4C8"/>
<line x1="120.572" y1="-29.7499" x2="-42.4283" y2="252.574" stroke="#D7D4C8"/>
<line x1="125.768" y1="-26.7499" x2="-37.2322" y2="255.574" stroke="#D7D4C8"/>
<line x1="130.964" y1="-23.7499" x2="-32.036" y2="258.574" stroke="#D7D4C8"/>
<line x1="136.16" y1="-20.7498" x2="-26.8398" y2="261.574" stroke="#D7D4C8"/>
<line x1="141.356" y1="-17.7498" x2="-21.6437" y2="264.574" stroke="#D7D4C8"/>
<line x1="146.552" y1="-14.7498" x2="-16.4475" y2="267.574" stroke="#D7D4C8"/>
<line x1="151.749" y1="-11.7498" x2="-11.2514" y2="270.574" stroke="#D7D4C8"/>
<line x1="156.945" y1="-8.74982" x2="-6.0552" y2="273.574" stroke="#D7D4C8"/>
<line x1="162.141" y1="-5.74982" x2="-0.859029" y2="276.574" stroke="#D7D4C8"/>
<line x1="167.337" y1="-2.74982" x2="4.33714" y2="279.574" stroke="#D7D4C8"/>
<line x1="172.533" y1="0.250183" x2="9.5333" y2="282.574" stroke="#D7D4C8"/>
<line x1="177.729" y1="3.25021" x2="14.7295" y2="285.574" stroke="#D7D4C8"/>
<line x1="182.926" y1="6.25021" x2="19.9256" y2="288.574" stroke="#D7D4C8"/>
<line x1="188.122" y1="9.25021" x2="25.1218" y2="291.574" stroke="#D7D4C8"/>
<line x1="193.318" y1="12.2502" x2="30.318" y2="294.575" stroke="#D7D4C8"/>
<line x1="198.514" y1="15.2502" x2="35.5141" y2="297.575" stroke="#D7D4C8"/>
<line x1="203.71" y1="18.2502" x2="40.7103" y2="300.575" stroke="#D7D4C8"/>
<line x1="208.906" y1="21.2502" x2="45.9065" y2="303.575" stroke="#D7D4C8"/>
<line x1="214.103" y1="24.2502" x2="51.1026" y2="306.575" stroke="#D7D4C8"/>
<line x1="219.299" y1="27.2503" x2="56.2988" y2="309.575" stroke="#D7D4C8"/>
<line x1="224.495" y1="30.2503" x2="61.495" y2="312.575" stroke="#D7D4C8"/>
<line x1="229.691" y1="33.2503" x2="66.6911" y2="315.575" stroke="#D7D4C8"/>
<line x1="234.887" y1="36.2503" x2="71.8873" y2="318.575" stroke="#D7D4C8"/>
<line x1="240.083" y1="39.2503" x2="77.0834" y2="321.575" stroke="#D7D4C8"/>
<line x1="245.28" y1="42.2503" x2="82.2796" y2="324.575" stroke="#D7D4C8"/>
<line x1="250.476" y1="45.2503" x2="87.4758" y2="327.575" stroke="#D7D4C8"/>
<line x1="255.672" y1="48.2503" x2="92.6719" y2="330.575" stroke="#D7D4C8"/>
<line x1="260.868" y1="51.2503" x2="97.8681" y2="333.575" stroke="#D7D4C8"/>
<line x1="266.064" y1="54.2503" x2="103.064" y2="336.575" stroke="#D7D4C8"/>
<line x1="271.26" y1="57.2503" x2="108.26" y2="339.575" stroke="#D7D4C8"/>
<line x1="276.457" y1="60.2503" x2="113.457" y2="342.575" stroke="#D7D4C8"/>
<line x1="281.653" y1="63.2503" x2="118.653" y2="345.575" stroke="#D7D4C8"/>
<line x1="286.849" y1="66.2503" x2="123.849" y2="348.575" stroke="#D7D4C8"/>
<line x1="292.045" y1="69.2503" x2="129.045" y2="351.575" stroke="#D7D4C8"/>
<line x1="297.241" y1="72.2503" x2="134.241" y2="354.575" stroke="#D7D4C8"/>
<line x1="302.437" y1="75.2503" x2="139.437" y2="357.575" stroke="#D7D4C8"/>
<line x1="307.633" y1="78.2503" x2="144.633" y2="360.575" stroke="#D7D4C8"/>
</g>
<path d="M50.88 150.76L50.7815 151.755L51.1931 151.796L51.5132 151.534L50.88 150.76ZM43.2 184.04L44.1337 183.682L43.7812 182.762L42.8562 183.101L43.2 184.04ZM7.36 197.16L7.01624 196.221L6.08918 196.56L6.4166 197.492L7.36 197.16ZM157.44 230.76L158.085 231.525L158.092 231.518L157.44 230.76ZM57.92 110.76L56.9247 110.664L56.748 112.489L58.378 111.649L57.92 110.76ZM62.72 61.16V60.16H61.8121L61.7247 61.0637L62.72 61.16ZM175.04 61.16V62.16H176.04V61.16H175.04ZM175.04 25H176.04V24H175.04V25ZM28.8 25V24H27.8801L27.8035 24.9167L28.8 25ZM18.56 147.56L17.5635 147.477L17.4815 148.458L18.4615 148.555L18.56 147.56ZM51.5132 151.534C61.8532 143.074 75.6911 138.64 93.12 138.64V136.64C75.3489 136.64 61.0268 141.166 50.2468 149.986L51.5132 151.534ZM93.12 138.64C108.172 138.64 120.081 142.285 128.207 148.934C136.306 155.561 140.76 165.261 140.76 177.64H142.76C142.76 164.739 138.094 154.439 129.473 147.386C120.879 140.355 108.468 136.64 93.12 136.64V138.64ZM140.76 177.64C140.76 188.247 136.714 197.16 129.313 203.437C121.897 209.727 111.027 213.44 97.28 213.44V215.44C111.373 215.44 122.743 211.633 130.607 204.963C138.486 198.28 142.76 188.793 142.76 177.64H140.76ZM97.28 213.44C72.8764 213.44 51.2907 202.352 44.1337 183.682L42.2663 184.398C49.8293 204.128 72.4036 215.44 97.28 215.44V213.44ZM42.8562 183.101L7.01624 196.221L7.70376 198.099L43.5438 184.979L42.8562 183.101ZM6.4166 197.492C21.0194 239.028 60.599 252.56 95.36 252.56V250.56C61.001 250.56 22.5006 237.212 8.3034 196.828L6.4166 197.492ZM95.36 252.56C120.839 252.56 141.558 245.459 158.085 231.525L156.795 229.995C140.682 243.581 120.441 250.56 95.36 250.56V252.56ZM158.092 231.518C174.328 217.555 182.44 199.351 182.44 176.36H180.44C180.44 198.809 172.552 216.445 156.788 230.002L158.092 231.518ZM182.44 176.36C182.44 153.726 174.834 135.037 160.349 122.016C145.876 109.007 124.652 101.76 97.6 101.76V103.76C124.308 103.76 145.004 110.913 159.012 123.504C173.006 136.083 180.44 154.194 180.44 176.36H182.44ZM97.6 101.76C81.8227 101.76 68.2101 104.334 57.462 109.871L58.378 111.649C68.75 106.306 82.0173 103.76 97.6 103.76V101.76ZM58.9154 110.856L63.7154 61.2563L61.7247 61.0637L56.9247 110.664L58.9154 110.856ZM62.72 62.16H175.04V60.16H62.72V62.16ZM176.04 61.16V25H174.04V61.16H176.04ZM175.04 24H28.8V26H175.04V24ZM27.8035 24.9167L17.5635 147.477L19.5565 147.643L29.7965 25.0832L27.8035 24.9167ZM18.4615 148.555L50.7815 151.755L50.9785 149.765L18.6585 146.565L18.4615 148.555Z" fill="#D7D4C8"/>
</svg>
