<svg width="214" height="320" viewBox="0 0 214 320" fill="none" xmlns="http://www.w3.org/2000/svg">
<mask id="mask0_588_9564" style="mask-type:alpha" maskUnits="userSpaceOnUse" x="12" y="22" width="192" height="230">
<path d="M12.2775 143.08C12.2775 177.64 21.5575 204.52 40.1175 223.4C58.3575 242.28 83.3175 251.88 114.358 251.88C140.598 251.88 162.037 244.52 178.998 229.48C195.638 214.44 203.958 195.24 203.958 171.56C203.958 125.48 171.958 96.04 118.518 96.04C91.3175 96.04 64.7575 109.8 50.6775 130.28C50.3575 107.88 57.0775 90.6 70.1975 78.12C83.3175 65.64 99.6375 59.56 118.838 59.56C138.998 59.56 156.598 65.96 170.998 78.44L192.438 51.24C174.198 31.72 149.878 22.12 119.478 22.12C88.1175 22.12 62.5175 32.68 42.3575 53.48C22.1975 74.28 12.2775 104.36 12.2775 143.08ZM56.7575 167.4C58.9975 159.4 66.0375 151.72 77.5575 143.72C89.0775 136.04 101.238 132.2 114.358 132.2C146.678 132.2 164.278 146.92 164.278 173.48C164.278 197.8 143.158 214.76 115.958 214.76C80.1175 214.76 60.9175 194.28 56.7575 167.4Z" fill="#D7D4C8"/>
</mask>
<g mask="url(#mask0_588_9564)">
<line x1="47.433" y1="-77.75" x2="-115.567" y2="204.574" stroke="#D7D4C8"/>
<line x1="52.6292" y1="-74.75" x2="-110.371" y2="207.574" stroke="#D7D4C8"/>
<line x1="57.8253" y1="-71.75" x2="-105.175" y2="210.574" stroke="#D7D4C8"/>
<line x1="63.0215" y1="-68.75" x2="-99.9785" y2="213.574" stroke="#D7D4C8"/>
<line x1="68.2177" y1="-65.75" x2="-94.7823" y2="216.574" stroke="#D7D4C8"/>
<line x1="73.4138" y1="-62.75" x2="-89.5862" y2="219.574" stroke="#D7D4C8"/>
<line x1="78.61" y1="-59.7499" x2="-84.39" y2="222.574" stroke="#D7D4C8"/>
<line x1="83.8062" y1="-56.7499" x2="-79.1938" y2="225.574" stroke="#D7D4C8"/>
<line x1="89.0023" y1="-53.7499" x2="-73.9977" y2="228.574" stroke="#D7D4C8"/>
<line x1="94.1985" y1="-50.7499" x2="-68.8015" y2="231.574" stroke="#D7D4C8"/>
<line x1="99.3947" y1="-47.7499" x2="-63.6053" y2="234.574" stroke="#D7D4C8"/>
<line x1="104.591" y1="-44.7499" x2="-58.4092" y2="237.574" stroke="#D7D4C8"/>
<line x1="109.787" y1="-41.7499" x2="-53.213" y2="240.574" stroke="#D7D4C8"/>
<line x1="114.983" y1="-38.7499" x2="-48.0168" y2="243.574" stroke="#D7D4C8"/>
<line x1="120.179" y1="-35.7499" x2="-42.8207" y2="246.574" stroke="#D7D4C8"/>
<line x1="125.376" y1="-32.7499" x2="-37.6245" y2="249.574" stroke="#D7D4C8"/>
<line x1="130.572" y1="-29.7499" x2="-32.4284" y2="252.574" stroke="#D7D4C8"/>
<line x1="135.768" y1="-26.7499" x2="-27.2322" y2="255.574" stroke="#D7D4C8"/>
<line x1="140.964" y1="-23.7498" x2="-22.036" y2="258.574" stroke="#D7D4C8"/>
<line x1="146.16" y1="-20.7498" x2="-16.8399" y2="261.574" stroke="#D7D4C8"/>
<line x1="151.356" y1="-17.7498" x2="-11.6437" y2="264.574" stroke="#D7D4C8"/>
<line x1="156.552" y1="-14.7498" x2="-6.44753" y2="267.574" stroke="#D7D4C8"/>
<line x1="161.749" y1="-11.7498" x2="-1.25136" y2="270.574" stroke="#D7D4C8"/>
<line x1="166.945" y1="-8.74982" x2="3.9448" y2="273.574" stroke="#D7D4C8"/>
<line x1="172.141" y1="-5.74982" x2="9.14097" y2="276.574" stroke="#D7D4C8"/>
<line x1="177.337" y1="-2.74982" x2="14.3371" y2="279.574" stroke="#D7D4C8"/>
<line x1="182.533" y1="0.250183" x2="19.5333" y2="282.574" stroke="#D7D4C8"/>
<line x1="187.729" y1="3.25021" x2="24.7295" y2="285.574" stroke="#D7D4C8"/>
<line x1="192.926" y1="6.25021" x2="29.9256" y2="288.574" stroke="#D7D4C8"/>
<line x1="198.122" y1="9.25021" x2="35.1218" y2="291.574" stroke="#D7D4C8"/>
<line x1="203.318" y1="12.2502" x2="40.318" y2="294.574" stroke="#D7D4C8"/>
<line x1="208.514" y1="15.2502" x2="45.5141" y2="297.575" stroke="#D7D4C8"/>
<line x1="213.71" y1="18.2502" x2="50.7103" y2="300.575" stroke="#D7D4C8"/>
<line x1="218.906" y1="21.2502" x2="55.9064" y2="303.575" stroke="#D7D4C8"/>
<line x1="224.103" y1="24.2503" x2="61.1026" y2="306.575" stroke="#D7D4C8"/>
<line x1="229.299" y1="27.2503" x2="66.2988" y2="309.575" stroke="#D7D4C8"/>
<line x1="234.495" y1="30.2503" x2="71.4949" y2="312.575" stroke="#D7D4C8"/>
<line x1="239.691" y1="33.2503" x2="76.6911" y2="315.575" stroke="#D7D4C8"/>
<line x1="244.887" y1="36.2503" x2="81.8873" y2="318.575" stroke="#D7D4C8"/>
<line x1="250.083" y1="39.2503" x2="87.0834" y2="321.575" stroke="#D7D4C8"/>
<line x1="255.28" y1="42.2503" x2="92.2796" y2="324.575" stroke="#D7D4C8"/>
<line x1="260.476" y1="45.2503" x2="97.4758" y2="327.575" stroke="#D7D4C8"/>
<line x1="265.672" y1="48.2503" x2="102.672" y2="330.575" stroke="#D7D4C8"/>
<line x1="270.868" y1="51.2503" x2="107.868" y2="333.575" stroke="#D7D4C8"/>
<line x1="276.064" y1="54.2503" x2="113.064" y2="336.575" stroke="#D7D4C8"/>
<line x1="281.26" y1="57.2503" x2="118.26" y2="339.575" stroke="#D7D4C8"/>
<line x1="286.457" y1="60.2503" x2="123.457" y2="342.575" stroke="#D7D4C8"/>
<line x1="291.653" y1="63.2503" x2="128.653" y2="345.575" stroke="#D7D4C8"/>
<line x1="296.849" y1="66.2503" x2="133.849" y2="348.575" stroke="#D7D4C8"/>
<line x1="302.045" y1="69.2503" x2="139.045" y2="351.575" stroke="#D7D4C8"/>
<line x1="307.241" y1="72.2503" x2="144.241" y2="354.575" stroke="#D7D4C8"/>
<line x1="312.437" y1="75.2503" x2="149.437" y2="357.575" stroke="#D7D4C8"/>
<line x1="317.634" y1="78.2503" x2="154.633" y2="360.575" stroke="#D7D4C8"/>
</g>
<path d="M40.1175 223.4L40.8367 222.705L40.8306 222.699L40.1175 223.4ZM178.998 229.48L179.661 230.228L179.668 230.222L178.998 229.48ZM50.6775 130.28L49.6776 130.294L49.7225 133.434L51.5015 130.847L50.6775 130.28ZM70.1975 78.12L69.5083 77.3954L70.1975 78.12ZM170.998 78.44L170.343 79.1957L171.134 79.8818L171.783 79.059L170.998 78.44ZM192.438 51.24L193.223 51.859L193.754 51.1847L193.168 50.5572L192.438 51.24ZM42.3575 53.48L43.0756 54.176L42.3575 53.48ZM56.7575 167.4L55.7945 167.13L55.7361 167.339L55.7693 167.553L56.7575 167.4ZM77.5575 143.72L77.0028 142.888L76.9949 142.893L76.9871 142.899L77.5575 143.72ZM11.2775 143.08C11.2775 177.818 20.6087 204.981 39.4044 224.101L40.8306 222.699C22.5063 204.059 13.2775 177.462 13.2775 143.08H11.2775ZM39.3983 224.095C57.8603 243.205 83.0988 252.88 114.357 252.88V250.88C83.5362 250.88 58.8547 241.355 40.8367 222.705L39.3983 224.095ZM114.357 252.88C140.798 252.88 162.487 245.458 179.661 230.228L178.334 228.732C161.588 243.582 140.397 250.88 114.357 250.88V252.88ZM179.668 230.222C196.529 214.982 204.958 195.507 204.958 171.56H202.958C202.958 194.973 194.746 213.898 178.327 228.738L179.668 230.222ZM204.958 171.56C204.958 148.276 196.865 129.11 181.944 115.774C167.035 102.45 145.415 95.04 118.518 95.04V97.04C145.06 97.04 166.16 104.35 180.611 117.266C195.05 130.17 202.958 148.764 202.958 171.56H204.958ZM118.518 95.04C91.0093 95.04 64.1317 108.945 49.8535 129.713L51.5015 130.847C65.3833 110.655 91.6257 97.04 118.518 97.04V95.04ZM51.6774 130.266C51.3606 108.089 58.0059 91.097 70.8867 78.8445L69.5083 77.3954C56.1491 90.1029 49.3544 107.671 49.6776 130.294L51.6774 130.266ZM70.8867 78.8445C83.8029 66.5585 99.8682 60.56 118.838 60.56V58.56C99.4068 58.56 82.8321 64.7215 69.5083 77.3954L70.8867 78.8445ZM118.838 60.56C138.77 60.56 156.134 66.8819 170.343 79.1957L171.652 77.6843C157.061 65.0381 139.225 58.56 118.838 58.56V60.56ZM171.783 79.059L193.223 51.859L191.652 50.6209L170.212 77.8209L171.783 79.059ZM193.168 50.5572C174.71 30.8033 150.108 21.12 119.478 21.12V23.12C149.647 23.12 173.685 32.6367 191.707 51.9227L193.168 50.5572ZM119.478 21.12C87.866 21.12 62.0007 31.7763 41.6394 52.784L43.0756 54.176C63.0343 33.5836 88.369 23.12 119.478 23.12V21.12ZM41.6394 52.784C21.241 73.83 11.2775 104.197 11.2775 143.08H13.2775C13.2775 104.523 23.154 74.73 43.0756 54.176L41.6394 52.784ZM57.7205 167.67C59.8629 160.018 66.6552 152.508 78.1279 144.541L76.9871 142.899C65.4198 150.932 58.1321 158.782 55.7945 167.13L57.7205 167.67ZM78.1122 144.552C89.4797 136.974 101.449 133.2 114.357 133.2V131.2C101.026 131.2 88.6753 135.106 77.0028 142.888L78.1122 144.552ZM114.357 133.2C130.383 133.2 142.602 136.851 150.799 143.65C158.966 150.423 163.278 160.435 163.278 173.48H165.278C165.278 159.965 160.789 149.337 152.076 142.11C143.393 134.909 130.652 131.2 114.357 131.2V133.2ZM163.278 173.48C163.278 197.09 142.777 213.76 115.958 213.76V215.76C143.538 215.76 165.278 198.51 165.278 173.48H163.278ZM115.958 213.76C98.2336 213.76 84.7192 208.7 75.1319 200.404C65.5407 192.105 59.7959 180.494 57.7457 167.247L55.7693 167.553C57.8791 181.186 63.8143 193.255 73.8232 201.916C83.8358 210.58 97.8415 215.76 115.958 215.76V213.76Z" fill="#D7D4C8"/>
</svg>
