<svg width="198" height="320" viewBox="0 0 198 320" fill="none" xmlns="http://www.w3.org/2000/svg">
<mask id="mask0_588_9390" style="mask-type:alpha" maskUnits="userSpaceOnUse" x="9" y="22" width="178" height="227">
<path d="M43.2938 96.04C52.2538 75.24 70.4938 59.88 98.3338 59.88C124.254 59.88 139.934 73.32 139.934 95.08C139.934 99.88 139.294 104.36 138.014 108.84C135.134 117.8 125.854 129 120.734 135.4C117.854 138.92 113.374 143.4 106.974 148.84C100.254 154.28 95.7738 158.12 93.2138 160.36C90.6538 162.6 85.5338 166.76 77.5338 172.84C69.5338 178.92 65.0538 182.44 63.4538 183.72L12.8938 220.52V249H186.654V213.16H73.3738L98.9738 198.44C118.494 184.68 133.854 172.84 145.054 162.28C167.134 141.8 179.614 118.12 179.614 89C179.614 49.32 149.854 22.76 98.9738 22.76C55.1338 22.76 20.8938 44.2 9.69375 82.6L43.2938 96.04Z" fill="#D7D4C8"/>
</mask>
<g mask="url(#mask0_588_9390)">
<line x1="39.433" y1="-77.75" x2="-123.567" y2="204.574" stroke="#D7D4C8"/>
<line x1="44.6292" y1="-74.75" x2="-118.371" y2="207.574" stroke="#D7D4C8"/>
<line x1="49.8253" y1="-71.75" x2="-113.175" y2="210.574" stroke="#D7D4C8"/>
<line x1="55.0215" y1="-68.75" x2="-107.979" y2="213.574" stroke="#D7D4C8"/>
<line x1="60.2177" y1="-65.75" x2="-102.782" y2="216.574" stroke="#D7D4C8"/>
<line x1="65.4138" y1="-62.75" x2="-97.5862" y2="219.574" stroke="#D7D4C8"/>
<line x1="70.61" y1="-59.75" x2="-92.39" y2="222.574" stroke="#D7D4C8"/>
<line x1="75.8062" y1="-56.75" x2="-87.1938" y2="225.574" stroke="#D7D4C8"/>
<line x1="81.0023" y1="-53.7499" x2="-81.9977" y2="228.574" stroke="#D7D4C8"/>
<line x1="86.1985" y1="-50.7499" x2="-76.8015" y2="231.574" stroke="#D7D4C8"/>
<line x1="91.3947" y1="-47.7499" x2="-71.6053" y2="234.574" stroke="#D7D4C8"/>
<line x1="96.5908" y1="-44.7499" x2="-66.4092" y2="237.574" stroke="#D7D4C8"/>
<line x1="101.787" y1="-41.7499" x2="-61.213" y2="240.574" stroke="#D7D4C8"/>
<line x1="106.983" y1="-38.7499" x2="-56.0168" y2="243.574" stroke="#D7D4C8"/>
<line x1="112.179" y1="-35.7499" x2="-50.8207" y2="246.574" stroke="#D7D4C8"/>
<line x1="117.376" y1="-32.7499" x2="-45.6245" y2="249.574" stroke="#D7D4C8"/>
<line x1="122.572" y1="-29.7499" x2="-40.4284" y2="252.574" stroke="#D7D4C8"/>
<line x1="127.768" y1="-26.7499" x2="-35.2322" y2="255.574" stroke="#D7D4C8"/>
<line x1="132.964" y1="-23.7499" x2="-30.036" y2="258.574" stroke="#D7D4C8"/>
<line x1="138.16" y1="-20.7499" x2="-24.8399" y2="261.574" stroke="#D7D4C8"/>
<line x1="143.356" y1="-17.7499" x2="-19.6437" y2="264.574" stroke="#D7D4C8"/>
<line x1="148.552" y1="-14.7499" x2="-14.4475" y2="267.574" stroke="#D7D4C8"/>
<line x1="153.749" y1="-11.7499" x2="-9.25136" y2="270.574" stroke="#D7D4C8"/>
<line x1="158.945" y1="-8.74988" x2="-4.0552" y2="273.574" stroke="#D7D4C8"/>
<line x1="164.141" y1="-5.74976" x2="1.14097" y2="276.575" stroke="#D7D4C8"/>
<line x1="169.337" y1="-2.74976" x2="6.33714" y2="279.575" stroke="#D7D4C8"/>
<line x1="174.533" y1="0.250244" x2="11.5333" y2="282.575" stroke="#D7D4C8"/>
<line x1="179.729" y1="3.25024" x2="16.7295" y2="285.575" stroke="#D7D4C8"/>
<line x1="184.926" y1="6.25024" x2="21.9256" y2="288.575" stroke="#D7D4C8"/>
<line x1="190.122" y1="9.25024" x2="27.1218" y2="291.575" stroke="#D7D4C8"/>
<line x1="195.318" y1="12.2502" x2="32.318" y2="294.575" stroke="#D7D4C8"/>
<line x1="200.514" y1="15.2502" x2="37.5141" y2="297.575" stroke="#D7D4C8"/>
<line x1="205.71" y1="18.2502" x2="42.7103" y2="300.575" stroke="#D7D4C8"/>
<line x1="210.906" y1="21.2502" x2="47.9064" y2="303.575" stroke="#D7D4C8"/>
<line x1="216.103" y1="24.2502" x2="53.1026" y2="306.575" stroke="#D7D4C8"/>
<line x1="221.299" y1="27.2502" x2="58.2988" y2="309.575" stroke="#D7D4C8"/>
<line x1="226.495" y1="30.2502" x2="63.4949" y2="312.575" stroke="#D7D4C8"/>
<line x1="231.691" y1="33.2502" x2="68.6911" y2="315.575" stroke="#D7D4C8"/>
<line x1="236.887" y1="36.2502" x2="73.8873" y2="318.575" stroke="#D7D4C8"/>
<line x1="242.083" y1="39.2502" x2="79.0834" y2="321.575" stroke="#D7D4C8"/>
<line x1="247.28" y1="42.2502" x2="84.2796" y2="324.575" stroke="#D7D4C8"/>
<line x1="252.476" y1="45.2504" x2="89.4758" y2="327.575" stroke="#D7D4C8"/>
<line x1="257.672" y1="48.2504" x2="94.6719" y2="330.575" stroke="#D7D4C8"/>
<line x1="262.868" y1="51.2504" x2="99.8681" y2="333.575" stroke="#D7D4C8"/>
<line x1="268.064" y1="54.2504" x2="105.064" y2="336.575" stroke="#D7D4C8"/>
<line x1="273.26" y1="57.2504" x2="110.26" y2="339.575" stroke="#D7D4C8"/>
<line x1="278.457" y1="60.2504" x2="115.457" y2="342.575" stroke="#D7D4C8"/>
<line x1="283.653" y1="63.2504" x2="120.653" y2="345.575" stroke="#D7D4C8"/>
<line x1="288.849" y1="66.2504" x2="125.849" y2="348.575" stroke="#D7D4C8"/>
<line x1="294.045" y1="69.2504" x2="131.045" y2="351.575" stroke="#D7D4C8"/>
<line x1="299.241" y1="72.2504" x2="136.241" y2="354.575" stroke="#D7D4C8"/>
<line x1="304.437" y1="75.2504" x2="141.437" y2="357.575" stroke="#D7D4C8"/>
<line x1="309.634" y1="78.2504" x2="146.633" y2="360.575" stroke="#D7D4C8"/>
</g>
<path d="M43.2938 96.04L42.9224 96.9685L43.8268 97.3302L44.2122 96.4356L43.2938 96.04ZM138.014 108.84L138.966 109.146L138.971 109.13L138.975 109.115L138.014 108.84ZM120.734 135.4L121.508 136.033L121.515 136.025L120.734 135.4ZM106.974 148.84L107.603 149.617L107.612 149.61L107.621 149.602L106.974 148.84ZM93.2138 160.36L92.5553 159.607H92.5552L93.2138 160.36ZM63.4538 183.72L64.0422 184.529L64.0607 184.515L64.0784 184.501L63.4538 183.72ZM12.8938 220.52L12.3053 219.711L11.8938 220.011V220.52H12.8938ZM12.8938 249H11.8938V250H12.8938V249ZM186.654 249V250H187.654V249H186.654ZM186.654 213.16H187.654V212.16H186.654V213.16ZM73.3738 213.16L72.8753 212.293L69.6285 214.16H73.3738V213.16ZM98.9738 198.44L99.4722 199.307L99.5122 199.284L99.5499 199.257L98.9738 198.44ZM145.054 162.28L144.374 161.547L144.368 161.552L145.054 162.28ZM9.69375 82.6L8.73375 82.32L8.4796 83.1914L9.32236 83.5285L9.69375 82.6ZM44.2122 96.4356C53.034 75.9563 70.941 60.88 98.3338 60.88V58.88C70.0465 58.88 51.4735 74.5237 42.3753 95.6444L44.2122 96.4356ZM98.3338 60.88C111.131 60.88 121.277 64.1976 128.206 70.0822C135.117 75.9501 138.934 84.4575 138.934 95.08H140.934C140.934 83.9425 136.911 74.8499 129.501 68.5577C122.111 62.2824 111.457 58.88 98.3338 58.88V60.88ZM138.934 95.08C138.934 99.7867 138.307 104.174 137.052 108.565L138.975 109.115C140.281 104.546 140.934 99.9733 140.934 95.08H138.934ZM137.062 108.534C135.67 112.864 132.703 117.803 129.396 122.505C126.098 127.193 122.522 131.564 119.953 134.775L121.515 136.025C124.065 132.836 127.689 128.407 131.032 123.655C134.364 118.917 137.478 113.776 138.966 109.146L137.062 108.534ZM119.96 134.767C117.132 138.223 112.701 142.66 106.326 148.078L107.621 149.602C114.047 144.14 118.576 139.617 121.508 136.033L119.96 134.767ZM106.345 148.063C99.6144 153.511 95.1246 157.359 92.5553 159.607L93.8723 161.113C96.4229 158.881 100.893 155.049 107.603 149.617L106.345 148.063ZM92.5552 159.607C90.0209 161.825 84.922 165.969 76.9287 172.044L78.1388 173.636C86.1455 167.551 91.2867 163.375 93.8723 161.113L92.5552 159.607ZM76.9287 172.044C68.9249 178.127 64.4378 181.652 62.8291 182.939L64.0784 184.501C65.6697 183.228 70.1426 179.713 78.1388 173.636L76.9287 172.044ZM62.8653 182.911L12.3053 219.711L13.4822 221.329L64.0422 184.529L62.8653 182.911ZM11.8938 220.52V249H13.8938V220.52H11.8938ZM12.8938 250H186.654V248H12.8938V250ZM187.654 249V213.16H185.654V249H187.654ZM186.654 212.16H73.3738V214.16H186.654V212.16ZM73.8722 214.027L99.4722 199.307L98.4753 197.573L72.8753 212.293L73.8722 214.027ZM99.5499 199.257C119.081 185.489 134.487 173.617 145.74 163.008L144.368 161.552C133.22 172.063 117.906 183.871 98.3976 197.623L99.5499 199.257ZM145.734 163.013C167.973 142.386 180.614 118.454 180.614 89H178.614C178.614 117.786 166.295 141.214 144.374 161.547L145.734 163.013ZM180.614 89C180.614 68.8915 173.063 52.0411 159.017 40.2345C144.99 28.4434 124.579 21.76 98.9738 21.76V23.76C124.248 23.76 144.158 30.3566 157.73 41.7655C171.285 53.1589 178.614 69.4285 178.614 89H180.614ZM98.9738 21.76C54.7959 21.76 20.0857 43.399 8.73375 82.32L10.6538 82.88C21.7018 45.001 55.4716 23.76 98.9738 23.76V21.76ZM9.32236 83.5285L42.9224 96.9685L43.6651 95.1115L10.0651 81.6715L9.32236 83.5285Z" fill="#D7D4C8"/>
</svg>
