<svg width="372" height="133" viewBox="0 0 372 133" fill="none" xmlns="http://www.w3.org/2000/svg">
<path d="M371.062 121.578C371.382 121.128 371.275 120.504 370.825 120.184L363.483 114.979C363.032 114.659 362.408 114.766 362.089 115.216C361.769 115.667 361.876 116.291 362.326 116.61L368.852 121.237L364.225 127.763C363.906 128.214 364.012 128.838 364.462 129.158C364.913 129.477 365.537 129.371 365.857 128.92L371.062 121.578ZM125 114.5L124.587 115.411L125 114.5ZM1.24639 0.499976C0.308696 0.847442 0.308715 0.847488 0.308733 0.847542C0.308739 0.847563 0.308758 0.847618 0.308776 0.847654C0.308803 0.84774 0.308838 0.84783 0.308876 0.84793C0.308951 0.848131 0.30904 0.848374 0.309146 0.848653C0.309355 0.849218 0.309624 0.849941 0.309954 0.85082C0.31061 0.852586 0.311506 0.854987 0.312641 0.858024C0.31491 0.864097 0.318141 0.872704 0.322342 0.883826C0.330744 0.906068 0.343029 0.938367 0.359274 0.980562C0.391765 1.06495 0.440112 1.18891 0.504976 1.35109C0.634704 1.67544 0.830515 2.15267 1.09773 2.77198L2.93409 1.97967C2.67414 1.37717 2.48519 0.916478 2.36195 0.608356C2.30033 0.454296 2.25514 0.338379 2.22571 0.261957C2.211 0.223743 2.20023 0.195406 2.19332 0.177111C2.18987 0.167956 2.18737 0.161319 2.18584 0.157213C2.18507 0.155164 2.18454 0.153742 2.18425 0.152954C2.1841 0.152564 2.18401 0.152331 2.18399 0.152254C2.18397 0.152219 2.18397 0.15222 2.18399 0.152264C2.184 0.152286 2.18401 0.152312 2.18402 0.152355C2.18403 0.152376 2.18405 0.152412 2.18405 0.152422C2.18406 0.152465 2.18408 0.152509 1.24639 0.499976ZM2.81141 6.50503C3.34126 7.60117 3.96226 8.84171 4.68095 10.2134L6.4525 9.28516C5.74407 7.93308 5.13276 6.71183 4.61208 5.63463L2.81141 6.50503ZM6.63177 13.813C7.26411 14.9431 7.94942 16.1351 8.69009 17.384L10.4103 16.3639C9.67836 15.1296 9.00142 13.9521 8.37713 12.8364L6.63177 13.813ZM10.834 20.9035C11.5338 22.0228 12.2733 23.1784 13.0539 24.3675L14.7258 23.2699C13.9534 22.0934 13.2219 20.9502 12.5298 19.8433L10.834 20.9035ZM15.3458 27.7788C16.1004 28.8767 16.8876 29.9984 17.7086 31.142L19.3333 29.9757C18.5204 28.8433 17.741 27.7327 16.9941 26.646L15.3458 27.7788ZM20.1424 34.4618C20.9486 35.5391 21.7836 36.633 22.6478 37.7421L24.2254 36.5128C23.3692 35.414 22.5422 34.3304 21.7436 33.2634L20.1424 34.4618ZM25.2066 40.9624C26.0495 42.0029 26.9175 43.055 27.8112 44.1176L29.3418 42.8302C28.4561 41.7771 27.5959 40.7345 26.7607 39.7035L25.2066 40.9624ZM30.4875 47.2413C31.3805 48.2647 32.2969 49.2964 33.2372 50.3357L34.7203 48.9939C33.788 47.9635 32.8796 46.9407 31.9944 45.9264L30.4875 47.2413ZM36.0003 53.3364C36.9246 54.3228 37.8702 55.3149 38.8376 56.3121L40.2731 54.9195C39.3138 53.9307 38.3762 52.9469 37.4598 51.9689L36.0003 53.3364ZM41.7378 59.2508C42.6906 60.1998 43.663 61.1527 44.6554 62.1086L46.0429 60.6682C45.0586 59.72 44.0941 58.775 43.1492 57.8338L41.7378 59.2508ZM47.6513 64.9468C48.6393 65.8672 49.6458 66.7899 50.6712 67.7144L52.0105 66.229C50.9932 65.3118 49.9947 64.3964 49.0147 63.4834L47.6513 64.9468ZM53.7449 70.4406C54.7683 71.3338 55.8095 72.228 56.8687 73.1228L58.1594 71.595C57.1084 70.7071 56.0753 69.8199 55.0599 68.9337L53.7449 70.4406ZM60.0166 75.7399C61.0719 76.6034 62.1442 77.467 63.2337 78.3303L64.4758 76.7627C63.3945 75.906 62.3304 75.0489 61.2831 74.192L60.0166 75.7399ZM66.4534 80.8413C67.5373 81.6735 68.6374 82.5049 69.754 83.3352L70.9474 81.7302C69.8391 80.9061 68.7471 80.0808 67.6713 79.2549L66.4534 80.8413ZM73.0436 85.7433C74.153 86.5429 75.278 87.341 76.4186 88.1373L77.5635 86.4974C76.4311 85.7068 75.3143 84.9145 74.2129 84.1208L73.0436 85.7433ZM79.7771 90.4459C80.9092 91.2119 82.056 91.976 83.2179 92.7377L84.3145 91.0652C83.1608 90.3088 82.022 89.5501 80.898 88.7895L79.7771 90.4459ZM86.6449 94.9498C87.7968 95.6819 88.9629 96.4114 90.1432 97.1382L91.1918 95.4351C90.0195 94.7133 88.8615 93.9888 87.7176 93.2618L86.6449 94.9498ZM93.639 99.257C94.8082 99.9547 95.9909 100.649 97.1872 101.341L98.1882 99.6096C96.9998 98.9226 95.8251 98.2325 94.6638 97.5395L93.639 99.257ZM100.752 103.37C101.936 104.033 103.133 104.693 104.343 105.349L105.297 103.592C104.095 102.939 102.906 102.284 101.73 101.625L100.752 103.37ZM107.98 107.291C109.176 107.92 110.385 108.545 111.606 109.167L112.513 107.384C111.3 106.767 110.099 106.145 108.91 105.521L107.98 107.291ZM115.307 111.02C116.516 111.616 117.737 112.208 118.971 112.796L119.832 110.991C118.606 110.407 117.392 109.818 116.191 109.226L115.307 111.02ZM122.697 114.545C123.324 114.835 123.954 115.123 124.587 115.411L125.413 113.589C124.784 113.304 124.158 113.017 123.535 112.729L122.697 114.545ZM124.587 115.411C125.186 115.683 125.792 115.952 126.402 116.216L127.198 114.381C126.598 114.121 126.003 113.857 125.413 113.589L124.587 115.411ZM130.126 117.759C131.364 118.25 132.622 118.726 133.897 119.188L134.578 117.307C133.321 116.852 132.082 116.383 130.862 115.9L130.126 117.759ZM137.696 120.505C138.962 120.926 140.245 121.333 141.543 121.729L142.126 119.815C140.843 119.425 139.576 119.022 138.326 118.607L137.696 120.505ZM145.39 122.852C146.68 123.212 147.983 123.562 149.299 123.9L149.797 121.963C148.494 121.628 147.204 121.282 145.929 120.926L145.39 122.852ZM153.177 124.855C154.481 125.163 155.797 125.461 157.124 125.748L157.548 123.794C156.232 123.509 154.928 123.214 153.636 122.909L153.177 124.855ZM161.032 126.561C162.341 126.821 163.66 127.073 164.988 127.315L165.347 125.347C164.029 125.107 162.721 124.858 161.423 124.599L161.032 126.561ZM168.941 128.006C170.252 128.225 171.572 128.436 172.899 128.638L173.201 126.661C171.883 126.46 170.572 126.251 169.27 126.033L168.941 128.006ZM176.888 129.22C178.202 129.403 179.522 129.578 180.848 129.746L181.099 127.762C179.781 127.595 178.469 127.421 177.164 127.239L176.888 129.22ZM184.845 130.227C186.166 130.379 187.493 130.523 188.825 130.66L189.03 128.671C187.705 128.534 186.386 128.391 185.072 128.24L184.845 130.227ZM192.816 131.051C194.147 131.174 195.482 131.29 196.821 131.4L196.985 129.407C195.652 129.297 194.324 129.182 193 129.059L192.816 131.051ZM200.809 131.709C202.141 131.806 203.478 131.897 204.817 131.981L204.943 129.985C203.61 129.901 202.28 129.811 200.953 129.714L200.809 131.709ZM208.815 132.217C210.147 132.29 211.482 132.357 212.818 132.419L212.91 130.421C211.579 130.359 210.251 130.293 208.924 130.22L208.815 132.217ZM216.828 132.588C218.161 132.638 219.495 132.684 220.83 132.725L220.891 130.725C219.561 130.685 218.232 130.64 216.904 130.589L216.828 132.588ZM224.837 132.831C226.173 132.862 227.509 132.888 228.845 132.909L228.877 130.909C227.546 130.888 226.214 130.862 224.883 130.832L224.837 132.831ZM232.852 132.959C234.188 132.97 235.523 132.978 236.857 132.981L236.861 130.981C235.532 130.978 234.201 130.971 232.87 130.959L232.852 132.959ZM240.869 132.977C242.205 132.972 243.539 132.962 244.872 132.949L244.851 130.949C243.523 130.962 242.192 130.972 240.861 130.977L240.869 132.977ZM248.88 132.895C250.219 132.873 251.555 132.848 252.889 132.818L252.844 130.819C251.515 130.848 250.182 130.874 248.847 130.895L248.88 132.895ZM256.88 132.719C258.223 132.681 259.564 132.64 260.9 132.596L260.834 130.597C259.501 130.641 258.164 130.682 256.824 130.719L256.88 132.719ZM264.897 132.453C266.236 132.401 267.571 132.346 268.901 132.288L268.814 130.29C267.487 130.348 266.156 130.402 264.82 130.454L264.897 132.453ZM272.909 132.102C274.241 132.037 275.567 131.969 276.887 131.898L276.779 129.901C275.463 129.972 274.14 130.04 272.811 130.104L272.909 132.102ZM280.912 131.672C282.246 131.594 283.574 131.513 284.893 131.429L284.767 129.433C283.45 129.516 282.126 129.597 280.795 129.675L280.912 131.672ZM288.903 131.166C290.243 131.075 291.575 130.981 292.897 130.885L292.753 128.89C291.433 128.986 290.105 129.079 288.767 129.17L288.903 131.166ZM296.881 130.587C298.229 130.483 299.566 130.377 300.892 130.27L300.73 128.276C299.407 128.384 298.072 128.49 296.727 128.593L296.881 130.587ZM304.847 129.939C306.204 129.823 307.547 129.705 308.877 129.585L308.697 127.593C307.371 127.712 306.03 127.83 304.676 127.946L304.847 129.939ZM312.822 129.222C314.182 129.093 315.526 128.964 316.853 128.833L316.657 126.843C315.333 126.973 313.992 127.102 312.634 127.23L312.822 129.222ZM320.796 128.437C322.159 128.297 323.502 128.156 324.824 128.015L324.612 126.027C323.293 126.167 321.952 126.308 320.592 126.447L320.796 128.437ZM328.753 127.588C330.124 127.436 331.47 127.284 332.788 127.132L332.56 125.145C331.244 125.296 329.901 125.448 328.533 125.6L328.753 127.588ZM336.716 126.672C338.09 126.508 339.431 126.345 340.737 126.184L340.492 124.199C339.189 124.36 337.851 124.523 336.479 124.686L336.716 126.672ZM344.708 125.686C346.061 125.513 347.37 125.342 348.633 125.176L348.371 123.193C347.111 123.359 345.805 123.529 344.455 123.702L344.708 125.686ZM352.658 124.635C354.058 124.443 355.386 124.258 356.638 124.081L356.358 122.101C355.109 122.278 353.784 122.462 352.387 122.653L352.658 124.635ZM360.601 123.51C362.082 123.292 363.409 123.093 364.574 122.915L364.272 120.937C363.111 121.115 361.787 121.314 360.31 121.531L360.601 123.51ZM368.444 122.309C369.089 122.205 369.58 122.125 369.911 122.07C370.077 122.042 370.202 122.022 370.286 122.007C370.328 122 370.36 121.995 370.382 121.991C370.392 121.99 370.4 121.988 370.406 121.987C370.408 121.987 370.411 121.986 370.412 121.986C370.413 121.986 370.413 121.986 370.414 121.986C370.414 121.986 370.414 121.986 370.414 121.986C370.414 121.986 370.414 121.986 370.414 121.986C370.414 121.986 370.414 121.986 370.414 121.986C370.414 121.986 370.414 121.986 370.246 121C370.078 120.014 370.078 120.014 370.078 120.014C370.078 120.014 370.078 120.014 370.078 120.014C370.078 120.014 370.078 120.014 370.078 120.014C370.078 120.014 370.078 120.014 370.078 120.014C370.078 120.014 370.077 120.014 370.077 120.014C370.076 120.015 370.074 120.015 370.071 120.015C370.066 120.016 370.058 120.018 370.048 120.019C370.027 120.023 369.996 120.028 369.955 120.035C369.872 120.049 369.749 120.07 369.585 120.097C369.257 120.151 368.768 120.231 368.127 120.334L368.444 122.309Z" fill="#F5D76B"/>
</svg>
