<svg width="128" height="320" viewBox="0 0 128 320" fill="none" xmlns="http://www.w3.org/2000/svg">
<mask id="mask0_588_9331" style="mask-type:alpha" maskUnits="userSpaceOnUse" x="1" y="24" width="100" height="225">
<path d="M14.1663 92.84L63.4463 70.12V249H100.566V24.36H76.2463L1.04625 60.84L14.1663 92.84Z" fill="#D7D4C8"/>
</mask>
<g mask="url(#mask0_588_9331)">
<line x1="4.43301" y1="-77.75" x2="-158.567" y2="204.574" stroke="#D7D4C8"/>
<line x1="9.62918" y1="-74.75" x2="-153.371" y2="207.574" stroke="#D7D4C8"/>
<line x1="14.8253" y1="-71.75" x2="-148.175" y2="210.574" stroke="#D7D4C8"/>
<line x1="20.0215" y1="-68.75" x2="-142.979" y2="213.574" stroke="#D7D4C8"/>
<line x1="25.2177" y1="-65.75" x2="-137.782" y2="216.574" stroke="#D7D4C8"/>
<line x1="30.4138" y1="-62.75" x2="-132.586" y2="219.574" stroke="#D7D4C8"/>
<line x1="35.61" y1="-59.75" x2="-127.39" y2="222.574" stroke="#D7D4C8"/>
<line x1="40.8062" y1="-56.75" x2="-122.194" y2="225.574" stroke="#D7D4C8"/>
<line x1="46.0023" y1="-53.7499" x2="-116.998" y2="228.574" stroke="#D7D4C8"/>
<line x1="51.1985" y1="-50.7499" x2="-111.802" y2="231.574" stroke="#D7D4C8"/>
<line x1="56.3947" y1="-47.7499" x2="-106.605" y2="234.574" stroke="#D7D4C8"/>
<line x1="61.5908" y1="-44.7499" x2="-101.409" y2="237.574" stroke="#D7D4C8"/>
<line x1="66.787" y1="-41.7499" x2="-96.213" y2="240.574" stroke="#D7D4C8"/>
<line x1="71.9832" y1="-38.7499" x2="-91.0168" y2="243.574" stroke="#D7D4C8"/>
<line x1="77.1794" y1="-35.7499" x2="-85.8207" y2="246.574" stroke="#D7D4C8"/>
<line x1="82.3755" y1="-32.7499" x2="-80.6245" y2="249.574" stroke="#D7D4C8"/>
<line x1="87.5717" y1="-29.7499" x2="-75.4284" y2="252.574" stroke="#D7D4C8"/>
<line x1="92.7678" y1="-26.7499" x2="-70.2322" y2="255.574" stroke="#D7D4C8"/>
<line x1="97.964" y1="-23.7499" x2="-65.036" y2="258.574" stroke="#D7D4C8"/>
<line x1="103.16" y1="-20.7499" x2="-59.8398" y2="261.574" stroke="#D7D4C8"/>
<line x1="108.356" y1="-17.7499" x2="-54.6437" y2="264.574" stroke="#D7D4C8"/>
<line x1="113.552" y1="-14.7499" x2="-49.4475" y2="267.574" stroke="#D7D4C8"/>
<line x1="118.749" y1="-11.7499" x2="-44.2514" y2="270.574" stroke="#D7D4C8"/>
<line x1="123.945" y1="-8.74988" x2="-39.0552" y2="273.574" stroke="#D7D4C8"/>
<line x1="129.141" y1="-5.74976" x2="-33.859" y2="276.575" stroke="#D7D4C8"/>
<line x1="134.337" y1="-2.74976" x2="-28.6629" y2="279.575" stroke="#D7D4C8"/>
<line x1="139.533" y1="0.250244" x2="-23.4667" y2="282.575" stroke="#D7D4C8"/>
<line x1="144.729" y1="3.25024" x2="-18.2705" y2="285.575" stroke="#D7D4C8"/>
<line x1="149.926" y1="6.25024" x2="-13.0744" y2="288.575" stroke="#D7D4C8"/>
<line x1="155.122" y1="9.25024" x2="-7.87821" y2="291.575" stroke="#D7D4C8"/>
<line x1="160.318" y1="12.2502" x2="-2.68204" y2="294.575" stroke="#D7D4C8"/>
<line x1="165.514" y1="15.2502" x2="2.51412" y2="297.575" stroke="#D7D4C8"/>
<line x1="170.71" y1="18.2502" x2="7.71029" y2="300.575" stroke="#D7D4C8"/>
<line x1="175.906" y1="21.2502" x2="12.9065" y2="303.575" stroke="#D7D4C8"/>
<line x1="181.103" y1="24.2502" x2="18.1026" y2="306.575" stroke="#D7D4C8"/>
<line x1="186.299" y1="27.2502" x2="23.2988" y2="309.575" stroke="#D7D4C8"/>
<line x1="191.495" y1="30.2502" x2="28.495" y2="312.575" stroke="#D7D4C8"/>
<line x1="196.691" y1="33.2502" x2="33.6911" y2="315.575" stroke="#D7D4C8"/>
<line x1="201.887" y1="36.2502" x2="38.8873" y2="318.575" stroke="#D7D4C8"/>
<line x1="207.083" y1="39.2502" x2="44.0834" y2="321.575" stroke="#D7D4C8"/>
<line x1="212.28" y1="42.2502" x2="49.2796" y2="324.575" stroke="#D7D4C8"/>
<line x1="217.476" y1="45.2504" x2="54.4758" y2="327.575" stroke="#D7D4C8"/>
<line x1="222.672" y1="48.2504" x2="59.6719" y2="330.575" stroke="#D7D4C8"/>
<line x1="227.868" y1="51.2504" x2="64.8681" y2="333.575" stroke="#D7D4C8"/>
<line x1="233.064" y1="54.2504" x2="70.0642" y2="336.575" stroke="#D7D4C8"/>
<line x1="238.26" y1="57.2504" x2="75.2604" y2="339.575" stroke="#D7D4C8"/>
<line x1="243.457" y1="60.2504" x2="80.4566" y2="342.575" stroke="#D7D4C8"/>
<line x1="248.653" y1="63.2504" x2="85.6527" y2="345.575" stroke="#D7D4C8"/>
<line x1="253.849" y1="66.2504" x2="90.8489" y2="348.575" stroke="#D7D4C8"/>
<line x1="259.045" y1="69.2504" x2="96.045" y2="351.575" stroke="#D7D4C8"/>
</g>
<path d="M14.1663 92.84L13.241 93.2193L13.637 94.1852L14.5849 93.7481L14.1663 92.84ZM63.4463 70.12H64.4463V68.5578L63.0276 69.2119L63.4463 70.12ZM63.4463 249H62.4463V250H63.4463V249ZM100.566 249V250H101.566V249H100.566ZM100.566 24.36H101.566V23.36H100.566V24.36ZM76.2463 24.36V23.36H76.0165L75.8098 23.4603L76.2463 24.36ZM1.04625 60.84L0.609789 59.9403L-0.235334 60.3503L0.120998 61.2194L1.04625 60.84ZM14.5849 93.7481L63.8649 71.0281L63.0276 69.2119L13.7476 91.9319L14.5849 93.7481ZM62.4463 70.12V249H64.4463V70.12H62.4463ZM63.4463 250H100.566V248H63.4463V250ZM101.566 249V24.36H99.5663V249H101.566ZM100.566 23.36H76.2463V25.36H100.566V23.36ZM75.8098 23.4603L0.609789 59.9403L1.48271 61.7397L76.6827 25.2597L75.8098 23.4603ZM0.120998 61.2194L13.241 93.2193L15.0915 92.4606L1.9715 60.4606L0.120998 61.2194Z" fill="#D7D4C8"/>
</svg>
