<svg width="214" height="320" viewBox="0 0 214 320" fill="none" xmlns="http://www.w3.org/2000/svg">
<mask id="mask0_588_9448" style="mask-type:alpha" maskUnits="userSpaceOnUse" x="5" y="25" width="204" height="224">
<path d="M170.045 249V206.44H208.125V172.2H170.045V25H138.045L5.885 181.48V206.44H132.605V249H170.045ZM132.605 86.12V172.2H57.085L132.605 86.12Z" fill="#D7D4C8"/>
</mask>
<g mask="url(#mask0_588_9448)">
<line x1="47.433" y1="-77.75" x2="-115.567" y2="204.574" stroke="#D7D4C8"/>
<line x1="52.6292" y1="-74.75" x2="-110.371" y2="207.574" stroke="#D7D4C8"/>
<line x1="57.8253" y1="-71.75" x2="-105.175" y2="210.574" stroke="#D7D4C8"/>
<line x1="63.0215" y1="-68.75" x2="-99.9785" y2="213.574" stroke="#D7D4C8"/>
<line x1="68.2177" y1="-65.7499" x2="-94.7823" y2="216.574" stroke="#D7D4C8"/>
<line x1="73.4138" y1="-62.7499" x2="-89.5862" y2="219.574" stroke="#D7D4C8"/>
<line x1="78.61" y1="-59.7499" x2="-84.39" y2="222.574" stroke="#D7D4C8"/>
<line x1="83.8062" y1="-56.7499" x2="-79.1938" y2="225.574" stroke="#D7D4C8"/>
<line x1="89.0023" y1="-53.7499" x2="-73.9977" y2="228.574" stroke="#D7D4C8"/>
<line x1="94.1985" y1="-50.7499" x2="-68.8015" y2="231.574" stroke="#D7D4C8"/>
<line x1="99.3947" y1="-47.7499" x2="-63.6053" y2="234.574" stroke="#D7D4C8"/>
<line x1="104.591" y1="-44.7499" x2="-58.4092" y2="237.574" stroke="#D7D4C8"/>
<line x1="109.787" y1="-41.7499" x2="-53.213" y2="240.574" stroke="#D7D4C8"/>
<line x1="114.983" y1="-38.7499" x2="-48.0168" y2="243.574" stroke="#D7D4C8"/>
<line x1="120.179" y1="-35.7499" x2="-42.8207" y2="246.574" stroke="#D7D4C8"/>
<line x1="125.376" y1="-32.7499" x2="-37.6245" y2="249.574" stroke="#D7D4C8"/>
<line x1="130.572" y1="-29.7499" x2="-32.4284" y2="252.574" stroke="#D7D4C8"/>
<line x1="135.768" y1="-26.7499" x2="-27.2322" y2="255.574" stroke="#D7D4C8"/>
<line x1="140.964" y1="-23.7499" x2="-22.036" y2="258.574" stroke="#D7D4C8"/>
<line x1="146.16" y1="-20.7499" x2="-16.8399" y2="261.574" stroke="#D7D4C8"/>
<line x1="151.356" y1="-17.7498" x2="-11.6437" y2="264.574" stroke="#D7D4C8"/>
<line x1="156.552" y1="-14.7498" x2="-6.44753" y2="267.574" stroke="#D7D4C8"/>
<line x1="161.749" y1="-11.7498" x2="-1.25136" y2="270.574" stroke="#D7D4C8"/>
<line x1="166.945" y1="-8.74982" x2="3.9448" y2="273.574" stroke="#D7D4C8"/>
<line x1="172.141" y1="-5.74982" x2="9.14097" y2="276.574" stroke="#D7D4C8"/>
<line x1="177.337" y1="-2.74982" x2="14.3371" y2="279.574" stroke="#D7D4C8"/>
<line x1="182.533" y1="0.250183" x2="19.5333" y2="282.574" stroke="#D7D4C8"/>
<line x1="187.729" y1="3.25018" x2="24.7295" y2="285.574" stroke="#D7D4C8"/>
<line x1="192.926" y1="6.25024" x2="29.9256" y2="288.575" stroke="#D7D4C8"/>
<line x1="198.122" y1="9.25024" x2="35.1218" y2="291.575" stroke="#D7D4C8"/>
<line x1="203.318" y1="12.2502" x2="40.318" y2="294.575" stroke="#D7D4C8"/>
<line x1="208.514" y1="15.2502" x2="45.5141" y2="297.575" stroke="#D7D4C8"/>
<line x1="213.71" y1="18.2502" x2="50.7103" y2="300.575" stroke="#D7D4C8"/>
<line x1="218.906" y1="21.2502" x2="55.9064" y2="303.575" stroke="#D7D4C8"/>
<line x1="224.103" y1="24.2502" x2="61.1026" y2="306.575" stroke="#D7D4C8"/>
<line x1="229.299" y1="27.2502" x2="66.2988" y2="309.575" stroke="#D7D4C8"/>
<line x1="234.495" y1="30.2502" x2="71.4949" y2="312.575" stroke="#D7D4C8"/>
<line x1="239.691" y1="33.2503" x2="76.6911" y2="315.575" stroke="#D7D4C8"/>
<line x1="244.887" y1="36.2503" x2="81.8873" y2="318.575" stroke="#D7D4C8"/>
<line x1="250.083" y1="39.2503" x2="87.0834" y2="321.575" stroke="#D7D4C8"/>
<line x1="255.28" y1="42.2503" x2="92.2796" y2="324.575" stroke="#D7D4C8"/>
<line x1="260.476" y1="45.2503" x2="97.4758" y2="327.575" stroke="#D7D4C8"/>
<line x1="265.672" y1="48.2503" x2="102.672" y2="330.575" stroke="#D7D4C8"/>
<line x1="270.868" y1="51.2503" x2="107.868" y2="333.575" stroke="#D7D4C8"/>
<line x1="276.064" y1="54.2503" x2="113.064" y2="336.575" stroke="#D7D4C8"/>
<line x1="281.26" y1="57.2503" x2="118.26" y2="339.575" stroke="#D7D4C8"/>
<line x1="286.457" y1="60.2503" x2="123.457" y2="342.575" stroke="#D7D4C8"/>
<line x1="291.653" y1="63.2503" x2="128.653" y2="345.575" stroke="#D7D4C8"/>
<line x1="296.849" y1="66.2503" x2="133.849" y2="348.575" stroke="#D7D4C8"/>
<line x1="302.045" y1="69.2503" x2="139.045" y2="351.575" stroke="#D7D4C8"/>
<line x1="307.241" y1="72.2503" x2="144.241" y2="354.575" stroke="#D7D4C8"/>
<line x1="312.437" y1="75.2503" x2="149.437" y2="357.575" stroke="#D7D4C8"/>
<line x1="317.634" y1="78.2503" x2="154.633" y2="360.575" stroke="#D7D4C8"/>
</g>
<path d="M170.045 249V250H171.045V249H170.045ZM170.045 206.44V205.44H169.045V206.44H170.045ZM208.125 206.44V207.44H209.125V206.44H208.125ZM208.125 172.2H209.125V171.2H208.125V172.2ZM170.045 172.2H169.045V173.2H170.045V172.2ZM170.045 25H171.045V24H170.045V25ZM138.045 25V24H137.581L137.281 24.3547L138.045 25ZM5.885 181.48L5.12102 180.835L4.885 181.114V181.48H5.885ZM5.885 206.44H4.885V207.44H5.885V206.44ZM132.605 206.44H133.605V205.44H132.605V206.44ZM132.605 249H131.605V250H132.605V249ZM132.605 86.12H133.605V83.4639L131.853 85.4605L132.605 86.12ZM132.605 172.2V173.2H133.605V172.2H132.605ZM57.085 172.2L56.3333 171.54L54.8774 173.2H57.085V172.2ZM171.045 249V206.44H169.045V249H171.045ZM170.045 207.44H208.125V205.44H170.045V207.44ZM209.125 206.44V172.2H207.125V206.44H209.125ZM208.125 171.2H170.045V173.2H208.125V171.2ZM171.045 172.2V25H169.045V172.2H171.045ZM170.045 24H138.045V26H170.045V24ZM137.281 24.3547L5.12102 180.835L6.64898 182.125L138.809 25.6452L137.281 24.3547ZM4.885 181.48V206.44H6.885V181.48H4.885ZM5.885 207.44H132.605V205.44H5.885V207.44ZM131.605 206.44V249H133.605V206.44H131.605ZM132.605 250H170.045V248H132.605V250ZM131.605 86.12V172.2H133.605V86.12H131.605ZM132.605 171.2H57.085V173.2H132.605V171.2ZM57.8367 172.859L133.357 86.7795L131.853 85.4605L56.3333 171.54L57.8367 172.859Z" fill="#D7D4C8"/>
</svg>
