<svg width="77" height="90" viewBox="0 0 77 90" fill="none" xmlns="http://www.w3.org/2000/svg">
<g clip-path="url(#clip0_2435_20110)">
<path d="M41.5326 74.4929C34.7826 74.4929 29.5979 72.53 25.8805 69.3893C22.2609 66.2486 20.0109 61.8321 19.2283 56.7285C20.1087 53.7841 22.6522 50.9378 27.0544 47.8953C31.4566 44.9509 35.9566 43.5769 40.9457 43.5769C47.1087 43.5769 51.8044 44.9509 54.9348 47.6009C57.9674 50.1527 59.6305 53.9804 59.6305 59.084C59.6305 68.1134 51.8044 74.4929 41.5326 74.4929ZM66.7718 36.9029C61.0979 31.7993 52.7826 28.9531 42.5109 28.9531C32.4348 28.9531 22.5544 33.8604 16.8805 41.3195C16.9783 33.3697 19.5218 27.1865 24.2174 22.7699C29.2066 18.0589 35.2718 15.7034 42.6087 15.7034C50.2392 15.7034 56.8913 18.157 62.3696 22.868L62.6631 23.1625L62.8587 22.868L71.0761 12.4646L71.2718 12.1701L71.0761 11.7775C64.0326 4.22028 54.6413 0.490723 42.9022 0.490723C30.7718 0.490723 20.8913 4.61286 13.0653 12.6608C5.23917 20.7088 1.42395 32.3882 1.42395 47.4046C1.42395 60.7524 5.04352 71.1559 12.1848 78.5169C19.2283 85.8779 28.9131 89.6074 40.8479 89.6074C51.0218 89.6074 59.2392 86.7612 65.8913 80.8724C72.3479 74.9836 75.5761 67.5245 75.5761 58.2988C75.5761 49.3675 72.5435 42.0065 66.7718 36.9029Z" fill="url(#paint0_linear_2435_20110)"/>
<path d="M41.5326 74.4929C34.7826 74.4929 29.5979 72.53 25.8805 69.3893C22.2609 66.2486 20.0109 61.8321 19.2283 56.7285C20.1087 53.7841 22.6522 50.9378 27.0544 47.8953C31.4566 44.9509 35.9566 43.5769 40.9457 43.5769C47.1087 43.5769 51.8044 44.9509 54.9348 47.6009C57.9674 50.1527 59.6305 53.9804 59.6305 59.084C59.6305 68.1134 51.8044 74.4929 41.5326 74.4929ZM66.7718 36.9029C61.0979 31.7993 52.7826 28.9531 42.5109 28.9531C32.4348 28.9531 22.5544 33.8604 16.8805 41.3195C16.9783 33.3697 19.5218 27.1865 24.2174 22.7699C29.2066 18.0589 35.2718 15.7034 42.6087 15.7034C50.2392 15.7034 56.8913 18.157 62.3696 22.868L62.6631 23.1625L62.8587 22.868L71.0761 12.4646L71.2718 12.1701L71.0761 11.7775C64.0326 4.22028 54.6413 0.490723 42.9022 0.490723C30.7718 0.490723 20.8913 4.61286 13.0653 12.6608C5.23917 20.7088 1.42395 32.3882 1.42395 47.4046C1.42395 60.7524 5.04352 71.1559 12.1848 78.5169C19.2283 85.8779 28.9131 89.6074 40.8479 89.6074C51.0218 89.6074 59.2392 86.7612 65.8913 80.8724C72.3479 74.9836 75.5761 67.5245 75.5761 58.2988C75.5761 49.3675 72.5435 42.0065 66.7718 36.9029Z" stroke="#ECBB7C" stroke-miterlimit="10"/>
</g>
<defs>
<linearGradient id="paint0_linear_2435_20110" x1="10.033" y1="76.3272" x2="72.9391" y2="13.6262" gradientUnits="userSpaceOnUse">
<stop stop-color="#ECBB7C"/>
<stop offset="0.5" stop-color="#F6DFC2"/>
<stop offset="1" stop-color="#ECBB7C"/>
</linearGradient>
<clipPath id="clip0_2435_20110">
<rect width="75.1304" height="90" fill="white" transform="translate(0.934814)"/>
</clipPath>
</defs>
</svg>
